<?xml version="1.0" encoding="UTF-8" standalone="no"?><!DOCTYPE svg PUBLIC "-//W3C//DTD SVG 1.1//EN" "http://www.w3.org/Graphics/SVG/1.1/DTD/svg11.dtd"><svg width="100%" height="100%" viewBox="0 0 11 11" version="1.1" xmlns="http://www.w3.org/2000/svg" xmlns:xlink="http://www.w3.org/1999/xlink" xml:space="preserve" xmlns:serif="http://www.serif.com/" style="fill-rule:evenodd;clip-rule:evenodd;stroke-miterlimit:3;"><rect id="clock6_2" x="0.108" y="0.199" width="10.56" height="10.56" style="fill:none;"/><path d="M7.475,9.121l-2.118,-3.669l2.227,-3.732c0.655,0.365 1.196,0.897 1.568,1.541c1.17,2.026 0.419,4.65 -1.677,5.86Z" style="fill:#00ff26;"/><g><g><path d="M7.489,1.839c2.009,1.16 2.698,3.733 1.539,5.742c-1.16,2.009 -3.733,2.698 -5.742,1.538c-2.009,-1.16 -2.698,-3.732 -1.538,-5.741c1.16,-2.009 3.732,-2.698 5.741,-1.539Z" style="fill:none;stroke:#003107;stroke-width:0.55px;"/></g><g><path d="M7.448,1.912l-4.12,7.135" style="fill:none;stroke:#003107;stroke-width:0.55px;"/></g><g><path d="M9.507,5.479l-8.239,0" style="fill:none;stroke:#003107;stroke-width:0.55px;"/></g><g><path d="M3.328,1.912l4.12,7.135" style="fill:none;stroke:#003107;stroke-width:0.55px;"/></g></g></svg>