<?xml version="1.0" encoding="UTF-8" standalone="no"?><!DOCTYPE svg PUBLIC "-//W3C//DTD SVG 1.1//EN" "http://www.w3.org/Graphics/SVG/1.1/DTD/svg11.dtd"><svg width="100%" height="100%" viewBox="0 0 11 11" version="1.1" xmlns="http://www.w3.org/2000/svg" xmlns:xlink="http://www.w3.org/1999/xlink" xml:space="preserve" xmlns:serif="http://www.serif.com/" style="fill-rule:evenodd;clip-rule:evenodd;stroke-miterlimit:3;"><rect id="clock6_3" x="0.064" y="0.199" width="10.56" height="10.56" style="fill:none;"/><path d="M3.237,9.104l2.119,-3.669l2.118,-3.67c2.096,1.21 2.847,3.834 1.677,5.861c-1.17,2.026 -3.818,2.688 -5.914,1.478Z" style="fill:#00ff26;"/><g><g><path d="M7.445,1.839c2.009,1.16 2.699,3.733 1.539,5.742c-1.16,2.009 -3.733,2.698 -5.742,1.538c-2.008,-1.16 -2.698,-3.732 -1.538,-5.741c1.16,-2.009 3.733,-2.698 5.741,-1.539Z" style="fill:none;stroke:#003107;stroke-width:0.55px;"/></g><g><path d="M7.404,1.912l-4.12,7.135" style="fill:none;stroke:#003107;stroke-width:0.55px;"/></g><g><path d="M9.464,5.479l-8.24,0" style="fill:none;stroke:#003107;stroke-width:0.55px;"/></g><g><path d="M3.284,1.912l4.12,7.135" style="fill:none;stroke:#003107;stroke-width:0.55px;"/></g></g></svg>