<?xml version="1.0" encoding="UTF-8" standalone="no"?><!DOCTYPE svg PUBLIC "-//W3C//DTD SVG 1.1//EN" "http://www.w3.org/Graphics/SVG/1.1/DTD/svg11.dtd"><svg width="100%" height="100%" viewBox="0 0 11 11" version="1.1" xmlns="http://www.w3.org/2000/svg" xmlns:xlink="http://www.w3.org/1999/xlink" xml:space="preserve" xmlns:serif="http://www.serif.com/" style="fill-rule:evenodd;clip-rule:evenodd;stroke-miterlimit:3;"><rect id="clock6_4" x="0.081" y="0.199" width="10.56" height="10.56" style="fill:none;"/><path d="M1.249,5.495l4.119,-0l2.059,-3.617c1.275,0.746 2.06,2.125 2.06,3.617c-0,2.305 -1.846,4.176 -4.119,4.176c-2.275,0 -4.119,-1.87 -4.119,-4.176Z" style="fill:#00ff26;"/><g><g><path d="M7.462,1.839c2.009,1.16 2.698,3.733 1.539,5.742c-1.16,2.009 -3.733,2.698 -5.742,1.538c-2.009,-1.16 -2.698,-3.732 -1.538,-5.741c1.16,-2.009 3.732,-2.698 5.741,-1.539Z" style="fill:none;stroke:#003107;stroke-width:0.55px;"/></g><g><path d="M7.42,1.912l-4.119,7.135" style="fill:none;stroke:#003107;stroke-width:0.55px;"/></g><g><path d="M9.48,5.479l-8.239,0" style="fill:none;stroke:#003107;stroke-width:0.55px;"/></g><g><path d="M3.301,1.912l4.119,7.135" style="fill:none;stroke:#003107;stroke-width:0.55px;"/></g></g></svg>