<?xml version="1.0" encoding="UTF-8" standalone="no"?><!DOCTYPE svg PUBLIC "-//W3C//DTD SVG 1.1//EN" "http://www.w3.org/Graphics/SVG/1.1/DTD/svg11.dtd"><svg width="100%" height="100%" viewBox="0 0 11 11" version="1.1" xmlns="http://www.w3.org/2000/svg" xmlns:xlink="http://www.w3.org/1999/xlink" xml:space="preserve" xmlns:serif="http://www.serif.com/" style="fill-rule:evenodd;clip-rule:evenodd;stroke-linecap:round;stroke-linejoin:round;stroke-miterlimit:1.5;"><rect id="dF" x="0.085" y="-0" width="10.56" height="10.56" style="fill:none;"/><path d="M9.794,3.108l0,4.441c0,1.226 -0.995,2.221 -2.22,2.221l-4.441,-0c-1.226,-0 -2.221,-0.995 -2.221,-2.221l-0,-4.441c-0,-1.225 0.995,-2.22 2.221,-2.22l4.441,-0c1.225,-0 2.22,0.995 2.22,2.22Z" style="fill:#ff8000;stroke:#d36a00;stroke-width:0.4px;"/><g><path d="M4.601,3.336l0.509,-0l0,3.888l-1.082,0c-0.379,0 -0.681,-0.12 -0.906,-0.359c-0.226,-0.239 -0.338,-0.56 -0.338,-0.963c-0,-0.377 0.118,-0.686 0.354,-0.93c0.237,-0.243 0.539,-0.364 0.906,-0.364c0.171,-0 0.357,0.036 0.557,0.108l0,-1.38Zm0,3.454l0,-1.623c-0.158,-0.08 -0.317,-0.119 -0.479,-0.119c-0.252,-0 -0.453,0.082 -0.602,0.247c-0.15,0.165 -0.224,0.388 -0.224,0.668c-0,0.264 0.065,0.467 0.195,0.61c0.077,0.085 0.16,0.143 0.247,0.172c0.087,0.03 0.244,0.045 0.471,0.045l0.392,-0Z"/><path d="M5.873,3.336l2.073,-0l0,0.495l-1.516,0l-0,1.086l1.516,-0l0,0.495l-1.516,0l-0,1.812l-0.557,0l-0,-3.888Z"/></g></svg>