<?xml version="1.0" encoding="UTF-8" standalone="no"?><!DOCTYPE svg PUBLIC "-//W3C//DTD SVG 1.1//EN" "http://www.w3.org/Graphics/SVG/1.1/DTD/svg11.dtd"><svg width="100%" height="100%" viewBox="0 0 11 11" version="1.1" xmlns="http://www.w3.org/2000/svg" xmlns:xlink="http://www.w3.org/1999/xlink" xml:space="preserve" xmlns:serif="http://www.serif.com/" style="fill-rule:evenodd;clip-rule:evenodd;stroke-linecap:round;stroke-linejoin:round;stroke-miterlimit:1.5;"><rect id="dF" x="0.01" y="-0" width="10.56" height="10.56" style="fill:none;"/><g><path d="M9.719,3.108l0,4.441c0,1.226 -0.995,2.221 -2.22,2.221l-4.441,-0c-1.226,-0 -2.221,-0.995 -2.221,-2.221l-0,-4.441c-0,-1.225 0.995,-2.22 2.221,-2.22l4.441,-0c1.225,-0 2.22,0.995 2.22,2.22Z" style="fill:#1b75bc;stroke:#0a62a8;stroke-width:0.4px;"/></g><g><path d="M4.942,7.332l0,-4.161l-0.866,-0l-0,1.505c-0.103,-0.122 -0.229,-0.228 -0.379,-0.319c-0.15,-0.092 -0.341,-0.137 -0.573,-0.137c-0.182,-0 -0.357,0.034 -0.524,0.102c-0.168,0.069 -0.315,0.17 -0.442,0.305c-0.127,0.135 -0.23,0.301 -0.308,0.496c-0.078,0.196 -0.117,0.421 -0.117,0.676l0,0.011c0,0.255 0.039,0.48 0.117,0.676c0.078,0.195 0.182,0.361 0.311,0.495c0.129,0.135 0.277,0.237 0.444,0.305c0.168,0.069 0.34,0.103 0.519,0.103c0.228,-0 0.417,-0.047 0.567,-0.14c0.15,-0.093 0.279,-0.212 0.385,-0.356l-0,0.439l0.866,-0Zm-0.855,-1.522c0,0.125 -0.02,0.24 -0.06,0.345c-0.039,0.104 -0.093,0.194 -0.159,0.268c-0.067,0.074 -0.145,0.131 -0.234,0.171c-0.089,0.04 -0.185,0.06 -0.288,0.06c-0.102,-0 -0.198,-0.02 -0.288,-0.06c-0.089,-0.04 -0.168,-0.097 -0.236,-0.171c-0.068,-0.074 -0.123,-0.164 -0.163,-0.268c-0.039,-0.105 -0.059,-0.22 -0.059,-0.345l-0,-0.011c-0,-0.13 0.02,-0.245 0.059,-0.348c0.04,-0.103 0.095,-0.191 0.163,-0.265c0.068,-0.074 0.147,-0.131 0.236,-0.171c0.09,-0.04 0.186,-0.06 0.288,-0.06c0.103,0 0.199,0.02 0.288,0.06c0.089,0.04 0.167,0.097 0.234,0.171c0.066,0.074 0.12,0.163 0.159,0.268c0.04,0.104 0.06,0.219 0.06,0.345l0,0.011Z" style="fill:#fff;fill-rule:nonzero;"/><path d="M8.847,4.14l-0,-0.798l-3.038,-0l-0,3.99l0.878,-0l-0,-1.545l1.903,0l0,-0.798l-1.903,0l-0,-0.849l2.16,-0Z" style="fill:#fff;fill-rule:nonzero;"/></g></svg>