<?xml version="1.0" encoding="UTF-8" standalone="no"?><!DOCTYPE svg PUBLIC "-//W3C//DTD SVG 1.1//EN" "http://www.w3.org/Graphics/SVG/1.1/DTD/svg11.dtd"><svg width="100%" height="100%" viewBox="0 0 11 11" version="1.1" xmlns="http://www.w3.org/2000/svg" xmlns:xlink="http://www.w3.org/1999/xlink" xml:space="preserve" xmlns:serif="http://www.serif.com/" style="fill-rule:evenodd;clip-rule:evenodd;stroke-linecap:round;stroke-linejoin:round;stroke-miterlimit:1.5;"><rect id="dF_plus" x="0.19" y="0.025" width="10.56" height="10.56" style="fill:none;"/><g><path d="M9.912,3.084l-0,4.441c-0,1.226 -0.995,2.221 -2.221,2.221l-4.441,-0c-1.226,-0 -2.221,-0.995 -2.221,-2.221l0,-4.441c0,-1.226 0.995,-2.221 2.221,-2.221l4.441,0c1.226,0 2.221,0.995 2.221,2.221Z" style="fill:#1b75bc;stroke:#0a62a8;stroke-width:0.4px;"/></g><path d="M5.066,4.911l-1.032,0l0,0.787l1.032,-0l-0,1.026l0.809,-0l0,-1.026l1.032,-0l-0,-0.787l-1.032,0l0,-1.026l-0.809,0l-0,1.026Z" style="fill:#fff;fill-rule:nonzero;"/></svg>