<?xml version="1.0" encoding="UTF-8" standalone="no"?><!DOCTYPE svg PUBLIC "-//W3C//DTD SVG 1.1//EN" "http://www.w3.org/Graphics/SVG/1.1/DTD/svg11.dtd"><svg width="100%" height="100%" viewBox="0 0 11 11" version="1.1" xmlns="http://www.w3.org/2000/svg" xmlns:xlink="http://www.w3.org/1999/xlink" xml:space="preserve" xmlns:serif="http://www.serif.com/" style="fill-rule:evenodd;clip-rule:evenodd;stroke-linecap:round;stroke-miterlimit:3;"><rect id="coriolis_1" x="0.01" y="0.227" width="10.56" height="10.56" style="fill:none;"/><g><path d="M10.09,3.107l0,4.8c0,1.324 -1.075,2.4 -2.4,2.4l-4.8,-0c-1.325,-0 -2.4,-1.076 -2.4,-2.4l0,-4.8c0,-1.325 1.075,-2.4 2.4,-2.4l4.8,-0c1.325,-0 2.4,1.075 2.4,2.4Z" style="fill:#222;"/><path d="M9.117,3.528l-0,3.845c-0,1.061 -0.862,1.923 -1.923,1.923l-3.845,-0c-1.061,-0 -1.922,-0.862 -1.922,-1.923l-0,-3.845c-0,-1.061 0.861,-1.923 1.922,-1.923l3.845,0c1.061,0 1.923,0.862 1.923,1.923Z" style="fill:#353535;"/></g><g><path d="M5.29,1.889l3.199,3.618l-3.199,3.617l-3.199,-3.617l3.199,-3.618Z" style="fill:none;stroke:#676767;stroke-width:0.25px;"/></g><path d="M6.049,6.839l-0,0.432l-1.518,-0l0,-0.432l0.516,0l0,-2.674l-0.516,0l0,-0.422l1.032,0l-0,3.096l0.486,0Z" style="fill:#fff;fill-rule:nonzero;"/></svg>