<?xml version="1.0" encoding="UTF-8" standalone="no"?><!DOCTYPE svg PUBLIC "-//W3C//DTD SVG 1.1//EN" "http://www.w3.org/Graphics/SVG/1.1/DTD/svg11.dtd"><svg width="100%" height="100%" viewBox="0 0 11 11" version="1.1" xmlns="http://www.w3.org/2000/svg" xmlns:xlink="http://www.w3.org/1999/xlink" xml:space="preserve" xmlns:serif="http://www.serif.com/" style="fill-rule:evenodd;clip-rule:evenodd;stroke-linecap:round;stroke-miterlimit:3;"><rect id="coriolis_2" x="0.046" y="0.227" width="10.56" height="10.56" style="fill:none;"/><g><path d="M10.126,3.107l-0,4.8c-0,1.324 -1.075,2.4 -2.4,2.4l-4.8,-0c-1.325,-0 -2.4,-1.076 -2.4,-2.4l-0,-4.8c-0,-1.325 1.075,-2.4 2.4,-2.4l4.8,-0c1.325,-0 2.4,1.075 2.4,2.4Z" style="fill:#222;"/><path d="M9.153,3.528l-0,3.845c-0,1.061 -0.862,1.923 -1.923,1.923l-3.845,-0c-1.061,-0 -1.923,-0.862 -1.923,-1.923l0,-3.845c0,-1.061 0.862,-1.923 1.923,-1.923l3.845,0c1.061,0 1.923,0.862 1.923,1.923Z" style="fill:#353535;"/></g><g><path d="M5.326,1.889l3.199,3.618l-3.199,3.617l-3.199,-3.617l3.199,-3.618Z" style="fill:none;stroke:#676767;stroke-width:0.25px;"/></g><path d="M6.513,4.672c0,0.199 -0.053,0.372 -0.16,0.521c-0.107,0.148 -0.297,0.317 -0.57,0.506l-0.239,0.169c-0.198,0.14 -0.35,0.254 -0.457,0.342c-0.107,0.087 -0.199,0.184 -0.276,0.291c-0.076,0.106 -0.128,0.225 -0.157,0.356l1.413,-0l0.023,-0.818l0.453,-0l-0.03,1.263l-2.404,0c0.003,-0.287 0.056,-0.537 0.158,-0.749c0.102,-0.211 0.224,-0.386 0.365,-0.523c0.141,-0.138 0.311,-0.277 0.508,-0.418l0.372,-0.265c0.171,-0.117 0.29,-0.224 0.358,-0.322c0.069,-0.097 0.103,-0.209 0.103,-0.334c-0,-0.176 -0.055,-0.314 -0.164,-0.413c-0.108,-0.1 -0.258,-0.149 -0.449,-0.149c-0.246,-0 -0.417,0.068 -0.514,0.204c-0.096,0.136 -0.144,0.347 -0.144,0.632l-0,0.12l-0.496,-0l-0,-0.136c-0,-0.377 0.088,-0.67 0.264,-0.881c0.106,-0.122 0.233,-0.212 0.379,-0.27c0.146,-0.058 0.321,-0.086 0.526,-0.086c0.252,-0 0.463,0.044 0.633,0.134c0.169,0.09 0.296,0.208 0.38,0.353c0.084,0.145 0.125,0.303 0.125,0.473Z" style="fill:#fff;fill-rule:nonzero;"/></svg>