<?xml version="1.0" encoding="UTF-8" standalone="no"?><!DOCTYPE svg PUBLIC "-//W3C//DTD SVG 1.1//EN" "http://www.w3.org/Graphics/SVG/1.1/DTD/svg11.dtd"><svg width="100%" height="100%" viewBox="0 0 11 11" version="1.1" xmlns="http://www.w3.org/2000/svg" xmlns:xlink="http://www.w3.org/1999/xlink" xml:space="preserve" xmlns:serif="http://www.serif.com/" style="fill-rule:evenodd;clip-rule:evenodd;stroke-linecap:round;stroke-miterlimit:3;"><rect id="coriolis_4" x="0.116" y="0.227" width="10.56" height="10.56" style="fill:none;"/><g><path d="M10.196,3.107l-0,4.8c-0,1.324 -1.076,2.4 -2.4,2.4l-4.8,-0c-1.325,-0 -2.4,-1.076 -2.4,-2.4l-0,-4.8c-0,-1.325 1.075,-2.4 2.4,-2.4l4.8,-0c1.324,-0 2.4,1.075 2.4,2.4Z" style="fill:#222;"/><path d="M9.223,3.528l-0,3.845c-0,1.061 -0.862,1.923 -1.923,1.923l-3.845,-0c-1.061,-0 -1.923,-0.862 -1.923,-1.923l0,-3.845c0,-1.061 0.862,-1.923 1.923,-1.923l3.845,0c1.061,0 1.923,0.862 1.923,1.923Z" style="fill:#353535;"/></g><g><path d="M5.396,1.889l3.199,3.618l-3.199,3.617l-3.2,-3.617l3.2,-3.618Z" style="fill:none;stroke:#676767;stroke-width:0.25px;"/></g><path d="M6.414,5.91l-0,0.427l-0.598,-0l-0,0.52l0.344,-0l-0,0.431l-1.241,0l-0,-0.431l0.398,-0l0,-0.52l-1.261,-0c-0.048,-0.157 -0.13,-0.289 -0.246,-0.397l1.567,-2.214l0.439,-0l-0,2.184l0.598,-0Zm-1.097,-0l0,-1.392l-0.987,1.392l0.987,-0Z" style="fill:#fff;fill-rule:nonzero;"/></svg>