<?xml version="1.0" encoding="UTF-8" standalone="no"?><!DOCTYPE svg PUBLIC "-//W3C//DTD SVG 1.1//EN" "http://www.w3.org/Graphics/SVG/1.1/DTD/svg11.dtd"><svg width="100%" height="100%" viewBox="0 0 11 11" version="1.1" xmlns="http://www.w3.org/2000/svg" xmlns:xlink="http://www.w3.org/1999/xlink" xml:space="preserve" xmlns:serif="http://www.serif.com/" style="fill-rule:evenodd;clip-rule:evenodd;stroke-linecap:round;stroke-miterlimit:3;"><rect id="coriolis_3" x="0.04" y="0.227" width="10.56" height="10.56" style="fill:none;"/><g><path d="M10.12,3.107l-0,4.8c-0,1.324 -1.076,2.4 -2.4,2.4l-4.8,-0c-1.325,-0 -2.4,-1.076 -2.4,-2.4l-0,-4.8c-0,-1.325 1.075,-2.4 2.4,-2.4l4.8,-0c1.324,-0 2.4,1.075 2.4,2.4Z" style="fill:#222;"/><path d="M9.147,3.528l-0,3.845c-0,1.061 -0.862,1.923 -1.923,1.923l-3.845,-0c-1.061,-0 -1.923,-0.862 -1.923,-1.923l0,-3.845c0,-1.061 0.862,-1.923 1.923,-1.923l3.845,0c1.061,0 1.923,0.862 1.923,1.923Z" style="fill:#353535;"/></g><g><path d="M5.32,1.889l3.199,3.618l-3.199,3.617l-3.199,-3.617l3.199,-3.618Z" style="fill:none;stroke:#676767;stroke-width:0.25px;"/></g><path d="M6.441,4.617c0,0.196 -0.053,0.361 -0.16,0.495c-0.108,0.134 -0.231,0.234 -0.371,0.298c0.246,0.067 0.425,0.172 0.535,0.315c0.111,0.143 0.166,0.328 0.166,0.554c-0,0.234 -0.062,0.431 -0.186,0.591c-0.124,0.159 -0.284,0.276 -0.48,0.35c-0.196,0.074 -0.404,0.111 -0.625,0.111c-0.409,0 -0.726,-0.102 -0.952,-0.308c-0.226,-0.205 -0.339,-0.52 -0.339,-0.945l0.493,-0c0.012,0.262 0.09,0.467 0.235,0.614c0.144,0.146 0.342,0.22 0.593,0.22c0.224,-0 0.402,-0.057 0.533,-0.172c0.131,-0.115 0.197,-0.264 0.197,-0.447c-0,-0.186 -0.076,-0.34 -0.229,-0.463c-0.153,-0.122 -0.388,-0.184 -0.706,-0.184c-0.078,0 -0.133,0.002 -0.167,0.005l0,-0.438l0.07,-0c0.171,-0 0.319,-0.011 0.443,-0.033c0.123,-0.022 0.228,-0.072 0.314,-0.151c0.085,-0.079 0.128,-0.197 0.128,-0.353c-0,-0.153 -0.049,-0.288 -0.146,-0.405c-0.097,-0.118 -0.245,-0.176 -0.442,-0.176c-0.208,-0 -0.361,0.058 -0.46,0.176c-0.099,0.117 -0.153,0.295 -0.163,0.534l-0.526,-0l-0,-0.038c-0,-0.293 0.067,-0.523 0.202,-0.687c0.134,-0.165 0.284,-0.273 0.45,-0.323c0.165,-0.05 0.317,-0.075 0.457,-0.075c0.377,0 0.661,0.088 0.851,0.264c0.19,0.176 0.285,0.4 0.285,0.671Z" style="fill:#fff;fill-rule:nonzero;"/></svg>