<?xml version="1.0" encoding="UTF-8" standalone="no"?><!DOCTYPE svg PUBLIC "-//W3C//DTD SVG 1.1//EN" "http://www.w3.org/Graphics/SVG/1.1/DTD/svg11.dtd"><svg width="100%" height="100%" viewBox="0 0 11 11" version="1.1" xmlns="http://www.w3.org/2000/svg" xmlns:xlink="http://www.w3.org/1999/xlink" xml:space="preserve" xmlns:serif="http://www.serif.com/" style="fill-rule:evenodd;clip-rule:evenodd;stroke-linecap:round;stroke-miterlimit:3;"><rect id="coriolis_5" x="0.143" y="0.227" width="10.56" height="10.56" style="fill:none;"/><g><path d="M10.223,3.107l0,4.8c0,1.324 -1.075,2.4 -2.4,2.4l-4.8,-0c-1.325,-0 -2.4,-1.076 -2.4,-2.4l0,-4.8c0,-1.325 1.075,-2.4 2.4,-2.4l4.8,-0c1.325,-0 2.4,1.075 2.4,2.4Z" style="fill:#222;"/><path d="M9.25,3.528l0,3.845c0,1.061 -0.861,1.923 -1.923,1.923l-3.845,-0c-1.061,-0 -1.922,-0.862 -1.922,-1.923l-0,-3.845c-0,-1.061 0.861,-1.923 1.922,-1.923l3.845,0c1.062,0 1.923,0.862 1.923,1.923Z" style="fill:#353535;"/></g><g><path d="M5.423,1.889l3.199,3.618l-3.199,3.617l-3.199,-3.617l3.199,-3.618Z" style="fill:none;stroke:#676767;stroke-width:0.25px;"/></g><path d="M6.016,4.643l-0,-0.499l-1.155,0l-0.083,1.056c0.222,-0.175 0.481,-0.262 0.776,-0.262c0.236,-0 0.441,0.053 0.616,0.159c0.175,0.106 0.309,0.248 0.402,0.425c0.093,0.177 0.139,0.373 0.139,0.587c0,0.238 -0.052,0.448 -0.157,0.63c-0.104,0.183 -0.255,0.324 -0.453,0.424c-0.198,0.1 -0.428,0.15 -0.69,0.15c-0.385,0 -0.688,-0.102 -0.909,-0.308c-0.221,-0.205 -0.344,-0.501 -0.367,-0.887l0.487,0c0.032,0.244 0.116,0.436 0.254,0.574c0.137,0.139 0.317,0.208 0.54,0.208c0.222,0 0.404,-0.072 0.544,-0.215c0.141,-0.143 0.211,-0.332 0.211,-0.567c0,-0.242 -0.066,-0.429 -0.198,-0.559c-0.132,-0.131 -0.301,-0.196 -0.507,-0.196c-0.302,-0 -0.553,0.144 -0.756,0.432c-0.112,-0.104 -0.244,-0.193 -0.394,-0.267l0.153,-1.828l2.016,0l0,0.943l-0.469,-0Z" style="fill:#fff;fill-rule:nonzero;"/></svg>