<?xml version="1.0" encoding="UTF-8" standalone="no"?><!DOCTYPE svg PUBLIC "-//W3C//DTD SVG 1.1//EN" "http://www.w3.org/Graphics/SVG/1.1/DTD/svg11.dtd"><svg width="100%" height="100%" viewBox="0 0 11 11" version="1.1" xmlns="http://www.w3.org/2000/svg" xmlns:xlink="http://www.w3.org/1999/xlink" xml:space="preserve" xmlns:serif="http://www.serif.com/" style="fill-rule:evenodd;clip-rule:evenodd;stroke-linecap:round;stroke-linejoin:round;stroke-miterlimit:1.5;"><rect id="coriolis_6" x="0.055" y="0.213" width="10.56" height="10.56" style="fill:none;"/><path d="M9.764,3.321l0,4.442c0,1.225 -0.995,2.22 -2.22,2.22l-4.442,0c-1.225,0 -2.22,-0.995 -2.22,-2.22l-0,-4.442c-0,-1.225 0.995,-2.22 2.22,-2.22l4.442,-0c1.225,-0 2.22,0.995 2.22,2.22Z" style="fill:#353535;stroke:#222;stroke-width:0.4px;"/><g><g><g><path d="M4.228,4.564c0.005,-0.576 0.494,-1.042 1.095,-1.042c0.601,-0 1.09,0.466 1.095,1.042l-2.19,0Z" style="fill:#fff;"/><path d="M6.483,4.723c0.11,0.251 0.172,0.541 0.172,0.85c0,0.953 -0.597,1.727 -1.332,1.727c-0.735,0 -1.332,-0.774 -1.332,-1.727c-0,-0.309 0.063,-0.599 0.172,-0.85l2.32,-0Z" style="fill:#fff;"/></g></g><g><path d="M4.808,2.507c0,-0 0.267,0.133 0.014,0.56c-0.252,0.427 -1.452,1.322 -0.782,1.746l-0.054,0.288c-0,0 -1.379,-0.248 0.672,-2.138c0.244,-0.224 0.15,-0.456 0.15,-0.456Z" style="fill:#fff;"/><g><path d="M5.071,2.918c0,0 0.109,0.002 0.039,0.117c-0.069,0.115 -0.467,0.422 -0.189,0.446l-0.003,0.066c-0,-0 -0.534,0.084 0.124,-0.518c0.079,-0.071 0.029,-0.111 0.029,-0.111Z" style="fill:#fff;"/><path d="M5.575,2.918c-0,0 -0.109,0.002 -0.039,0.117c0.069,0.115 0.467,0.422 0.189,0.446l0.003,0.066c0,-0 0.534,0.084 -0.124,-0.518c-0.078,-0.071 -0.029,-0.111 -0.029,-0.111Z" style="fill:#fff;"/></g><path d="M5.838,2.507c-0,-0 -0.266,0.133 -0.014,0.56c0.252,0.427 1.452,1.322 0.782,1.746l0.055,0.288c-0,0 1.378,-0.248 -0.673,-2.138c-0.243,-0.224 -0.15,-0.456 -0.15,-0.456Z" style="fill:#fff;"/></g><g><path d="M4.793,8.578c-0,-0 0.266,-0.134 0.014,-0.561c-0.252,-0.427 -1.453,-1.321 -0.782,-1.746l-0.055,-0.288c-0,-0 -1.379,0.249 0.673,2.138c0.243,0.224 0.15,0.457 0.15,0.457Z" style="fill:#fff;"/><path d="M5.854,8.578c-0,-0 -0.267,-0.134 -0.015,-0.561c0.252,-0.427 1.453,-1.321 0.782,-1.746l0.055,-0.288c0,-0 1.379,0.249 -0.672,2.138c-0.244,0.224 -0.15,0.457 -0.15,0.457Z" style="fill:#fff;"/></g></g><circle cx="5.323" cy="5.542" r="3.893" style="fill:none;stroke:#676767;stroke-width:0.25px;stroke-linejoin:miter;stroke-miterlimit:3;"/></svg>