<?xml version="1.0" encoding="UTF-8" standalone="no"?><!DOCTYPE svg PUBLIC "-//W3C//DTD SVG 1.1//EN" "http://www.w3.org/Graphics/SVG/1.1/DTD/svg11.dtd"><svg width="100%" height="100%" viewBox="0 0 11 11" version="1.1" xmlns="http://www.w3.org/2000/svg" xmlns:xlink="http://www.w3.org/1999/xlink" xml:space="preserve" xmlns:serif="http://www.serif.com/" style="fill-rule:evenodd;clip-rule:evenodd;stroke-linecap:round;stroke-linejoin:round;stroke-miterlimit:1.5;"><rect id="coriolis_2" x="0.036" y="0.213" width="10.56" height="10.56" style="fill:none;"/><path d="M9.745,3.321l0,4.442c0,1.225 -0.995,2.22 -2.22,2.22l-4.442,0c-1.225,0 -2.22,-0.995 -2.22,-2.22l-0,-4.442c-0,-1.225 0.995,-2.22 2.22,-2.22l4.442,-0c1.225,-0 2.22,0.995 2.22,2.22Z" style="fill:#353535;stroke:#222;stroke-width:0.4px;"/><g transform="matrix(1,0,0,0.940456,2.22045e-16,-1.18159)"><g transform="matrix(5.10391,0,0,5.10391,6.94011,9.08958)"></g><text x="3.945px" y="9.09px" style="font-family:'Rockwell-Regular', 'Rockwell', serif;font-size:5.104px;fill:#fff;">2</text></g><path d="M5.381,1.954l3.2,3.617l-3.2,3.618l-3.199,-3.618l3.199,-3.617Z" style="fill:none;stroke:#676767;stroke-width:0.25px;stroke-linejoin:miter;stroke-miterlimit:3;"/></svg>