<?xml version="1.0" encoding="UTF-8" standalone="no"?><!DOCTYPE svg PUBLIC "-//W3C//DTD SVG 1.1//EN" "http://www.w3.org/Graphics/SVG/1.1/DTD/svg11.dtd"><svg width="100%" height="100%" viewBox="0 0 11 11" version="1.1" xmlns="http://www.w3.org/2000/svg" xmlns:xlink="http://www.w3.org/1999/xlink" xml:space="preserve" xmlns:serif="http://www.serif.com/" style="fill-rule:evenodd;clip-rule:evenodd;stroke-linecap:round;stroke-miterlimit:3;"><rect id="coriolis_6" x="0.065" y="0.227" width="10.56" height="10.56" style="fill:none;"/><g><path d="M10.145,3.107l-0,4.8c-0,1.324 -1.075,2.4 -2.4,2.4l-4.8,-0c-1.325,-0 -2.4,-1.076 -2.4,-2.4l-0,-4.8c-0,-1.325 1.075,-2.4 2.4,-2.4l4.8,-0c1.325,-0 2.4,1.075 2.4,2.4Z" style="fill:#222;"/><path d="M9.172,3.528l-0,3.845c-0,1.061 -0.862,1.923 -1.923,1.923l-3.845,-0c-1.061,-0 -1.923,-0.862 -1.923,-1.923l0,-3.845c0,-1.061 0.862,-1.923 1.923,-1.923l3.845,0c1.061,0 1.923,0.862 1.923,1.923Z" style="fill:#353535;"/></g><g><circle cx="5.345" cy="5.507" r="3.893" style="fill:none;stroke:#676767;stroke-width:0.25px;"/></g><g><g><g><path d="M4.25,4.529c0.005,-0.576 0.494,-1.042 1.095,-1.042c0.601,-0 1.09,0.466 1.095,1.042l-2.19,0Z" style="fill:#fff;"/><path d="M6.505,4.688c0.11,0.251 0.172,0.541 0.172,0.849c0,0.954 -0.597,1.728 -1.332,1.728c-0.735,0 -1.332,-0.774 -1.332,-1.728c-0,-0.308 0.062,-0.598 0.172,-0.849l2.32,-0Z" style="fill:#fff;"/></g></g><g><path d="M4.83,2.471c0,0 0.266,0.134 0.014,0.561c-0.252,0.427 -1.452,1.321 -0.782,1.746l-0.055,0.288c0,0 -1.378,-0.249 0.673,-2.138c0.244,-0.224 0.15,-0.457 0.15,-0.457Z" style="fill:#fff;"/><g><path d="M5.093,2.883c0,0 0.109,0.002 0.039,0.117c-0.069,0.115 -0.467,0.422 -0.189,0.445l-0.003,0.067c-0,-0 -0.534,0.084 0.124,-0.518c0.078,-0.071 0.029,-0.111 0.029,-0.111Z" style="fill:#fff;"/><path d="M5.597,2.883c-0,0 -0.109,0.002 -0.039,0.117c0.069,0.115 0.467,0.422 0.189,0.445l0.003,0.067c0,-0 0.534,0.084 -0.124,-0.518c-0.079,-0.071 -0.029,-0.111 -0.029,-0.111Z" style="fill:#fff;"/></g><path d="M5.86,2.471c-0,0 -0.266,0.134 -0.014,0.561c0.252,0.427 1.452,1.321 0.782,1.746l0.055,0.288c-0,0 1.378,-0.249 -0.673,-2.138c-0.244,-0.224 -0.15,-0.457 -0.15,-0.457Z" style="fill:#fff;"/></g><g><path d="M4.814,8.542c0,0 0.267,-0.133 0.015,-0.56c-0.252,-0.427 -1.453,-1.322 -0.782,-1.746l-0.055,-0.289c-0,0 -1.379,0.249 0.673,2.139c0.243,0.224 0.149,0.456 0.149,0.456Z" style="fill:#fff;"/><path d="M5.876,8.542c-0,0 -0.267,-0.133 -0.015,-0.56c0.252,-0.427 1.453,-1.322 0.782,-1.746l0.055,-0.289c0,0 1.379,0.249 -0.673,2.139c-0.243,0.224 -0.149,0.456 -0.149,0.456Z" style="fill:#fff;"/></g></g></svg>