<svg width="100%" height="100%" viewBox="0 0 11 11" version="1.1" xmlns="http://www.w3.org/2000/svg"
    style="fill-rule:evenodd;clip-rule:evenodd;stroke-linecap:round;stroke-linejoin:round;stroke-miterlimit:1.5;"><rect id="d6_oracle_no" x="0.182" y="-0" width="10.56" height="10.56" style="fill:none;"/>
    <path
        d="M9.891,3.108l-0,4.441c-0,1.226 -0.995,2.221 -2.221,2.221l-4.441,-0c-1.225,-0 -2.22,-0.995 -2.22,-2.221l-0,-4.441c-0,-1.225 0.995,-2.22 2.22,-2.22l4.441,-0c1.226,-0 2.221,0.995 2.221,2.22Z"
        style="fill:none;stroke:#000;stroke-width:0.4px;" />
    <g><path d="M4.808,4.247l0.295,-0l0,2.17l-0.267,-0l-1.451,-1.67l0,1.67l-0.292,-0l0,-2.17l0.252,-0l1.463,1.684l0,-1.684Z" style="fill-rule:nonzero;"/>
        <path
            d="M6.634,4.216c0.335,-0 0.614,0.106 0.838,0.318c0.223,0.213 0.334,0.479 0.334,0.799c0,0.32 -0.112,0.585 -0.338,0.794c-0.225,0.21 -0.509,0.315 -0.852,0.315c-0.327,-0 -0.599,-0.105 -0.817,-0.315c-0.218,-0.209 -0.327,-0.472 -0.327,-0.788c-0,-0.324 0.109,-0.592 0.329,-0.805c0.219,-0.212 0.497,-0.318 0.833,-0.318Zm0.012,0.295c-0.249,-0 -0.453,0.078 -0.613,0.233c-0.16,0.155 -0.24,0.354 -0.24,0.595c0,0.234 0.08,0.429 0.241,0.584c0.16,0.155 0.361,0.233 0.603,0.233c0.242,0 0.444,-0.079 0.606,-0.238c0.162,-0.158 0.243,-0.355 0.243,-0.592c0,-0.229 -0.081,-0.423 -0.243,-0.58c-0.162,-0.157 -0.361,-0.235 -0.597,-0.235Z"
            style="fill-rule:nonzero;" /></g></svg>