<?xml version="1.0" encoding="UTF-8" standalone="no"?><!DOCTYPE svg PUBLIC "-//W3C//DTD SVG 1.1//EN" "http://www.w3.org/Graphics/SVG/1.1/DTD/svg11.dtd"><svg width="100%" height="100%" viewBox="0 0 11 11" version="1.1" xmlns="http://www.w3.org/2000/svg" xmlns:xlink="http://www.w3.org/1999/xlink" xml:space="preserve" xmlns:serif="http://www.serif.com/" style="fill-rule:evenodd;clip-rule:evenodd;stroke-linecap:round;stroke-linejoin:round;stroke-miterlimit:1.5;"><rect id="d6_oracle_no_and" x="0.015" y="0" width="10.56" height="10.56" style="fill:none;"/><path d="M9.724,3.108l-0,4.441c-0,1.226 -0.995,2.221 -2.221,2.221l-4.441,-0c-1.225,-0 -2.22,-0.995 -2.22,-2.221l-0,-4.441c-0,-1.225 0.995,-2.22 2.22,-2.22l4.441,-0c1.226,-0 2.221,0.995 2.221,2.22Z" style="fill:#8e7373;stroke:#8e7374;stroke-width:0.4px;"/><g><g><path d="M4.641,2.8l0.295,-0l0,2.17l-0.267,0l-1.451,-1.67l0,1.67l-0.292,0l0,-2.17l0.252,-0l1.463,1.684l0,-1.684Z" style="fill:#fff;fill-rule:nonzero;"/><path d="M6.466,2.769c0.336,-0 0.615,0.106 0.839,0.318c0.223,0.213 0.334,0.479 0.334,0.799c0,0.32 -0.112,0.585 -0.338,0.794c-0.225,0.21 -0.509,0.315 -0.852,0.315c-0.327,-0 -0.6,-0.105 -0.818,-0.315c-0.218,-0.209 -0.327,-0.472 -0.327,-0.788c0,-0.324 0.11,-0.592 0.33,-0.805c0.219,-0.212 0.497,-0.318 0.832,-0.318Zm0.013,0.295c-0.249,-0 -0.453,0.078 -0.613,0.233c-0.16,0.155 -0.24,0.354 -0.24,0.595c0,0.234 0.08,0.429 0.241,0.584c0.16,0.155 0.361,0.233 0.603,0.233c0.242,0 0.444,-0.079 0.606,-0.238c0.162,-0.158 0.243,-0.355 0.243,-0.591c0,-0.23 -0.081,-0.424 -0.243,-0.581c-0.162,-0.157 -0.361,-0.235 -0.597,-0.235Z" style="fill:#fff;fill-rule:nonzero;"/></g><g><path d="M2.793,5.706l0.219,0l0.971,2.183l-0.318,-0l-0.289,-0.643l-0.923,-0l-0.273,0.643l-0.319,-0l0.932,-2.183Zm0.456,1.263l-0.35,-0.786l-0.325,0.786l0.675,0Z" style="fill:#fff;fill-rule:nonzero;"/><path d="M5.947,5.719l0.295,-0l-0,2.17l-0.267,-0l-1.451,-1.67l-0,1.67l-0.292,-0l-0,-2.17l0.251,-0l1.464,1.684l-0,-1.684Z" style="fill:#fff;fill-rule:nonzero;"/><path d="M6.71,7.886l-0,-2.167l0.731,-0c0.295,-0 0.529,0.044 0.701,0.132c0.172,0.089 0.308,0.219 0.41,0.391c0.101,0.172 0.152,0.36 0.152,0.562c0,0.145 -0.028,0.284 -0.084,0.417c-0.056,0.132 -0.135,0.249 -0.239,0.349c-0.106,0.104 -0.228,0.182 -0.368,0.235c-0.082,0.032 -0.157,0.053 -0.225,0.064c-0.069,0.011 -0.199,0.017 -0.392,0.017l-0.686,-0Zm0.699,-1.891l-0.389,0l0,1.614l0.398,0c0.155,0 0.276,-0.01 0.362,-0.032c0.086,-0.021 0.158,-0.048 0.215,-0.08c0.058,-0.033 0.11,-0.073 0.158,-0.121c0.153,-0.155 0.23,-0.351 0.23,-0.589c-0,-0.233 -0.079,-0.423 -0.236,-0.57c-0.058,-0.055 -0.125,-0.1 -0.2,-0.135c-0.075,-0.035 -0.146,-0.058 -0.214,-0.07c-0.067,-0.011 -0.175,-0.017 -0.324,-0.017Z" style="fill:#fff;fill-rule:nonzero;"/></g></g></svg>