<svg width="100%" height="100%" viewBox="0 0 11 11" version="1.1" xmlns="http://www.w3.org/2000/svg"
    style="fill-rule:evenodd;clip-rule:evenodd;stroke-linecap:round;stroke-linejoin:round;stroke-miterlimit:1.5;"><rect id="d6_oracle_no_but" x="0.092" y="-0" width="10.56" height="10.56" style="fill:none;"/>
    <path
        d="M9.801,3.108l0,4.441c0,1.226 -0.995,2.221 -2.22,2.221l-4.441,-0c-1.226,-0 -2.221,-0.995 -2.221,-2.221l0,-4.441c0,-1.225 0.995,-2.22 2.221,-2.22l4.441,-0c1.225,-0 2.22,0.995 2.22,2.22Z"
        style="fill:none;stroke:#000;stroke-width:0.4px;" />
    <g><path d="M4.719,2.787l0.295,0l-0,2.171l-0.267,-0l-1.451,-1.67l-0,1.67l-0.292,-0l-0,-2.171l0.251,0l1.464,1.684l-0,-1.684Z" style="fill-rule:nonzero;"/>
        <path
            d="M6.544,2.756c0.335,0 0.615,0.107 0.838,0.319c0.223,0.212 0.335,0.478 0.335,0.798c-0,0.32 -0.113,0.585 -0.338,0.795c-0.225,0.21 -0.509,0.314 -0.852,0.314c-0.327,0 -0.6,-0.104 -0.818,-0.314c-0.218,-0.21 -0.327,-0.473 -0.327,-0.788c-0,-0.325 0.11,-0.593 0.329,-0.805c0.22,-0.212 0.497,-0.319 0.833,-0.319Zm0.012,0.296c-0.248,-0 -0.452,0.077 -0.612,0.233c-0.16,0.155 -0.24,0.353 -0.24,0.595c-0,0.234 0.08,0.428 0.24,0.584c0.161,0.155 0.362,0.233 0.603,0.233c0.242,-0 0.445,-0.08 0.607,-0.238c0.162,-0.158 0.243,-0.356 0.243,-0.592c-0,-0.23 -0.081,-0.423 -0.243,-0.58c-0.162,-0.157 -0.362,-0.235 -0.598,-0.235Z"
            style="fill-rule:nonzero;" /></g>
    <g><path d="M3.259,7.876l-0.735,0l0,-2.17l0.569,0c0.179,0 0.319,0.024 0.419,0.072c0.101,0.049 0.177,0.115 0.23,0.199c0.053,0.085 0.08,0.182 0.08,0.293c-0,0.213 -0.111,0.366 -0.331,0.458c0.158,0.03 0.284,0.096 0.378,0.196c0.094,0.101 0.14,0.221 0.14,0.361c0,0.11 -0.028,0.209 -0.085,0.296c-0.057,0.087 -0.141,0.158 -0.251,0.213c-0.11,0.055 -0.248,0.082 -0.414,0.082Zm-0.157,-1.893l-0.267,-0l0,0.652l0.207,0c0.165,0 0.283,-0.031 0.353,-0.095c0.07,-0.063 0.105,-0.145 0.105,-0.245c-0,-0.208 -0.133,-0.312 -0.398,-0.312Zm0.024,0.929l-0.291,-0l0,0.688l0.306,-0c0.17,-0 0.285,-0.013 0.346,-0.04c0.06,-0.026 0.109,-0.067 0.146,-0.123c0.037,-0.056 0.055,-0.116 0.055,-0.18c-0,-0.067 -0.019,-0.127 -0.058,-0.182c-0.039,-0.055 -0.094,-0.096 -0.166,-0.123c-0.071,-0.027 -0.184,-0.04 -0.338,-0.04Z" style="fill-rule:nonzero;"/>
        <path
            d="M5.825,5.706l0.313,0l-0,1.232c-0,0.167 -0.012,0.293 -0.037,0.378c-0.024,0.084 -0.054,0.155 -0.09,0.212c-0.036,0.056 -0.079,0.107 -0.131,0.151c-0.172,0.148 -0.397,0.222 -0.674,0.222c-0.283,0 -0.51,-0.073 -0.681,-0.22c-0.052,-0.046 -0.095,-0.097 -0.131,-0.153c-0.036,-0.057 -0.065,-0.126 -0.089,-0.208c-0.023,-0.082 -0.035,-0.21 -0.035,-0.385l0,-1.229l0.313,0l-0,1.232c-0,0.204 0.023,0.346 0.07,0.426c0.046,0.079 0.117,0.143 0.212,0.192c0.096,0.048 0.208,0.072 0.338,0.072c0.184,-0 0.334,-0.048 0.45,-0.145c0.061,-0.051 0.105,-0.113 0.132,-0.183c0.027,-0.07 0.04,-0.191 0.04,-0.362l0,-1.232Z"
            style="fill-rule:nonzero;" />
        <path
            d="M6.383,5.703l1.813,0l-0,0.277l-0.757,-0l0,1.896l-0.312,0l0,-1.896l-0.744,-0l0,-0.277Z"
            style="fill-rule:nonzero;" /></g></svg>