<?xml version="1.0" encoding="UTF-8" standalone="no"?><!DOCTYPE svg PUBLIC "-//W3C//DTD SVG 1.1//EN" "http://www.w3.org/Graphics/SVG/1.1/DTD/svg11.dtd"><svg width="100%" height="100%" viewBox="0 0 11 11" version="1.1" xmlns="http://www.w3.org/2000/svg" xmlns:xlink="http://www.w3.org/1999/xlink" xml:space="preserve" xmlns:serif="http://www.serif.com/" style="fill-rule:evenodd;clip-rule:evenodd;stroke-linecap:round;stroke-linejoin:round;stroke-miterlimit:1.5;"><rect id="d6_oracle_yes_but" x="0.205" y="0" width="10.56" height="10.56" style="fill:none;"/><path d="M9.914,3.108l0,4.441c0,1.226 -0.995,2.221 -2.22,2.221l-4.441,-0c-1.226,-0 -2.221,-0.995 -2.221,-2.221l0,-4.441c0,-1.225 0.995,-2.22 2.221,-2.22l4.441,-0c1.225,-0 2.22,0.995 2.22,2.22Z" style="fill:#8e7373;stroke:#8e7374;stroke-width:0.4px;"/><g><path d="M4.586,2.786l0.375,-0l-0.801,1.022l-0,1.148l-0.319,0l0,-1.148l-0.801,-1.022l0.376,-0l0.581,0.749l0.589,-0.749Z" style="fill:#fff;"/><path d="M5.201,2.786l1.23,-0l0,0.276l-0.92,0l0,0.662l0.889,0l-0,0.278l-0.889,0l0,0.674l0.95,0l-0,0.277l-1.26,-0l-0,-2.167Z" style="fill:#fff;"/><path d="M7.329,4.046l-0.236,-0.143c-0.148,-0.09 -0.254,-0.179 -0.316,-0.267c-0.063,-0.087 -0.094,-0.188 -0.094,-0.302c-0,-0.171 0.059,-0.309 0.178,-0.416c0.118,-0.107 0.272,-0.16 0.462,-0.16c0.181,-0 0.347,0.051 0.498,0.152l0,0.353c-0.156,-0.15 -0.324,-0.225 -0.505,-0.225c-0.101,-0 -0.184,0.023 -0.25,0.07c-0.065,0.047 -0.097,0.108 -0.097,0.181c-0,0.065 0.023,0.127 0.071,0.184c0.048,0.056 0.125,0.116 0.231,0.178l0.238,0.14c0.265,0.157 0.398,0.358 0.398,0.603c-0,0.174 -0.058,0.315 -0.175,0.424c-0.116,0.109 -0.268,0.163 -0.454,0.163c-0.215,-0 -0.41,-0.066 -0.586,-0.197l-0,-0.395c0.168,0.212 0.362,0.319 0.583,0.319c0.097,-0 0.178,-0.028 0.243,-0.082c0.064,-0.054 0.097,-0.123 0.097,-0.204c-0,-0.133 -0.096,-0.258 -0.286,-0.376Z" style="fill:#fff;"/><g><path d="M3.372,7.875l-0.734,-0l-0,-2.17l0.568,-0c0.179,-0 0.319,0.024 0.42,0.072c0.1,0.048 0.177,0.114 0.229,0.199c0.053,0.084 0.08,0.182 0.08,0.293c-0,0.213 -0.111,0.366 -0.331,0.458c0.158,0.03 0.284,0.095 0.378,0.196c0.094,0.1 0.141,0.22 0.141,0.36c-0,0.111 -0.029,0.21 -0.086,0.297c-0.057,0.087 -0.14,0.158 -0.251,0.212c-0.11,0.055 -0.248,0.083 -0.414,0.083Zm-0.157,-1.894l-0.267,0l0,0.653l0.207,-0c0.166,-0 0.283,-0.032 0.353,-0.095c0.07,-0.063 0.105,-0.145 0.105,-0.246c0,-0.208 -0.132,-0.312 -0.398,-0.312Zm0.024,0.929l-0.291,0l0,0.688l0.306,0c0.17,0 0.285,-0.013 0.346,-0.039c0.06,-0.027 0.109,-0.068 0.146,-0.124c0.037,-0.056 0.055,-0.116 0.055,-0.18c0,-0.066 -0.019,-0.127 -0.058,-0.182c-0.039,-0.055 -0.094,-0.096 -0.166,-0.122c-0.071,-0.027 -0.184,-0.041 -0.338,-0.041Z" style="fill:#fff;"/><path d="M5.939,5.705l0.312,-0l-0,1.232c-0,0.166 -0.012,0.292 -0.037,0.377c-0.024,0.085 -0.054,0.156 -0.09,0.212c-0.036,0.057 -0.079,0.107 -0.131,0.152c-0.172,0.148 -0.397,0.222 -0.674,0.222c-0.283,-0 -0.51,-0.074 -0.681,-0.221c-0.051,-0.045 -0.095,-0.096 -0.131,-0.153c-0.036,-0.056 -0.065,-0.126 -0.088,-0.207c-0.024,-0.082 -0.035,-0.211 -0.035,-0.386l-0,-1.228l0.312,-0l-0,1.232c-0,0.204 0.023,0.345 0.07,0.425c0.046,0.08 0.117,0.144 0.213,0.192c0.095,0.048 0.207,0.072 0.337,0.072c0.184,0 0.334,-0.048 0.45,-0.144c0.061,-0.052 0.105,-0.113 0.132,-0.184c0.027,-0.07 0.041,-0.191 0.041,-0.361l-0,-1.232Z" style="fill:#fff;"/><path d="M6.496,5.702l1.813,-0l0,0.276l-0.756,0l-0,1.897l-0.313,-0l0,-1.897l-0.744,0l0,-0.276Z" style="fill:#fff;"/></g></g></svg>