
<svg width="100%" height="100%" viewBox="0 0 11 11" version="1.1" xmlns="http://www.w3.org/2000/svg"
    style="fill-rule:evenodd;clip-rule:evenodd;stroke-linecap:round;stroke-linejoin:round;stroke-miterlimit:1.5;"><rect id="d6_oracle_yes_and" x="0" y="-0" width="10.56" height="10.56" style="fill:none;"/>
    <path
        d="M9.709,3.108l0,4.441c0,1.226 -0.995,2.221 -2.22,2.221l-4.441,-0c-1.226,-0 -2.221,-0.995 -2.221,-2.221l-0,-4.441c-0,-1.225 0.995,-2.22 2.221,-2.22l4.441,-0c1.225,-0 2.22,0.995 2.22,2.22Z"
        style="fill:none;stroke:#000;stroke-width:0.4px;" />
    <path
        d="M4.38,2.798l0.376,0l-0.801,1.022l-0,1.148l-0.319,0l0,-1.148l-0.801,-1.022l0.376,0l0.581,0.749l0.588,-0.749Z"
        style="fill:#001900;" />
    <path
        d="M4.995,2.798l1.231,0l-0,0.277l-0.92,-0l0,0.662l0.889,-0l-0,0.278l-0.889,-0l0,0.674l0.949,-0l0,0.276l-1.26,0l0,-2.167Z"
        style="fill:#001900;" />
    <path
        d="M7.124,4.058l-0.236,-0.143c-0.149,-0.09 -0.254,-0.179 -0.317,-0.266c-0.062,-0.088 -0.094,-0.188 -0.094,-0.302c0,-0.171 0.06,-0.31 0.178,-0.417c0.119,-0.106 0.273,-0.16 0.462,-0.16c0.182,0 0.348,0.051 0.499,0.153l0,0.352c-0.156,-0.15 -0.325,-0.225 -0.505,-0.225c-0.101,-0 -0.185,0.024 -0.25,0.071c-0.065,0.047 -0.098,0.107 -0.098,0.181c0,0.065 0.024,0.126 0.072,0.183c0.047,0.057 0.125,0.116 0.231,0.179l0.238,0.139c0.265,0.158 0.398,0.359 0.398,0.603c-0,0.174 -0.059,0.315 -0.175,0.424c-0.117,0.109 -0.268,0.163 -0.455,0.163c-0.214,0 -0.409,-0.065 -0.585,-0.197l-0,-0.395c0.168,0.213 0.362,0.319 0.582,0.319c0.098,-0 0.179,-0.027 0.243,-0.082c0.065,-0.054 0.098,-0.122 0.098,-0.204c-0,-0.132 -0.096,-0.258 -0.286,-0.376Z"
        style="fill:#001900;" />
    <path
        d="M2.779,5.705l0.219,-0l0.971,2.182l-0.319,0l-0.289,-0.643l-0.922,0l-0.274,0.643l-0.318,0l0.932,-2.182Zm0.455,1.263l-0.35,-0.786l-0.324,0.786l0.674,-0Z"
        style="fill:#001900;" />
    <path
        d="M5.932,5.717l0.295,0l0,2.17l-0.267,0l-1.451,-1.67l0,1.67l-0.292,0l0,-2.17l0.252,0l1.463,1.684l0,-1.684Z"
        style="fill:#001900;" />
    <path
        d="M6.695,7.884l-0,-2.167l0.732,0c0.295,0 0.528,0.044 0.7,0.133c0.172,0.088 0.309,0.219 0.41,0.391c0.102,0.172 0.153,0.359 0.153,0.562c-0,0.145 -0.028,0.284 -0.084,0.416c-0.056,0.133 -0.136,0.249 -0.24,0.35c-0.105,0.103 -0.228,0.182 -0.368,0.234c-0.082,0.032 -0.157,0.054 -0.225,0.065c-0.068,0.011 -0.199,0.016 -0.391,0.016l-0.687,0Zm0.699,-1.89l-0.388,-0l-0,1.614l0.397,-0c0.156,-0 0.276,-0.011 0.362,-0.032c0.086,-0.021 0.158,-0.048 0.215,-0.081c0.058,-0.033 0.11,-0.073 0.158,-0.12c0.153,-0.156 0.23,-0.352 0.23,-0.589c-0,-0.233 -0.079,-0.423 -0.236,-0.57c-0.058,-0.055 -0.125,-0.1 -0.2,-0.135c-0.075,-0.036 -0.146,-0.059 -0.213,-0.07c-0.068,-0.012 -0.176,-0.017 -0.325,-0.017Z"
        style="fill:#001900;" /></svg>