<?xml version="1.0" encoding="UTF-8" standalone="no"?><!DOCTYPE svg PUBLIC "-//W3C//DTD SVG 1.1//EN" "http://www.w3.org/Graphics/SVG/1.1/DTD/svg11.dtd"><svg width="100%" height="100%" viewBox="0 0 11 11" version="1.1" xmlns="http://www.w3.org/2000/svg" xmlns:xlink="http://www.w3.org/1999/xlink" xml:space="preserve" xmlns:serif="http://www.serif.com/" style="fill-rule:evenodd;clip-rule:evenodd;stroke-linecap:round;stroke-linejoin:round;stroke-miterlimit:1.5;"><rect id="d6_oracle_yes" x="0.027" y="-0" width="10.56" height="10.56" style="fill:none;"/><path d="M9.736,3.108l0,4.441c0,1.226 -0.995,2.221 -2.22,2.221l-4.442,-0c-1.225,-0 -2.22,-0.995 -2.22,-2.221l-0,-4.441c-0,-1.225 0.995,-2.22 2.22,-2.22l4.442,-0c1.225,-0 2.22,0.995 2.22,2.22Z" style="fill:none;stroke:#000;stroke-width:0.4px;"/><g><path d="M4.328,4.245l0.376,0l-0.801,1.022l-0,1.148l-0.319,0l0,-1.148l-0.801,-1.022l0.376,0l0.581,0.749l0.588,-0.749Z"/><path d="M4.944,4.245l1.23,0l-0,0.277l-0.92,-0l0,0.662l0.889,-0l-0,0.278l-0.889,-0l0,0.674l0.949,-0l0,0.276l-1.259,0l-0,-2.167Z"/><path d="M7.072,5.505l-0.236,-0.143c-0.148,-0.09 -0.254,-0.179 -0.317,-0.266c-0.062,-0.088 -0.094,-0.188 -0.094,-0.302c0,-0.171 0.06,-0.31 0.178,-0.417c0.119,-0.106 0.273,-0.16 0.463,-0.16c0.181,0 0.347,0.051 0.498,0.153l0,0.352c-0.156,-0.15 -0.325,-0.225 -0.505,-0.225c-0.101,-0 -0.185,0.023 -0.25,0.071c-0.065,0.047 -0.098,0.107 -0.098,0.181c0,0.065 0.024,0.126 0.072,0.183c0.047,0.057 0.125,0.116 0.231,0.179l0.238,0.139c0.265,0.158 0.398,0.359 0.398,0.603c-0,0.174 -0.059,0.315 -0.175,0.424c-0.117,0.109 -0.268,0.163 -0.455,0.163c-0.214,0 -0.409,-0.065 -0.585,-0.197l-0,-0.395c0.168,0.213 0.362,0.319 0.582,0.319c0.098,-0 0.179,-0.027 0.243,-0.082c0.065,-0.054 0.098,-0.122 0.098,-0.204c-0,-0.133 -0.096,-0.258 -0.286,-0.376Z"/></g></svg>