<?xml version="1.0" encoding="UTF-8" standalone="no"?><!DOCTYPE svg PUBLIC "-//W3C//DTD SVG 1.1//EN" "http://www.w3.org/Graphics/SVG/1.1/DTD/svg11.dtd"><svg width="100%" height="100%" viewBox="0 0 11 11" version="1.1" xmlns="http://www.w3.org/2000/svg" xmlns:xlink="http://www.w3.org/1999/xlink" xml:space="preserve" xmlns:serif="http://www.serif.com/" style="fill-rule:evenodd;clip-rule:evenodd;stroke-linecap:round;stroke-miterlimit:3;"><rect id="ac_d20_8" x="0.052" y="0.22" width="10.56" height="10.56" style="fill:none;"/><g><path d="M5.247,0.816c0.056,-0.015 0.114,-0.015 0.17,-0c0.363,0.099 1.79,0.486 2.152,0.585c0.055,0.015 0.105,0.044 0.145,0.085c0.266,0.268 1.314,1.332 1.578,1.599c0.039,0.04 0.068,0.09 0.082,0.144c0.097,0.365 0.482,1.824 0.578,2.188c0.015,0.054 0.015,0.111 0,0.165c-0.096,0.364 -0.481,1.823 -0.578,2.188c-0.014,0.055 -0.043,0.104 -0.082,0.145c-0.264,0.267 -1.312,1.33 -1.578,1.599c-0.04,0.041 -0.09,0.07 -0.145,0.085c-0.362,0.099 -1.789,0.486 -2.152,0.585c-0.056,0.015 -0.114,0.015 -0.17,-0c-0.363,-0.099 -1.789,-0.486 -2.152,-0.585c-0.055,-0.015 -0.105,-0.044 -0.145,-0.085c-0.265,-0.269 -1.314,-1.332 -1.578,-1.599c-0.039,-0.041 -0.067,-0.09 -0.082,-0.145c-0.096,-0.365 -0.482,-1.824 -0.578,-2.188c-0.014,-0.054 -0.014,-0.111 -0,-0.165c0.096,-0.364 0.482,-1.823 0.578,-2.188c0.015,-0.054 0.043,-0.104 0.082,-0.144c0.264,-0.267 1.313,-1.331 1.578,-1.599c0.04,-0.041 0.09,-0.07 0.145,-0.085c0.363,-0.099 1.789,-0.486 2.152,-0.585Z" style="fill:#222;stroke:#000;stroke-width:0.25px;"/><path d="M5.005,2.87c0.068,-0.116 0.192,-0.188 0.327,-0.188c0.135,0 0.259,0.072 0.327,0.188c0.597,1.027 1.858,3.194 2.457,4.226c0.068,0.117 0.069,0.261 0.001,0.378c-0.067,0.118 -0.192,0.19 -0.327,0.19c-1.197,0 -3.718,0 -4.915,0c-0.136,0 -0.261,-0.072 -0.328,-0.19c-0.067,-0.117 -0.067,-0.261 0.001,-0.378c0.6,-1.032 1.86,-3.199 2.457,-4.226Z"/></g><path d="M5.742,5.5c0.272,-0 0.475,0.126 0.611,0.377c0.136,0.252 0.204,0.514 0.204,0.788l0,0.295c0,0.257 -0.078,0.515 -0.235,0.775c-0.157,0.26 -0.351,0.39 -0.58,0.39l-0.819,-0c-0.23,-0 -0.423,-0.13 -0.58,-0.39c-0.157,-0.26 -0.236,-0.518 -0.236,-0.775l0,-0.295c0,-0.274 0.068,-0.536 0.203,-0.788c0.135,-0.251 0.339,-0.377 0.613,-0.377c-0.271,-0.046 -0.474,-0.166 -0.611,-0.361c-0.137,-0.195 -0.205,-0.463 -0.205,-0.804l0,-0.295c0,-0.318 0.08,-0.591 0.24,-0.821c0.161,-0.229 0.352,-0.344 0.576,-0.344l0.819,-0c0.223,-0 0.415,0.115 0.575,0.344c0.16,0.23 0.24,0.503 0.24,0.821l0,0.295c0,0.341 -0.068,0.609 -0.204,0.804c-0.136,0.195 -0.339,0.315 -0.611,0.361Zm-0,-0.875l-0,-0.585c-0,-0.159 -0.041,-0.295 -0.122,-0.409c-0.081,-0.114 -0.177,-0.171 -0.288,-0.171c-0.112,-0 -0.208,0.057 -0.289,0.171c-0.08,0.114 -0.12,0.25 -0.12,0.409l-0,0.585c-0,0.158 0.04,0.296 0.12,0.411c0.081,0.116 0.177,0.174 0.289,0.174c0.111,-0 0.207,-0.058 0.288,-0.174c0.081,-0.115 0.122,-0.253 0.122,-0.411Zm-0,2.335l-0,-0.585c-0,-0.39 -0.137,-0.585 -0.41,-0.585c-0.273,-0 -0.409,0.195 -0.409,0.585l-0,0.585c-0,0.159 0.04,0.295 0.12,0.409c0.081,0.114 0.177,0.171 0.289,0.171c0.111,-0 0.207,-0.057 0.288,-0.171c0.081,-0.114 0.122,-0.25 0.122,-0.409Z" style="fill:#c1b9b9;fill-rule:nonzero;"/></svg>