<?xml version="1.0" encoding="UTF-8" standalone="no"?><!DOCTYPE svg PUBLIC "-//W3C//DTD SVG 1.1//EN" "http://www.w3.org/Graphics/SVG/1.1/DTD/svg11.dtd"><svg width="100%" height="100%" viewBox="0 0 11 11" version="1.1" xmlns="http://www.w3.org/2000/svg" xmlns:xlink="http://www.w3.org/1999/xlink" xml:space="preserve" xmlns:serif="http://www.serif.com/" style="fill-rule:evenodd;clip-rule:evenodd;stroke-linejoin:round;stroke-miterlimit:2;"><rect id="ac_d6_6" x="0.064" y="0.096" width="10.56" height="10.56" style="fill:none;"/><g><path d="M8.524,0.936c0.696,0 1.26,0.564 1.26,1.26l0,6.36c0,0.696 -0.564,1.26 -1.26,1.26l-6.36,0c-0.696,0 -1.26,-0.564 -1.26,-1.26l0,-6.36c0,-0.696 0.564,-1.26 1.26,-1.26l6.36,0Z" style="fill:#222;"/><path d="M8.019,2.053c0.357,0 0.648,0.291 0.648,0.649l-0,5.349c-0,0.357 -0.291,0.648 -0.648,0.648l-5.349,-0c-0.358,-0 -0.649,-0.291 -0.649,-0.648l0,-5.349c0,-0.358 0.291,-0.649 0.649,-0.649l5.349,0Z"/></g><path d="M5.345,4.831l-0.153,0.002l-0.187,0.746l0.045,2.416l-0.436,-2.557l0.2,-0.717l-0.172,-0.052l-0.515,0.833l0.463,2.24l-0.793,-2.322l0.465,-0.864l-0.147,-0.043l0.19,-0.734l-0.33,-0.207l-0.293,0.119l0.301,-0.476l0.561,0.288l0.898,-0.114l0.047,-0.016l0.655,0.148l0.561,-0.288l0.301,0.476l-0.293,-0.119l-0.33,0.207l0.19,0.733l-0.147,0.044l0.465,0.864l-0.833,2.281l0.503,-2.2l-0.515,-0.832l-0.172,0.052l0.2,0.716l-0.513,2.509l0.122,-2.367l-0.187,-0.746l-0.151,-0.02Zm-0.945,-0.884l0.832,0.562l-0.256,-0.613l-0.353,-0.116l-0.223,0.167Zm1.889,-0l-0.224,-0.167l-0.353,0.116l-0.256,0.613l0.833,-0.562Z" style="fill:#c1b9b9;"/></svg>