<?xml version="1.0" encoding="UTF-8" standalone="no"?><!DOCTYPE svg PUBLIC "-//W3C//DTD SVG 1.1//EN" "http://www.w3.org/Graphics/SVG/1.1/DTD/svg11.dtd"><svg width="100%" height="100%" viewBox="0 0 11 11" version="1.1" xmlns="http://www.w3.org/2000/svg" xmlns:xlink="http://www.w3.org/1999/xlink" xml:space="preserve" xmlns:serif="http://www.serif.com/" style="fill-rule:evenodd;clip-rule:evenodd;stroke-linejoin:round;stroke-miterlimit:2;"><rect id="ac_d6_6" x="0.064" y="0.096" width="10.56" height="10.56" style="fill:none;"/><g><path d="M8.524,0.936c0.696,0 1.26,0.564 1.26,1.26l0,6.36c0,0.696 -0.564,1.26 -1.26,1.26l-6.36,0c-0.696,0 -1.26,-0.564 -1.26,-1.26l0,-6.36c0,-0.696 0.564,-1.26 1.26,-1.26l6.36,0Z" style="fill:#222;"/><path d="M8.019,2.053c0.357,0 0.648,0.291 0.648,0.649l-0,5.349c-0,0.357 -0.291,0.648 -0.648,0.648l-5.349,-0c-0.358,-0 -0.649,-0.291 -0.649,-0.648l0,-5.349c0,-0.358 0.291,-0.649 0.649,-0.649l5.349,0Z"/></g><path d="M5.346,4.897l-0.191,0.003l-0.234,0.929l0.057,3.01l-0.543,-3.187l0.248,-0.893l-0.214,-0.064l-0.641,1.037l0.576,2.792l-0.987,-2.894l0.579,-1.076l-0.184,-0.054l0.238,-0.914l-0.412,-0.258l-0.365,0.148l0.375,-0.592l0.699,0.358l1.12,-0.143l0.058,-0.019l0.816,0.184l0.699,-0.358l0.375,0.592l-0.365,-0.148l-0.412,0.259l0.238,0.913l-0.184,0.055l0.579,1.075l-1.037,2.843l0.626,-2.741l-0.641,-1.036l-0.214,0.063l0.248,0.894l-0.639,3.125l0.153,-2.949l-0.234,-0.929l-0.187,-0.025Zm-1.179,-1.102l1.038,0.7l-0.32,-0.764l-0.439,-0.143l-0.279,0.207Zm2.354,-0l-0.279,-0.207l-0.439,0.143l-0.32,0.764l1.038,-0.7Z" style="fill:#c1b9b9;"/></svg>