<?xml version="1.0" encoding="UTF-8" standalone="no"?><!DOCTYPE svg PUBLIC "-//W3C//DTD SVG 1.1//EN" "http://www.w3.org/Graphics/SVG/1.1/DTD/svg11.dtd"><svg width="100%" height="100%" viewBox="0 0 11 11" version="1.1" xmlns="http://www.w3.org/2000/svg" xmlns:xlink="http://www.w3.org/1999/xlink" xml:space="preserve" xmlns:serif="http://www.serif.com/" style="fill-rule:evenodd;clip-rule:evenodd;stroke-linecap:round;stroke-miterlimit:3;"><rect id="ac_d20_10" x="0.053" y="0.22" width="10.56" height="10.56" style="fill:none;"/><g><path d="M5.249,0.816c0.055,-0.015 0.114,-0.015 0.169,-0c0.364,0.099 1.79,0.486 2.152,0.585c0.055,0.015 0.106,0.044 0.146,0.085c0.265,0.268 1.314,1.332 1.577,1.599c0.04,0.04 0.068,0.09 0.082,0.144c0.097,0.365 0.482,1.824 0.579,2.188c0.014,0.054 0.014,0.111 -0,0.165c-0.097,0.364 -0.482,1.823 -0.579,2.188c-0.014,0.055 -0.042,0.104 -0.082,0.145c-0.263,0.267 -1.312,1.33 -1.577,1.599c-0.04,0.041 -0.091,0.07 -0.146,0.085c-0.362,0.099 -1.788,0.486 -2.152,0.585c-0.055,0.015 -0.114,0.015 -0.169,-0c-0.364,-0.099 -1.79,-0.486 -2.152,-0.585c-0.056,-0.015 -0.106,-0.044 -0.146,-0.085c-0.265,-0.269 -1.314,-1.332 -1.577,-1.599c-0.04,-0.041 -0.068,-0.09 -0.083,-0.145c-0.096,-0.365 -0.482,-1.824 -0.578,-2.188c-0.014,-0.054 -0.014,-0.111 0,-0.165c0.096,-0.364 0.482,-1.823 0.578,-2.188c0.015,-0.054 0.043,-0.104 0.083,-0.144c0.263,-0.267 1.312,-1.331 1.577,-1.599c0.04,-0.041 0.09,-0.07 0.146,-0.085c0.362,-0.099 1.788,-0.486 2.152,-0.585Z" style="fill:#222;stroke:#000;stroke-width:0.25px;"/><path d="M5.007,2.87c0.067,-0.116 0.192,-0.188 0.326,-0.188c0.135,0 0.26,0.072 0.327,0.188c0.597,1.027 1.858,3.194 2.458,4.226c0.068,0.117 0.068,0.261 0.001,0.378c-0.068,0.118 -0.193,0.19 -0.328,0.19c-1.197,0 -3.718,0 -4.915,0c-0.135,0 -0.26,-0.072 -0.328,-0.19c-0.067,-0.117 -0.067,-0.261 0.001,-0.378c0.6,-1.032 1.86,-3.199 2.458,-4.226Z"/></g><g><path d="M3.505,8.125l-0,-4.085l-0.41,-0l0,-0.58l0.817,-0.585l0.408,-0l0,5.25l-0.815,-0Z" style="fill:#c1b9b9;fill-rule:nonzero;"/><path d="M5.937,2.875l0.819,-0c0.224,-0 0.415,0.115 0.576,0.344c0.16,0.23 0.24,0.503 0.24,0.821l-0,2.92c-0,0.315 -0.08,0.588 -0.24,0.819c-0.161,0.231 -0.352,0.346 -0.576,0.346l-0.819,-0c-0.223,-0 -0.415,-0.115 -0.575,-0.343c-0.16,-0.229 -0.24,-0.503 -0.24,-0.822l-0,-2.92c-0,-0.319 0.08,-0.593 0.24,-0.822c0.16,-0.229 0.352,-0.343 0.575,-0.343Zm0.81,1.059c-0.056,-0.316 -0.19,-0.474 -0.4,-0.474c-0.113,-0 -0.209,0.057 -0.289,0.171c-0.081,0.114 -0.121,0.25 -0.121,0.409l0,1.985l0.002,-0.004l-0,0.993l0.004,0.037c0.02,0.162 0.068,0.284 0.135,0.366c0.067,0.082 0.156,0.123 0.269,0.123c0.113,-0 0.21,-0.058 0.29,-0.173c0.079,-0.114 0.119,-0.25 0.119,-0.407l0,-1.141l0.001,-0l-0.01,-1.885Z" style="fill:#c1b9b9;"/></g></svg>