<?xml version="1.0" encoding="UTF-8" standalone="no"?><!DOCTYPE svg PUBLIC "-//W3C//DTD SVG 1.1//EN" "http://www.w3.org/Graphics/SVG/1.1/DTD/svg11.dtd"><svg width="100%" height="100%" viewBox="0 0 11 11" version="1.1" xmlns="http://www.w3.org/2000/svg" xmlns:xlink="http://www.w3.org/1999/xlink" xml:space="preserve" xmlns:serif="http://www.serif.com/" style="fill-rule:evenodd;clip-rule:evenodd;stroke-linecap:round;stroke-miterlimit:3;"><rect id="ac_d20_16" x="0.218" y="0.22" width="10.56" height="10.56" style="fill:none;"/><g><path d="M5.414,0.816c0.055,-0.015 0.114,-0.015 0.169,-0c0.364,0.099 1.79,0.486 2.152,0.585c0.055,0.015 0.106,0.044 0.146,0.085c0.265,0.268 1.314,1.332 1.577,1.599c0.04,0.04 0.068,0.09 0.082,0.144c0.097,0.365 0.482,1.824 0.579,2.188c0.014,0.054 0.014,0.111 -0,0.165c-0.097,0.364 -0.482,1.823 -0.579,2.188c-0.014,0.055 -0.042,0.104 -0.082,0.145c-0.263,0.267 -1.312,1.33 -1.577,1.599c-0.04,0.041 -0.091,0.07 -0.146,0.085c-0.362,0.099 -1.788,0.486 -2.152,0.585c-0.055,0.015 -0.114,0.015 -0.169,-0c-0.364,-0.099 -1.79,-0.486 -2.152,-0.585c-0.056,-0.015 -0.106,-0.044 -0.146,-0.085c-0.265,-0.269 -1.314,-1.332 -1.577,-1.599c-0.04,-0.041 -0.068,-0.09 -0.083,-0.145c-0.096,-0.365 -0.482,-1.824 -0.578,-2.188c-0.014,-0.054 -0.014,-0.111 0,-0.165c0.096,-0.364 0.482,-1.823 0.578,-2.188c0.015,-0.054 0.043,-0.104 0.083,-0.144c0.263,-0.267 1.312,-1.331 1.577,-1.599c0.04,-0.041 0.09,-0.07 0.146,-0.085c0.362,-0.099 1.788,-0.486 2.152,-0.585Z" style="fill:#222;stroke:#000;stroke-width:0.25px;"/><path d="M5.172,2.87c0.067,-0.116 0.192,-0.188 0.326,-0.188c0.135,0 0.26,0.072 0.327,0.188c0.597,1.027 1.858,3.194 2.458,4.226c0.068,0.117 0.068,0.261 0.001,0.378c-0.068,0.118 -0.193,0.19 -0.328,0.19c-1.197,0 -3.718,0 -4.915,0c-0.135,0 -0.26,-0.072 -0.328,-0.19c-0.067,-0.117 -0.067,-0.261 0.001,-0.378c0.6,-1.032 1.86,-3.199 2.458,-4.226Z"/></g><g><path d="M3.67,8.125l-0,-4.085l-0.41,-0l0,-0.58l0.817,-0.585l0.408,-0l0,5.25l-0.815,-0Z" style="fill:#c1b9b9;fill-rule:nonzero;"/><path d="M6.921,6.96l0,-1.17c0,-0.159 -0.04,-0.295 -0.121,-0.409c-0.081,-0.114 -0.177,-0.171 -0.288,-0.171c-0.113,-0 -0.209,0.057 -0.289,0.171c-0.081,0.114 -0.121,0.25 -0.121,0.409l0,1.17c0,0.157 0.04,0.293 0.12,0.407c0.08,0.115 0.176,0.173 0.29,0.173c0.113,-0 0.21,-0.058 0.29,-0.173c0.079,-0.114 0.119,-0.25 0.119,-0.407Zm-0.819,-1.75c0.017,-0.197 0.059,-0.344 0.127,-0.44c0.069,-0.097 0.163,-0.145 0.283,-0.145l0.409,-0c0.224,-0 0.415,0.114 0.576,0.343c0.16,0.229 0.24,0.503 0.24,0.822l-0,1.17c-0,0.315 -0.08,0.588 -0.24,0.819c-0.161,0.231 -0.352,0.346 -0.576,0.346l-0.819,-0c-0.223,-0 -0.415,-0.115 -0.575,-0.346c-0.16,-0.231 -0.24,-0.504 -0.24,-0.819l-0,-2.045c-0,-0.558 0.14,-1.038 0.422,-1.439c0.281,-0.401 0.616,-0.601 1.006,-0.601l0.612,-0l0,0.585l-0.406,-0c-0.226,-0 -0.419,0.115 -0.579,0.345c-0.16,0.229 -0.24,0.503 -0.24,0.82l0,0.585Z" style="fill:#c1b9b9;fill-rule:nonzero;"/></g></svg>