<?xml version="1.0" encoding="UTF-8" standalone="no"?><!DOCTYPE svg PUBLIC "-//W3C//DTD SVG 1.1//EN" "http://www.w3.org/Graphics/SVG/1.1/DTD/svg11.dtd"><svg width="100%" height="100%" viewBox="0 0 11 11" version="1.1" xmlns="http://www.w3.org/2000/svg" xmlns:xlink="http://www.w3.org/1999/xlink" xml:space="preserve" xmlns:serif="http://www.serif.com/" style="fill-rule:evenodd;clip-rule:evenodd;stroke-linecap:round;stroke-miterlimit:3;"><rect id="ac_d20_8" x="0.052" y="0.22" width="10.56" height="10.56" style="fill:none;"/><g><path d="M5.247,0.816c0.056,-0.015 0.114,-0.015 0.17,-0c0.363,0.099 1.79,0.486 2.152,0.585c0.055,0.015 0.105,0.044 0.145,0.085c0.266,0.268 1.314,1.332 1.578,1.599c0.039,0.04 0.068,0.09 0.082,0.144c0.097,0.365 0.482,1.824 0.578,2.188c0.015,0.054 0.015,0.111 0,0.165c-0.096,0.364 -0.481,1.823 -0.578,2.188c-0.014,0.055 -0.043,0.104 -0.082,0.145c-0.264,0.267 -1.312,1.33 -1.578,1.599c-0.04,0.041 -0.09,0.07 -0.145,0.085c-0.362,0.099 -1.789,0.486 -2.152,0.585c-0.056,0.015 -0.114,0.015 -0.17,-0c-0.363,-0.099 -1.789,-0.486 -2.152,-0.585c-0.055,-0.015 -0.105,-0.044 -0.145,-0.085c-0.265,-0.269 -1.314,-1.332 -1.578,-1.599c-0.039,-0.041 -0.067,-0.09 -0.082,-0.145c-0.096,-0.365 -0.482,-1.824 -0.578,-2.188c-0.014,-0.054 -0.014,-0.111 -0,-0.165c0.096,-0.364 0.482,-1.823 0.578,-2.188c0.015,-0.054 0.043,-0.104 0.082,-0.144c0.264,-0.267 1.313,-1.331 1.578,-1.599c0.04,-0.041 0.09,-0.07 0.145,-0.085c0.363,-0.099 1.789,-0.486 2.152,-0.585Z" style="fill:#222;stroke:#000;stroke-width:0.25px;"/><path d="M5.005,2.87c0.068,-0.116 0.192,-0.188 0.327,-0.188c0.135,0 0.259,0.072 0.327,0.188c0.597,1.027 1.858,3.194 2.457,4.226c0.068,0.117 0.069,0.261 0.001,0.378c-0.067,0.118 -0.192,0.19 -0.327,0.19c-1.197,0 -3.718,0 -4.915,0c-0.136,0 -0.261,-0.072 -0.328,-0.19c-0.067,-0.117 -0.067,-0.261 0.001,-0.378c0.6,-1.032 1.86,-3.199 2.457,-4.226Z"/></g><path d="M5.669,5.5c0.224,-0 0.392,0.103 0.503,0.31c0.112,0.207 0.168,0.423 0.168,0.648l0,0.243c0,0.212 -0.064,0.424 -0.194,0.638c-0.129,0.214 -0.288,0.321 -0.477,0.321l-0.674,-0c-0.189,-0 -0.348,-0.107 -0.477,-0.321c-0.129,-0.214 -0.194,-0.426 -0.194,-0.638l0,-0.243c0,-0.225 0.056,-0.441 0.167,-0.648c0.111,-0.207 0.279,-0.31 0.504,-0.31c-0.222,-0.038 -0.39,-0.137 -0.502,-0.297c-0.113,-0.161 -0.169,-0.381 -0.169,-0.662l0,-0.243c0,-0.261 0.066,-0.486 0.198,-0.675c0.132,-0.189 0.289,-0.283 0.473,-0.283l0.674,-0c0.184,-0 0.342,0.094 0.474,0.283c0.131,0.189 0.197,0.414 0.197,0.675l0,0.243c0,0.281 -0.056,0.501 -0.168,0.662c-0.111,0.16 -0.279,0.259 -0.503,0.297Zm0,-0.72l0,-0.482c0,-0.13 -0.033,-0.242 -0.1,-0.336c-0.066,-0.094 -0.145,-0.141 -0.237,-0.141c-0.092,0 -0.172,0.047 -0.238,0.141c-0.066,0.094 -0.099,0.206 -0.099,0.336l0,0.482c0,0.13 0.033,0.243 0.099,0.338c0.066,0.096 0.146,0.143 0.238,0.143c0.092,0 0.171,-0.047 0.237,-0.143c0.067,-0.095 0.1,-0.208 0.1,-0.338Zm0,1.921l0,-0.481c0,-0.321 -0.112,-0.482 -0.337,-0.482c-0.225,0 -0.337,0.161 -0.337,0.482l0,0.481c0,0.131 0.033,0.243 0.099,0.337c0.066,0.093 0.146,0.14 0.238,0.14c0.092,0 0.171,-0.047 0.237,-0.14c0.067,-0.094 0.1,-0.206 0.1,-0.337Z" style="fill:#c1b9b9;fill-rule:nonzero;"/></svg>