<?xml version="1.0" encoding="UTF-8" standalone="no"?><!DOCTYPE svg PUBLIC "-//W3C//DTD SVG 1.1//EN" "http://www.w3.org/Graphics/SVG/1.1/DTD/svg11.dtd"><svg width="100%" height="100%" viewBox="0 0 11 11" version="1.1" xmlns="http://www.w3.org/2000/svg" xmlns:xlink="http://www.w3.org/1999/xlink" xml:space="preserve" xmlns:serif="http://www.serif.com/" style="fill-rule:evenodd;clip-rule:evenodd;stroke-linejoin:round;stroke-miterlimit:2;"><rect id="ac_d6_4" x="0.14" y="0.096" width="10.56" height="10.56" style="fill:none;"/><g><path d="M8.6,0.936c0.696,0 1.26,0.564 1.26,1.26l-0,6.36c-0,0.696 -0.564,1.26 -1.26,1.26l-6.36,0c-0.696,0 -1.26,-0.564 -1.26,-1.26l-0,-6.36c-0,-0.696 0.564,-1.26 1.26,-1.26l6.36,0Z" style="fill:#222;"/><path d="M8.094,2.053c0.358,0 0.649,0.291 0.649,0.649l-0,5.349c-0,0.357 -0.291,0.648 -0.649,0.648l-5.349,-0c-0.357,-0 -0.648,-0.291 -0.648,-0.648l0,-5.349c0,-0.358 0.291,-0.649 0.648,-0.649l5.349,0Z"/></g><path d="M4.543,5.196l0,-0.046l0.04,-0.125l-0.333,-0.084l0.371,-0.036l0.019,-0.059l0.022,-0.021l-0.52,-0.386l0.617,0.295l0.075,-0.071l-0.298,-0.551l0.361,0.492l0.087,-0.082l-0.204,-0.857l0.45,0.817l0.065,-0.008l0.003,-0.284l0.138,0.266l0.051,-0.006l0.08,-0.728l0.028,0.714l0.124,-0.015l0.022,0.009l0.316,-1.118l-0.108,1.201l0.088,0.036l0.003,0.001c0.114,-0.206 0.354,-0.657 0.354,-0.657l-0.159,0.543l0.439,-0.624l-0.411,0.86l0.13,0.071l0.723,-0.367l-0.614,0.59l0.028,0.071l0.25,-0.079l-0.246,0.209l-0.002,0.013l0.704,-0.163l-0.723,0.348l-0.01,0.106l-0.001,0.007l0.805,0.215l-0.72,0.052c0.181,0.068 0.426,0.159 0.468,0.168c0.054,0.012 -0.404,-0.001 -0.619,-0.007l-0.018,0.117l-0.025,0.055l0.306,0.252l-0.364,-0.124l-0.031,0.071l0.508,0.614l-0.723,-0.459l-0.138,0.077l0.119,0.635l-0.32,-0.635l-0.08,-0.011l0.007,0.942l-0.159,-0.964l-0.08,-0.012l-0.173,0.882l-0.026,-0.92l-0.071,-0.02l-0.14,0.38l0.04,-0.407l-0.031,-0.009l-0.576,0.565l0.359,-0.681l-0.024,-0.033l-0.45,0.218l0.206,-0.195l-0.342,0.142l0.429,-0.379l-0.031,-0.042l-0.003,-0.019l-0.986,0.081l0.958,-0.289l-0.018,-0.13l-0.559,-0.036l0.545,-0.067l-0.005,-0.042l-0,-0.028l-1.007,-0.232l1.01,-0.007Zm1.019,-0.335l-0.217,0.057l-0.174,0.199l-0.157,0.322l0.019,0.319l0.169,0.206l0.32,0.092l0.512,-0.2l0.019,-0.447l-0.12,-0.341l-0.371,-0.207Z" style="fill:#c1b9b9;"/></svg>