<?xml version="1.0" encoding="UTF-8" standalone="no"?><!DOCTYPE svg PUBLIC "-//W3C//DTD SVG 1.1//EN" "http://www.w3.org/Graphics/SVG/1.1/DTD/svg11.dtd"><svg width="100%" height="100%" viewBox="0 0 11 11" version="1.1" xmlns="http://www.w3.org/2000/svg" xmlns:xlink="http://www.w3.org/1999/xlink" xml:space="preserve" xmlns:serif="http://www.serif.com/" style="fill-rule:evenodd;clip-rule:evenodd;stroke-linecap:round;stroke-miterlimit:3;"><rect id="ac_d20_" x="0.026" y="0.22" width="10.56" height="10.56" style="fill:none;"/><g><path d="M5.222,0.816c0.055,-0.015 0.113,-0.015 0.169,-0c0.363,0.099 1.79,0.486 2.152,0.585c0.055,0.015 0.105,0.044 0.145,0.085c0.266,0.268 1.314,1.332 1.578,1.599c0.04,0.04 0.068,0.09 0.082,0.144c0.097,0.365 0.482,1.824 0.578,2.188c0.015,0.054 0.015,0.111 0,0.165c-0.096,0.364 -0.481,1.823 -0.578,2.188c-0.014,0.055 -0.042,0.104 -0.082,0.145c-0.264,0.267 -1.312,1.33 -1.578,1.599c-0.04,0.041 -0.09,0.07 -0.145,0.085c-0.362,0.099 -1.789,0.486 -2.152,0.585c-0.056,0.015 -0.114,0.015 -0.169,-0c-0.364,-0.099 -1.79,-0.486 -2.153,-0.585c-0.055,-0.015 -0.105,-0.044 -0.145,-0.085c-0.265,-0.269 -1.314,-1.332 -1.578,-1.599c-0.039,-0.041 -0.067,-0.09 -0.082,-0.145c-0.096,-0.365 -0.482,-1.824 -0.578,-2.188c-0.014,-0.054 -0.014,-0.111 0,-0.165c0.096,-0.364 0.482,-1.823 0.578,-2.188c0.015,-0.054 0.043,-0.104 0.082,-0.144c0.264,-0.267 1.313,-1.331 1.578,-1.599c0.04,-0.041 0.09,-0.07 0.145,-0.085c0.363,-0.099 1.789,-0.486 2.153,-0.585Z" style="fill:#222;stroke:#000;stroke-width:0.25px;"/><path d="M4.979,2.87c0.068,-0.116 0.193,-0.188 0.327,-0.188c0.135,0 0.259,0.072 0.327,0.188c0.597,1.027 1.858,3.194 2.458,4.226c0.068,0.117 0.068,0.261 0,0.378c-0.067,0.118 -0.192,0.19 -0.327,0.19c-1.197,0 -3.718,0 -4.915,0c-0.135,0 -0.26,-0.072 -0.328,-0.19c-0.067,-0.117 -0.067,-0.261 0.001,-0.378c0.6,-1.032 1.86,-3.199 2.457,-4.226Z"/></g><path d="M4.491,4.04l-0.41,-0c0.064,-0.777 0.336,-1.165 0.816,-1.165l0.819,-0c0.223,-0 0.415,0.115 0.575,0.344c0.16,0.23 0.24,0.503 0.24,0.821l0,0.295c0,0.403 -0.263,0.925 -0.79,1.567l-0.054,0.068c-0.527,0.644 -0.79,1.15 -0.79,1.518l-0,0.052l1.634,-0l0,0.585l-2.45,-0l0,-0.585c0,-0.403 0.263,-0.926 0.789,-1.57l0.055,-0.068c0.527,-0.642 0.791,-1.164 0.791,-1.567l-0,-0.295c-0,-0.159 -0.041,-0.295 -0.123,-0.409c-0.081,-0.114 -0.177,-0.171 -0.287,-0.171l-0.409,-0c-0.252,-0 -0.387,0.193 -0.406,0.58Z" style="fill:#c1b9b9;fill-rule:nonzero;"/></svg>