<?xml version="1.0" encoding="UTF-8" standalone="no"?><!DOCTYPE svg PUBLIC "-//W3C//DTD SVG 1.1//EN" "http://www.w3.org/Graphics/SVG/1.1/DTD/svg11.dtd"><svg width="100%" height="100%" viewBox="0 0 11 11" version="1.1" xmlns="http://www.w3.org/2000/svg" xmlns:xlink="http://www.w3.org/1999/xlink" xml:space="preserve" xmlns:serif="http://www.serif.com/" style="fill-rule:evenodd;clip-rule:evenodd;stroke-linecap:round;stroke-miterlimit:3;"><rect id="ac_d20_6" x="0.027" y="0.22" width="10.56" height="10.56" style="fill:none;"/><g><path d="M5.222,0.816c0.055,-0.015 0.114,-0.015 0.169,-0c0.364,0.099 1.79,0.486 2.152,0.585c0.056,0.015 0.106,0.044 0.146,0.085c0.265,0.268 1.314,1.332 1.577,1.599c0.04,0.04 0.068,0.09 0.083,0.144c0.096,0.365 0.482,1.824 0.578,2.188c0.014,0.054 0.014,0.111 -0,0.165c-0.096,0.364 -0.482,1.823 -0.578,2.188c-0.015,0.055 -0.043,0.104 -0.083,0.145c-0.263,0.267 -1.312,1.33 -1.577,1.599c-0.04,0.041 -0.09,0.07 -0.146,0.085c-0.362,0.099 -1.788,0.486 -2.152,0.585c-0.055,0.015 -0.114,0.015 -0.169,-0c-0.364,-0.099 -1.79,-0.486 -2.152,-0.585c-0.055,-0.015 -0.106,-0.044 -0.146,-0.085c-0.265,-0.269 -1.314,-1.332 -1.577,-1.599c-0.04,-0.041 -0.068,-0.09 -0.083,-0.145c-0.096,-0.365 -0.481,-1.824 -0.578,-2.188c-0.014,-0.054 -0.014,-0.111 0,-0.165c0.097,-0.364 0.482,-1.823 0.578,-2.188c0.015,-0.054 0.043,-0.104 0.083,-0.144c0.263,-0.267 1.312,-1.331 1.577,-1.599c0.04,-0.041 0.091,-0.07 0.146,-0.085c0.362,-0.099 1.788,-0.486 2.152,-0.585Z" style="fill:#222;stroke:#000;stroke-width:0.25px;"/><path d="M4.98,2.87c0.067,-0.116 0.192,-0.188 0.327,-0.188c0.134,0 0.259,0.072 0.326,0.188c0.598,1.027 1.858,3.194 2.458,4.226c0.068,0.117 0.068,0.261 0.001,0.378c-0.068,0.118 -0.193,0.19 -0.328,0.19c-1.197,0 -3.718,0 -4.915,0c-0.135,0 -0.26,-0.072 -0.328,-0.19c-0.067,-0.117 -0.067,-0.261 0.001,-0.378c0.6,-1.032 1.861,-3.199 2.458,-4.226Z"/></g><path d="M5.644,6.701l-0,-0.963c-0,-0.13 -0.034,-0.242 -0.1,-0.336c-0.067,-0.094 -0.146,-0.141 -0.237,-0.141c-0.093,0 -0.172,0.047 -0.238,0.141c-0.066,0.094 -0.1,0.206 -0.1,0.336l0,0.963c0,0.129 0.033,0.241 0.099,0.336c0.066,0.094 0.145,0.141 0.239,0.141c0.093,0 0.173,-0.047 0.238,-0.141c0.066,-0.095 0.099,-0.207 0.099,-0.336Zm-0.675,-1.44c0.014,-0.162 0.049,-0.282 0.105,-0.362c0.056,-0.079 0.134,-0.119 0.233,-0.119l0.337,-0c0.183,-0 0.341,0.094 0.473,0.282c0.132,0.188 0.198,0.414 0.198,0.676l-0,0.963c-0,0.26 -0.066,0.484 -0.198,0.674c-0.132,0.19 -0.29,0.285 -0.473,0.285l-0.675,-0c-0.183,-0 -0.341,-0.095 -0.473,-0.285c-0.132,-0.19 -0.197,-0.414 -0.197,-0.674l-0,-1.683c-0,-0.459 0.115,-0.853 0.347,-1.183c0.231,-0.33 0.507,-0.495 0.827,-0.495l0.504,-0l0,0.481l-0.333,0c-0.186,0 -0.345,0.095 -0.477,0.284c-0.132,0.189 -0.198,0.414 -0.198,0.675l0,0.481Z" style="fill:#c1b9b9;fill-rule:nonzero;"/></svg>