<?xml version="1.0" encoding="UTF-8" standalone="no"?><!DOCTYPE svg PUBLIC "-//W3C//DTD SVG 1.1//EN" "http://www.w3.org/Graphics/SVG/1.1/DTD/svg11.dtd"><svg width="100%" height="100%" viewBox="0 0 11 11" version="1.1" xmlns="http://www.w3.org/2000/svg" xmlns:xlink="http://www.w3.org/1999/xlink" xml:space="preserve" xmlns:serif="http://www.serif.com/" style="fill-rule:evenodd;clip-rule:evenodd;stroke-linecap:round;stroke-miterlimit:3;"><rect id="ac_d20_5" x="0.072" y="0.22" width="10.56" height="10.56" style="fill:none;"/><g><path d="M5.268,0.816c0.055,-0.015 0.114,-0.015 0.169,-0c0.364,0.099 1.79,0.486 2.152,0.585c0.055,0.015 0.106,0.044 0.146,0.085c0.265,0.268 1.314,1.332 1.577,1.599c0.04,0.04 0.068,0.09 0.083,0.144c0.096,0.365 0.482,1.824 0.578,2.188c0.014,0.054 0.014,0.111 -0,0.165c-0.096,0.364 -0.482,1.823 -0.578,2.188c-0.015,0.055 -0.043,0.104 -0.083,0.145c-0.263,0.267 -1.312,1.33 -1.577,1.599c-0.04,0.041 -0.091,0.07 -0.146,0.085c-0.362,0.099 -1.788,0.486 -2.152,0.585c-0.055,0.015 -0.114,0.015 -0.169,-0c-0.364,-0.099 -1.79,-0.486 -2.152,-0.585c-0.055,-0.015 -0.106,-0.044 -0.146,-0.085c-0.265,-0.269 -1.314,-1.332 -1.577,-1.599c-0.04,-0.041 -0.068,-0.09 -0.083,-0.145c-0.096,-0.365 -0.482,-1.824 -0.578,-2.188c-0.014,-0.054 -0.014,-0.111 0,-0.165c0.096,-0.364 0.482,-1.823 0.578,-2.188c0.015,-0.054 0.043,-0.104 0.083,-0.144c0.263,-0.267 1.312,-1.331 1.577,-1.599c0.04,-0.041 0.091,-0.07 0.146,-0.085c0.362,-0.099 1.788,-0.486 2.152,-0.585Z" style="fill:#222;stroke:#000;stroke-width:0.25px;"/><path d="M5.026,2.87c0.067,-0.116 0.192,-0.188 0.326,-0.188c0.135,0 0.26,0.072 0.327,0.188c0.597,1.027 1.858,3.194 2.458,4.226c0.068,0.117 0.068,0.261 0.001,0.378c-0.068,0.118 -0.193,0.19 -0.328,0.19c-1.197,0 -3.718,0 -4.915,0c-0.135,0 -0.26,-0.072 -0.328,-0.19c-0.067,-0.117 -0.067,-0.261 0.001,-0.378c0.6,-1.032 1.86,-3.199 2.458,-4.226Z"/></g><path d="M4.344,3.34l2.016,-0l-0.001,0.481l-1.344,0l0,0.959l0.675,-0c0.183,-0 0.341,0.094 0.473,0.282c0.132,0.188 0.197,0.414 0.197,0.676l0,0.963c0,0.263 -0.066,0.488 -0.199,0.676c-0.133,0.189 -0.29,0.283 -0.471,0.283l-0.675,-0c-0.395,-0 -0.619,-0.32 -0.671,-0.959l0.338,0c0.015,0.318 0.127,0.477 0.333,0.477l0.337,0c0.092,0 0.171,-0.047 0.238,-0.14c0.066,-0.094 0.1,-0.206 0.1,-0.337l-0,-0.963c-0,-0.13 -0.034,-0.242 -0.1,-0.336c-0.067,-0.094 -0.146,-0.141 -0.238,-0.141l-1.008,0l0,-1.921Z" style="fill:#c1b9b9;fill-rule:nonzero;"/></svg>