<?xml version="1.0" encoding="UTF-8" standalone="no"?><!DOCTYPE svg PUBLIC "-//W3C//DTD SVG 1.1//EN" "http://www.w3.org/Graphics/SVG/1.1/DTD/svg11.dtd"><svg width="100%" height="100%" viewBox="0 0 11 11" version="1.1" xmlns="http://www.w3.org/2000/svg" xmlns:xlink="http://www.w3.org/1999/xlink" xml:space="preserve" xmlns:serif="http://www.serif.com/" style="fill-rule:evenodd;clip-rule:evenodd;stroke-linejoin:round;stroke-miterlimit:2;"><rect id="t2000_d6_6" x="0.042" y="0.139" width="10.56" height="10.56" style="fill:none;"/><g><path d="M8.503,0.979c0.695,0 1.259,0.564 1.259,1.26l0,6.361c0,0.695 -0.564,1.259 -1.259,1.259l-6.361,0c-0.696,0 -1.26,-0.564 -1.26,-1.259l0,-6.361c0,-0.696 0.564,-1.26 1.26,-1.26l6.361,0Z" style="fill:#88804b;"/><path d="M7.997,2.097c0.358,-0 0.648,0.29 0.648,0.648l-0,5.349c-0,0.358 -0.29,0.648 -0.648,0.648l-5.349,-0c-0.358,-0 -0.648,-0.29 -0.648,-0.648l-0,-5.349c-0,-0.358 0.29,-0.648 0.648,-0.648l5.349,-0Z" style="fill:#5a563c;"/></g><path d="M2.461,3.207c0.034,-0.019 0.081,-0.044 0.12,-0.044c0.1,0.011 0.103,0.117 0.103,0.13l-0,0.64c-0,0.014 -0.006,0.078 -0.103,0.097l-0,0.164c0.434,0.017 0.726,-0.308 0.726,-0.706c-0,-0.297 -0.226,-0.537 -0.526,-0.537c-0.114,0 -0.22,0.037 -0.32,0.092l0,0.164Zm-0.005,0.826c-0.128,-0.022 -0.156,-0.125 -0.156,-0.245l0,-1.348c0,-0.12 0.028,-0.222 0.156,-0.245l-0,-0.164c-0.37,0.006 -0.765,0.384 -0.779,1.082c0.014,0.697 0.409,1.076 0.779,1.081l-0,-0.161Zm0.125,-1.838c0.05,0 0.125,0.028 0.125,0.084c0,0.078 -0.106,0.105 -0.108,0.255c-0.003,0.137 0.13,0.245 0.264,0.245c0.172,0 0.306,-0.119 0.306,-0.297c-0,-0.284 -0.337,-0.448 -0.587,-0.451l-0,0.164Z" style="fill:#eada68;fill-rule:nonzero;"/><g><g><path d="M4.427,5.277l0,0.284l-1.716,-0l0,-0.284l1.716,-0Zm3.506,0.001l0,0.284l-1.716,-0l0,-0.284l1.716,0Zm-2.468,-0.754l-0.284,0l0,-1.716l0.284,0l-0,1.716Zm-0.001,3.506l-0.284,0l-0,-1.715l0.284,-0l-0,1.715Z" style="fill:#eada68;"/></g><g><path d="M5.322,3.801c0.893,0 1.618,0.725 1.618,1.618c0,0.893 -0.725,1.618 -1.618,1.618c-0.893,0 -1.618,-0.725 -1.618,-1.618c0,-0.893 0.725,-1.618 1.618,-1.618Zm0,0.293c-0.731,0 -1.325,0.594 -1.325,1.325c0,0.732 0.594,1.325 1.325,1.325c0.732,0 1.325,-0.593 1.325,-1.325c0,-0.731 -0.593,-1.325 -1.325,-1.325Z" style="fill:#eada68;"/></g><g><path d="M5.322,3.143c1.257,-0 2.277,1.02 2.277,2.276c-0,1.257 -1.02,2.277 -2.277,2.277c-1.256,0 -2.276,-1.02 -2.276,-2.277c-0,-1.256 1.02,-2.276 2.276,-2.276Zm0,0.293c-1.094,-0 -1.983,0.889 -1.983,1.983c-0,1.095 0.889,1.984 1.983,1.984c1.095,-0 1.984,-0.889 1.984,-1.984c-0,-1.094 -0.889,-1.983 -1.984,-1.983Z" style="fill:#eada68;"/></g></g></svg>