<?xml version="1.0" encoding="UTF-8" standalone="no"?><!DOCTYPE svg PUBLIC "-//W3C//DTD SVG 1.1//EN" "http://www.w3.org/Graphics/SVG/1.1/DTD/svg11.dtd"><svg width="100%" height="100%" viewBox="0 0 11 11" version="1.1" xmlns="http://www.w3.org/2000/svg" xmlns:xlink="http://www.w3.org/1999/xlink" xml:space="preserve" xmlns:serif="http://www.serif.com/" style="fill-rule:evenodd;clip-rule:evenodd;stroke-linejoin:round;stroke-miterlimit:2;"><rect id="t2000_d10_9" x="0.012" y="0.089" width="10.56" height="10.56" style="fill:none;"/><g><path d="M5.077,0.824c0.133,-0.077 0.297,-0.077 0.43,-0c0.709,0.409 2.964,1.711 3.673,2.12c0.133,0.077 0.215,0.219 0.215,0.373l-0,4.241c-0,0.153 -0.082,0.296 -0.215,0.372c-0.709,0.41 -2.964,1.712 -3.673,2.121c-0.133,0.077 -0.297,0.077 -0.43,-0c-0.709,-0.409 -2.964,-1.711 -3.673,-2.121c-0.133,-0.076 -0.215,-0.219 -0.215,-0.372l-0,-4.241c-0,-0.154 0.082,-0.296 0.215,-0.373c0.709,-0.409 2.964,-1.711 3.673,-2.12Z" style="fill:#88804b;"/><path d="M4.498,2.086c0.159,-0.298 0.47,-0.484 0.808,-0.483c0.338,0.001 0.647,0.189 0.805,0.488c0.723,1.378 1.765,3.363 2.384,4.541c0.128,0.244 0.141,0.533 0.036,0.788c-0.105,0.255 -0.317,0.45 -0.58,0.534c-0.644,0.204 -1.446,0.458 -1.997,0.633c-0.422,0.133 -0.875,0.134 -1.298,0.002c-0.558,-0.175 -1.376,-0.431 -2.031,-0.636c-0.265,-0.083 -0.479,-0.279 -0.584,-0.536c-0.105,-0.256 -0.091,-0.547 0.04,-0.791c0.628,-1.181 1.685,-3.164 2.417,-4.54Z" style="fill:#5a563c;"/></g><path d="M5.542,3.102c-0.026,0.015 -0.064,0.035 -0.094,0.035c-0.079,-0.009 -0.081,-0.092 -0.081,-0.103l-0,-0.504c-0,-0.011 0.004,-0.061 0.081,-0.077l-0,-0.129c-0.342,-0.013 -0.572,0.243 -0.572,0.557c-0,0.234 0.177,0.422 0.414,0.422c0.09,0 0.173,-0.028 0.252,-0.072l-0,-0.129Zm0.004,-0.651c0.101,0.018 0.123,0.099 0.123,0.193l0,1.063c0,0.094 -0.022,0.175 -0.123,0.192l0,0.13c0.292,-0.005 0.603,-0.303 0.614,-0.853c-0.011,-0.55 -0.322,-0.848 -0.614,-0.852l0,0.127Zm-0.098,1.448c-0.04,0 -0.099,-0.021 -0.099,-0.065c0,-0.062 0.088,-0.084 0.086,-0.202c-0.003,-0.107 -0.103,-0.193 -0.209,-0.193c-0.135,0 -0.241,0.095 -0.241,0.235c0,0.223 0.266,0.353 0.463,0.355l-0,-0.13Z" style="fill:#eada68;fill-opacity:0.9;fill-rule:nonzero;"/><g><g><path d="M4.808,6.813l-0,0.231l-1.393,-0l0,-0.231l1.393,0Zm2.845,0.001l0,0.231l-1.392,-0l-0,-0.231l1.392,0Zm-2.003,-0.612l-0.23,0l-0,-1.392l0.23,-0l-0,1.392Zm-0.001,2.846l-0.23,-0l-0,-1.393l0.23,0l-0,1.393Z" style="fill:#eada68;"/></g><g><path d="M5.534,5.616c0.725,-0 1.314,0.588 1.314,1.313c-0,0.725 -0.589,1.313 -1.314,1.313c-0.724,0 -1.313,-0.588 -1.313,-1.313c0,-0.725 0.589,-1.313 1.313,-1.313Zm0,0.238c-0.593,-0 -1.075,0.481 -1.075,1.075c-0,0.593 0.482,1.075 1.075,1.075c0.594,0 1.076,-0.482 1.076,-1.075c-0,-0.594 -0.482,-1.075 -1.076,-1.075Z" style="fill:#eada68;"/></g><g><path d="M5.534,5.081c1.02,0 1.848,0.828 1.848,1.848c0,1.02 -0.828,1.848 -1.848,1.848c-1.02,-0 -1.847,-0.828 -1.847,-1.848c-0,-1.02 0.827,-1.848 1.847,-1.848Zm0,0.238c-0.888,-0 -1.61,0.721 -1.61,1.61c0,0.888 0.722,1.61 1.61,1.61c0.889,-0 1.61,-0.722 1.61,-1.61c0,-0.889 -0.721,-1.61 -1.61,-1.61Z" style="fill:#eada68;"/></g></g></svg>