<?xml version="1.0" encoding="UTF-8" standalone="no"?><!DOCTYPE svg PUBLIC "-//W3C//DTD SVG 1.1//EN" "http://www.w3.org/Graphics/SVG/1.1/DTD/svg11.dtd"><svg width="100%" height="100%" viewBox="0 0 11 11" version="1.1" xmlns="http://www.w3.org/2000/svg" xmlns:xlink="http://www.w3.org/1999/xlink" xml:space="preserve" xmlns:serif="http://www.serif.com/" style="fill-rule:evenodd;clip-rule:evenodd;stroke-linejoin:round;stroke-miterlimit:2;"><rect id="t2000_body_123" x="0.121" y="0.209" width="10.56" height="10.56" style="fill:none;"/><g><g><path d="M8.581,1.049c0.696,-0 1.26,0.564 1.26,1.259l-0,6.361c-0,0.696 -0.564,1.26 -1.26,1.26l-6.361,-0c-0.695,-0 -1.259,-0.564 -1.259,-1.26l-0,-6.361c-0,-0.695 0.564,-1.259 1.259,-1.259l6.361,-0Z" style="fill:#88804b;"/></g><g><path d="M8.629,1.544c0.172,-0 0.336,0.068 0.458,0.189c0.121,0.122 0.19,0.287 0.19,0.459c-0,1.483 -0,5.11 -0,6.593c-0,0.172 -0.069,0.337 -0.19,0.459c-0.122,0.121 -0.286,0.19 -0.458,0.19c-1.461,-0 -4.996,-0 -6.457,-0c-0.171,-0 -0.336,-0.069 -0.458,-0.19c-0.121,-0.122 -0.19,-0.287 -0.19,-0.459c0,-1.483 0,-5.11 0,-6.593c0,-0.172 0.069,-0.337 0.19,-0.459c0.122,-0.121 0.287,-0.189 0.458,-0.189c1.461,-0 4.996,-0 6.457,-0Z" style="fill:#fff;"/></g></g><path d="M4.407,6.7l0.311,-0.835l0.017,-2.037l-1.088,-0.882l-0.625,-0.417l-0.218,-0.06l-0.051,-0.247l-0.069,-0.056l0.064,0.032l-0.014,-0.063l0.324,-0.02l0.168,0.2l0.35,0.297l1.243,0.622l0.293,0.008l-0,-0.292c-0.064,-0.084 -0.103,-0.196 -0.103,-0.319c0,-0.262 0.176,-0.474 0.392,-0.474c0.215,0 0.391,0.212 0.391,0.474c-0,0.123 -0.039,0.235 -0.103,0.319l0,0.292l0.293,-0.008l1.171,-0.586l0.393,-0.333l0.167,-0.2l0.324,0.02l-0.017,0.079l0.097,-0.048l-0.104,0.085l-0.046,0.218l-0.218,0.06l-0.456,0.305l-1.226,0.994l0.016,2.037l0.363,0.975l0.807,1.643l0.447,0.118l0.079,0.252l-0.512,-0.03l-0.346,-0.216l-0.605,-1.148l-0.915,-1.382l-0.994,1.5l-0.548,1.04l-0.346,0.215l-0.512,0.03l0.079,-0.251l0.447,-0.118l0.88,-1.793Z" style="fill:#413900;"/><g><g><g><path d="M6.399,5.411l-0.757,-0.14l0.017,0.315l-0.272,-0.318l-0.351,0.354l0.066,-0.342l-0.645,0.145l0.423,-0.367l-0.52,-0.26l0.461,-0.173l-0.419,-0.318l0.669,0.016l-0.131,-0.444l0.48,0.409l0.497,-0.401l-0.207,0.488l0.675,-0.078l-0.423,0.305l0.479,0.21l-0.521,0.215l0.479,0.384Z" style="fill:#413900;"/><ellipse cx="5.381" cy="4.786" rx="0.324" ry="0.31" style="fill:#fff;"/></g></g></g></svg>