<?xml version="1.0" encoding="UTF-8" standalone="no"?><!DOCTYPE svg PUBLIC "-//W3C//DTD SVG 1.1//EN" "http://www.w3.org/Graphics/SVG/1.1/DTD/svg11.dtd"><svg width="100%" height="100%" viewBox="0 0 11 11" version="1.1" xmlns="http://www.w3.org/2000/svg" xmlns:xlink="http://www.w3.org/1999/xlink" xml:space="preserve" xmlns:serif="http://www.serif.com/" style="fill-rule:evenodd;clip-rule:evenodd;stroke-linejoin:round;stroke-miterlimit:2;"><rect id="t2000_d10_5" x="0.144" y="0.089" width="10.56" height="10.56" style="fill:none;"/><g><path d="M5.209,0.824c0.133,-0.077 0.297,-0.077 0.43,-0c0.709,0.409 2.964,1.711 3.673,2.12c0.133,0.077 0.215,0.219 0.215,0.373l0,4.241c0,0.153 -0.082,0.296 -0.215,0.372c-0.709,0.41 -2.964,1.712 -3.673,2.121c-0.133,0.077 -0.297,0.077 -0.43,-0c-0.709,-0.409 -2.964,-1.711 -3.673,-2.121c-0.133,-0.076 -0.215,-0.219 -0.215,-0.372l0,-4.241c0,-0.154 0.082,-0.296 0.215,-0.373c0.709,-0.409 2.964,-1.711 3.673,-2.12Z" style="fill:#88804b;"/><path d="M4.63,2.086c0.159,-0.298 0.47,-0.484 0.808,-0.483c0.338,0.001 0.648,0.189 0.805,0.488c0.723,1.378 1.765,3.363 2.384,4.541c0.128,0.244 0.141,0.533 0.036,0.788c-0.104,0.255 -0.317,0.45 -0.58,0.534c-0.644,0.204 -1.446,0.458 -1.997,0.633c-0.422,0.133 -0.875,0.134 -1.297,0.002c-0.559,-0.175 -1.376,-0.431 -2.032,-0.636c-0.265,-0.083 -0.479,-0.279 -0.584,-0.536c-0.105,-0.256 -0.091,-0.547 0.04,-0.791c0.628,-1.181 1.685,-3.164 2.417,-4.54Z" style="fill:#5a563c;"/></g><path d="M3.817,4.597l-0.086,0.947c0,0.109 0.081,0.167 0.19,0.167c0.074,-0 0.155,-0.052 0.218,-0.092c0.184,-0.115 0.373,-0.178 0.574,-0.224l0,-0.448c-0.247,0.052 -0.465,0.201 -0.631,0.356l0.057,-0.672l-0.322,-0.034Zm1.16,3.17c0.885,0.017 1.614,-0.454 1.614,-1.419c0,-0.964 -0.729,-1.435 -1.614,-1.418l0,0.465c0.305,0.086 0.328,0.408 0.328,0.609l-0,0.821c-0,0.207 -0.023,0.523 -0.328,0.609l0,0.333Zm-0.264,-0.339c-0.074,-0.017 -0.293,-0.063 -0.293,-0.155c0,-0.069 0.293,-0.184 0.299,-0.545c0.006,-0.311 -0.253,-0.563 -0.569,-0.563c-0.356,-0 -0.62,0.281 -0.62,0.637c0,0.586 0.661,0.942 1.183,0.965l0,-0.339Zm-0.781,-4.129l-0.115,1.068l0.885,0.063c0.442,0 0.81,-0.04 1.177,-0.304c0.276,-0.207 0.477,-0.477 0.563,-0.827c-0.299,0.109 -0.913,0.132 -1.321,0.097l-1.189,-0.097Z" style="fill:#eada68;fill-rule:nonzero;"/></svg>