<?xml version="1.0" encoding="UTF-8" standalone="no"?><!DOCTYPE svg PUBLIC "-//W3C//DTD SVG 1.1//EN" "http://www.w3.org/Graphics/SVG/1.1/DTD/svg11.dtd"><svg width="100%" height="100%" viewBox="0 0 11 11" version="1.1" xmlns="http://www.w3.org/2000/svg" xmlns:xlink="http://www.w3.org/1999/xlink" xml:space="preserve" xmlns:serif="http://www.serif.com/" style="fill-rule:evenodd;clip-rule:evenodd;stroke-linejoin:round;stroke-miterlimit:2;"><rect id="t2000_ammo_2" x="0.187" y="0.207" width="10.56" height="10.56" style="fill:none;"/><g><g><path d="M8.647,1.047c0.696,0 1.26,0.564 1.26,1.26l0,6.36c0,0.696 -0.564,1.26 -1.26,1.26l-6.36,0c-0.696,0 -1.26,-0.564 -1.26,-1.26l0,-6.36c0,-0.696 0.564,-1.26 1.26,-1.26l6.36,0Z" style="fill:#958e64;"/></g><g><path d="M8.142,2.165c0.357,-0 0.648,0.29 0.648,0.648l-0,5.349c-0,0.358 -0.291,0.648 -0.648,0.648l-5.349,-0c-0.358,-0 -0.649,-0.29 -0.649,-0.648l0,-5.349c0,-0.358 0.291,-0.648 0.649,-0.648l5.349,-0Z" style="fill:#bfb676;"/></g></g><path d="M5.318,3.598c0.304,0.132 0.287,0.838 0.287,0.919c-0.017,1.24 -0.684,1.074 -1.258,1.884l0.012,0.011c0.172,-0.075 0.367,-0.166 0.574,-0.166l0.057,-0.041l0.839,-0.396c0.591,-0.23 1.045,-0.626 1.062,-1.298c0.023,-0.873 -0.792,-1.275 -1.573,-1.258l-0,0.345Zm1.378,3.704c0.155,-0.201 0.316,-0.551 0.316,-0.809c0,-0.11 -0.023,-0.247 -0.161,-0.247c-0.258,-0 -0.034,0.425 -0.448,0.425c-0.195,-0 -0.39,-0.041 -0.58,-0.069c-0.264,-0.041 -0.534,-0.098 -0.81,-0.098c-0.275,0 -0.551,0.069 -0.769,0.258c-0.184,0.167 -0.322,0.443 -0.322,0.69c0,0.103 0.046,0.189 0.155,0.189c0.115,0 0.213,-0.207 0.414,-0.207c0.379,0 0.907,0.288 1.384,0.288c0.304,-0 0.643,-0.178 0.821,-0.42Zm-1.643,-4.037c-0.511,0.063 -1.085,0.402 -1.085,0.982c-0,0.367 0.247,0.66 0.626,0.66c0.327,0 0.62,-0.264 0.62,-0.585c0,-0.454 -0.35,-0.489 -0.35,-0.586c-0,-0.081 0.121,-0.121 0.189,-0.127l0,-0.344Z" style="fill:#575020;fill-rule:nonzero;"/></svg>