<?xml version="1.0" encoding="UTF-8" standalone="no"?><!DOCTYPE svg PUBLIC "-//W3C//DTD SVG 1.1//EN" "http://www.w3.org/Graphics/SVG/1.1/DTD/svg11.dtd"><svg width="100%" height="100%" viewBox="0 0 11 11" version="1.1" xmlns="http://www.w3.org/2000/svg" xmlns:xlink="http://www.w3.org/1999/xlink" xml:space="preserve" xmlns:serif="http://www.serif.com/" style="fill-rule:evenodd;clip-rule:evenodd;stroke-linejoin:round;stroke-miterlimit:2;"><rect id="t2000_ammo_4" x="0.118" y="0.207" width="10.56" height="10.56" style="fill:none;"/><g><g><path d="M8.579,1.047c0.695,0 1.259,0.564 1.259,1.26l0,6.36c0,0.696 -0.564,1.26 -1.259,1.26l-6.361,0c-0.696,0 -1.26,-0.564 -1.26,-1.26l0,-6.36c0,-0.696 0.564,-1.26 1.26,-1.26l6.361,0Z" style="fill:#958e64;"/></g><g><path d="M8.073,2.165c0.358,-0 0.648,0.29 0.648,0.648l-0,5.349c-0,0.358 -0.29,0.648 -0.648,0.648l-5.349,-0c-0.358,-0 -0.648,-0.29 -0.648,-0.648l-0,-5.349c-0,-0.358 0.29,-0.648 0.648,-0.648l5.349,-0Z" style="fill:#bfb676;"/></g></g><path d="M5.051,6.326l-0.965,0l0.965,-1.355l-0,-0.483l-0.012,0l-1.189,1.643c-0.074,0.103 -0.126,0.178 -0.126,0.31c0,0.219 0.126,0.219 0.184,0.219l1.143,-0l-0,-0.334Zm0.258,0.724c0,0.167 -0.011,0.19 -0.235,0.253c-0.092,0.011 -0.15,0.063 -0.15,0.161c0,0.178 0.224,0.172 0.276,0.172l1.43,-0c0.052,-0 0.276,0.006 0.276,-0.172c-0,-0.098 -0.058,-0.15 -0.149,-0.161c-0.224,-0.063 -0.236,-0.086 -0.236,-0.253l0,-0.39l0.402,-0c0.046,-0 0.149,-0 0.149,-0.167c0,-0.167 -0.103,-0.167 -0.149,-0.167l-0.402,0l0,-2.745c0,-0.276 -0.023,-0.241 -0.178,-0.241l-0.322,-0c-0.12,-0 -0.16,0.074 -0.258,0.184l-0.454,0.62l0,2.906Z" style="fill:#575020;fill-rule:nonzero;"/></svg>