<?xml version="1.0" encoding="UTF-8" standalone="no"?><!DOCTYPE svg PUBLIC "-//W3C//DTD SVG 1.1//EN" "http://www.w3.org/Graphics/SVG/1.1/DTD/svg11.dtd"><svg width="100%" height="100%" viewBox="0 0 11 11" version="1.1" xmlns="http://www.w3.org/2000/svg" xmlns:xlink="http://www.w3.org/1999/xlink" xml:space="preserve" xmlns:serif="http://www.serif.com/" style="fill-rule:evenodd;clip-rule:evenodd;stroke-linejoin:round;stroke-miterlimit:2;"><rect id="t2000_d10_4" x="0.049" y="0.089" width="10.56" height="10.56" style="fill:none;"/><g><path d="M5.114,0.824c0.133,-0.077 0.297,-0.077 0.43,-0c0.709,0.409 2.964,1.711 3.673,2.12c0.133,0.077 0.215,0.219 0.215,0.373l0,4.241c0,0.153 -0.082,0.296 -0.215,0.372c-0.709,0.41 -2.964,1.712 -3.673,2.121c-0.133,0.077 -0.297,0.077 -0.43,-0c-0.709,-0.409 -2.964,-1.711 -3.673,-2.121c-0.133,-0.076 -0.215,-0.219 -0.215,-0.372l0,-4.241c0,-0.154 0.082,-0.296 0.215,-0.373c0.709,-0.409 2.964,-1.711 3.673,-2.12Z" style="fill:#88804b;"/><path d="M4.535,2.086c0.159,-0.298 0.47,-0.484 0.808,-0.483c0.338,0.001 0.648,0.189 0.805,0.488c0.723,1.378 1.765,3.363 2.384,4.541c0.128,0.244 0.141,0.533 0.036,0.788c-0.104,0.255 -0.317,0.45 -0.58,0.534c-0.644,0.204 -1.446,0.458 -1.997,0.633c-0.422,0.133 -0.875,0.134 -1.297,0.002c-0.559,-0.175 -1.376,-0.431 -2.032,-0.636c-0.265,-0.083 -0.479,-0.279 -0.584,-0.536c-0.105,-0.256 -0.091,-0.547 0.04,-0.791c0.628,-1.181 1.685,-3.164 2.417,-4.54Z" style="fill:#5a563c;"/></g><path d="M4.595,6.209l-0.965,-0l0.965,-1.356l0,-0.482l-0.011,-0l-1.189,1.642c-0.075,0.104 -0.126,0.178 -0.126,0.31c-0,0.219 0.126,0.219 0.183,0.219l1.143,-0l0,-0.333Zm0.259,0.723c-0,0.167 -0.012,0.19 -0.236,0.253c-0.092,0.011 -0.149,0.063 -0.149,0.161c-0,0.178 0.224,0.172 0.276,0.172l1.43,0c0.051,0 0.275,0.006 0.275,-0.172c0,-0.098 -0.057,-0.15 -0.149,-0.161c-0.224,-0.063 -0.235,-0.086 -0.235,-0.253l-0,-0.39l0.402,-0c0.046,-0 0.149,-0 0.149,-0.167c0,-0.166 -0.103,-0.166 -0.149,-0.166l-0.402,-0l-0,-2.746c-0,-0.275 -0.023,-0.241 -0.178,-0.241l-0.322,0c-0.121,0 -0.161,0.075 -0.258,0.184l-0.454,0.62l-0,2.906Z" style="fill:#eada68;fill-rule:nonzero;"/></svg>