<?xml version="1.0" encoding="UTF-8" standalone="no"?><!DOCTYPE svg PUBLIC "-//W3C//DTD SVG 1.1//EN" "http://www.w3.org/Graphics/SVG/1.1/DTD/svg11.dtd"><svg width="100%" height="100%" viewBox="0 0 11 11" version="1.1" xmlns="http://www.w3.org/2000/svg" xmlns:xlink="http://www.w3.org/1999/xlink" xml:space="preserve" xmlns:serif="http://www.serif.com/" style="fill-rule:evenodd;clip-rule:evenodd;stroke-linejoin:round;stroke-miterlimit:2;"><rect id="t2000_d8_1" x="0.204" y="0.111" width="10.56" height="10.56" style="fill:none;"/><g><path d="M5.06,1.113c0.101,-0.133 0.258,-0.211 0.424,-0.211c0.167,-0 0.324,0.078 0.424,0.211c0.764,1.011 2.351,3.111 2.974,3.935c0.153,0.203 0.153,0.483 -0,0.686c-0.623,0.825 -2.21,2.924 -2.974,3.935c-0.1,0.133 -0.257,0.211 -0.424,0.211c-0.166,0 -0.323,-0.078 -0.424,-0.211c-0.764,-1.011 -2.35,-3.11 -2.973,-3.935c-0.154,-0.203 -0.154,-0.483 -0,-0.686c0.623,-0.824 2.209,-2.924 2.973,-3.935Z" style="fill:#88804b;"/><path d="M5.184,1.407c0.066,-0.122 0.194,-0.199 0.333,-0.199c0.139,0 0.267,0.077 0.333,0.199c0.591,1.097 1.817,3.371 2.385,4.424c0.063,0.118 0.06,0.259 -0.008,0.374c-0.068,0.114 -0.191,0.184 -0.325,0.184l-4.771,0c-0.133,0 -0.257,-0.07 -0.325,-0.184c-0.068,-0.115 -0.071,-0.256 -0.008,-0.374c0.568,-1.053 1.794,-3.327 2.386,-4.424Z" style="fill:#5a563c;"/></g><path d="M5.715,1.519l-0.447,0.024c-0.019,0.002 -0.095,-0.002 -0.095,0.065c0,0.043 0.039,0.049 0.072,0.053c0.048,0.007 0.062,0.013 0.062,0.135l-0,0.975c-0,0.056 -0.004,0.063 -0.08,0.085c-0.031,0.004 -0.05,0.021 -0.05,0.054c-0,0.06 0.075,0.058 0.093,0.058l0.482,0c0.018,0 0.093,0.002 0.093,-0.058c0,-0.033 -0.019,-0.05 -0.05,-0.054c-0.076,-0.022 -0.08,-0.029 -0.08,-0.085l0,-1.252Z" style="fill:#eada68;fill-rule:nonzero;"/><path d="M7.297,7.287l-1.337,-0.803l0.219,1.48l-0.613,-1.15l-0.253,1.411l-0.294,-1.529l-1.455,0.736l1.01,-1.326l-1.585,-0.461l1.494,-0.238l-0.324,-0.829l0.673,0.197l0.377,-1.545l0.504,1.619l1.052,-0.752l-0.584,1.086l1.422,0.497l-1.379,0.224l1.073,1.383Z" style="fill:#eada68;"/></svg>