<?xml version="1.0" encoding="UTF-8" standalone="no"?><!DOCTYPE svg PUBLIC "-//W3C//DTD SVG 1.1//EN" "http://www.w3.org/Graphics/SVG/1.1/DTD/svg11.dtd"><svg width="100%" height="100%" viewBox="0 0 11 11" version="1.1" xmlns="http://www.w3.org/2000/svg" xmlns:xlink="http://www.w3.org/1999/xlink" xml:space="preserve" xmlns:serif="http://www.serif.com/" style="fill-rule:evenodd;clip-rule:evenodd;stroke-linejoin:round;stroke-miterlimit:2;"><rect id="t2000_d12_2" x="0.113" y="0.177" width="10.56" height="10.56" style="fill:none;"/><g><path d="M5.04,0.678c0.218,-0.126 0.487,-0.126 0.706,0c0.811,0.468 2.799,1.616 3.609,2.084c0.219,0.126 0.353,0.359 0.353,0.611l0,4.168c0,0.252 -0.134,0.485 -0.353,0.611c-0.81,0.468 -2.798,1.616 -3.609,2.084c-0.219,0.126 -0.488,0.126 -0.706,0c-0.811,-0.468 -2.799,-1.616 -3.609,-2.084c-0.219,-0.126 -0.353,-0.359 -0.353,-0.611l-0,-4.168c-0,-0.252 0.134,-0.485 0.353,-0.611c0.81,-0.468 2.798,-1.616 3.609,-2.084Z" style="fill:#88804b;"/><path d="M4.972,1.541c0.203,-0.148 0.478,-0.148 0.681,-0c0.726,0.527 2.418,1.756 3.144,2.284c0.203,0.147 0.288,0.409 0.21,0.648c-0.277,0.853 -0.923,2.842 -1.2,3.695c-0.078,0.239 -0.301,0.401 -0.552,0.401l-3.885,0c-0.252,0 -0.474,-0.162 -0.552,-0.401c-0.277,-0.853 -0.923,-2.842 -1.2,-3.695c-0.078,-0.239 0.007,-0.501 0.21,-0.648c0.726,-0.528 2.418,-1.757 3.144,-2.284Z" style="fill:#5a563c;"/></g><path d="M5.244,3.568c0.304,0.132 0.287,0.839 0.287,0.919c-0.017,1.24 -0.684,1.074 -1.258,1.884l0.012,0.011c0.172,-0.074 0.367,-0.166 0.574,-0.166l0.057,-0.041l0.839,-0.396c0.591,-0.23 1.045,-0.626 1.062,-1.298c0.023,-0.873 -0.792,-1.275 -1.573,-1.258l-0,0.345Zm1.378,3.704c0.155,-0.201 0.316,-0.551 0.316,-0.809c-0,-0.109 -0.023,-0.247 -0.161,-0.247c-0.258,-0 -0.034,0.425 -0.448,0.425c-0.195,-0 -0.39,-0.04 -0.58,-0.069c-0.264,-0.04 -0.534,-0.098 -0.81,-0.098c-0.275,0 -0.551,0.069 -0.769,0.259c-0.184,0.166 -0.322,0.442 -0.322,0.689c-0,0.103 0.046,0.189 0.155,0.189c0.115,0 0.213,-0.206 0.414,-0.206c0.379,-0 0.907,0.287 1.384,0.287c0.304,-0 0.643,-0.178 0.821,-0.42Zm-1.643,-4.037c-0.511,0.063 -1.085,0.402 -1.085,0.982c-0,0.368 0.247,0.66 0.626,0.66c0.327,0 0.62,-0.264 0.62,-0.585c0,-0.454 -0.35,-0.489 -0.35,-0.586c-0,-0.081 0.121,-0.121 0.189,-0.127l0,-0.344Z" style="fill:#eada68;fill-rule:nonzero;"/></svg>