<?xml version="1.0" encoding="UTF-8" standalone="no"?><!DOCTYPE svg PUBLIC "-//W3C//DTD SVG 1.1//EN" "http://www.w3.org/Graphics/SVG/1.1/DTD/svg11.dtd"><svg width="100%" height="100%" viewBox="0 0 11 11" version="1.1" xmlns="http://www.w3.org/2000/svg" xmlns:xlink="http://www.w3.org/1999/xlink" xml:space="preserve" xmlns:serif="http://www.serif.com/" style="fill-rule:evenodd;clip-rule:evenodd;stroke-linejoin:round;stroke-miterlimit:2;"><rect id="t2000_d10_2" x="0.066" y="0.089" width="10.56" height="10.56" style="fill:none;"/><g><path d="M5.712,0.679c0.133,-0.077 0.297,-0.077 0.43,-0c0.709,0.409 2.964,1.711 3.673,2.12c0.133,0.077 0.215,0.219 0.215,0.373l0,4.241c0,0.154 -0.082,0.296 -0.215,0.373c-0.709,0.409 -2.964,1.711 -3.673,2.12c-0.133,0.077 -0.297,0.077 -0.43,-0c-0.709,-0.409 -2.964,-1.711 -3.673,-2.12c-0.133,-0.077 -0.215,-0.219 -0.215,-0.373l0,-4.241c0,-0.154 0.082,-0.296 0.215,-0.373c0.709,-0.409 2.964,-1.711 3.673,-2.12Z" style="fill:#88804b;"/><path d="M5.133,1.942c0.159,-0.299 0.47,-0.485 0.808,-0.484c0.338,0.001 0.648,0.189 0.805,0.488c0.723,1.378 1.765,3.363 2.384,4.541c0.128,0.244 0.141,0.533 0.036,0.788c-0.104,0.255 -0.317,0.451 -0.58,0.534c-0.644,0.204 -1.446,0.458 -1.997,0.633c-0.422,0.134 -0.875,0.134 -1.298,0.002c-0.558,-0.175 -1.375,-0.431 -2.031,-0.636c-0.265,-0.083 -0.479,-0.279 -0.584,-0.536c-0.105,-0.256 -0.091,-0.546 0.04,-0.791c0.628,-1.181 1.685,-3.164 2.417,-4.539Z" style="fill:#5a563c;"/></g><path d="M5.274,3.786c0.304,0.132 0.287,0.839 0.287,0.919c-0.018,1.241 -0.684,1.074 -1.258,1.884l0.011,0.012c0.173,-0.075 0.368,-0.167 0.575,-0.167l0.057,-0.04l0.839,-0.396c0.591,-0.23 1.045,-0.627 1.062,-1.299c0.023,-0.873 -0.792,-1.275 -1.573,-1.257l-0,0.344Zm1.378,3.705c0.155,-0.201 0.316,-0.552 0.316,-0.81c-0,-0.109 -0.023,-0.247 -0.161,-0.247c-0.258,0 -0.034,0.425 -0.448,0.425c-0.195,0 -0.39,-0.04 -0.58,-0.069c-0.264,-0.04 -0.534,-0.098 -0.81,-0.098c-0.276,0 -0.551,0.069 -0.769,0.259c-0.184,0.166 -0.322,0.442 -0.322,0.689c-0,0.104 0.046,0.19 0.155,0.19c0.115,-0 0.212,-0.207 0.413,-0.207c0.38,-0 0.908,0.287 1.385,0.287c0.304,0 0.643,-0.178 0.821,-0.419Zm-1.643,-4.038c-0.511,0.063 -1.085,0.402 -1.085,0.982c-0,0.368 0.247,0.661 0.626,0.661c0.327,-0 0.62,-0.264 0.62,-0.586c0,-0.454 -0.35,-0.488 -0.35,-0.586c-0,-0.08 0.12,-0.12 0.189,-0.126l0,-0.345Z" style="fill:#eada68;fill-rule:nonzero;"/></svg>