<?xml version="1.0" encoding="UTF-8" standalone="no"?><!DOCTYPE svg PUBLIC "-//W3C//DTD SVG 1.1//EN" "http://www.w3.org/Graphics/SVG/1.1/DTD/svg11.dtd"><svg width="100%" height="100%" viewBox="0 0 11 11" version="1.1" xmlns="http://www.w3.org/2000/svg" xmlns:xlink="http://www.w3.org/1999/xlink" xml:space="preserve" xmlns:serif="http://www.serif.com/" style="fill-rule:evenodd;clip-rule:evenodd;stroke-linejoin:round;stroke-miterlimit:2;"><rect id="t2000_ammo_1" x="0.104" y="0.207" width="10.56" height="10.56" style="fill:none;"/><g><g><path d="M8.564,1.047c0.696,0 1.26,0.564 1.26,1.26l-0,6.36c-0,0.696 -0.564,1.26 -1.26,1.26l-6.361,0c-0.695,0 -1.259,-0.564 -1.259,-1.26l-0,-6.36c-0,-0.696 0.564,-1.26 1.259,-1.26l6.361,0Z" style="fill:#958e64;"/></g><g><path d="M8.058,2.165c0.358,-0 0.648,0.29 0.648,0.648l0,5.349c0,0.358 -0.29,0.648 -0.648,0.648l-5.349,-0c-0.358,-0 -0.648,-0.29 -0.648,-0.648l0,-5.349c0,-0.358 0.29,-0.648 0.648,-0.648l5.349,-0Z" style="fill:#bfb676;"/></g></g><path d="M2.645,2.036l-0.667,0.035c-0.029,0.003 -0.141,-0.003 -0.141,0.098c-0,0.064 0.057,0.072 0.106,0.078c0.073,0.012 0.093,0.02 0.093,0.202l-0,1.453c-0,0.084 -0.006,0.095 -0.119,0.127c-0.046,0.006 -0.075,0.032 -0.075,0.081c0,0.089 0.113,0.086 0.139,0.086l0.719,0c0.026,0 0.139,0.003 0.139,-0.086c-0,-0.049 -0.029,-0.075 -0.076,-0.081c-0.112,-0.032 -0.118,-0.043 -0.118,-0.127l0,-1.866Z" style="fill:#575020;fill-rule:nonzero;"/><g><path d="M8.02,7.326l-1.762,-0.947l0.289,1.746l-0.807,-1.357l-0.334,1.665l-0.387,-1.804l-1.918,0.869l1.332,-1.564l-2.089,-0.544l1.968,-0.28l-0.426,-0.979l0.886,0.233l0.497,-1.822l0.665,1.909l1.385,-0.887l-0.77,1.28l1.874,0.588l-1.817,0.263l1.414,1.631Z" style="fill:#575020;"/></g></svg>