<?xml version="1.0" encoding="UTF-8" standalone="no"?><!DOCTYPE svg PUBLIC "-//W3C//DTD SVG 1.1//EN" "http://www.w3.org/Graphics/SVG/1.1/DTD/svg11.dtd"><svg width="100%" height="100%" viewBox="0 0 11 11" version="1.1" xmlns="http://www.w3.org/2000/svg" xmlns:xlink="http://www.w3.org/1999/xlink" xml:space="preserve" xmlns:serif="http://www.serif.com/" style="fill-rule:evenodd;clip-rule:evenodd;stroke-linejoin:round;stroke-miterlimit:2;"><rect id="t2000_d8_5" x="0.101" y="0.111" width="10.56" height="10.56" style="fill:none;"/><g><path d="M4.957,1.113c0.1,-0.133 0.257,-0.211 0.424,-0.211c0.167,-0 0.324,0.078 0.424,0.211c0.764,1.011 2.35,3.111 2.973,3.935c0.154,0.203 0.154,0.483 0,0.686c-0.623,0.825 -2.209,2.924 -2.973,3.935c-0.1,0.133 -0.257,0.211 -0.424,0.211c-0.167,0 -0.324,-0.078 -0.424,-0.211c-0.764,-1.011 -2.35,-3.11 -2.973,-3.935c-0.154,-0.203 -0.154,-0.483 -0,-0.686c0.623,-0.824 2.209,-2.924 2.973,-3.935Z" style="fill:#88804b;"/><path d="M5.081,1.407c0.066,-0.122 0.193,-0.199 0.333,-0.199c0.139,0 0.266,0.077 0.332,0.199c0.592,1.097 1.818,3.371 2.386,4.424c0.063,0.118 0.06,0.259 -0.008,0.374c-0.068,0.114 -0.192,0.184 -0.325,0.184l-4.771,0c-0.133,0 -0.257,-0.07 -0.325,-0.184c-0.068,-0.115 -0.071,-0.256 -0.008,-0.374c0.568,-1.053 1.794,-3.327 2.386,-4.424Z" style="fill:#5a563c;"/></g><path d="M4.138,4.455l-0.087,0.947c0,0.11 0.081,0.167 0.19,0.167c0.075,0 0.155,-0.052 0.218,-0.092c0.184,-0.115 0.374,-0.178 0.575,-0.224l-0,-0.448c-0.247,0.052 -0.466,0.201 -0.632,0.356l0.057,-0.672l-0.321,-0.034Zm1.16,3.17c0.884,0.017 1.614,-0.454 1.614,-1.418c-0,-0.965 -0.73,-1.436 -1.614,-1.419l-0,0.465c0.304,0.086 0.327,0.408 0.327,0.609l0,0.821c0,0.207 -0.023,0.523 -0.327,0.609l-0,0.333Zm-0.264,-0.339c-0.075,-0.017 -0.293,-0.063 -0.293,-0.155c-0,-0.069 0.293,-0.184 0.298,-0.545c0.006,-0.311 -0.252,-0.563 -0.568,-0.563c-0.356,-0 -0.621,0.281 -0.621,0.637c0,0.586 0.661,0.942 1.184,0.965l-0,-0.339Zm-0.781,-4.129l-0.115,1.068l0.884,0.063c0.442,0 0.81,-0.04 1.178,-0.304c0.275,-0.207 0.476,-0.477 0.562,-0.827c-0.298,0.109 -0.913,0.132 -1.321,0.097l-1.188,-0.097Z" style="fill:#eada68;fill-rule:nonzero;"/></svg>