<?xml version="1.0" encoding="UTF-8" standalone="no"?><!DOCTYPE svg PUBLIC "-//W3C//DTD SVG 1.1//EN" "http://www.w3.org/Graphics/SVG/1.1/DTD/svg11.dtd"><svg width="100%" height="100%" viewBox="0 0 11 11" version="1.1" xmlns="http://www.w3.org/2000/svg" xmlns:xlink="http://www.w3.org/1999/xlink" xml:space="preserve" xmlns:serif="http://www.serif.com/" style="fill-rule:evenodd;clip-rule:evenodd;stroke-linejoin:round;stroke-miterlimit:2;"><rect id="t2000_d12_1" x="0.206" y="0.177" width="10.56" height="10.56" style="fill:none;"/><path d="M6.582,6.847l0,0.723l-2.153,0l-0,-0.723l0.58,-0l0,-2.779l-0.62,-0l0,-0.724l1.649,0l0,3.503l0.544,-0Z" style="fill:#fff;fill-rule:nonzero;"/><g><path d="M5.133,0.678c0.218,-0.126 0.487,-0.126 0.706,0c0.81,0.468 2.798,1.616 3.609,2.084c0.218,0.126 0.353,0.359 0.353,0.611l-0,4.168c-0,0.252 -0.135,0.485 -0.353,0.611c-0.811,0.468 -2.799,1.616 -3.609,2.084c-0.219,0.126 -0.488,0.126 -0.706,0c-0.811,-0.468 -2.799,-1.616 -3.61,-2.084c-0.218,-0.126 -0.352,-0.359 -0.352,-0.611l-0,-4.168c-0,-0.252 0.134,-0.485 0.352,-0.611c0.811,-0.468 2.799,-1.616 3.61,-2.084Z" style="fill:#88804b;"/><path d="M5.064,1.541c0.204,-0.148 0.479,-0.148 0.682,-0c0.726,0.527 2.418,1.756 3.143,2.284c0.204,0.147 0.289,0.409 0.211,0.648c-0.277,0.853 -0.923,2.842 -1.201,3.695c-0.077,0.239 -0.3,0.401 -0.551,0.401l-3.886,0c-0.251,0 -0.473,-0.162 -0.551,-0.401c-0.277,-0.853 -0.923,-2.842 -1.201,-3.695c-0.077,-0.239 0.008,-0.501 0.211,-0.648c0.726,-0.528 2.418,-1.757 3.143,-2.284Z" style="fill:#5a563c;"/></g><path d="M5.905,2.104l-0.447,0.024c-0.02,0.002 -0.095,-0.002 -0.095,0.066c-0,0.042 0.039,0.048 0.072,0.052c0.048,0.008 0.062,0.013 0.062,0.135l-0,0.975c-0,0.056 -0.004,0.064 -0.08,0.085c-0.031,0.004 -0.05,0.021 -0.05,0.054c-0,0.06 0.075,0.058 0.093,0.058l0.482,0c0.017,0 0.093,0.002 0.093,-0.058c0,-0.033 -0.019,-0.05 -0.05,-0.054c-0.076,-0.021 -0.08,-0.029 -0.08,-0.085l0,-1.252Z" style="fill:#eada68;fill-rule:nonzero;"/><path d="M7.487,7.872l-1.337,-0.803l0.219,1.48l-0.613,-1.15l-0.253,1.411l-0.294,-1.529l-1.455,0.736l1.01,-1.326l-1.585,-0.461l1.494,-0.237l-0.324,-0.83l0.673,0.197l0.377,-1.545l0.504,1.619l1.052,-0.752l-0.584,1.086l1.422,0.498l-1.379,0.223l1.073,1.383Z" style="fill:#eada68;"/></svg>