<?xml version="1.0" encoding="UTF-8" standalone="no"?><!DOCTYPE svg PUBLIC "-//W3C//DTD SVG 1.1//EN" "http://www.w3.org/Graphics/SVG/1.1/DTD/svg11.dtd"><svg width="100%" height="100%" viewBox="0 0 11 11" version="1.1" xmlns="http://www.w3.org/2000/svg" xmlns:xlink="http://www.w3.org/1999/xlink" xml:space="preserve" xmlns:serif="http://www.serif.com/" style="fill-rule:evenodd;clip-rule:evenodd;stroke-linejoin:round;stroke-miterlimit:2;"><rect id="t2000_d10_3" x="0.237" y="0.089" width="10.56" height="10.56" style="fill:none;"/><g><path d="M5.302,0.824c0.133,-0.077 0.297,-0.077 0.431,-0c0.708,0.409 2.964,1.711 3.672,2.12c0.133,0.077 0.215,0.219 0.215,0.373l0,4.241c0,0.153 -0.082,0.296 -0.215,0.372c-0.708,0.41 -2.964,1.712 -3.672,2.121c-0.134,0.077 -0.298,0.077 -0.431,-0c-0.708,-0.409 -2.964,-1.711 -3.672,-2.121c-0.134,-0.076 -0.216,-0.219 -0.216,-0.372l0,-4.241c0,-0.154 0.082,-0.296 0.216,-0.373c0.708,-0.409 2.964,-1.711 3.672,-2.12Z" style="fill:#88804b;"/><path d="M4.723,2.086c0.159,-0.298 0.47,-0.484 0.808,-0.483c0.338,0.001 0.648,0.189 0.805,0.488c0.723,1.378 1.766,3.363 2.384,4.541c0.128,0.244 0.142,0.533 0.037,0.788c-0.105,0.255 -0.318,0.45 -0.581,0.534c-0.644,0.204 -1.445,0.458 -1.996,0.633c-0.422,0.133 -0.876,0.134 -1.298,0.002c-0.559,-0.175 -1.376,-0.431 -2.032,-0.636c-0.264,-0.083 -0.478,-0.279 -0.584,-0.536c-0.105,-0.256 -0.09,-0.547 0.04,-0.791c0.629,-1.181 1.685,-3.164 2.417,-4.54Z" style="fill:#5a563c;"/></g><path d="M4.656,3.224c-0.523,0.08 -1.068,0.425 -1.068,1.011c-0,0.327 0.235,0.574 0.568,0.574c0.299,0 0.552,-0.27 0.552,-0.563c-0,-0.379 -0.293,-0.39 -0.293,-0.517c-0,-0.103 0.149,-0.149 0.241,-0.166l-0,-0.339Zm0.93,2.171c0.523,-0.132 0.902,-0.482 0.902,-1.051c0,-0.482 -0.431,-1.189 -1.574,-1.137l0,0.339c0.276,0.063 0.357,0.27 0.357,0.528l-0,0.666c-0,0.058 -0.006,0.431 -0.374,0.466c-0.12,0.011 -0.235,0.022 -0.235,0.172c-0,0.143 0.126,0.155 0.235,0.161c0.333,0.017 0.374,0.247 0.374,0.511l-0,0.769c-0,0.27 -0.087,0.454 -0.357,0.517l0,0.339c1.316,0.029 1.643,-0.695 1.643,-1.217c0,-0.598 -0.345,-0.879 -0.971,-1.051l0,-0.012Zm-0.93,1.941c-0.08,-0.005 -0.339,-0.028 -0.339,-0.12c0,-0.098 0.322,-0.184 0.322,-0.58c-0,-0.293 -0.293,-0.557 -0.58,-0.557c-0.362,-0 -0.615,0.275 -0.615,0.626c0,0.631 0.672,0.924 1.212,0.97l-0,-0.339Z" style="fill:#eada68;fill-rule:nonzero;"/></svg>