<?xml version="1.0" encoding="UTF-8" standalone="no"?><!DOCTYPE svg PUBLIC "-//W3C//DTD SVG 1.1//EN" "http://www.w3.org/Graphics/SVG/1.1/DTD/svg11.dtd"><svg width="100%" height="100%" viewBox="0 0 11 11" version="1.1" xmlns="http://www.w3.org/2000/svg" xmlns:xlink="http://www.w3.org/1999/xlink" xml:space="preserve" xmlns:serif="http://www.serif.com/" style="fill-rule:evenodd;clip-rule:evenodd;stroke-linejoin:round;stroke-miterlimit:2;"><rect id="t2000_d12_12" x="0.179" y="0.177" width="10.56" height="10.56" style="fill:none;"/><g><path d="M5.106,0.678c0.218,-0.126 0.487,-0.126 0.705,0c0.811,0.468 2.799,1.616 3.61,2.084c0.218,0.126 0.353,0.359 0.353,0.611l-0,4.168c-0,0.252 -0.135,0.485 -0.353,0.611c-0.811,0.468 -2.799,1.616 -3.61,2.084c-0.218,0.126 -0.487,0.126 -0.705,0c-0.811,-0.468 -2.799,-1.616 -3.61,-2.084c-0.218,-0.126 -0.353,-0.359 -0.353,-0.611l0,-4.168c0,-0.252 0.135,-0.485 0.353,-0.611c0.811,-0.468 2.799,-1.616 3.61,-2.084Z" style="fill:#88804b;"/><path d="M5.037,1.541c0.203,-0.148 0.479,-0.148 0.682,-0c0.726,0.527 2.417,1.756 3.143,2.284c0.204,0.147 0.289,0.409 0.211,0.648c-0.277,0.853 -0.924,2.842 -1.201,3.695c-0.077,0.239 -0.3,0.401 -0.551,0.401l-3.886,0c-0.251,0 -0.474,-0.162 -0.551,-0.401c-0.277,-0.853 -0.924,-2.842 -1.201,-3.695c-0.077,-0.239 0.008,-0.501 0.211,-0.648c0.726,-0.528 2.417,-1.757 3.143,-2.284Z" style="fill:#5a563c;"/></g><g transform="matrix(2.19111,0,0,2.19111,6.6944,4.16967)"></g><text x="3.934px" y="4.17px" style="font-family:'StencilStd', 'Stencil Std', fantasy;font-weight:700;font-size:2.191px;fill:#eada68;">12</text><g><g><g><path d="M2.98,6.607l-0,0.186l-1.165,0l-0,-0.186l1.165,-0Zm2.38,0l0,0.187l-1.165,-0l0,-0.187l1.165,0Zm-1.676,-0.495l-0.193,-0l0,-1.128l0.193,-0l0,1.128Zm-0.001,2.305l-0.192,-0l-0,-1.128l0.192,-0l0,1.128Z" style="fill:#eada68;"/></g><g><path d="M3.587,5.636c0.607,0 1.099,0.477 1.099,1.064c-0,0.587 -0.492,1.064 -1.099,1.064c-0.606,0 -1.098,-0.477 -1.098,-1.064c-0,-0.587 0.492,-1.064 1.098,-1.064Zm0,0.193c-0.496,0 -0.899,0.391 -0.899,0.871c-0,0.481 0.403,0.871 0.899,0.871c0.497,0 0.9,-0.39 0.9,-0.871c-0,-0.48 -0.403,-0.871 -0.9,-0.871Z" style="fill:#eada68;"/></g><g><path d="M3.587,5.203c0.853,0 1.546,0.671 1.546,1.497c0,0.826 -0.693,1.497 -1.546,1.497c-0.853,0 -1.545,-0.671 -1.545,-1.497c-0,-0.826 0.692,-1.497 1.545,-1.497Zm0,0.193c-0.743,0 -1.346,0.585 -1.346,1.304c-0,0.72 0.603,1.305 1.346,1.305c0.744,-0 1.347,-0.585 1.347,-1.305c0,-0.719 -0.603,-1.304 -1.347,-1.304Z" style="fill:#eada68;"/></g></g><g><g><path d="M6.722,6.607l0,0.186l-1.165,0l0,-0.186l1.165,-0Zm2.381,0l-0,0.187l-1.165,-0l-0,-0.187l1.165,0Zm-1.676,-0.495l-0.193,-0l-0,-1.128l0.193,-0l-0,1.128Zm-0.001,2.305l-0.193,-0l0,-1.128l0.193,-0l-0,1.128Z" style="fill:#eada68;"/></g><g><path d="M7.33,5.636c0.606,0 1.098,0.477 1.098,1.064c0,0.587 -0.492,1.064 -1.098,1.064c-0.606,0 -1.099,-0.477 -1.099,-1.064c0,-0.587 0.493,-1.064 1.099,-1.064Zm-0,0.193c-0.497,0 -0.9,0.391 -0.9,0.871c0,0.481 0.403,0.871 0.9,0.871c0.496,0 0.9,-0.39 0.9,-0.871c-0,-0.48 -0.404,-0.871 -0.9,-0.871Z" style="fill:#eada68;"/></g><g><path d="M7.33,5.203c0.853,0 1.546,0.671 1.546,1.497c-0,0.826 -0.693,1.497 -1.546,1.497c-0.853,0 -1.546,-0.671 -1.546,-1.497c0,-0.826 0.693,-1.497 1.546,-1.497Zm-0,0.193c-0.743,0 -1.347,0.585 -1.347,1.304c0,0.72 0.604,1.305 1.347,1.305c0.743,-0 1.347,-0.585 1.347,-1.305c-0,-0.719 -0.604,-1.304 -1.347,-1.304Z" style="fill:#eada68;"/></g></g></g></svg>