<?xml version="1.0" encoding="UTF-8" standalone="no"?><!DOCTYPE svg PUBLIC "-//W3C//DTD SVG 1.1//EN" "http://www.w3.org/Graphics/SVG/1.1/DTD/svg11.dtd"><svg width="100%" height="100%" viewBox="0 0 11 11" version="1.1" xmlns="http://www.w3.org/2000/svg" xmlns:xlink="http://www.w3.org/1999/xlink" xml:space="preserve" xmlns:serif="http://www.serif.com/" style="fill-rule:evenodd;clip-rule:evenodd;stroke-linejoin:round;stroke-miterlimit:2;"><rect id="t2000_d12_5" x="0.099" y="0.177" width="10.56" height="10.56" style="fill:none;"/><g><path d="M5.026,0.678c0.219,-0.126 0.488,-0.126 0.706,0c0.811,0.468 2.799,1.616 3.609,2.084c0.219,0.126 0.353,0.359 0.353,0.611l0,4.168c0,0.252 -0.134,0.485 -0.353,0.611c-0.81,0.468 -2.798,1.616 -3.609,2.084c-0.218,0.126 -0.487,0.126 -0.706,0c-0.81,-0.468 -2.799,-1.616 -3.609,-2.084c-0.219,-0.126 -0.353,-0.359 -0.353,-0.611l-0,-4.168c-0,-0.252 0.134,-0.485 0.353,-0.611c0.81,-0.468 2.799,-1.616 3.609,-2.084Z" style="fill:#88804b;"/><path d="M4.958,1.541c0.203,-0.148 0.478,-0.148 0.681,-0c0.726,0.527 2.418,1.756 3.144,2.284c0.203,0.147 0.288,0.409 0.21,0.648c-0.277,0.853 -0.923,2.842 -1.2,3.695c-0.078,0.239 -0.301,0.401 -0.552,0.401l-3.885,0c-0.251,0 -0.474,-0.162 -0.552,-0.401c-0.277,-0.853 -0.923,-2.842 -1.2,-3.695c-0.078,-0.239 0.007,-0.501 0.21,-0.648c0.726,-0.528 2.418,-1.757 3.144,-2.284Z" style="fill:#5a563c;"/></g><path d="M4.136,4.521l-0.086,0.948c-0,0.109 0.08,0.166 0.189,0.166c0.075,0 0.155,-0.052 0.218,-0.092c0.184,-0.115 0.374,-0.178 0.575,-0.224l-0,-0.448c-0.247,0.052 -0.466,0.201 -0.632,0.356l0.057,-0.672l-0.321,-0.034Zm1.16,3.17c0.884,0.018 1.614,-0.453 1.614,-1.418c-0,-0.965 -0.73,-1.436 -1.614,-1.419l-0,0.465c0.304,0.086 0.327,0.408 0.327,0.609l0,0.821c0,0.207 -0.023,0.523 -0.327,0.609l-0,0.333Zm-0.264,-0.339c-0.075,-0.017 -0.293,-0.063 -0.293,-0.155c-0,-0.069 0.293,-0.183 0.298,-0.545c0.006,-0.31 -0.252,-0.563 -0.568,-0.563c-0.356,-0 -0.621,0.281 -0.621,0.637c0,0.586 0.661,0.942 1.184,0.965l-0,-0.339Zm-0.781,-4.129l-0.115,1.068l0.884,0.063c0.442,0 0.81,-0.04 1.178,-0.304c0.275,-0.207 0.476,-0.477 0.562,-0.827c-0.298,0.109 -0.913,0.132 -1.321,0.097l-1.188,-0.097Z" style="fill:#eada68;fill-rule:nonzero;"/></svg>