<?xml version="1.0" encoding="UTF-8" standalone="no"?><!DOCTYPE svg PUBLIC "-//W3C//DTD SVG 1.1//EN" "http://www.w3.org/Graphics/SVG/1.1/DTD/svg11.dtd"><svg width="100%" height="100%" viewBox="0 0 11 11" version="1.1" xmlns="http://www.w3.org/2000/svg" xmlns:xlink="http://www.w3.org/1999/xlink" xml:space="preserve" xmlns:serif="http://www.serif.com/" style="fill-rule:evenodd;clip-rule:evenodd;stroke-linejoin:round;stroke-miterlimit:2;"><rect id="t2000_d12_4" x="0.192" y="0.177" width="10.56" height="10.56" style="fill:none;"/><g><path d="M5.119,0.678c0.218,-0.126 0.487,-0.126 0.706,0c0.81,0.468 2.799,1.616 3.609,2.084c0.219,0.126 0.353,0.359 0.353,0.611l0,4.168c0,0.252 -0.134,0.485 -0.353,0.611c-0.81,0.468 -2.799,1.616 -3.609,2.084c-0.219,0.126 -0.488,0.126 -0.706,0c-0.811,-0.468 -2.799,-1.616 -3.609,-2.084c-0.219,-0.126 -0.353,-0.359 -0.353,-0.611l-0,-4.168c-0,-0.252 0.134,-0.485 0.353,-0.611c0.81,-0.468 2.798,-1.616 3.609,-2.084Z" style="fill:#88804b;"/><path d="M5.051,1.541c0.203,-0.148 0.478,-0.148 0.681,-0c0.726,0.527 2.418,1.756 3.144,2.284c0.203,0.147 0.288,0.409 0.21,0.648c-0.277,0.853 -0.923,2.842 -1.2,3.695c-0.078,0.239 -0.301,0.401 -0.552,0.401l-3.885,0c-0.252,0 -0.474,-0.162 -0.552,-0.401c-0.277,-0.853 -0.923,-2.842 -1.201,-3.695c-0.077,-0.239 0.008,-0.501 0.211,-0.648c0.726,-0.528 2.418,-1.757 3.144,-2.284Z" style="fill:#5a563c;"/></g><path d="M4.774,6.297l-0.965,-0l0.965,-1.356l-0,-0.482l-0.012,-0l-1.189,1.642c-0.074,0.104 -0.126,0.178 -0.126,0.31c-0,0.219 0.126,0.219 0.184,0.219l1.143,-0l-0,-0.333Zm0.258,0.723c0,0.167 -0.011,0.19 -0.235,0.253c-0.092,0.011 -0.15,0.063 -0.15,0.161c0,0.178 0.224,0.172 0.276,0.172l1.43,0c0.052,0 0.276,0.006 0.276,-0.172c-0,-0.098 -0.058,-0.15 -0.149,-0.161c-0.224,-0.063 -0.236,-0.086 -0.236,-0.253l0,-0.39l0.402,-0c0.046,-0 0.149,-0 0.149,-0.167c0,-0.166 -0.103,-0.166 -0.149,-0.166l-0.402,-0l0,-2.746c0,-0.276 -0.023,-0.241 -0.178,-0.241l-0.322,-0c-0.12,-0 -0.16,0.075 -0.258,0.184l-0.454,0.62l0,2.906Z" style="fill:#eada68;fill-rule:nonzero;"/></svg>