<?xml version="1.0" encoding="UTF-8" standalone="no"?><!DOCTYPE svg PUBLIC "-//W3C//DTD SVG 1.1//EN" "http://www.w3.org/Graphics/SVG/1.1/DTD/svg11.dtd"><svg width="100%" height="100%" viewBox="0 0 11 11" version="1.1" xmlns="http://www.w3.org/2000/svg" xmlns:xlink="http://www.w3.org/1999/xlink" xml:space="preserve" xmlns:serif="http://www.serif.com/" style="fill-rule:evenodd;clip-rule:evenodd;stroke-linejoin:round;stroke-miterlimit:2;"><rect id="t2000_d12_8" x="0.001" y="0.177" width="10.56" height="10.56" style="fill:none;"/><g><path d="M4.928,0.678c0.218,-0.126 0.487,-0.126 0.705,0c0.811,0.468 2.799,1.616 3.61,2.084c0.218,0.126 0.353,0.359 0.353,0.611l-0,4.168c-0,0.252 -0.135,0.485 -0.353,0.611c-0.811,0.468 -2.799,1.616 -3.61,2.084c-0.218,0.126 -0.487,0.126 -0.705,0c-0.811,-0.468 -2.799,-1.616 -3.61,-2.084c-0.218,-0.126 -0.352,-0.359 -0.352,-0.611l-0,-4.168c-0,-0.252 0.134,-0.485 0.352,-0.611c0.811,-0.468 2.799,-1.616 3.61,-2.084Z" style="fill:#88804b;"/><path d="M4.859,1.541c0.204,-0.148 0.479,-0.148 0.682,-0c0.726,0.527 2.417,1.756 3.143,2.284c0.204,0.147 0.289,0.409 0.211,0.648c-0.277,0.853 -0.923,2.842 -1.201,3.695c-0.077,0.239 -0.3,0.401 -0.551,0.401l-3.886,0c-0.251,0 -0.473,-0.162 -0.551,-0.401c-0.277,-0.853 -0.923,-2.842 -1.201,-3.695c-0.077,-0.239 0.008,-0.501 0.211,-0.648c0.726,-0.528 2.417,-1.757 3.143,-2.284Z" style="fill:#5a563c;"/></g><path d="M5.33,2.222c0.085,0.035 0.077,0.114 0.077,0.125l-0,0.399c-0,0.011 -0.005,0.086 -0.077,0.11l-0,0.127c0.077,0.026 0.077,0.09 0.077,0.101l-0,0.466c-0,0.011 -0.003,0.094 -0.077,0.123l-0,0.127c0.493,0.031 0.567,-0.309 0.567,-0.436c0,-0.252 -0.162,-0.39 -0.392,-0.443l0,-0.004c0.202,-0.05 0.351,-0.162 0.366,-0.386c0.02,-0.291 -0.282,-0.425 -0.541,-0.436l-0,0.127Zm-0.099,0.634c-0.072,-0.024 -0.076,-0.099 -0.076,-0.11l-0,-0.399c-0,-0.011 -0.009,-0.09 0.076,-0.125l0,-0.127c-0.258,0.011 -0.525,0.143 -0.541,0.436c-0.011,0.222 0.165,0.336 0.366,0.386l0,0.004c-0.23,0.053 -0.392,0.191 -0.392,0.443c-0,0.127 0.074,0.467 0.567,0.436l0,-0.127c-0.074,-0.029 -0.076,-0.112 -0.076,-0.123l-0,-0.466c-0,-0.011 -0,-0.075 0.076,-0.101l0,-0.127Z" style="fill:#eada68;fill-rule:nonzero;"/><g><g><path d="M4.554,6.585l0,0.23l-1.392,-0l-0,-0.23l1.392,-0Zm2.846,0.001l-0,0.23l-1.393,-0l0,-0.23l1.393,-0Zm-2.004,-0.612l-0.23,-0l0,-1.393l0.23,0l0,1.393Zm-0.001,2.845l-0.23,0l0,-1.392l0.23,-0l0,1.392Z" style="fill:#eada68;"/></g><g><path d="M5.281,5.387c0.724,-0 1.313,0.588 1.313,1.313c-0,0.725 -0.589,1.313 -1.313,1.313c-0.725,0 -1.314,-0.588 -1.314,-1.313c0,-0.725 0.589,-1.313 1.314,-1.313Zm-0,0.238c-0.594,-0 -1.076,0.482 -1.076,1.075c0,0.594 0.482,1.076 1.076,1.076c0.593,-0 1.075,-0.482 1.075,-1.076c0,-0.593 -0.482,-1.075 -1.075,-1.075Z" style="fill:#eada68;"/></g><g><path d="M5.281,4.852c1.019,0 1.847,0.828 1.847,1.848c0,1.02 -0.828,1.848 -1.847,1.848c-1.02,0 -1.848,-0.828 -1.848,-1.848c-0,-1.02 0.828,-1.848 1.848,-1.848Zm-0,0.238c-0.889,0 -1.61,0.722 -1.61,1.61c-0,0.889 0.721,1.61 1.61,1.61c0.888,0 1.61,-0.721 1.61,-1.61c-0,-0.888 -0.722,-1.61 -1.61,-1.61Z" style="fill:#eada68;"/></g></g></svg>