<?xml version="1.0" encoding="UTF-8" standalone="no"?><!DOCTYPE svg PUBLIC "-//W3C//DTD SVG 1.1//EN" "http://www.w3.org/Graphics/SVG/1.1/DTD/svg11.dtd"><svg width="100%" height="100%" viewBox="0 0 11 11" version="1.1" xmlns="http://www.w3.org/2000/svg" xmlns:xlink="http://www.w3.org/1999/xlink" xml:space="preserve" xmlns:serif="http://www.serif.com/" style="fill-rule:evenodd;clip-rule:evenodd;stroke-linejoin:round;stroke-miterlimit:2;"><rect id="t2000_d8_8" x="0.081" y="0.111" width="10.56" height="10.56" style="fill:none;"/><g><path d="M4.937,1.113c0.1,-0.133 0.257,-0.211 0.424,-0.211c0.167,-0 0.324,0.078 0.424,0.211c0.764,1.011 2.35,3.111 2.973,3.935c0.154,0.203 0.154,0.483 0,0.686c-0.623,0.825 -2.209,2.924 -2.973,3.935c-0.1,0.133 -0.257,0.211 -0.424,0.211c-0.167,0 -0.324,-0.078 -0.424,-0.211c-0.764,-1.011 -2.35,-3.11 -2.973,-3.935c-0.154,-0.203 -0.154,-0.483 -0,-0.686c0.623,-0.824 2.209,-2.924 2.973,-3.935Z" style="fill:#88804b;"/><path d="M5.061,1.407c0.066,-0.122 0.193,-0.199 0.332,-0.199c0.14,0 0.267,0.077 0.333,0.199c0.592,1.097 1.818,3.371 2.386,4.424c0.063,0.118 0.06,0.259 -0.008,0.374c-0.068,0.114 -0.192,0.184 -0.325,0.184l-4.771,0c-0.133,0 -0.257,-0.07 -0.325,-0.184c-0.068,-0.115 -0.071,-0.256 -0.008,-0.374c0.568,-1.053 1.794,-3.327 2.386,-4.424Z" style="fill:#5a563c;"/></g><path d="M5.41,2.156c0.086,0.035 0.077,0.114 0.077,0.125l0,0.399c0,0.011 -0.004,0.085 -0.077,0.11l0,0.127c0.077,0.026 0.077,0.089 0.077,0.1l0,0.467c0,0.011 -0.002,0.094 -0.077,0.123l0,0.127c0.493,0.031 0.568,-0.309 0.568,-0.436c-0,-0.252 -0.162,-0.39 -0.392,-0.443l-0,-0.004c0.201,-0.05 0.35,-0.162 0.366,-0.386c0.019,-0.291 -0.283,-0.425 -0.542,-0.436l0,0.127Zm-0.098,0.634c-0.073,-0.025 -0.077,-0.099 -0.077,-0.11l0,-0.399c0,-0.011 -0.009,-0.09 0.077,-0.125l-0,-0.127c-0.259,0.011 -0.526,0.143 -0.541,0.436c-0.011,0.222 0.164,0.336 0.365,0.386l0,0.004c-0.23,0.053 -0.392,0.191 -0.392,0.443c0,0.127 0.075,0.467 0.568,0.436l-0,-0.127c-0.075,-0.029 -0.077,-0.112 -0.077,-0.123l0,-0.467c0,-0.011 0,-0.074 0.077,-0.1l-0,-0.127Z" style="fill:#eada68;fill-rule:nonzero;"/><g><g><path d="M4.635,6.519l-0,0.23l-1.393,-0l0,-0.23l1.393,-0Zm2.845,0l0,0.231l-1.392,-0l-0,-0.231l1.392,0Zm-2.003,-0.611l-0.231,-0l0,-1.393l0.231,0l-0,1.393Zm-0.001,2.845l-0.231,0l0,-1.392l0.231,-0l-0,1.392Z" style="fill:#eada68;"/></g><g><path d="M5.361,5.321c0.725,-0 1.313,0.588 1.313,1.313c0,0.725 -0.588,1.313 -1.313,1.313c-0.725,0 -1.313,-0.588 -1.313,-1.313c-0,-0.725 0.588,-1.313 1.313,-1.313Zm0,0.238c-0.593,-0 -1.075,0.482 -1.075,1.075c-0,0.594 0.482,1.076 1.075,1.076c0.594,-0 1.075,-0.482 1.075,-1.076c0,-0.593 -0.481,-1.075 -1.075,-1.075Z" style="fill:#eada68;"/></g><g><path d="M5.361,4.786c1.02,0 1.848,0.828 1.848,1.848c-0,1.02 -0.828,1.848 -1.848,1.848c-1.02,-0 -1.848,-0.828 -1.848,-1.848c0,-1.02 0.828,-1.848 1.848,-1.848Zm0,0.238c-0.888,0 -1.61,0.722 -1.61,1.61c0,0.889 0.722,1.61 1.61,1.61c0.889,0 1.61,-0.721 1.61,-1.61c-0,-0.888 -0.721,-1.61 -1.61,-1.61Z" style="fill:#eada68;"/></g></g></svg>