<?xml version="1.0" encoding="UTF-8" standalone="no"?><!DOCTYPE svg PUBLIC "-//W3C//DTD SVG 1.1//EN" "http://www.w3.org/Graphics/SVG/1.1/DTD/svg11.dtd"><svg width="100%" height="100%" viewBox="0 0 11 11" version="1.1" xmlns="http://www.w3.org/2000/svg" xmlns:xlink="http://www.w3.org/1999/xlink" xml:space="preserve" xmlns:serif="http://www.serif.com/" style="fill-rule:evenodd;clip-rule:evenodd;stroke-linejoin:round;stroke-miterlimit:2;"><rect id="t2000_d10_8" x="0.178" y="0.089" width="10.56" height="10.56" style="fill:none;"/><g><path d="M5.243,0.824c0.133,-0.077 0.297,-0.077 0.431,-0c0.708,0.409 2.964,1.711 3.672,2.12c0.133,0.077 0.215,0.219 0.215,0.373l0,4.241c0,0.153 -0.082,0.296 -0.215,0.372c-0.708,0.41 -2.964,1.712 -3.672,2.121c-0.134,0.077 -0.298,0.077 -0.431,-0c-0.708,-0.409 -2.964,-1.711 -3.672,-2.121c-0.134,-0.076 -0.216,-0.219 -0.216,-0.372l0,-4.241c0,-0.154 0.082,-0.296 0.216,-0.373c0.708,-0.409 2.964,-1.711 3.672,-2.12Z" style="fill:#88804b;"/><path d="M4.664,2.086c0.159,-0.298 0.47,-0.484 0.808,-0.483c0.338,0.001 0.648,0.189 0.805,0.488c0.723,1.378 1.765,3.363 2.384,4.541c0.128,0.244 0.142,0.533 0.037,0.788c-0.105,0.255 -0.318,0.45 -0.581,0.534c-0.644,0.204 -1.445,0.458 -1.996,0.633c-0.422,0.133 -0.876,0.134 -1.298,0.002c-0.559,-0.175 -1.376,-0.431 -2.032,-0.636c-0.264,-0.083 -0.478,-0.279 -0.584,-0.536c-0.105,-0.256 -0.09,-0.547 0.04,-0.791c0.629,-1.181 1.685,-3.164 2.417,-4.54Z" style="fill:#5a563c;"/></g><path d="M5.538,2.429c0.085,0.035 0.077,0.114 0.077,0.125l-0,0.399c-0,0.011 -0.005,0.085 -0.077,0.109l-0,0.127c0.077,0.027 0.077,0.09 0.077,0.101l-0,0.467c-0,0.011 -0.003,0.094 -0.077,0.122l-0,0.128c0.493,0.03 0.567,-0.309 0.567,-0.437c0,-0.251 -0.162,-0.39 -0.392,-0.442l0,-0.005c0.202,-0.05 0.351,-0.162 0.366,-0.385c0.02,-0.292 -0.283,-0.425 -0.541,-0.436l-0,0.127Zm-0.099,0.633c-0.072,-0.024 -0.076,-0.098 -0.076,-0.109l-0,-0.399c-0,-0.011 -0.009,-0.09 0.076,-0.125l0,-0.127c-0.258,0.011 -0.526,0.142 -0.541,0.436c-0.011,0.221 0.164,0.335 0.366,0.385l-0,0.005c-0.23,0.052 -0.392,0.191 -0.392,0.442c-0,0.128 0.074,0.467 0.567,0.437l0,-0.128c-0.074,-0.028 -0.076,-0.111 -0.076,-0.122l-0,-0.467c-0,-0.011 -0,-0.074 0.076,-0.101l0,-0.127Z" style="fill:#eada68;fill-rule:nonzero;"/><g><g><path d="M4.762,6.791l0,0.23l-1.392,0l-0,-0.23l1.392,0Zm2.846,0.001l-0,0.23l-1.393,0l0,-0.23l1.393,0Zm-2.004,-0.612l-0.23,0l-0,-1.392l0.23,-0l0,1.392Zm-0.001,2.846l-0.23,-0l-0,-1.393l0.23,0l0,1.393Z" style="fill:#eada68;"/></g><g><path d="M5.489,5.593c0.724,0 1.313,0.589 1.313,1.314c-0,0.725 -0.589,1.313 -1.313,1.313c-0.725,-0 -1.314,-0.588 -1.314,-1.313c0,-0.725 0.589,-1.314 1.314,-1.314Zm-0,0.238c-0.594,0 -1.076,0.482 -1.076,1.076c0,0.593 0.482,1.075 1.076,1.075c0.593,0 1.075,-0.482 1.075,-1.075c-0,-0.594 -0.482,-1.076 -1.075,-1.076Z" style="fill:#eada68;"/></g><g><path d="M5.489,5.059c1.019,-0 1.847,0.828 1.847,1.848c0,1.02 -0.828,1.847 -1.847,1.847c-1.02,0 -1.848,-0.827 -1.848,-1.847c-0,-1.02 0.828,-1.848 1.848,-1.848Zm-0,0.238c-0.889,-0 -1.61,0.721 -1.61,1.61c-0,0.888 0.721,1.61 1.61,1.61c0.888,-0 1.609,-0.722 1.609,-1.61c0,-0.889 -0.721,-1.61 -1.609,-1.61Z" style="fill:#eada68;"/></g></g></svg>