<?xml version="1.0" encoding="UTF-8" standalone="no"?><!DOCTYPE svg PUBLIC "-//W3C//DTD SVG 1.1//EN" "http://www.w3.org/Graphics/SVG/1.1/DTD/svg11.dtd"><svg width="100%" height="100%" viewBox="0 0 11 11" version="1.1" xmlns="http://www.w3.org/2000/svg" xmlns:xlink="http://www.w3.org/1999/xlink" xml:space="preserve" xmlns:serif="http://www.serif.com/" style="fill-rule:evenodd;clip-rule:evenodd;stroke-linejoin:round;stroke-miterlimit:2;"><rect id="t2000_d6_5" x="0.122" y="0.139" width="10.56" height="10.56" style="fill:none;"/><g><path d="M8.583,0.979c0.695,0 1.259,0.564 1.259,1.26l0,6.361c0,0.695 -0.564,1.259 -1.259,1.259l-6.361,0c-0.696,0 -1.26,-0.564 -1.26,-1.259l0,-6.361c0,-0.696 0.564,-1.26 1.26,-1.26l6.361,0Z" style="fill:#88804b;"/><path d="M8.077,2.097c0.358,-0 0.648,0.29 0.648,0.648l-0,5.349c-0,0.358 -0.29,0.648 -0.648,0.648l-5.349,-0c-0.358,-0 -0.648,-0.29 -0.648,-0.648l-0,-5.349c-0,-0.358 0.29,-0.648 0.648,-0.648l5.349,-0Z" style="fill:#5a563c;"/></g><path d="M4.159,4.483l-0.086,0.948c-0,0.109 0.08,0.166 0.189,0.166c0.075,0 0.155,-0.052 0.219,-0.092c0.183,-0.115 0.373,-0.178 0.574,-0.224l-0,-0.448c-0.247,0.052 -0.465,0.201 -0.632,0.356l0.058,-0.672l-0.322,-0.034Zm1.16,3.17c0.885,0.018 1.614,-0.453 1.614,-1.418c-0,-0.965 -0.729,-1.436 -1.614,-1.419l0,0.465c0.304,0.086 0.327,0.408 0.327,0.609l0,0.821c0,0.207 -0.023,0.523 -0.327,0.609l0,0.333Zm-0.264,-0.339c-0.075,-0.017 -0.293,-0.063 -0.293,-0.155c-0,-0.069 0.293,-0.183 0.299,-0.545c0.005,-0.31 -0.253,-0.563 -0.569,-0.563c-0.356,-0 -0.62,0.281 -0.62,0.637c-0,0.586 0.66,0.942 1.183,0.965l-0,-0.339Zm-0.781,-4.129l-0.115,1.068l0.884,0.063c0.443,0 0.81,-0.04 1.178,-0.304c0.275,-0.207 0.476,-0.477 0.563,-0.827c-0.299,0.109 -0.914,0.132 -1.321,0.098l-1.189,-0.098Z" style="fill:#eada68;fill-rule:nonzero;"/></svg>