<?xml version="1.0" encoding="UTF-8" standalone="no"?><!DOCTYPE svg PUBLIC "-//W3C//DTD SVG 1.1//EN" "http://www.w3.org/Graphics/SVG/1.1/DTD/svg11.dtd"><svg width="100%" height="100%" viewBox="0 0 11 11" version="1.1" xmlns="http://www.w3.org/2000/svg" xmlns:xlink="http://www.w3.org/1999/xlink" xml:space="preserve" xmlns:serif="http://www.serif.com/" style="fill-rule:evenodd;clip-rule:evenodd;stroke-linejoin:round;stroke-miterlimit:2;"><rect id="t2000_d6_1" x="0.104" y="0.139" width="10.56" height="10.56" style="fill:none;"/><g><path d="M8.564,0.979c0.696,0 1.26,0.564 1.26,1.26l-0,6.361c-0,0.695 -0.564,1.259 -1.26,1.259l-6.361,0c-0.695,0 -1.259,-0.564 -1.259,-1.259l-0,-6.361c-0,-0.696 0.564,-1.26 1.259,-1.26l6.361,0Z" style="fill:#88804b;"/><path d="M8.058,2.097c0.358,-0 0.648,0.29 0.648,0.648l0,5.349c0,0.358 -0.29,0.648 -0.648,0.648l-5.349,-0c-0.358,-0 -0.648,-0.29 -0.648,-0.648l0,-5.349c0,-0.358 0.29,-0.648 0.648,-0.648l5.349,-0Z" style="fill:#5a563c;"/></g><path d="M2.651,1.915l-0.667,0.035c-0.029,0.003 -0.142,-0.003 -0.142,0.098c0,0.064 0.058,0.072 0.107,0.078c0.072,0.012 0.092,0.02 0.092,0.202l0,1.453c0,0.084 -0.005,0.095 -0.118,0.127c-0.046,0.006 -0.075,0.032 -0.075,0.081c-0,0.089 0.113,0.086 0.139,0.086l0.719,0c0.026,0 0.138,0.003 0.138,-0.086c0,-0.049 -0.029,-0.075 -0.075,-0.081c-0.113,-0.032 -0.118,-0.043 -0.118,-0.127l-0,-1.866Z" style="fill:#eada68;fill-rule:nonzero;"/><path d="M8.02,7.393l-1.762,-1.016l0.289,1.875l-0.807,-1.457l-0.334,1.787l-0.387,-1.936l-1.918,0.932l1.332,-1.679l-2.089,-0.584l1.968,-0.301l-0.426,-1.051l0.886,0.251l0.497,-1.957l0.665,2.05l1.385,-0.953l-0.77,1.375l1.874,0.631l-1.817,0.282l1.414,1.751Z" style="fill:#eada68;"/></svg>