<?xml version="1.0" encoding="UTF-8" standalone="no"?><!DOCTYPE svg PUBLIC "-//W3C//DTD SVG 1.1//EN" "http://www.w3.org/Graphics/SVG/1.1/DTD/svg11.dtd"><svg width="100%" height="100%" viewBox="0 0 11 11" version="1.1" xmlns="http://www.w3.org/2000/svg" xmlns:xlink="http://www.w3.org/1999/xlink" xml:space="preserve" xmlns:serif="http://www.serif.com/" style="fill-rule:evenodd;clip-rule:evenodd;stroke-linejoin:round;stroke-miterlimit:2;"><rect id="t2000_d8_6" x="0.086" y="0.111" width="10.56" height="10.56" style="fill:none;"/><g><path d="M4.942,1.113c0.1,-0.133 0.257,-0.211 0.424,-0.211c0.166,-0 0.323,0.078 0.424,0.211c0.764,1.011 2.35,3.111 2.973,3.935c0.153,0.203 0.153,0.483 -0,0.686c-0.623,0.825 -2.209,2.924 -2.973,3.935c-0.101,0.133 -0.258,0.211 -0.424,0.211c-0.167,0 -0.324,-0.078 -0.424,-0.211c-0.765,-1.011 -2.351,-3.11 -2.974,-3.935c-0.153,-0.203 -0.153,-0.483 0,-0.686c0.623,-0.824 2.209,-2.924 2.974,-3.935Z" style="fill:#88804b;"/><path d="M5.065,1.407c0.066,-0.122 0.194,-0.199 0.333,-0.199c0.139,0 0.267,0.077 0.333,0.199c0.592,1.097 1.818,3.371 2.386,4.424c0.063,0.118 0.06,0.259 -0.008,0.374c-0.069,0.114 -0.192,0.184 -0.325,0.184l-4.772,0c-0.133,0 -0.256,-0.07 -0.324,-0.184c-0.069,-0.115 -0.072,-0.256 -0.009,-0.374c0.568,-1.053 1.794,-3.327 2.386,-4.424Z" style="fill:#5a563c;"/></g><path d="M5.342,2.956c0.026,-0.015 0.063,-0.035 0.094,-0.035c0.079,0.009 0.081,0.092 0.081,0.103l-0,0.504c-0,0.011 -0.005,0.061 -0.081,0.077l-0,0.129c0.342,0.013 0.572,-0.243 0.572,-0.557c-0,-0.234 -0.178,-0.422 -0.414,-0.422c-0.09,-0 -0.174,0.028 -0.252,0.072l-0,0.129Zm-0.005,0.651c-0.101,-0.018 -0.123,-0.099 -0.123,-0.193l0,-1.063c0,-0.094 0.022,-0.175 0.123,-0.192l0,-0.13c-0.291,0.005 -0.602,0.303 -0.613,0.853c0.011,0.55 0.322,0.848 0.613,0.852l0,-0.127Zm0.099,-1.448c0.039,-0 0.098,0.021 0.098,0.065c0,0.062 -0.083,0.084 -0.085,0.202c-0.002,0.107 0.103,0.193 0.208,0.193c0.136,-0 0.241,-0.095 0.241,-0.235c0,-0.223 -0.265,-0.353 -0.462,-0.355l-0,0.13Z" style="fill:#eada68;fill-rule:nonzero;"/><g><g><path d="M4.639,6.519l0,0.23l-1.392,-0l-0,-0.23l1.392,-0Zm2.846,0l-0,0.231l-1.393,-0l0,-0.231l1.393,0Zm-2.004,-0.611l-0.23,-0l-0,-1.393l0.23,0l0,1.393Zm-0.001,2.845l-0.23,0l0,-1.392l0.23,-0l0,1.392Z" style="fill:#eada68;"/></g><g><path d="M5.366,5.321c0.724,-0 1.313,0.588 1.313,1.313c-0,0.725 -0.589,1.313 -1.313,1.313c-0.725,0 -1.314,-0.588 -1.314,-1.313c0,-0.725 0.589,-1.313 1.314,-1.313Zm-0,0.238c-0.594,-0 -1.076,0.482 -1.076,1.075c0,0.594 0.482,1.076 1.076,1.076c0.593,-0 1.075,-0.482 1.075,-1.076c0,-0.593 -0.482,-1.075 -1.075,-1.075Z" style="fill:#eada68;"/></g><g><path d="M5.366,4.786c1.019,0 1.847,0.828 1.847,1.848c0,1.02 -0.828,1.848 -1.847,1.848c-1.02,-0 -1.848,-0.828 -1.848,-1.848c-0,-1.02 0.828,-1.848 1.848,-1.848Zm-0,0.238c-0.889,0 -1.61,0.722 -1.61,1.61c-0,0.889 0.721,1.61 1.61,1.61c0.888,0 1.61,-0.721 1.61,-1.61c-0,-0.888 -0.722,-1.61 -1.61,-1.61Z" style="fill:#eada68;"/></g></g></svg>