<?xml version="1.0" encoding="UTF-8" standalone="no"?><!DOCTYPE svg PUBLIC "-//W3C//DTD SVG 1.1//EN" "http://www.w3.org/Graphics/SVG/1.1/DTD/svg11.dtd"><svg width="100%" height="100%" viewBox="0 0 11 11" version="1.1" xmlns="http://www.w3.org/2000/svg" xmlns:xlink="http://www.w3.org/1999/xlink" xml:space="preserve" xmlns:serif="http://www.serif.com/" style="fill-rule:evenodd;clip-rule:evenodd;stroke-linejoin:round;stroke-miterlimit:2;"><rect id="t2000_d10_10" x="0.064" y="0.089" width="10.56" height="10.56" style="fill:none;"/><g><path d="M5.128,0.824c0.134,-0.077 0.298,-0.077 0.431,-0c0.708,0.409 2.964,1.711 3.672,2.12c0.134,0.077 0.216,0.219 0.216,0.373l-0,4.241c-0,0.153 -0.082,0.296 -0.216,0.372c-0.708,0.41 -2.964,1.712 -3.672,2.121c-0.133,0.077 -0.297,0.077 -0.431,-0c-0.708,-0.409 -2.964,-1.711 -3.672,-2.121c-0.133,-0.076 -0.215,-0.219 -0.215,-0.372l-0,-4.241c-0,-0.154 0.082,-0.296 0.215,-0.373c0.708,-0.409 2.964,-1.711 3.672,-2.12Z" style="fill:#88804b;"/><path d="M4.55,2.086c0.158,-0.298 0.469,-0.484 0.807,-0.483c0.338,0.001 0.648,0.189 0.805,0.488c0.723,1.378 1.766,3.363 2.384,4.541c0.128,0.244 0.142,0.533 0.037,0.788c-0.105,0.255 -0.317,0.45 -0.58,0.534c-0.645,0.204 -1.446,0.458 -1.997,0.633c-0.422,0.133 -0.875,0.134 -1.298,0.002c-0.559,-0.175 -1.376,-0.431 -2.031,-0.636c-0.265,-0.083 -0.479,-0.279 -0.584,-0.536c-0.106,-0.256 -0.091,-0.547 0.039,-0.791c0.629,-1.181 1.685,-3.164 2.418,-4.54Z" style="fill:#5a563c;"/></g><g><path d="M4.941,2.247l-0.506,0.027c-0.022,0.002 -0.107,-0.003 -0.107,0.074c-0,0.048 0.044,0.055 0.081,0.059c0.055,0.009 0.07,0.016 0.07,0.154l0,1.102c0,0.063 -0.004,0.072 -0.09,0.096c-0.035,0.005 -0.057,0.024 -0.057,0.062c0,0.068 0.086,0.065 0.106,0.065l0.545,0c0.02,0 0.105,0.003 0.105,-0.065c0,-0.038 -0.022,-0.057 -0.057,-0.062c-0.085,-0.024 -0.09,-0.033 -0.09,-0.096l0,-1.416Z" style="fill:#eada68;fill-rule:nonzero;"/><path d="M6.039,3.792c-0.109,-0.037 -0.125,-0.109 -0.127,-0.21l0,-1.03c0.002,-0.101 0.018,-0.173 0.127,-0.21l0,-0.128c-0.32,0.04 -0.618,0.288 -0.618,0.853c0,0.565 0.298,0.813 0.618,0.852l0,-0.127Zm0.099,-1.45c0.109,0.037 0.125,0.109 0.127,0.21l-0,1.03c-0.002,0.101 -0.018,0.173 -0.127,0.21l-0,0.127c0.32,-0.039 0.618,-0.287 0.618,-0.852c-0,-0.565 -0.298,-0.813 -0.618,-0.853l-0,0.128Z" style="fill:#eada68;fill-rule:nonzero;"/></g><g><g><g><path d="M3.063,6.323l-0,0.187l-1.165,-0l-0,-0.187l1.165,0Zm2.38,0.001l0,0.187l-1.165,-0l0,-0.187l1.165,0Zm-1.676,-0.496l-0.192,0l-0,-1.128l0.192,0l0,1.128Zm-0,2.306l-0.193,-0l-0,-1.128l0.193,-0l-0,1.128Z" style="fill:#eada68;"/></g><g><path d="M3.671,5.353c0.606,0 1.098,0.477 1.098,1.064c0,0.587 -0.492,1.064 -1.098,1.064c-0.607,-0 -1.099,-0.477 -1.099,-1.064c-0,-0.587 0.492,-1.064 1.099,-1.064Zm-0,0.193c-0.497,-0 -0.9,0.39 -0.9,0.871c-0,0.481 0.403,0.871 0.9,0.871c0.496,0 0.899,-0.39 0.899,-0.871c0,-0.481 -0.403,-0.871 -0.899,-0.871Z" style="fill:#eada68;"/></g><g><path d="M3.671,4.92c0.853,0 1.545,0.671 1.545,1.497c0,0.826 -0.692,1.497 -1.545,1.497c-0.854,-0 -1.546,-0.671 -1.546,-1.497c-0,-0.826 0.692,-1.497 1.546,-1.497Zm-0,0.193c-0.744,-0 -1.347,0.584 -1.347,1.304c-0,0.72 0.603,1.304 1.347,1.304c0.743,0 1.346,-0.584 1.346,-1.304c0,-0.72 -0.603,-1.304 -1.346,-1.304Z" style="fill:#eada68;"/></g></g><g><g><path d="M6.805,6.323l0,0.187l-1.165,-0l0,-0.187l1.165,0Zm2.381,0.001l-0,0.187l-1.165,-0l-0,-0.187l1.165,0Zm-1.676,-0.496l-0.193,0l0,-1.128l0.193,0l-0,1.128Zm-0.001,2.306l-0.193,-0l0,-1.128l0.193,-0l0,1.128Z" style="fill:#eada68;"/></g><g><path d="M7.413,5.353c0.606,0 1.099,0.477 1.099,1.064c-0,0.587 -0.493,1.064 -1.099,1.064c-0.606,-0 -1.098,-0.477 -1.098,-1.064c-0,-0.587 0.492,-1.064 1.098,-1.064Zm0,0.193c-0.496,-0 -0.9,0.39 -0.9,0.871c0,0.481 0.404,0.871 0.9,0.871c0.497,0 0.9,-0.39 0.9,-0.871c-0,-0.481 -0.403,-0.871 -0.9,-0.871Z" style="fill:#eada68;"/></g><g><path d="M7.413,4.92c0.853,0 1.546,0.671 1.546,1.497c-0,0.826 -0.693,1.497 -1.546,1.497c-0.853,-0 -1.546,-0.671 -1.546,-1.497c0,-0.826 0.693,-1.497 1.546,-1.497Zm0,0.193c-0.743,-0 -1.347,0.584 -1.347,1.304c0,0.72 0.604,1.304 1.347,1.304c0.743,0 1.347,-0.584 1.347,-1.304c-0,-0.72 -0.604,-1.304 -1.347,-1.304Z" style="fill:#eada68;"/></g></g></g></svg>