<?xml version="1.0" encoding="UTF-8" standalone="no"?><!DOCTYPE svg PUBLIC "-//W3C//DTD SVG 1.1//EN" "http://www.w3.org/Graphics/SVG/1.1/DTD/svg11.dtd"><svg width="100%" height="100%" viewBox="0 0 11 11" version="1.1" xmlns="http://www.w3.org/2000/svg" xmlns:xlink="http://www.w3.org/1999/xlink" xml:space="preserve" xmlns:serif="http://www.serif.com/" style="fill-rule:evenodd;clip-rule:evenodd;stroke-linejoin:round;stroke-miterlimit:2;"><rect id="t2000_d12_9" x="0.09" y="0.177" width="10.56" height="10.56" style="fill:none;"/><g><path d="M5.017,0.678c0.218,-0.126 0.487,-0.126 0.706,0c0.81,0.468 2.799,1.616 3.609,2.084c0.219,0.126 0.353,0.359 0.353,0.611l0,4.168c0,0.252 -0.134,0.485 -0.353,0.611c-0.81,0.468 -2.799,1.616 -3.609,2.084c-0.219,0.126 -0.488,0.126 -0.706,0c-0.811,-0.468 -2.799,-1.616 -3.609,-2.084c-0.219,-0.126 -0.353,-0.359 -0.353,-0.611l-0,-4.168c-0,-0.252 0.134,-0.485 0.353,-0.611c0.81,-0.468 2.798,-1.616 3.609,-2.084Z" style="fill:#88804b;"/><path d="M4.949,1.541c0.203,-0.148 0.478,-0.148 0.681,-0c0.726,0.527 2.418,1.756 3.144,2.284c0.203,0.147 0.288,0.409 0.21,0.648c-0.277,0.853 -0.923,2.842 -1.2,3.695c-0.078,0.239 -0.301,0.401 -0.552,0.401l-3.885,0c-0.252,0 -0.474,-0.162 -0.552,-0.401c-0.277,-0.853 -0.923,-2.842 -1.201,-3.695c-0.077,-0.239 0.008,-0.501 0.211,-0.648c0.726,-0.528 2.418,-1.757 3.144,-2.284Z" style="fill:#5a563c;"/></g><path d="M5.378,2.873c-0.027,0.016 -0.064,0.035 -0.095,0.035c-0.079,-0.008 -0.081,-0.092 -0.081,-0.102l0,-0.504c0,-0.011 0.005,-0.062 0.081,-0.077l0,-0.129c-0.341,-0.014 -0.572,0.243 -0.572,0.556c0,0.235 0.178,0.423 0.415,0.423c0.089,0 0.173,-0.028 0.252,-0.072l-0,-0.13Zm0.004,-0.65c0.101,0.017 0.123,0.098 0.123,0.192l-0,1.063c-0,0.094 -0.022,0.175 -0.123,0.193l-0,0.129c0.291,-0.004 0.603,-0.302 0.613,-0.852c-0.01,-0.55 -0.322,-0.848 -0.613,-0.852l-0,0.127Zm-0.099,1.448c-0.039,-0 -0.098,-0.022 -0.098,-0.066c-0,-0.061 0.087,-0.083 0.085,-0.201c-0.002,-0.108 -0.103,-0.193 -0.208,-0.193c-0.136,-0 -0.241,0.094 -0.241,0.234c0,0.224 0.265,0.353 0.462,0.355l0,-0.129Z" style="fill:#eada68;fill-opacity:0.9;fill-rule:nonzero;"/><g><g><path d="M4.643,6.585l0,0.23l-1.392,0l-0,-0.23l1.392,-0Zm2.846,0.001l-0,0.23l-1.393,0l0,-0.23l1.393,-0Zm-2.003,-0.612l-0.231,-0l0,-1.393l0.231,0l-0,1.393Zm-0.001,2.845l-0.231,0l0,-1.392l0.231,0l-0,1.392Z" style="fill:#eada68;"/></g><g><path d="M5.37,5.387c0.725,0 1.313,0.589 1.313,1.313c0,0.725 -0.588,1.314 -1.313,1.314c-0.725,-0 -1.313,-0.589 -1.313,-1.314c-0,-0.724 0.588,-1.313 1.313,-1.313Zm-0,0.238c-0.594,0 -1.075,0.482 -1.075,1.075c-0,0.594 0.481,1.076 1.075,1.076c0.593,-0 1.075,-0.482 1.075,-1.076c0,-0.593 -0.482,-1.075 -1.075,-1.075Z" style="fill:#eada68;"/></g><g><path d="M5.37,4.853c1.02,-0 1.848,0.828 1.848,1.847c-0,1.02 -0.828,1.848 -1.848,1.848c-1.02,0 -1.848,-0.828 -1.848,-1.848c0,-1.019 0.828,-1.847 1.848,-1.847Zm-0,0.238c-0.889,-0 -1.61,0.721 -1.61,1.609c-0,0.889 0.721,1.61 1.61,1.61c0.888,0 1.61,-0.721 1.61,-1.61c-0,-0.888 -0.722,-1.609 -1.61,-1.609Z" style="fill:#eada68;"/></g></g></svg>