<?xml version="1.0" encoding="UTF-8" standalone="no"?><!DOCTYPE svg PUBLIC "-//W3C//DTD SVG 1.1//EN" "http://www.w3.org/Graphics/SVG/1.1/DTD/svg11.dtd"><svg width="100%" height="100%" viewBox="0 0 11 11" version="1.1" xmlns="http://www.w3.org/2000/svg" xmlns:xlink="http://www.w3.org/1999/xlink" xml:space="preserve" xmlns:serif="http://www.serif.com/" style="fill-rule:evenodd;clip-rule:evenodd;stroke-linejoin:round;stroke-miterlimit:2;"><rect id="t2000_d10_1" x="0.015" y="0.089" width="10.56" height="10.56" style="fill:none;"/><path d="M6.391,6.769l0,0.723l-2.153,0l-0,-0.723l0.58,-0l0,-2.779l-0.62,-0l0,-0.724l1.649,0l0,3.503l0.544,-0Z" style="fill:#fff;fill-rule:nonzero;"/><g><path d="M5.08,0.824c0.133,-0.077 0.297,-0.077 0.43,-0c0.709,0.409 2.964,1.711 3.673,2.12c0.133,0.077 0.215,0.219 0.215,0.373l-0,4.241c-0,0.153 -0.082,0.296 -0.215,0.372c-0.709,0.41 -2.964,1.712 -3.673,2.121c-0.133,0.077 -0.297,0.077 -0.43,-0c-0.709,-0.409 -2.964,-1.711 -3.673,-2.121c-0.133,-0.076 -0.215,-0.219 -0.215,-0.372l-0,-4.241c-0,-0.154 0.082,-0.296 0.215,-0.373c0.709,-0.409 2.964,-1.711 3.673,-2.12Z" style="fill:#88804b;"/><path d="M4.501,2.086c0.159,-0.298 0.47,-0.484 0.808,-0.483c0.338,0.001 0.647,0.189 0.805,0.488c0.723,1.378 1.765,3.363 2.383,4.541c0.129,0.244 0.142,0.533 0.037,0.788c-0.105,0.255 -0.317,0.45 -0.58,0.534c-0.644,0.204 -1.446,0.458 -1.997,0.633c-0.422,0.133 -0.875,0.134 -1.298,0.002c-0.558,-0.175 -1.376,-0.431 -2.031,-0.636c-0.265,-0.083 -0.479,-0.279 -0.584,-0.536c-0.105,-0.256 -0.091,-0.547 0.04,-0.791c0.628,-1.181 1.685,-3.164 2.417,-4.54Z" style="fill:#5a563c;"/></g><g><path d="M5.649,1.645l-0.447,0.024c-0.02,0.002 -0.095,-0.002 -0.095,0.066c-0,0.042 0.039,0.048 0.071,0.052c0.049,0.008 0.062,0.013 0.062,0.135l0,0.975c0,0.056 -0.003,0.064 -0.079,0.085c-0.031,0.004 -0.05,0.021 -0.05,0.054c-0,0.06 0.075,0.058 0.093,0.058l0.482,0c0.017,0 0.093,0.002 0.093,-0.058c-0,-0.033 -0.019,-0.05 -0.05,-0.054c-0.076,-0.021 -0.08,-0.029 -0.08,-0.085l0,-1.252Z" style="fill:#eada68;fill-rule:nonzero;"/><path d="M7.23,7.413l-1.337,-0.803l0.22,1.481l-0.613,-1.151l-0.253,1.411l-0.294,-1.529l-1.456,0.736l1.011,-1.326l-1.585,-0.461l1.494,-0.237l-0.324,-0.83l0.673,0.197l0.377,-1.545l0.504,1.619l1.052,-0.752l-0.585,1.086l1.423,0.498l-1.379,0.223l1.072,1.383Z" style="fill:#eada68;"/></g></svg>