<?xml version="1.0" encoding="UTF-8" standalone="no"?><!DOCTYPE svg PUBLIC "-//W3C//DTD SVG 1.1//EN" "http://www.w3.org/Graphics/SVG/1.1/DTD/svg11.dtd"><svg width="100%" height="100%" viewBox="0 0 11 11" version="1.1" xmlns="http://www.w3.org/2000/svg" xmlns:xlink="http://www.w3.org/1999/xlink" xml:space="preserve" xmlns:serif="http://www.serif.com/" style="fill-rule:evenodd;clip-rule:evenodd;stroke-linejoin:round;stroke-miterlimit:2;"><rect id="t2000_d10_7" x="0.127" y="0.089" width="10.56" height="10.56" style="fill:none;"/><g><path d="M5.191,0.824c0.134,-0.077 0.298,-0.077 0.431,-0c0.709,0.409 2.964,1.711 3.672,2.12c0.134,0.077 0.216,0.219 0.216,0.373l-0,4.241c-0,0.153 -0.082,0.296 -0.216,0.372c-0.708,0.41 -2.963,1.712 -3.672,2.121c-0.133,0.077 -0.297,0.077 -0.431,-0c-0.708,-0.409 -2.963,-1.711 -3.672,-2.121c-0.133,-0.076 -0.215,-0.219 -0.215,-0.372l-0,-4.241c-0,-0.154 0.082,-0.296 0.215,-0.373c0.709,-0.409 2.964,-1.711 3.672,-2.12Z" style="fill:#88804b;"/><path d="M4.613,2.086c0.159,-0.298 0.469,-0.484 0.808,-0.483c0.338,0.001 0.647,0.189 0.804,0.488c0.724,1.378 1.766,3.363 2.384,4.541c0.129,0.244 0.142,0.533 0.037,0.788c-0.105,0.255 -0.317,0.45 -0.58,0.534c-0.644,0.204 -1.446,0.458 -1.997,0.633c-0.422,0.133 -0.875,0.134 -1.298,0.002c-0.559,-0.175 -1.376,-0.431 -2.031,-0.636c-0.265,-0.083 -0.479,-0.279 -0.584,-0.536c-0.105,-0.256 -0.091,-0.547 0.039,-0.791c0.629,-1.181 1.685,-3.164 2.418,-4.54Z" style="fill:#5a563c;"/></g><path d="M4.997,2.816c0,0.167 0.084,0.325 0.268,0.325c0.162,-0 0.256,-0.143 0.256,-0.283c-0,-0.072 -0.013,-0.125 -0.026,-0.193c-0.042,-0.217 -0.02,-0.383 0.142,-0.701c-0.048,0.02 -0.101,0.037 -0.153,0.042c-0.158,0.271 -0.487,0.464 -0.487,0.81Zm-0.083,-1.323l-0.088,0l-0.076,0.513l0.092,-0l-0,-0.018c0.002,-0.081 0.013,-0.147 0.116,-0.162c0.155,-0.022 0.335,0.064 0.488,0.064c0.132,-0 0.244,-0.042 0.298,-0.134c0.027,-0.044 0.077,-0.156 0.077,-0.208c0,-0.026 -0.017,-0.051 -0.046,-0.051c-0.017,0 -0.026,0.014 -0.039,0.025c-0.024,0.021 -0.04,0.035 -0.075,0.035c-0.035,-0 -0.12,-0.029 -0.158,-0.042c-0.092,-0.029 -0.151,-0.053 -0.247,-0.053c-0.182,0 -0.23,0.064 -0.36,0.171l0.018,-0.14Z" style="fill:#eada68;fill-rule:nonzero;"/><g><g><path d="M4.559,5.941l-0,0.23l-1.393,-0l0,-0.23l1.393,-0Zm2.845,0.001l0,0.23l-1.392,-0l-0,-0.23l1.392,-0Zm-2.003,-0.612l-0.23,-0l-0,-1.393l0.23,0l0,1.393Zm-0.001,2.845l-0.23,0l-0,-1.392l0.23,-0l0,1.392Z" style="fill:#eada68;"/></g><g><path d="M5.285,4.743c0.725,0 1.314,0.589 1.314,1.313c-0,0.725 -0.589,1.314 -1.314,1.314c-0.724,-0 -1.313,-0.589 -1.313,-1.314c0,-0.724 0.589,-1.313 1.313,-1.313Zm0,0.238c-0.593,-0 -1.075,0.482 -1.075,1.075c0,0.594 0.482,1.076 1.075,1.076c0.594,-0 1.076,-0.482 1.076,-1.076c-0,-0.593 -0.482,-1.075 -1.076,-1.075Z" style="fill:#eada68;"/></g><g><path d="M5.285,4.209c1.02,-0 1.848,0.827 1.848,1.847c0,1.02 -0.828,1.848 -1.848,1.848c-1.019,0 -1.847,-0.828 -1.847,-1.848c-0,-1.02 0.828,-1.847 1.847,-1.847Zm0,0.237c-0.888,0 -1.61,0.722 -1.61,1.61c0,0.889 0.722,1.61 1.61,1.61c0.889,0 1.61,-0.721 1.61,-1.61c0,-0.888 -0.721,-1.61 -1.61,-1.61Z" style="fill:#eada68;"/></g></g></svg>