<?xml version="1.0" encoding="UTF-8" standalone="no"?><!DOCTYPE svg PUBLIC "-//W3C//DTD SVG 1.1//EN" "http://www.w3.org/Graphics/SVG/1.1/DTD/svg11.dtd"><svg width="100%" height="100%" viewBox="0 0 11 11" version="1.1" xmlns="http://www.w3.org/2000/svg" xmlns:xlink="http://www.w3.org/1999/xlink" xml:space="preserve" xmlns:serif="http://www.serif.com/" style="fill-rule:evenodd;clip-rule:evenodd;stroke-linejoin:round;stroke-miterlimit:2;"><rect id="t2000_d8_7" x="0.073" y="0.111" width="10.56" height="10.56" style="fill:none;"/><g><path d="M4.929,1.113c0.1,-0.133 0.257,-0.211 0.424,-0.211c0.167,-0 0.324,0.078 0.424,0.211c0.764,1.011 2.35,3.111 2.973,3.935c0.154,0.203 0.154,0.483 0,0.686c-0.623,0.825 -2.209,2.924 -2.973,3.935c-0.1,0.133 -0.257,0.211 -0.424,0.211c-0.167,0 -0.324,-0.078 -0.424,-0.211c-0.764,-1.011 -2.35,-3.11 -2.973,-3.935c-0.154,-0.203 -0.154,-0.483 -0,-0.686c0.623,-0.824 2.209,-2.924 2.973,-3.935Z" style="fill:#88804b;"/><path d="M5.052,1.407c0.066,-0.122 0.194,-0.199 0.333,-0.199c0.139,0 0.267,0.077 0.333,0.199c0.592,1.097 1.818,3.371 2.386,4.424c0.063,0.118 0.06,0.259 -0.008,0.374c-0.068,0.114 -0.192,0.184 -0.325,0.184l-4.771,0c-0.134,0 -0.257,-0.07 -0.325,-0.184c-0.068,-0.115 -0.072,-0.256 -0.008,-0.374c0.568,-1.053 1.794,-3.327 2.385,-4.424Z" style="fill:#5a563c;"/></g><path d="M5.065,3.389c-0,0.166 0.083,0.324 0.267,0.324c0.162,0 0.256,-0.142 0.256,-0.283c0,-0.072 -0.013,-0.124 -0.026,-0.192c-0.041,-0.217 -0.02,-0.384 0.143,-0.702c-0.049,0.02 -0.101,0.038 -0.154,0.042c-0.158,0.272 -0.486,0.465 -0.486,0.811Zm-0.083,-1.324l-0.088,0l-0.077,0.513l0.092,0l0,-0.017c0.002,-0.081 0.013,-0.147 0.116,-0.163c0.156,-0.021 0.336,0.064 0.489,0.064c0.131,0 0.243,-0.042 0.298,-0.134c0.026,-0.043 0.077,-0.155 0.077,-0.208c-0,-0.026 -0.018,-0.05 -0.046,-0.05c-0.018,-0 -0.027,0.013 -0.04,0.024c-0.024,0.022 -0.039,0.035 -0.074,0.035c-0.035,-0 -0.121,-0.029 -0.158,-0.042c-0.092,-0.028 -0.151,-0.052 -0.248,-0.052c-0.182,-0 -0.23,0.063 -0.359,0.171l0.018,-0.141Z" style="fill:#eada68;fill-rule:nonzero;"/><g><g><path d="M4.626,6.513l0,0.23l-1.392,0l-0,-0.23l1.392,0Zm2.846,0.001l-0,0.23l-1.393,0l0,-0.23l1.393,0Zm-2.003,-0.612l-0.231,0l0,-1.392l0.231,-0l-0,1.392Zm-0.001,2.846l-0.231,-0l0,-1.393l0.231,0l-0,1.393Z" style="fill:#eada68;"/></g><g><path d="M5.353,5.315c0.725,0 1.313,0.589 1.313,1.314c0,0.724 -0.588,1.313 -1.313,1.313c-0.725,-0 -1.313,-0.589 -1.313,-1.313c-0,-0.725 0.588,-1.314 1.313,-1.314Zm-0,0.238c-0.594,0 -1.075,0.482 -1.075,1.076c-0,0.593 0.481,1.075 1.075,1.075c0.593,0 1.075,-0.482 1.075,-1.075c0,-0.594 -0.482,-1.076 -1.075,-1.076Z" style="fill:#eada68;"/></g><g><path d="M5.353,4.781c1.02,-0 1.848,0.828 1.848,1.848c-0,1.019 -0.828,1.847 -1.848,1.847c-1.02,0 -1.848,-0.828 -1.848,-1.847c0,-1.02 0.828,-1.848 1.848,-1.848Zm-0,0.238c-0.889,-0 -1.61,0.721 -1.61,1.61c-0,0.888 0.721,1.61 1.61,1.61c0.888,-0 1.61,-0.722 1.61,-1.61c-0,-0.889 -0.722,-1.61 -1.61,-1.61Z" style="fill:#eada68;"/></g></g></svg>