<?xml version="1.0" encoding="UTF-8" standalone="no"?><!DOCTYPE svg PUBLIC "-//W3C//DTD SVG 1.1//EN" "http://www.w3.org/Graphics/SVG/1.1/DTD/svg11.dtd"><svg width="100%" height="100%" viewBox="0 0 11 11" version="1.1" xmlns="http://www.w3.org/2000/svg" xmlns:xlink="http://www.w3.org/1999/xlink" xml:space="preserve" xmlns:serif="http://www.serif.com/" style="fill-rule:evenodd;clip-rule:evenodd;stroke-linejoin:round;stroke-miterlimit:2;"><rect id="t2000_d12_7" x="0.093" y="0.177" width="10.56" height="10.56" style="fill:none;"/><g><path d="M5.021,0.678c0.218,-0.126 0.487,-0.126 0.705,0c0.811,0.468 2.799,1.616 3.61,2.084c0.218,0.126 0.353,0.359 0.353,0.611l-0,4.168c-0,0.252 -0.135,0.485 -0.353,0.611c-0.811,0.468 -2.799,1.616 -3.61,2.084c-0.218,0.126 -0.487,0.126 -0.705,0c-0.811,-0.468 -2.799,-1.616 -3.61,-2.084c-0.218,-0.126 -0.353,-0.359 -0.353,-0.611l0,-4.168c0,-0.252 0.135,-0.485 0.353,-0.611c0.811,-0.468 2.799,-1.616 3.61,-2.084Z" style="fill:#88804b;"/><path d="M4.952,1.541c0.203,-0.148 0.478,-0.148 0.682,-0c0.726,0.527 2.417,1.756 3.143,2.284c0.203,0.147 0.288,0.409 0.211,0.648c-0.277,0.853 -0.924,2.842 -1.201,3.695c-0.078,0.239 -0.3,0.401 -0.551,0.401l-3.886,0c-0.251,0 -0.474,-0.162 -0.551,-0.401c-0.278,-0.853 -0.924,-2.842 -1.201,-3.695c-0.078,-0.239 0.007,-0.501 0.211,-0.648c0.726,-0.528 2.417,-1.757 3.143,-2.284Z" style="fill:#5a563c;"/></g><path d="M5.085,3.455c0,0.166 0.084,0.324 0.268,0.324c0.162,0 0.256,-0.142 0.256,-0.282c0,-0.073 -0.013,-0.125 -0.026,-0.193c-0.042,-0.217 -0.02,-0.384 0.142,-0.701c-0.048,0.019 -0.101,0.037 -0.153,0.041c-0.158,0.272 -0.487,0.465 -0.487,0.811Zm-0.083,-1.324l-0.088,0l-0.076,0.513l0.092,0l-0,-0.017c0.002,-0.081 0.013,-0.147 0.116,-0.162c0.155,-0.022 0.335,0.063 0.489,0.063c0.131,0 0.243,-0.042 0.298,-0.134c0.026,-0.043 0.076,-0.155 0.076,-0.208c0,-0.026 -0.017,-0.05 -0.046,-0.05c-0.017,-0 -0.026,0.013 -0.039,0.024c-0.024,0.022 -0.04,0.035 -0.075,0.035c-0.035,0 -0.12,-0.028 -0.157,-0.042c-0.093,-0.028 -0.152,-0.052 -0.248,-0.052c-0.182,-0 -0.23,0.063 -0.359,0.171l0.017,-0.141Z" style="fill:#eada68;fill-rule:nonzero;"/><g><g><path d="M4.647,6.579l-0,0.23l-1.393,0l0,-0.23l1.393,0Zm2.846,0.001l-0,0.23l-1.393,0l0,-0.23l1.393,0Zm-2.004,-0.612l-0.23,0l-0,-1.392l0.23,-0l0,1.392Zm-0.001,2.846l-0.23,-0l-0,-1.393l0.23,0l0,1.393Z" style="fill:#eada68;"/></g><g><path d="M5.373,5.382c0.725,-0 1.314,0.588 1.314,1.313c-0,0.725 -0.589,1.313 -1.314,1.313c-0.724,-0 -1.313,-0.588 -1.313,-1.313c0,-0.725 0.589,-1.313 1.313,-1.313Zm0,0.237c-0.593,0 -1.075,0.482 -1.075,1.076c0,0.593 0.482,1.075 1.075,1.075c0.594,0 1.076,-0.482 1.076,-1.075c-0,-0.594 -0.482,-1.076 -1.076,-1.076Z" style="fill:#eada68;"/></g><g><path d="M5.373,4.847c1.02,-0 1.848,0.828 1.848,1.848c0,1.02 -0.828,1.848 -1.848,1.848c-1.019,-0 -1.847,-0.828 -1.847,-1.848c-0,-1.02 0.828,-1.848 1.847,-1.848Zm0,0.238c-0.888,-0 -1.609,0.721 -1.609,1.61c-0,0.888 0.721,1.61 1.609,1.61c0.889,-0 1.61,-0.722 1.61,-1.61c0,-0.889 -0.721,-1.61 -1.61,-1.61Z" style="fill:#eada68;"/></g></g></svg>