<?xml version="1.0" encoding="UTF-8" standalone="no"?><!DOCTYPE svg PUBLIC "-//W3C//DTD SVG 1.1//EN" "http://www.w3.org/Graphics/SVG/1.1/DTD/svg11.dtd"><svg width="100%" height="100%" viewBox="0 0 11 11" version="1.1" xmlns="http://www.w3.org/2000/svg" xmlns:xlink="http://www.w3.org/1999/xlink" xml:space="preserve" xmlns:serif="http://www.serif.com/" style="fill-rule:evenodd;clip-rule:evenodd;stroke-linejoin:round;stroke-miterlimit:2;"><rect id="t2000_ammo_6" x="0.042" y="0.207" width="10.56" height="10.56" style="fill:none;"/><g><g><path d="M8.503,1.047c0.695,0 1.259,0.564 1.259,1.26l0,6.36c0,0.696 -0.564,1.26 -1.259,1.26l-6.361,0c-0.696,0 -1.26,-0.564 -1.26,-1.26l0,-6.36c0,-0.696 0.564,-1.26 1.26,-1.26l6.361,0Z" style="fill:#958e64;"/></g><g><path d="M7.997,2.165c0.358,-0 0.648,0.29 0.648,0.648l-0,5.349c-0,0.358 -0.29,0.648 -0.648,0.648l-5.349,-0c-0.358,-0 -0.648,-0.29 -0.648,-0.648l-0,-5.349c-0,-0.358 0.29,-0.648 0.648,-0.648l5.349,-0Z" style="fill:#bfb676;"/></g></g><path d="M2.586,3.189c0.033,-0.019 0.081,-0.044 0.12,-0.044c0.1,0.011 0.103,0.117 0.103,0.13l-0,0.64c-0,0.014 -0.006,0.078 -0.103,0.097l-0,0.164c0.433,0.017 0.725,-0.308 0.725,-0.706c0,-0.297 -0.225,-0.536 -0.525,-0.536c-0.114,-0 -0.22,0.036 -0.32,0.091l0,0.164Zm-0.005,0.826c-0.128,-0.022 -0.156,-0.125 -0.156,-0.245l-0,-1.348c-0,-0.12 0.028,-0.222 0.156,-0.245l-0,-0.164c-0.37,0.006 -0.765,0.384 -0.779,1.082c0.014,0.698 0.409,1.076 0.779,1.081l-0,-0.161Zm0.125,-1.838c0.05,0 0.125,0.028 0.125,0.084c-0,0.078 -0.106,0.105 -0.109,0.256c-0.002,0.136 0.131,0.244 0.264,0.244c0.173,0 0.306,-0.119 0.306,-0.297c0,-0.284 -0.336,-0.448 -0.586,-0.451l-0,0.164Z" style="fill:#575020;fill-rule:nonzero;"/><g><path d="M5.55,4.682c1.557,-1.067 2.615,-1.69 2.821,-1.554c-0.177,0.401 -0.931,1.124 -2.329,2.205l0.108,0.143l-2.798,2.116l-0.058,-0.078l-0.152,0.115l0.059,0.077l-0.211,0.159l-0.716,-0.947l0.211,-0.159l0.045,0.06l0.151,-0.114l-0.045,-0.06l2.798,-2.116l0.116,0.153Z" style="fill:#575020;"/></g></svg>