<?xml version="1.0" encoding="UTF-8" standalone="no"?><!DOCTYPE svg PUBLIC "-//W3C//DTD SVG 1.1//EN" "http://www.w3.org/Graphics/SVG/1.1/DTD/svg11.dtd"><svg width="100%" height="100%" viewBox="0 0 11 11" version="1.1" xmlns="http://www.w3.org/2000/svg" xmlns:xlink="http://www.w3.org/1999/xlink" xml:space="preserve" xmlns:serif="http://www.serif.com/" style="fill-rule:evenodd;clip-rule:evenodd;stroke-linejoin:round;stroke-miterlimit:2;"><rect id="t2000_d12_6" x="0.188" y="0.177" width="10.56" height="10.56" style="fill:none;"/><g><path d="M5.116,0.678c0.218,-0.126 0.487,-0.126 0.705,0c0.811,0.468 2.799,1.616 3.61,2.084c0.218,0.126 0.353,0.359 0.353,0.611l-0,4.168c-0,0.252 -0.135,0.485 -0.353,0.611c-0.811,0.468 -2.799,1.616 -3.61,2.084c-0.218,0.126 -0.487,0.126 -0.705,0c-0.811,-0.468 -2.799,-1.616 -3.61,-2.084c-0.218,-0.126 -0.353,-0.359 -0.353,-0.611l0,-4.168c0,-0.252 0.135,-0.485 0.353,-0.611c0.811,-0.468 2.799,-1.616 3.61,-2.084Z" style="fill:#88804b;"/><path d="M5.047,1.541c0.203,-0.148 0.478,-0.148 0.682,-0c0.725,0.527 2.417,1.756 3.143,2.284c0.203,0.147 0.288,0.409 0.211,0.648c-0.278,0.853 -0.924,2.842 -1.201,3.695c-0.078,0.239 -0.3,0.401 -0.551,0.401l-3.886,0c-0.251,0 -0.474,-0.162 -0.551,-0.401c-0.278,-0.853 -0.924,-2.842 -1.201,-3.695c-0.078,-0.239 0.007,-0.501 0.211,-0.648c0.725,-0.528 2.417,-1.757 3.143,-2.284Z" style="fill:#5a563c;"/></g><path d="M5.444,3.022c0.027,-0.015 0.064,-0.035 0.094,-0.035c0.079,0.009 0.082,0.092 0.082,0.103l-0,0.504c-0,0.011 -0.005,0.061 -0.082,0.077l0,0.129c0.342,0.013 0.572,-0.243 0.572,-0.557c0,-0.234 -0.177,-0.422 -0.414,-0.422c-0.09,-0 -0.173,0.028 -0.252,0.072l0,0.129Zm-0.004,0.651c-0.101,-0.018 -0.123,-0.099 -0.123,-0.193l0,-1.063c0,-0.094 0.022,-0.175 0.123,-0.192l-0,-0.13c-0.292,0.005 -0.603,0.303 -0.614,0.853c0.011,0.55 0.322,0.848 0.614,0.852l-0,-0.127Zm0.098,-1.448c0.04,-0 0.099,0.022 0.099,0.065c0,0.062 -0.083,0.084 -0.085,0.202c-0.003,0.107 0.103,0.193 0.208,0.193c0.136,-0 0.241,-0.094 0.241,-0.235c-0,-0.223 -0.265,-0.352 -0.463,-0.355l0,0.13Z" style="fill:#eada68;fill-rule:nonzero;"/><g><g><path d="M4.742,6.585l-0,0.23l-1.393,-0l0,-0.23l1.393,-0Zm2.845,0.001l0,0.23l-1.392,-0l-0,-0.23l1.392,-0Zm-2.003,-0.612l-0.23,-0l-0,-1.393l0.23,0l-0,1.393Zm-0.001,2.845l-0.23,0l-0,-1.392l0.23,-0l0,1.392Z" style="fill:#eada68;"/></g><g><path d="M5.468,5.387c0.725,-0 1.314,0.588 1.314,1.313c-0,0.725 -0.589,1.313 -1.314,1.313c-0.724,0 -1.313,-0.588 -1.313,-1.313c0,-0.725 0.589,-1.313 1.313,-1.313Zm0,0.238c-0.593,-0 -1.075,0.482 -1.075,1.075c-0,0.594 0.482,1.076 1.075,1.076c0.594,-0 1.076,-0.482 1.076,-1.076c-0,-0.593 -0.482,-1.075 -1.076,-1.075Z" style="fill:#eada68;"/></g><g><path d="M5.468,4.852c1.02,0 1.848,0.828 1.848,1.848c0,1.02 -0.828,1.848 -1.848,1.848c-1.019,0 -1.847,-0.828 -1.847,-1.848c-0,-1.02 0.828,-1.848 1.847,-1.848Zm0,0.238c-0.888,0 -1.61,0.722 -1.61,1.61c0,0.889 0.722,1.61 1.61,1.61c0.889,0 1.61,-0.721 1.61,-1.61c0,-0.888 -0.721,-1.61 -1.61,-1.61Z" style="fill:#eada68;"/></g></g></svg>