<?xml version="1.0" encoding="UTF-8" standalone="no"?><!DOCTYPE svg PUBLIC "-//W3C//DTD SVG 1.1//EN" "http://www.w3.org/Graphics/SVG/1.1/DTD/svg11.dtd"><svg width="100%" height="100%" viewBox="0 0 11 11" version="1.1" xmlns="http://www.w3.org/2000/svg" xmlns:xlink="http://www.w3.org/1999/xlink" xml:space="preserve" xmlns:serif="http://www.serif.com/" style="fill-rule:evenodd;clip-rule:evenodd;stroke-linejoin:round;stroke-miterlimit:2;"><rect id="t2000_d8_4" x="0.184" y="0.111" width="10.56" height="10.56" style="fill:none;"/><g><path d="M5.04,1.113c0.1,-0.133 0.257,-0.211 0.424,-0.211c0.167,-0 0.324,0.078 0.424,0.211c0.764,1.011 2.35,3.111 2.973,3.935c0.154,0.203 0.154,0.483 0,0.686c-0.623,0.825 -2.209,2.924 -2.973,3.935c-0.1,0.133 -0.257,0.211 -0.424,0.211c-0.167,0 -0.324,-0.078 -0.424,-0.211c-0.764,-1.011 -2.35,-3.11 -2.973,-3.935c-0.154,-0.203 -0.154,-0.483 -0,-0.686c0.623,-0.824 2.209,-2.924 2.973,-3.935Z" style="fill:#88804b;"/><path d="M5.164,1.407c0.066,-0.122 0.194,-0.199 0.333,-0.199c0.139,0 0.266,0.077 0.332,0.199c0.592,1.097 1.818,3.371 2.386,4.424c0.063,0.118 0.06,0.259 -0.008,0.374c-0.068,0.114 -0.191,0.184 -0.325,0.184l-4.771,0c-0.133,0 -0.257,-0.07 -0.325,-0.184c-0.068,-0.115 -0.071,-0.256 -0.008,-0.374c0.568,-1.053 1.794,-3.327 2.386,-4.424Z" style="fill:#5a563c;"/></g><path d="M4.784,6.23l-0.965,0l0.965,-1.355l-0,-0.482l-0.012,-0l-1.189,1.642c-0.074,0.104 -0.126,0.178 -0.126,0.31c-0,0.219 0.126,0.219 0.184,0.219l1.143,-0l-0,-0.334Zm0.258,0.724c0,0.167 -0.011,0.19 -0.235,0.253c-0.092,0.011 -0.15,0.063 -0.15,0.161c0,0.178 0.224,0.172 0.276,0.172l1.43,-0c0.052,-0 0.276,0.006 0.276,-0.172c-0,-0.098 -0.058,-0.15 -0.149,-0.161c-0.224,-0.063 -0.236,-0.086 -0.236,-0.253l0,-0.39l0.402,-0c0.046,-0 0.149,-0 0.149,-0.167c0,-0.167 -0.103,-0.167 -0.149,-0.167l-0.402,0l0,-2.745c0,-0.276 -0.023,-0.241 -0.178,-0.241l-0.322,-0c-0.12,-0 -0.16,0.074 -0.258,0.184l-0.454,0.62l0,2.906Z" style="fill:#eada68;fill-rule:nonzero;"/></svg>