<?xml version="1.0" encoding="UTF-8" standalone="no"?><!DOCTYPE svg PUBLIC "-//W3C//DTD SVG 1.1//EN" "http://www.w3.org/Graphics/SVG/1.1/DTD/svg11.dtd"><svg width="100%" height="100%" viewBox="0 0 11 11" version="1.1" xmlns="http://www.w3.org/2000/svg" xmlns:xlink="http://www.w3.org/1999/xlink" xml:space="preserve" xmlns:serif="http://www.serif.com/" style="fill-rule:evenodd;clip-rule:evenodd;stroke-linejoin:round;stroke-miterlimit:2;"><rect id="t2000_d6_2" x="0.187" y="0.139" width="10.56" height="10.56" style="fill:none;"/><g><path d="M8.647,0.979c0.696,0 1.26,0.564 1.26,1.26l0,6.361c0,0.695 -0.564,1.259 -1.26,1.259l-6.36,0c-0.696,0 -1.26,-0.564 -1.26,-1.259l0,-6.361c0,-0.696 0.564,-1.26 1.26,-1.26l6.36,0Z" style="fill:#88804b;"/><path d="M8.142,2.097c0.357,-0 0.648,0.29 0.648,0.648l-0,5.349c-0,0.358 -0.291,0.648 -0.648,0.648l-5.349,-0c-0.358,-0 -0.649,-0.29 -0.649,-0.648l0,-5.349c0,-0.358 0.291,-0.648 0.649,-0.648l5.349,-0Z" style="fill:#5a563c;"/></g><path d="M5.318,3.53c0.304,0.132 0.287,0.839 0.287,0.919c-0.017,1.241 -0.684,1.074 -1.258,1.884l0.012,0.011c0.172,-0.074 0.367,-0.166 0.574,-0.166l0.057,-0.04l0.839,-0.397c0.591,-0.229 1.045,-0.626 1.062,-1.298c0.023,-0.873 -0.792,-1.275 -1.573,-1.258l-0,0.345Zm1.378,3.705c0.155,-0.201 0.316,-0.552 0.316,-0.81c0,-0.109 -0.023,-0.247 -0.161,-0.247c-0.258,-0 -0.034,0.425 -0.448,0.425c-0.195,-0 -0.39,-0.04 -0.58,-0.069c-0.264,-0.04 -0.534,-0.098 -0.81,-0.098c-0.275,0 -0.551,0.069 -0.769,0.259c-0.184,0.166 -0.322,0.442 -0.322,0.689c0,0.103 0.046,0.189 0.155,0.189c0.115,0 0.213,-0.206 0.414,-0.206c0.379,-0 0.907,0.287 1.384,0.287c0.304,-0 0.643,-0.178 0.821,-0.419Zm-1.643,-4.038c-0.511,0.063 -1.085,0.402 -1.085,0.982c-0,0.368 0.247,0.661 0.626,0.661c0.327,-0 0.62,-0.265 0.62,-0.586c0,-0.454 -0.35,-0.489 -0.35,-0.586c-0,-0.081 0.121,-0.121 0.189,-0.127l0,-0.344Z" style="fill:#eada68;fill-rule:nonzero;"/></svg>