<?xml version="1.0" encoding="UTF-8" standalone="no"?><!DOCTYPE svg PUBLIC "-//W3C//DTD SVG 1.1//EN" "http://www.w3.org/Graphics/SVG/1.1/DTD/svg11.dtd"><svg width="100%" height="100%" viewBox="0 0 11 11" version="1.1" xmlns="http://www.w3.org/2000/svg" xmlns:xlink="http://www.w3.org/1999/xlink" xml:space="preserve" xmlns:serif="http://www.serif.com/" style="fill-rule:evenodd;clip-rule:evenodd;stroke-linejoin:round;stroke-miterlimit:2;"><rect id="t2000_ammo_3" x="0.038" y="0.207" width="10.56" height="10.56" style="fill:none;"/><g><g><path d="M8.498,1.047c0.696,0 1.26,0.564 1.26,1.26l-0,6.36c-0,0.696 -0.564,1.26 -1.26,1.26l-6.36,0c-0.696,0 -1.26,-0.564 -1.26,-1.26l-0,-6.36c-0,-0.696 0.564,-1.26 1.26,-1.26l6.36,0Z" style="fill:#958e64;"/></g><g><path d="M7.992,2.165c0.358,-0 0.649,0.29 0.649,0.648l-0,5.349c-0,0.358 -0.291,0.648 -0.649,0.648l-5.349,-0c-0.357,-0 -0.648,-0.29 -0.648,-0.648l0,-5.349c0,-0.358 0.291,-0.648 0.648,-0.648l5.349,-0Z" style="fill:#bfb676;"/></g></g><path d="M4.973,3.271c-0.522,0.081 -1.068,0.425 -1.068,1.011c0,0.327 0.236,0.574 0.569,0.574c0.298,0 0.551,-0.27 0.551,-0.563c0,-0.379 -0.293,-0.39 -0.293,-0.516c0,-0.104 0.149,-0.15 0.241,-0.167l0,-0.339Zm0.931,2.171c0.522,-0.132 0.902,-0.482 0.902,-1.051c-0,-0.482 -0.431,-1.189 -1.574,-1.137l-0,0.339c0.275,0.063 0.356,0.27 0.356,0.528l-0,0.666c-0,0.058 -0.006,0.431 -0.373,0.466c-0.121,0.011 -0.236,0.023 -0.236,0.172c0,0.143 0.126,0.155 0.236,0.161c0.333,0.017 0.373,0.247 0.373,0.511l-0,0.77c-0,0.269 -0.086,0.453 -0.356,0.516l-0,0.339c1.315,0.029 1.642,-0.695 1.642,-1.217c0,-0.598 -0.344,-0.879 -0.97,-1.051l-0,-0.012Zm-0.931,1.941c-0.08,-0.005 -0.339,-0.028 -0.339,-0.12c0,-0.098 0.322,-0.184 0.322,-0.58c0,-0.293 -0.293,-0.557 -0.58,-0.557c-0.362,-0 -0.615,0.275 -0.615,0.626c0,0.631 0.672,0.924 1.212,0.97l0,-0.339Z" style="fill:#575020;fill-rule:nonzero;"/></svg>