<?xml version="1.0" encoding="UTF-8" standalone="no"?><!DOCTYPE svg PUBLIC "-//W3C//DTD SVG 1.1//EN" "http://www.w3.org/Graphics/SVG/1.1/DTD/svg11.dtd"><svg width="100%" height="100%" viewBox="0 0 11 11" version="1.1" xmlns="http://www.w3.org/2000/svg" xmlns:xlink="http://www.w3.org/1999/xlink" xml:space="preserve" xmlns:serif="http://www.serif.com/" style="fill-rule:evenodd;clip-rule:evenodd;stroke-linejoin:round;stroke-miterlimit:2;"><rect id="t2000_d8_3" x="0.176" y="0.111" width="10.56" height="10.56" style="fill:none;"/><g><path d="M5.032,1.113c0.1,-0.133 0.257,-0.211 0.424,-0.211c0.167,-0 0.324,0.078 0.424,0.211c0.764,1.011 2.35,3.111 2.973,3.935c0.154,0.203 0.154,0.483 0,0.686c-0.623,0.825 -2.209,2.924 -2.973,3.935c-0.1,0.133 -0.257,0.211 -0.424,0.211c-0.167,0 -0.324,-0.078 -0.424,-0.211c-0.764,-1.011 -2.35,-3.11 -2.973,-3.935c-0.154,-0.203 -0.154,-0.483 -0,-0.686c0.623,-0.824 2.209,-2.924 2.973,-3.935Z" style="fill:#88804b;"/><path d="M5.156,1.407c0.066,-0.122 0.193,-0.199 0.332,-0.199c0.139,0 0.267,0.077 0.333,0.199c0.592,1.097 1.818,3.371 2.386,4.424c0.063,0.118 0.06,0.259 -0.008,0.374c-0.068,0.114 -0.192,0.184 -0.325,0.184l-4.771,0c-0.134,0 -0.257,-0.07 -0.325,-0.184c-0.068,-0.115 -0.071,-0.256 -0.008,-0.374c0.568,-1.053 1.794,-3.327 2.386,-4.424Z" style="fill:#5a563c;"/></g><path d="M5.111,3.175c-0.522,0.081 -1.068,0.425 -1.068,1.011c0,0.327 0.236,0.574 0.569,0.574c0.298,0 0.551,-0.27 0.551,-0.563c0,-0.379 -0.293,-0.39 -0.293,-0.516c0,-0.104 0.149,-0.15 0.241,-0.167l0,-0.339Zm0.931,2.171c0.522,-0.132 0.902,-0.482 0.902,-1.051c-0,-0.482 -0.431,-1.189 -1.574,-1.137l-0,0.339c0.276,0.063 0.356,0.27 0.356,0.528l-0,0.666c-0,0.058 -0.006,0.431 -0.373,0.466c-0.121,0.011 -0.236,0.023 -0.236,0.172c0,0.144 0.126,0.155 0.236,0.161c0.333,0.017 0.373,0.247 0.373,0.511l-0,0.77c-0,0.27 -0.086,0.453 -0.356,0.516l-0,0.339c1.315,0.029 1.642,-0.695 1.642,-1.217c0,-0.598 -0.344,-0.879 -0.97,-1.051l-0,-0.012Zm-0.931,1.941c-0.08,-0.005 -0.338,-0.028 -0.338,-0.12c-0,-0.098 0.321,-0.184 0.321,-0.58c0,-0.293 -0.293,-0.557 -0.58,-0.557c-0.362,-0 -0.614,0.275 -0.614,0.626c-0,0.631 0.671,0.924 1.211,0.97l0,-0.339Z" style="fill:#eada68;fill-rule:nonzero;"/></svg>