<?xml version="1.0" encoding="UTF-8" standalone="no"?><!DOCTYPE svg PUBLIC "-//W3C//DTD SVG 1.1//EN" "http://www.w3.org/Graphics/SVG/1.1/DTD/svg11.dtd"><svg width="100%" height="100%" viewBox="0 0 11 11" version="1.1" xmlns="http://www.w3.org/2000/svg" xmlns:xlink="http://www.w3.org/1999/xlink" xml:space="preserve" xmlns:serif="http://www.serif.com/" style="fill-rule:evenodd;clip-rule:evenodd;stroke-linejoin:round;stroke-miterlimit:2;"><rect id="t2000_body_6" x="0.059" y="0.209" width="10.56" height="10.56" style="fill:none;"/><g><g><path d="M8.52,1.049c0.695,-0 1.259,0.564 1.259,1.259l0,6.361c0,0.696 -0.564,1.26 -1.259,1.26l-6.361,-0c-0.696,-0 -1.26,-0.564 -1.26,-1.26l0,-6.361c0,-0.695 0.564,-1.259 1.26,-1.259l6.361,-0Z" style="fill:#88804b;"/></g><g><path d="M8.567,1.544c0.172,-0 0.337,0.068 0.459,0.189c0.121,0.122 0.189,0.287 0.189,0.459c0,1.483 0,5.11 0,6.593c0,0.172 -0.068,0.337 -0.189,0.459c-0.122,0.121 -0.287,0.19 -0.459,0.19c-1.46,-0 -4.995,-0 -6.456,-0c-0.172,-0 -0.337,-0.069 -0.458,-0.19c-0.122,-0.122 -0.19,-0.287 -0.19,-0.459c0,-1.483 0,-5.11 0,-6.593c0,-0.172 0.068,-0.337 0.19,-0.459c0.121,-0.121 0.286,-0.189 0.458,-0.189c1.461,-0 4.996,-0 6.456,-0Z" style="fill:#fff;"/></g></g><g><path d="M4.346,6.7l0.311,-0.835l0.016,-2.037l-1.087,-0.882l-0.625,-0.417l-0.218,-0.06l-0.052,-0.247l-0.069,-0.056l0.064,0.032l-0.013,-0.063l0.324,-0.02l0.168,0.2l0.35,0.297l1.243,0.622l0.293,0.008l-0,-0.292c-0.064,-0.084 -0.103,-0.196 -0.103,-0.319c-0,-0.262 0.175,-0.474 0.391,-0.474c0.216,0 0.392,0.212 0.392,0.474c-0,0.123 -0.039,0.235 -0.103,0.319l0,0.292l0.293,-0.008l1.171,-0.586l0.392,-0.333l0.168,-0.2l0.324,0.02l-0.017,0.079l0.097,-0.048l-0.104,0.085l-0.046,0.218l-0.218,0.06l-0.456,0.305l-1.227,0.994l0.016,2.037l0.364,0.975l0.807,1.643l0.446,0.118l0.079,0.252l-0.511,-0.03l-0.346,-0.216l-0.605,-1.148l-0.916,-1.382l-0.994,1.5l-0.547,1.04l-0.346,0.215l-0.512,0.03l0.079,-0.251l0.447,-0.118l0.88,-1.793Z" style="fill:#413900;"/></g><g><g><g><path d="M6.338,3.154l-0.757,-0.14l0.017,0.316l-0.272,-0.318l-0.351,0.354l0.066,-0.342l-0.646,0.145l0.424,-0.368l-0.52,-0.26l0.461,-0.172l-0.419,-0.319l0.669,0.016l-0.131,-0.443l0.479,0.408l0.497,-0.4l-0.206,0.488l0.675,-0.079l-0.424,0.306l0.48,0.209l-0.521,0.215l0.479,0.384Z" style="fill:#413900;"/><ellipse cx="5.32" cy="2.53" rx="0.324" ry="0.31" style="fill:#fff;"/></g></g></g></svg>