<?xml version="1.0" encoding="UTF-8" standalone="no"?><!DOCTYPE svg PUBLIC "-//W3C//DTD SVG 1.1//EN" "http://www.w3.org/Graphics/SVG/1.1/DTD/svg11.dtd"><svg width="100%" height="100%" viewBox="0 0 11 11" version="1.1" xmlns="http://www.w3.org/2000/svg" xmlns:xlink="http://www.w3.org/1999/xlink" xml:space="preserve" xmlns:serif="http://www.serif.com/" style="fill-rule:evenodd;clip-rule:evenodd;stroke-linejoin:round;stroke-miterlimit:2;"><rect id="counter_tracker_icon" x="0.079" y="0.157" width="10.56" height="10.56" style="fill:none;"/><g><path d="M6.998,5.318c-0,-0.198 -0.012,-0.375 -0.035,-0.53c-0.022,-0.156 -0.055,-0.295 -0.097,-0.416c-0.041,-0.122 -0.091,-0.228 -0.148,-0.32c-0.057,-0.091 -0.121,-0.173 -0.194,-0.245c-0.076,-0.076 -0.153,-0.141 -0.233,-0.196c-0.08,-0.055 -0.166,-0.1 -0.257,-0.134c-0.091,-0.035 -0.191,-0.06 -0.299,-0.077c-0.108,-0.017 -0.229,-0.026 -0.362,-0.026c-0.224,0 -0.43,0.035 -0.618,0.106c-0.188,0.07 -0.349,0.168 -0.482,0.293c-0.133,0.125 -0.237,0.274 -0.311,0.445c-0.074,0.171 -0.111,0.357 -0.111,0.558c0,0.205 0.033,0.388 0.1,0.547c0.066,0.16 0.162,0.295 0.288,0.405c0.125,0.11 0.275,0.195 0.45,0.254c0.175,0.059 0.371,0.088 0.587,0.088c0.175,0 0.329,-0.025 0.462,-0.074c0.133,-0.049 0.249,-0.116 0.348,-0.199c-0.031,0.269 -0.112,0.488 -0.243,0.655c-0.131,0.167 -0.32,0.251 -0.567,0.251c-0.171,-0 -0.323,-0.028 -0.456,-0.083c-0.133,-0.055 -0.272,-0.141 -0.416,-0.259l-0.462,0.667c0.171,0.14 0.359,0.254 0.565,0.342c0.205,0.087 0.454,0.131 0.746,0.131c0.285,-0 0.536,-0.053 0.753,-0.16c0.216,-0.106 0.398,-0.254 0.544,-0.444c0.146,-0.19 0.258,-0.419 0.334,-0.687c0.076,-0.268 0.114,-0.565 0.114,-0.892Zm-0.895,-0.576c-0,0.175 -0.06,0.318 -0.18,0.43c-0.12,0.113 -0.288,0.169 -0.504,0.169c-0.217,-0 -0.387,-0.056 -0.51,-0.166c-0.124,-0.11 -0.186,-0.256 -0.186,-0.439c0,-0.182 0.059,-0.329 0.177,-0.441c0.118,-0.112 0.285,-0.169 0.502,-0.169c0.22,0 0.392,0.057 0.515,0.171c0.124,0.114 0.186,0.263 0.186,0.445Z" style="fill:#3fa550;"/></g><g><path d="M9.666,5.437l-1.591,0.796l-0,-1.591l1.591,0.795Z" style="fill:#97d3a1;"/><path d="M1.052,5.437l1.591,-0.795l-0,1.591l-1.591,-0.796Z" style="fill:#97d3a1;"/></g></svg>