<?xml version="1.0" encoding="UTF-8" standalone="no"?><!DOCTYPE svg PUBLIC "-//W3C//DTD SVG 1.1//EN" "http://www.w3.org/Graphics/SVG/1.1/DTD/svg11.dtd"><svg width="100%" height="100%" viewBox="0 0 11 11" version="1.1" xmlns="http://www.w3.org/2000/svg" xmlns:xlink="http://www.w3.org/1999/xlink" xml:space="preserve" xmlns:serif="http://www.serif.com/" style="fill-rule:evenodd;clip-rule:evenodd;stroke-miterlimit:3;"><rect id="value_tracker_icon" x="0.212" y="0.157" width="10.56" height="10.56" style="fill:none;"/><g><path d="M2.747,2.155l0.182,0.718l0.696,-0.171l-0,3.129l0.866,0l0,-4.018l-0.598,-0l-1.146,0.342Z" style="fill:#4d1e1e;"/><path d="M8.236,4.709c0,-0.24 -0.056,-0.431 -0.168,-0.573c-0.112,-0.143 -0.271,-0.267 -0.476,-0.374c0.156,-0.095 0.279,-0.211 0.371,-0.347c0.091,-0.137 0.136,-0.314 0.136,-0.53c0,-0.152 -0.033,-0.296 -0.099,-0.431c-0.067,-0.135 -0.162,-0.252 -0.285,-0.35c-0.124,-0.099 -0.272,-0.177 -0.445,-0.234c-0.173,-0.057 -0.364,-0.086 -0.573,-0.086c-0.213,0 -0.405,0.029 -0.576,0.086c-0.171,0.057 -0.318,0.135 -0.441,0.234c-0.124,0.098 -0.219,0.215 -0.285,0.35c-0.067,0.135 -0.1,0.279 -0.1,0.431c-0,0.216 0.046,0.393 0.137,0.53c0.091,0.136 0.214,0.252 0.37,0.347c-0.213,0.099 -0.373,0.224 -0.481,0.374c-0.109,0.15 -0.163,0.348 -0.163,0.595c0,0.175 0.039,0.334 0.117,0.476c0.078,0.143 0.185,0.264 0.322,0.365c0.137,0.101 0.299,0.179 0.487,0.234c0.188,0.055 0.393,0.082 0.613,0.082c0.221,0 0.425,-0.026 0.613,-0.079c0.188,-0.054 0.35,-0.131 0.487,-0.231c0.137,-0.101 0.244,-0.224 0.322,-0.371c0.078,-0.146 0.117,-0.312 0.117,-0.498Zm-0.969,-1.728c0,0.145 -0.051,0.263 -0.154,0.354c-0.102,0.091 -0.241,0.137 -0.416,0.137c-0.175,-0 -0.313,-0.047 -0.416,-0.14c-0.103,-0.093 -0.154,-0.212 -0.154,-0.356c0,-0.126 0.05,-0.235 0.148,-0.328c0.099,-0.093 0.24,-0.14 0.422,-0.14c0.183,0 0.323,0.048 0.422,0.143c0.099,0.095 0.148,0.205 0.148,0.33Zm0.12,1.682c-0,0.144 -0.061,0.264 -0.183,0.359c-0.121,0.095 -0.29,0.143 -0.507,0.143c-0.216,-0 -0.386,-0.048 -0.507,-0.143c-0.122,-0.095 -0.183,-0.215 -0.183,-0.359c0,-0.16 0.065,-0.282 0.194,-0.368c0.129,-0.085 0.295,-0.128 0.496,-0.128c0.202,0 0.367,0.043 0.496,0.128c0.129,0.086 0.194,0.208 0.194,0.368Z" style="fill:#4d1e1e;"/><path d="M4.323,8.647l-0,-0.004c-0,-0.063 -0.008,-0.116 -0.023,-0.161c-0.015,-0.045 -0.038,-0.085 -0.068,-0.118c-0.029,-0.033 -0.066,-0.062 -0.11,-0.086c-0.043,-0.024 -0.093,-0.045 -0.148,-0.064c-0.047,-0.016 -0.086,-0.031 -0.117,-0.043c-0.031,-0.012 -0.055,-0.025 -0.073,-0.039c-0.018,-0.013 -0.03,-0.029 -0.037,-0.046c-0.007,-0.017 -0.01,-0.037 -0.01,-0.06l-0,-0.004c-0,-0.036 0.012,-0.065 0.035,-0.089c0.024,-0.024 0.059,-0.036 0.106,-0.036c0.047,0 0.094,0.013 0.142,0.038c0.047,0.025 0.095,0.06 0.144,0.103l0.126,-0.237c-0.057,-0.058 -0.119,-0.103 -0.186,-0.135c-0.068,-0.031 -0.142,-0.047 -0.223,-0.047c-0.056,0 -0.108,0.01 -0.155,0.031c-0.047,0.02 -0.088,0.05 -0.122,0.088c-0.034,0.038 -0.06,0.083 -0.079,0.136c-0.019,0.052 -0.029,0.111 -0.029,0.176l0,0.004c0,0.071 0.009,0.131 0.026,0.178c0.018,0.048 0.042,0.088 0.073,0.12c0.032,0.032 0.07,0.059 0.115,0.081c0.045,0.021 0.095,0.041 0.151,0.059c0.046,0.015 0.083,0.029 0.112,0.043c0.029,0.013 0.052,0.027 0.068,0.041c0.016,0.013 0.027,0.028 0.033,0.044c0.005,0.015 0.008,0.033 0.008,0.054l0,0.004c0,0.042 -0.014,0.075 -0.041,0.099c-0.028,0.024 -0.067,0.036 -0.117,0.036c-0.063,-0 -0.121,-0.016 -0.174,-0.047c-0.053,-0.032 -0.104,-0.074 -0.155,-0.127l-0.143,0.223c0.066,0.077 0.14,0.135 0.22,0.172c0.081,0.038 0.163,0.057 0.247,0.057c0.06,-0 0.114,-0.01 0.163,-0.03c0.05,-0.02 0.092,-0.048 0.128,-0.086c0.035,-0.037 0.063,-0.084 0.083,-0.139c0.02,-0.055 0.03,-0.118 0.03,-0.189Z" style="fill:#4d1e1e;"/><path d="M5.334,7.93l0,-0.29l-0.911,-0l0,0.29l0.335,-0l-0,1.14l0.242,0l-0,-1.14l0.334,-0Z" style="fill:#4d1e1e;"/><path d="M6.56,9.07l-0.471,-1.441l-0.224,0l-0.471,1.441l0.247,0l0.1,-0.321l0.465,0l0.101,0.321l0.253,0Zm-0.44,-0.599l-0.292,0l0.146,-0.464l0.146,0.464Z" style="fill:#4d1e1e;"/><path d="M7.531,7.93l-0,-0.29l-0.911,-0l-0,0.29l0.334,-0l0,1.14l0.242,0l0,-1.14l0.335,-0Z" style="fill:#4d1e1e;"/><path d="M2.33,6.859l6.323,-0" style="fill:none;stroke:#ba9292;stroke-width:0.55px;"/></g></svg>