<?xml version="1.0" encoding="UTF-8" standalone="no"?><!DOCTYPE svg PUBLIC "-//W3C//DTD SVG 1.1//EN" "http://www.w3.org/Graphics/SVG/1.1/DTD/svg11.dtd"><svg width="100%" height="100%" viewBox="0 0 11 11" version="1.1" xmlns="http://www.w3.org/2000/svg" xmlns:xlink="http://www.w3.org/1999/xlink" xml:space="preserve" xmlns:serif="http://www.serif.com/" style="fill-rule:evenodd;clip-rule:evenodd;stroke-linejoin:round;stroke-miterlimit:2;"><rect id="d100_8" x="0.061" y="0.116" width="10.56" height="10.56" style="fill:none;"/><g><path d="M5.125,0.85c0.134,-0.077 0.298,-0.077 0.431,-0c0.708,0.409 2.964,1.711 3.672,2.12c0.134,0.077 0.216,0.219 0.216,0.373l-0,4.241c-0,0.154 -0.082,0.296 -0.216,0.373c-0.708,0.409 -2.964,1.711 -3.672,2.12c-0.133,0.077 -0.297,0.077 -0.431,-0c-0.708,-0.409 -2.964,-1.711 -3.672,-2.12c-0.133,-0.077 -0.215,-0.219 -0.215,-0.373l-0,-4.241c-0,-0.154 0.082,-0.296 0.215,-0.373c0.708,-0.409 2.964,-1.711 3.672,-2.12Z" style="fill:#676767;"/><path d="M4.547,2.113c0.159,-0.299 0.469,-0.485 0.807,-0.484c0.338,0.001 0.648,0.189 0.805,0.488c0.724,1.378 1.766,3.363 2.384,4.541c0.128,0.244 0.142,0.533 0.037,0.788c-0.105,0.255 -0.317,0.451 -0.58,0.534c-0.645,0.204 -1.446,0.458 -1.997,0.633c-0.422,0.134 -0.875,0.134 -1.298,0.002c-0.559,-0.175 -1.376,-0.431 -2.031,-0.636c-0.265,-0.083 -0.479,-0.279 -0.584,-0.536c-0.106,-0.256 -0.091,-0.546 0.039,-0.791c0.629,-1.181 1.685,-3.164 2.418,-4.539Z" style="fill:#8e8e8e;"/></g><g><path d="M5.117,4.324c-0,0.406 -0.207,0.729 -0.62,0.971c0.497,0.2 0.746,0.546 0.746,1.04c-0,0.395 -0.144,0.7 -0.433,0.916c-0.289,0.216 -0.678,0.324 -1.168,0.324c-0.314,-0 -0.591,-0.051 -0.83,-0.152c-0.24,-0.101 -0.424,-0.246 -0.554,-0.436c-0.13,-0.19 -0.195,-0.413 -0.195,-0.669c-0,-0.467 0.252,-0.808 0.757,-1.023c-0.421,-0.234 -0.631,-0.552 -0.631,-0.954c-0,-0.224 0.064,-0.422 0.192,-0.593c0.128,-0.171 0.303,-0.302 0.525,-0.394c0.221,-0.092 0.468,-0.137 0.741,-0.137c0.279,-0 0.53,0.044 0.755,0.134c0.224,0.09 0.399,0.218 0.526,0.384c0.126,0.167 0.189,0.363 0.189,0.589Zm-1.47,0.656c0.154,0 0.276,-0.048 0.368,-0.144c0.091,-0.096 0.137,-0.227 0.137,-0.391c0,-0.161 -0.044,-0.288 -0.132,-0.382c-0.088,-0.093 -0.214,-0.14 -0.378,-0.14c-0.146,0 -0.264,0.044 -0.354,0.132c-0.089,0.088 -0.134,0.222 -0.134,0.401c-0,0.153 0.046,0.279 0.137,0.377c0.092,0.098 0.21,0.147 0.356,0.147Zm0.011,1.891c0.173,-0 0.313,-0.06 0.423,-0.178c0.109,-0.119 0.164,-0.267 0.164,-0.445c-0,-0.176 -0.056,-0.325 -0.167,-0.447c-0.111,-0.123 -0.253,-0.184 -0.425,-0.184c-0.165,0 -0.302,0.061 -0.411,0.184c-0.109,0.122 -0.164,0.271 -0.164,0.447c-0,0.178 0.055,0.326 0.164,0.445c0.109,0.118 0.248,0.178 0.416,0.178Z" style="fill:#fff;fill-rule:nonzero;"/><path d="M8.585,5.393c-0,0.712 -0.136,1.254 -0.407,1.625c-0.271,0.371 -0.662,0.557 -1.172,0.557c-0.512,-0 -0.904,-0.186 -1.174,-0.557c-0.27,-0.371 -0.405,-0.913 -0.405,-1.625c-0,-0.696 0.134,-1.232 0.402,-1.61c0.269,-0.378 0.661,-0.566 1.177,-0.566c0.521,-0 0.915,0.184 1.181,0.553c0.265,0.37 0.398,0.91 0.398,1.623Zm-2.095,-0c-0,0.49 0.042,0.852 0.126,1.088c0.084,0.235 0.216,0.353 0.395,0.353c0.18,0 0.311,-0.118 0.393,-0.353c0.082,-0.236 0.123,-0.598 0.123,-1.088c0,-0.965 -0.172,-1.447 -0.516,-1.447c-0.179,-0 -0.311,0.12 -0.395,0.361c-0.084,0.242 -0.126,0.603 -0.126,1.086Z" style="fill:#fff;fill-rule:nonzero;"/></g></svg>