<?xml version="1.0" encoding="UTF-8" standalone="no"?><!DOCTYPE svg PUBLIC "-//W3C//DTD SVG 1.1//EN" "http://www.w3.org/Graphics/SVG/1.1/DTD/svg11.dtd"><svg width="100%" height="100%" viewBox="0 0 11 11" version="1.1" xmlns="http://www.w3.org/2000/svg" xmlns:xlink="http://www.w3.org/1999/xlink" xml:space="preserve" xmlns:serif="http://www.serif.com/" style="fill-rule:evenodd;clip-rule:evenodd;stroke-linejoin:round;stroke-miterlimit:2;"><rect id="d10_2" x="0.178" y="0.047" width="10.56" height="10.56" style="fill:none;"/><g><path d="M5.243,0.781c0.133,-0.077 0.297,-0.077 0.431,0c0.708,0.409 2.964,1.711 3.672,2.12c0.133,0.077 0.215,0.219 0.215,0.373l0,4.241c0,0.154 -0.082,0.296 -0.215,0.373c-0.708,0.409 -2.964,1.711 -3.672,2.12c-0.134,0.077 -0.298,0.077 -0.431,-0c-0.708,-0.409 -2.964,-1.711 -3.672,-2.12c-0.134,-0.077 -0.216,-0.219 -0.216,-0.373l0,-4.241c0,-0.154 0.082,-0.296 0.216,-0.373c0.708,-0.409 2.964,-1.711 3.672,-2.12Z" style="fill:#676767;"/><path d="M4.664,2.044c0.159,-0.299 0.47,-0.485 0.808,-0.484c0.338,0.001 0.648,0.189 0.805,0.488c0.723,1.378 1.766,3.363 2.384,4.541c0.128,0.245 0.142,0.533 0.037,0.788c-0.105,0.255 -0.318,0.451 -0.58,0.534c-0.645,0.204 -1.446,0.458 -1.997,0.633c-0.422,0.134 -0.875,0.134 -1.298,0.002c-0.559,-0.175 -1.376,-0.431 -2.032,-0.636c-0.264,-0.083 -0.478,-0.279 -0.584,-0.536c-0.105,-0.256 -0.09,-0.546 0.04,-0.791c0.629,-1.181 1.685,-3.164 2.417,-4.539Z" style="fill:#8e8e8e;"/></g><path d="M6.43,4.365c-0,0.215 -0.048,0.402 -0.144,0.561c-0.097,0.158 -0.226,0.303 -0.389,0.433c-0.163,0.13 -0.399,0.288 -0.709,0.475c-0.505,0.311 -0.785,0.617 -0.839,0.92l1.276,0l0,-0.547l0.855,0l-0.05,1.271l-3.079,-0c-0,-0.376 0.045,-0.686 0.134,-0.929c0.09,-0.243 0.232,-0.466 0.425,-0.669c0.194,-0.202 0.478,-0.443 0.854,-0.722c0.198,-0.146 0.349,-0.287 0.453,-0.423c0.104,-0.137 0.156,-0.277 0.156,-0.421c-0,-0.142 -0.041,-0.249 -0.124,-0.322c-0.082,-0.073 -0.2,-0.11 -0.353,-0.11c-0.198,0 -0.345,0.069 -0.442,0.206c-0.096,0.138 -0.154,0.362 -0.172,0.672l-0.878,-0.034c0.011,-0.521 0.145,-0.91 0.401,-1.166c0.256,-0.256 0.639,-0.384 1.15,-0.384c0.458,-0 0.818,0.105 1.081,0.315c0.263,0.21 0.394,0.502 0.394,0.874Z" style="fill:#fff;fill-rule:nonzero;"/></svg>