<?xml version="1.0" encoding="UTF-8" standalone="no"?><!DOCTYPE svg PUBLIC "-//W3C//DTD SVG 1.1//EN" "http://www.w3.org/Graphics/SVG/1.1/DTD/svg11.dtd"><svg width="100%" height="100%" viewBox="0 0 11 11" version="1.1" xmlns="http://www.w3.org/2000/svg" xmlns:xlink="http://www.w3.org/1999/xlink" xml:space="preserve" xmlns:serif="http://www.serif.com/" style="fill-rule:evenodd;clip-rule:evenodd;stroke-linejoin:round;stroke-miterlimit:2;"><rect id="d10_8" x="0.05" y="0.047" width="10.56" height="10.56" style="fill:none;"/><g><path d="M5.115,0.781c0.133,-0.077 0.297,-0.077 0.431,0c0.708,0.409 2.963,1.711 3.672,2.12c0.133,0.077 0.215,0.219 0.215,0.373l0,4.241c0,0.154 -0.082,0.296 -0.215,0.373c-0.709,0.409 -2.964,1.711 -3.672,2.12c-0.134,0.077 -0.298,0.077 -0.431,-0c-0.708,-0.409 -2.964,-1.711 -3.672,-2.12c-0.134,-0.077 -0.216,-0.219 -0.216,-0.373l0,-4.241c0,-0.154 0.082,-0.296 0.216,-0.373c0.708,-0.409 2.964,-1.711 3.672,-2.12Z" style="fill:#676767;"/><path d="M4.536,2.044c0.159,-0.299 0.47,-0.485 0.808,-0.484c0.338,0.001 0.648,0.189 0.805,0.488c0.723,1.378 1.765,3.363 2.384,4.541c0.128,0.245 0.142,0.533 0.037,0.788c-0.105,0.255 -0.318,0.451 -0.581,0.534c-0.644,0.204 -1.445,0.458 -1.996,0.633c-0.422,0.134 -0.876,0.134 -1.298,0.002c-0.559,-0.175 -1.376,-0.431 -2.032,-0.636c-0.264,-0.083 -0.478,-0.279 -0.584,-0.536c-0.105,-0.256 -0.09,-0.546 0.04,-0.791c0.629,-1.181 1.685,-3.164 2.417,-4.539Z" style="fill:#8e8e8e;"/></g><path d="M6.794,4.255c0,0.406 -0.206,0.729 -0.62,0.971c0.498,0.2 0.746,0.546 0.746,1.04c0,0.395 -0.144,0.7 -0.433,0.916c-0.289,0.216 -0.678,0.324 -1.168,0.324c-0.314,-0 -0.591,-0.051 -0.83,-0.152c-0.239,-0.101 -0.424,-0.246 -0.554,-0.436c-0.13,-0.19 -0.195,-0.413 -0.195,-0.669c0,-0.467 0.253,-0.808 0.757,-1.023c-0.42,-0.234 -0.631,-0.552 -0.631,-0.954c0,-0.224 0.064,-0.422 0.193,-0.593c0.128,-0.171 0.302,-0.302 0.524,-0.394c0.222,-0.092 0.469,-0.137 0.742,-0.137c0.278,-0 0.53,0.044 0.754,0.134c0.224,0.09 0.4,0.218 0.526,0.384c0.126,0.167 0.189,0.363 0.189,0.589Zm-1.469,0.657c0.153,-0 0.275,-0.049 0.367,-0.145c0.092,-0.096 0.138,-0.227 0.138,-0.391c-0,-0.161 -0.044,-0.288 -0.132,-0.382c-0.088,-0.093 -0.214,-0.14 -0.379,-0.14c-0.146,0 -0.263,0.044 -0.353,0.132c-0.09,0.088 -0.135,0.222 -0.135,0.401c0,0.153 0.046,0.279 0.138,0.377c0.091,0.098 0.21,0.148 0.356,0.148Zm0.011,1.89c0.172,-0 0.313,-0.06 0.422,-0.178c0.109,-0.119 0.164,-0.267 0.164,-0.445c0,-0.176 -0.056,-0.325 -0.167,-0.447c-0.111,-0.123 -0.253,-0.184 -0.425,-0.184c-0.164,0 -0.301,0.061 -0.411,0.184c-0.109,0.122 -0.164,0.271 -0.164,0.447c0,0.178 0.055,0.326 0.164,0.445c0.11,0.118 0.249,0.178 0.417,0.178Z" style="fill:#fff;fill-rule:nonzero;"/></svg>