<?xml version="1.0" encoding="UTF-8" standalone="no"?><!DOCTYPE svg PUBLIC "-//W3C//DTD SVG 1.1//EN" "http://www.w3.org/Graphics/SVG/1.1/DTD/svg11.dtd"><svg width="100%" height="100%" viewBox="0 0 11 11" version="1.1" xmlns="http://www.w3.org/2000/svg" xmlns:xlink="http://www.w3.org/1999/xlink" xml:space="preserve" xmlns:serif="http://www.serif.com/" style="fill-rule:evenodd;clip-rule:evenodd;stroke-linejoin:round;stroke-miterlimit:2;"><rect id="d12_11" x="0.067" y="0.133" width="10.56" height="10.56" style="fill:none;"/><g><path d="M4.995,0.634c0.218,-0.126 0.487,-0.126 0.705,0c0.811,0.468 2.799,1.616 3.61,2.084c0.218,0.126 0.353,0.359 0.353,0.611l-0,4.168c-0,0.252 -0.135,0.485 -0.353,0.611c-0.811,0.468 -2.799,1.616 -3.61,2.084c-0.218,0.126 -0.487,0.126 -0.705,0c-0.811,-0.468 -2.799,-1.616 -3.61,-2.084c-0.218,-0.126 -0.353,-0.359 -0.353,-0.611l0,-4.168c0,-0.252 0.135,-0.485 0.353,-0.611c0.811,-0.468 2.799,-1.616 3.61,-2.084Z" style="fill:#676767;"/><path d="M4.926,1.497c0.203,-0.148 0.478,-0.148 0.682,0c0.726,0.527 2.417,1.757 3.143,2.284c0.203,0.148 0.288,0.409 0.211,0.648c-0.278,0.853 -0.924,2.842 -1.201,3.696c-0.078,0.238 -0.3,0.4 -0.551,0.4l-3.886,0c-0.251,0 -0.474,-0.162 -0.551,-0.4c-0.278,-0.854 -0.924,-2.843 -1.201,-3.696c-0.078,-0.239 0.007,-0.5 0.211,-0.648c0.726,-0.527 2.417,-1.757 3.143,-2.284Z" style="fill:#868686;"/></g><g><path d="M5.037,6.803l0,0.724l-2.154,-0l0,-0.724l0.581,-0l-0,-2.779l-0.62,-0l0,-0.724l1.649,0l0,3.503l0.544,-0Z" style="fill:#fff;fill-rule:nonzero;"/><path d="M7.851,6.803l-0,0.724l-2.154,-0l-0,-0.724l0.58,-0l0,-2.779l-0.619,-0l-0,-0.724l1.649,0l-0,3.503l0.544,-0Z" style="fill:#fff;fill-rule:nonzero;"/></g></svg>