<?xml version="1.0" encoding="UTF-8" standalone="no"?><!DOCTYPE svg PUBLIC "-//W3C//DTD SVG 1.1//EN" "http://www.w3.org/Graphics/SVG/1.1/DTD/svg11.dtd"><svg width="100%" height="100%" viewBox="0 0 11 11" version="1.1" xmlns="http://www.w3.org/2000/svg" xmlns:xlink="http://www.w3.org/1999/xlink" xml:space="preserve" xmlns:serif="http://www.serif.com/" style="fill-rule:evenodd;clip-rule:evenodd;stroke-linejoin:round;stroke-miterlimit:2;"><rect id="d12_12" x="0.157" y="0.133" width="10.56" height="10.56" style="fill:none;"/><g><path d="M5.084,0.634c0.218,-0.126 0.487,-0.126 0.706,0c0.81,0.468 2.798,1.616 3.609,2.084c0.218,0.126 0.353,0.359 0.353,0.611l-0,4.168c-0,0.252 -0.135,0.485 -0.353,0.611c-0.811,0.468 -2.799,1.616 -3.609,2.084c-0.219,0.126 -0.488,0.126 -0.706,0c-0.811,-0.468 -2.799,-1.616 -3.61,-2.084c-0.218,-0.126 -0.352,-0.359 -0.352,-0.611l-0,-4.168c-0,-0.252 0.134,-0.485 0.352,-0.611c0.811,-0.468 2.799,-1.616 3.61,-2.084Z" style="fill:#676767;"/><path d="M5.015,1.497c0.204,-0.148 0.479,-0.148 0.682,0c0.726,0.527 2.417,1.757 3.143,2.284c0.204,0.148 0.289,0.409 0.211,0.648c-0.277,0.853 -0.923,2.842 -1.201,3.696c-0.077,0.238 -0.3,0.4 -0.551,0.4l-3.886,0c-0.251,0 -0.473,-0.162 -0.551,-0.4c-0.277,-0.854 -0.923,-2.843 -1.201,-3.696c-0.077,-0.239 0.008,-0.5 0.211,-0.648c0.726,-0.527 2.417,-1.757 3.143,-2.284Z" style="fill:#868686;"/></g><g><path d="M4.632,6.841l0,0.723l-2.153,0l-0,-0.723l0.58,-0l0,-2.779l-0.62,-0l0,-0.724l1.649,0l0,3.503l0.544,-0Z" style="fill:#fff;fill-rule:nonzero;"/><path d="M8.384,4.451c-0,0.215 -0.049,0.402 -0.145,0.561c-0.096,0.159 -0.226,0.304 -0.388,0.434c-0.163,0.13 -0.399,0.288 -0.71,0.475c-0.505,0.31 -0.784,0.617 -0.838,0.92l1.276,-0l-0,-0.547l0.855,-0l-0.05,1.27l-3.08,0c0,-0.375 0.045,-0.685 0.135,-0.928c0.09,-0.243 0.231,-0.466 0.425,-0.669c0.193,-0.203 0.478,-0.443 0.854,-0.722c0.198,-0.146 0.349,-0.287 0.453,-0.423c0.103,-0.137 0.155,-0.277 0.155,-0.421c0,-0.142 -0.041,-0.25 -0.123,-0.323c-0.082,-0.072 -0.2,-0.109 -0.353,-0.109c-0.199,0 -0.346,0.069 -0.442,0.206c-0.096,0.138 -0.154,0.362 -0.173,0.672l-0.877,-0.034c0.011,-0.521 0.145,-0.91 0.401,-1.166c0.256,-0.257 0.639,-0.385 1.149,-0.385c0.459,0 0.819,0.106 1.082,0.316c0.262,0.21 0.394,0.501 0.394,0.873Z" style="fill:#fff;fill-rule:nonzero;"/></g></svg>