<?xml version="1.0" encoding="UTF-8" standalone="no"?><!DOCTYPE svg PUBLIC "-//W3C//DTD SVG 1.1//EN" "http://www.w3.org/Graphics/SVG/1.1/DTD/svg11.dtd"><svg width="100%" height="100%" viewBox="0 0 11 11" version="1.1" xmlns="http://www.w3.org/2000/svg" xmlns:xlink="http://www.w3.org/1999/xlink" xml:space="preserve" xmlns:serif="http://www.serif.com/" style="fill-rule:evenodd;clip-rule:evenodd;stroke-linejoin:round;stroke-miterlimit:2;"><rect id="d12_1" x="0.184" y="0.133" width="10.56" height="10.56" style="fill:none;"/><g><path d="M5.111,0.634c0.218,-0.126 0.487,-0.126 0.706,0c0.81,0.468 2.799,1.616 3.609,2.084c0.219,0.126 0.353,0.359 0.353,0.611l0,4.168c0,0.252 -0.134,0.485 -0.353,0.611c-0.81,0.468 -2.799,1.616 -3.609,2.084c-0.219,0.126 -0.488,0.126 -0.706,0c-0.811,-0.468 -2.799,-1.616 -3.609,-2.084c-0.219,-0.126 -0.353,-0.359 -0.353,-0.611l-0,-4.168c-0,-0.252 0.134,-0.485 0.353,-0.611c0.81,-0.468 2.798,-1.616 3.609,-2.084Z" style="fill:#676767;"/><path d="M5.043,1.497c0.203,-0.148 0.478,-0.148 0.681,0c0.726,0.527 2.418,1.757 3.144,2.284c0.203,0.148 0.288,0.409 0.21,0.648c-0.277,0.853 -0.923,2.842 -1.201,3.696c-0.077,0.238 -0.3,0.4 -0.551,0.4l-3.885,0c-0.252,0 -0.474,-0.162 -0.552,-0.4c-0.277,-0.854 -0.923,-2.843 -1.201,-3.696c-0.077,-0.239 0.008,-0.5 0.211,-0.648c0.726,-0.527 2.418,-1.757 3.144,-2.284Z" style="fill:#868686;"/></g><path d="M6.56,6.803l0,0.724l-2.153,-0l-0,-0.724l0.58,-0l0,-2.779l-0.62,-0l0,-0.724l1.649,0l0,3.503l0.544,-0Z" style="fill:#fff;fill-rule:nonzero;"/></svg>