<?xml version="1.0" encoding="UTF-8" standalone="no"?><!DOCTYPE svg PUBLIC "-//W3C//DTD SVG 1.1//EN" "http://www.w3.org/Graphics/SVG/1.1/DTD/svg11.dtd"><svg width="100%" height="100%" viewBox="0 0 11 11" version="1.1" xmlns="http://www.w3.org/2000/svg" xmlns:xlink="http://www.w3.org/1999/xlink" xml:space="preserve" xmlns:serif="http://www.serif.com/" style="fill-rule:evenodd;clip-rule:evenodd;stroke-linejoin:round;stroke-miterlimit:2;"><rect id="d4_3" x="0.187" y="0.108" width="10.56" height="10.56" style="fill:none;"/><g><path d="M5.141,1.193c0.068,-0.116 0.192,-0.186 0.326,-0.186c0.134,-0 0.258,0.07 0.326,0.186c0.925,1.569 3.563,6.043 4.502,7.634c0.068,0.117 0.07,0.262 0.002,0.38c-0.067,0.117 -0.192,0.19 -0.328,0.19c-1.864,0 -7.14,0 -9.004,0c-0.136,0 -0.261,-0.073 -0.329,-0.19c-0.067,-0.118 -0.066,-0.263 0.003,-0.38c0.938,-1.591 3.577,-6.065 4.502,-7.634Z" style="fill:#676767;"/><path d="M5.285,2.971c0.036,-0.059 0.1,-0.096 0.169,-0.096c0.069,-0 0.133,0.037 0.168,0.096c0.563,0.955 2.376,4.029 2.947,4.997c0.036,0.061 0.036,0.136 0.002,0.197c-0.035,0.061 -0.1,0.098 -0.17,0.098c-1.134,0 -4.76,0 -5.894,0c-0.07,0 -0.135,-0.037 -0.17,-0.098c-0.035,-0.061 -0.034,-0.136 0.001,-0.197c0.571,-0.968 2.384,-4.042 2.947,-4.997Z" style="fill:#868686;"/><path d="M5.285,3.144c0.036,-0.059 0.1,-0.096 0.169,-0.096c0.069,-0 0.133,0.037 0.168,0.096c0.563,0.955 2.376,4.029 2.947,4.997c0.036,0.061 0.036,0.136 0.002,0.197c-0.035,0.061 -0.1,0.098 -0.17,0.098c-1.134,0 -4.76,0 -5.894,0c-0.07,0 -0.135,-0.037 -0.17,-0.098c-0.035,-0.061 -0.034,-0.136 0.001,-0.197c0.571,-0.968 2.384,-4.042 2.947,-4.997Z" style="fill:#868686;"/></g><path d="M6.912,4.958c0,0.424 -0.212,0.735 -0.636,0.934c0.531,0.181 0.796,0.516 0.796,1.006c0,0.253 -0.067,0.477 -0.203,0.672c-0.136,0.195 -0.324,0.346 -0.565,0.453c-0.241,0.106 -0.513,0.16 -0.816,0.16c-1.012,-0 -1.554,-0.461 -1.627,-1.383l0.92,-0.076c0.004,0.494 0.207,0.741 0.609,0.741c0.185,-0 0.335,-0.058 0.451,-0.174c0.116,-0.116 0.174,-0.259 0.174,-0.429c0,-0.176 -0.061,-0.318 -0.184,-0.428c-0.122,-0.109 -0.295,-0.164 -0.52,-0.164c-0.035,0 -0.114,0.005 -0.235,0.014l-0,-0.771c0.259,-0.004 0.462,-0.05 0.608,-0.137c0.146,-0.088 0.219,-0.215 0.219,-0.379c-0,-0.131 -0.049,-0.238 -0.147,-0.32c-0.099,-0.082 -0.222,-0.123 -0.372,-0.123c-0.336,-0 -0.505,0.188 -0.505,0.563l-0.889,-0.075c0.03,-0.383 0.174,-0.682 0.432,-0.896c0.258,-0.214 0.598,-0.321 1.021,-0.321c0.447,-0 0.803,0.101 1.07,0.304c0.266,0.203 0.399,0.479 0.399,0.829Z" style="fill:#fff;fill-rule:nonzero;"/></svg>