<?xml version="1.0" encoding="UTF-8" standalone="no"?><!DOCTYPE svg PUBLIC "-//W3C//DTD SVG 1.1//EN" "http://www.w3.org/Graphics/SVG/1.1/DTD/svg11.dtd"><svg width="100%" height="100%" viewBox="0 0 11 11" version="1.1" xmlns="http://www.w3.org/2000/svg" xmlns:xlink="http://www.w3.org/1999/xlink" xml:space="preserve" xmlns:serif="http://www.serif.com/" style="fill-rule:evenodd;clip-rule:evenodd;stroke-linejoin:round;stroke-miterlimit:2;"><rect id="d6_2" x="0.21" y="0.195" width="10.56" height="10.56" style="fill:none;"/><g><path d="M8.67,1.035c0.696,0 1.26,0.564 1.26,1.26l0,6.361c0,0.695 -0.564,1.259 -1.26,1.259l-6.36,0c-0.696,0 -1.26,-0.564 -1.26,-1.259l0,-6.361c0,-0.696 0.564,-1.26 1.26,-1.26l6.36,0Z" style="fill:#676767;"/><path d="M8.165,2.153c0.358,-0 0.648,0.29 0.648,0.648l-0,5.349c-0,0.358 -0.29,0.648 -0.648,0.648l-5.349,-0c-0.358,-0 -0.648,-0.29 -0.648,-0.648l-0,-5.349c-0,-0.358 0.29,-0.648 0.648,-0.648l5.349,-0Z" style="fill:#868686;"/></g><path d="M7.021,4.485c0,0.215 -0.048,0.402 -0.144,0.561c-0.096,0.159 -0.226,0.304 -0.388,0.434c-0.163,0.13 -0.4,0.288 -0.71,0.475c-0.505,0.31 -0.784,0.617 -0.838,0.92l1.276,-0l-0,-0.547l0.855,-0l-0.051,1.27l-3.079,0c0,-0.375 0.045,-0.685 0.135,-0.928c0.09,-0.243 0.231,-0.466 0.425,-0.669c0.193,-0.203 0.478,-0.443 0.854,-0.722c0.198,-0.146 0.349,-0.287 0.452,-0.423c0.104,-0.137 0.156,-0.277 0.156,-0.421c0,-0.142 -0.041,-0.25 -0.123,-0.323c-0.083,-0.072 -0.2,-0.109 -0.354,-0.109c-0.198,0 -0.345,0.069 -0.441,0.206c-0.097,0.138 -0.154,0.361 -0.173,0.672l-0.878,-0.034c0.012,-0.521 0.145,-0.91 0.401,-1.166c0.257,-0.257 0.64,-0.385 1.15,-0.385c0.458,0 0.819,0.106 1.081,0.316c0.263,0.21 0.394,0.501 0.394,0.873Z" style="fill:#fff;fill-rule:nonzero;"/></svg>