<?xml version="1.0" encoding="UTF-8" standalone="no"?><!DOCTYPE svg PUBLIC "-//W3C//DTD SVG 1.1//EN" "http://www.w3.org/Graphics/SVG/1.1/DTD/svg11.dtd"><svg width="100%" height="100%" viewBox="0 0 11 11" version="1.1" xmlns="http://www.w3.org/2000/svg" xmlns:xlink="http://www.w3.org/1999/xlink" xml:space="preserve" xmlns:serif="http://www.serif.com/" style="fill-rule:evenodd;clip-rule:evenodd;stroke-linejoin:round;stroke-miterlimit:2;"><rect id="d8_8" x="0.004" y="0.05" width="10.56" height="10.56" style="fill:none;"/><g><path d="M4.86,1.052c0.1,-0.133 0.257,-0.211 0.424,-0.211c0.166,-0 0.323,0.078 0.424,0.211c0.764,1.011 2.35,3.111 2.973,3.935c0.153,0.203 0.153,0.483 -0,0.686c-0.623,0.825 -2.209,2.924 -2.973,3.935c-0.101,0.133 -0.258,0.211 -0.424,0.211c-0.167,0 -0.324,-0.078 -0.424,-0.211c-0.765,-1.011 -2.351,-3.11 -2.974,-3.935c-0.153,-0.203 -0.153,-0.483 0,-0.686c0.623,-0.824 2.209,-2.924 2.974,-3.935Z" style="fill:#676767;"/><path d="M4.983,1.346c0.066,-0.122 0.194,-0.199 0.333,-0.199c0.139,0 0.267,0.077 0.333,0.199c0.592,1.097 1.818,3.371 2.386,4.424c0.063,0.117 0.06,0.259 -0.008,0.374c-0.069,0.114 -0.192,0.184 -0.325,0.184l-4.772,-0c-0.133,-0 -0.256,-0.07 -0.324,-0.184c-0.069,-0.115 -0.072,-0.257 -0.009,-0.374c0.568,-1.053 1.794,-3.327 2.386,-4.424Z" style="fill:#8e8e8e;"/></g><path d="M6.748,4.259c-0,0.406 -0.207,0.729 -0.62,0.97c0.497,0.2 0.746,0.547 0.746,1.041c-0,0.394 -0.145,0.699 -0.434,0.915c-0.288,0.216 -0.678,0.324 -1.168,0.324c-0.314,0 -0.59,-0.05 -0.83,-0.151c-0.239,-0.101 -0.424,-0.247 -0.554,-0.436c-0.13,-0.19 -0.194,-0.413 -0.194,-0.669c-0,-0.468 0.252,-0.809 0.757,-1.024c-0.421,-0.233 -0.631,-0.551 -0.631,-0.953c-0,-0.225 0.064,-0.422 0.192,-0.593c0.128,-0.172 0.303,-0.303 0.524,-0.394c0.222,-0.092 0.469,-0.138 0.742,-0.138c0.279,0 0.53,0.045 0.754,0.135c0.225,0.089 0.4,0.218 0.526,0.384c0.126,0.166 0.19,0.363 0.19,0.589Zm-1.47,0.656c0.153,0 0.276,-0.048 0.367,-0.144c0.092,-0.097 0.138,-0.227 0.138,-0.392c-0,-0.16 -0.044,-0.287 -0.132,-0.381c-0.088,-0.093 -0.214,-0.14 -0.379,-0.14c-0.145,-0 -0.263,0.044 -0.353,0.132c-0.09,0.088 -0.135,0.221 -0.135,0.401c0,0.153 0.046,0.279 0.138,0.377c0.091,0.098 0.21,0.147 0.356,0.147Zm0.011,1.89c0.172,0 0.313,-0.059 0.422,-0.178c0.11,-0.119 0.164,-0.267 0.164,-0.444c0,-0.176 -0.055,-0.325 -0.167,-0.448c-0.111,-0.122 -0.252,-0.183 -0.424,-0.183c-0.165,-0 -0.302,0.061 -0.411,0.183c-0.11,0.123 -0.164,0.272 -0.164,0.448c-0,0.177 0.054,0.325 0.164,0.444c0.109,0.119 0.248,0.178 0.416,0.178Z" style="fill:#fff;fill-rule:nonzero;"/></svg>