<?xml version="1.0" encoding="UTF-8" standalone="no"?><!DOCTYPE svg PUBLIC "-//W3C//DTD SVG 1.1//EN" "http://www.w3.org/Graphics/SVG/1.1/DTD/svg11.dtd"><svg width="100%" height="100%" viewBox="0 0 11 11" version="1.1" xmlns="http://www.w3.org/2000/svg" xmlns:xlink="http://www.w3.org/1999/xlink" xml:space="preserve" xmlns:serif="http://www.serif.com/" style="fill-rule:evenodd;clip-rule:evenodd;stroke-linejoin:round;stroke-miterlimit:2;"><rect id="d100_6" x="0.181" y="0.116" width="10.56" height="10.56" style="fill:none;"/><g><path d="M5.246,0.85c0.133,-0.077 0.298,-0.077 0.431,-0c0.708,0.409 2.964,1.711 3.672,2.12c0.133,0.077 0.215,0.219 0.215,0.373l0,4.241c0,0.154 -0.082,0.296 -0.215,0.373c-0.708,0.409 -2.964,1.711 -3.672,2.12c-0.133,0.077 -0.298,0.077 -0.431,-0c-0.708,-0.409 -2.964,-1.711 -3.672,-2.12c-0.133,-0.077 -0.216,-0.219 -0.216,-0.373l0,-4.241c0,-0.154 0.083,-0.296 0.216,-0.373c0.708,-0.409 2.964,-1.711 3.672,-2.12Z" style="fill:#69c5c5;"/><path d="M4.668,2.113c0.158,-0.299 0.469,-0.485 0.807,-0.484c0.338,0.001 0.648,0.189 0.805,0.488c0.723,1.378 1.766,3.363 2.384,4.541c0.128,0.244 0.142,0.533 0.037,0.788c-0.105,0.255 -0.318,0.451 -0.58,0.534c-0.645,0.204 -1.446,0.458 -1.997,0.633c-0.422,0.134 -0.875,0.134 -1.298,0.002c-0.559,-0.175 -1.376,-0.431 -2.032,-0.636c-0.264,-0.083 -0.478,-0.279 -0.583,-0.536c-0.106,-0.256 -0.091,-0.546 0.039,-0.791c0.629,-1.181 1.685,-3.164 2.418,-4.539Z" style="fill:#4a9f9f;"/></g><g><path d="M5.313,4.378l-0.833,0.072c-0.095,-0.351 -0.279,-0.527 -0.552,-0.527c-0.202,0 -0.364,0.093 -0.487,0.279c-0.122,0.186 -0.195,0.451 -0.22,0.795c0.227,-0.146 0.487,-0.218 0.783,-0.218c0.267,-0 0.504,0.058 0.711,0.175c0.206,0.117 0.367,0.276 0.482,0.477c0.115,0.201 0.172,0.427 0.172,0.68c0,0.452 -0.129,0.809 -0.389,1.071c-0.26,0.262 -0.618,0.393 -1.074,0.393c-0.582,-0 -1.01,-0.173 -1.286,-0.519c-0.276,-0.346 -0.414,-0.883 -0.414,-1.61c0,-0.731 0.149,-1.285 0.447,-1.663c0.299,-0.378 0.737,-0.566 1.317,-0.566c0.804,-0 1.252,0.387 1.343,1.161Zm-2.097,1.309c-0,0.413 0.056,0.711 0.169,0.892c0.113,0.181 0.285,0.272 0.515,0.272c0.15,0 0.271,-0.059 0.365,-0.178c0.093,-0.119 0.14,-0.287 0.14,-0.503c-0,-0.204 -0.053,-0.362 -0.157,-0.473c-0.105,-0.111 -0.25,-0.167 -0.435,-0.167c-0.176,0 -0.375,0.053 -0.597,0.157Z" style="fill:#fff;fill-rule:nonzero;"/><path d="M8.706,5.393c-0,0.712 -0.136,1.254 -0.407,1.625c-0.271,0.371 -0.662,0.557 -1.172,0.557c-0.513,-0 -0.904,-0.186 -1.174,-0.557c-0.27,-0.371 -0.405,-0.913 -0.405,-1.625c-0,-0.696 0.134,-1.232 0.402,-1.61c0.269,-0.378 0.661,-0.566 1.177,-0.566c0.521,-0 0.915,0.184 1.18,0.553c0.266,0.37 0.399,0.91 0.399,1.623Zm-2.095,-0c-0,0.49 0.042,0.852 0.126,1.088c0.084,0.235 0.216,0.353 0.395,0.353c0.18,0 0.311,-0.118 0.393,-0.353c0.082,-0.236 0.123,-0.598 0.123,-1.088c0,-0.965 -0.172,-1.447 -0.516,-1.447c-0.179,-0 -0.311,0.12 -0.395,0.361c-0.084,0.242 -0.126,0.603 -0.126,1.086Z" style="fill:#fff;fill-rule:nonzero;"/></g></svg>