<?xml version="1.0" encoding="UTF-8" standalone="no"?><!DOCTYPE svg PUBLIC "-//W3C//DTD SVG 1.1//EN" "http://www.w3.org/Graphics/SVG/1.1/DTD/svg11.dtd"><svg width="100%" height="100%" viewBox="0 0 11 11" version="1.1" xmlns="http://www.w3.org/2000/svg" xmlns:xlink="http://www.w3.org/1999/xlink" xml:space="preserve" xmlns:serif="http://www.serif.com/" style="fill-rule:evenodd;clip-rule:evenodd;stroke-linejoin:round;stroke-miterlimit:2;"><rect id="d100_2" x="0.157" y="0.116" width="10.56" height="10.56" style="fill:none;"/><g><path d="M5.222,0.85c0.133,-0.077 0.297,-0.077 0.431,-0c0.708,0.409 2.963,1.711 3.672,2.12c0.133,0.077 0.215,0.219 0.215,0.373l0,4.241c0,0.154 -0.082,0.296 -0.215,0.373c-0.709,0.409 -2.964,1.711 -3.672,2.12c-0.134,0.077 -0.298,0.077 -0.431,-0c-0.709,-0.409 -2.964,-1.711 -3.672,-2.12c-0.134,-0.077 -0.216,-0.219 -0.216,-0.373l0,-4.241c0,-0.154 0.082,-0.296 0.216,-0.373c0.708,-0.409 2.963,-1.711 3.672,-2.12Z" style="fill:#676767;"/><path d="M4.643,2.113c0.159,-0.299 0.47,-0.485 0.808,-0.484c0.338,0.001 0.648,0.189 0.805,0.488c0.723,1.378 1.765,3.363 2.384,4.541c0.128,0.244 0.142,0.533 0.037,0.788c-0.105,0.255 -0.318,0.451 -0.581,0.534c-0.644,0.204 -1.445,0.458 -1.996,0.633c-0.423,0.134 -0.876,0.134 -1.298,0.002c-0.559,-0.175 -1.376,-0.431 -2.032,-0.636c-0.264,-0.083 -0.478,-0.279 -0.584,-0.536c-0.105,-0.256 -0.09,-0.546 0.04,-0.791c0.629,-1.181 1.685,-3.164 2.417,-4.539Z" style="fill:#8e8e8e;"/></g><g><path d="M5.295,4.406c-0,0.215 -0.048,0.402 -0.145,0.56c-0.096,0.159 -0.225,0.304 -0.388,0.434c-0.163,0.13 -0.399,0.288 -0.71,0.475c-0.504,0.31 -0.784,0.617 -0.838,0.92l1.276,-0l-0,-0.547l0.855,0l-0.05,1.27l-3.079,0c-0,-0.375 0.044,-0.685 0.134,-0.928c0.09,-0.243 0.232,-0.466 0.425,-0.669c0.194,-0.202 0.478,-0.443 0.854,-0.722c0.198,-0.146 0.349,-0.287 0.453,-0.423c0.104,-0.137 0.156,-0.277 0.156,-0.421c-0,-0.142 -0.042,-0.249 -0.124,-0.322c-0.082,-0.073 -0.2,-0.11 -0.353,-0.11c-0.198,0 -0.346,0.069 -0.442,0.206c-0.096,0.138 -0.154,0.362 -0.172,0.672l-0.878,-0.034c0.011,-0.521 0.145,-0.91 0.401,-1.166c0.256,-0.256 0.639,-0.384 1.15,-0.384c0.458,-0 0.818,0.105 1.081,0.315c0.262,0.21 0.394,0.502 0.394,0.874Z" style="fill:#fff;fill-rule:nonzero;"/><path d="M8.681,5.393c0,0.712 -0.135,1.254 -0.406,1.625c-0.271,0.371 -0.662,0.557 -1.172,0.557c-0.513,-0 -0.904,-0.186 -1.174,-0.557c-0.27,-0.371 -0.405,-0.913 -0.405,-1.625c-0,-0.696 0.134,-1.232 0.402,-1.61c0.268,-0.378 0.661,-0.566 1.177,-0.566c0.521,-0 0.915,0.184 1.18,0.553c0.266,0.37 0.398,0.91 0.398,1.623Zm-2.094,-0c-0,0.49 0.042,0.852 0.126,1.088c0.084,0.235 0.216,0.353 0.395,0.353c0.18,0 0.311,-0.118 0.393,-0.353c0.082,-0.236 0.123,-0.598 0.123,-1.088c0,-0.965 -0.172,-1.447 -0.516,-1.447c-0.179,-0 -0.311,0.12 -0.395,0.361c-0.084,0.242 -0.126,0.603 -0.126,1.086Z" style="fill:#fff;fill-rule:nonzero;"/></g></svg>