<?xml version="1.0" encoding="UTF-8" standalone="no"?><!DOCTYPE svg PUBLIC "-//W3C//DTD SVG 1.1//EN" "http://www.w3.org/Graphics/SVG/1.1/DTD/svg11.dtd"><svg width="100%" height="100%" viewBox="0 0 11 11" version="1.1" xmlns="http://www.w3.org/2000/svg" xmlns:xlink="http://www.w3.org/1999/xlink" xml:space="preserve" xmlns:serif="http://www.serif.com/" style="fill-rule:evenodd;clip-rule:evenodd;stroke-linejoin:round;stroke-miterlimit:2;"><rect id="d100_9" x="0.228" y="0.116" width="10.56" height="10.56" style="fill:none;"/><g><path d="M5.293,0.85c0.133,-0.077 0.297,-0.077 0.43,-0c0.709,0.409 2.964,1.711 3.673,2.12c0.133,0.077 0.215,0.219 0.215,0.373l-0,4.241c-0,0.154 -0.082,0.296 -0.215,0.373c-0.709,0.409 -2.964,1.711 -3.673,2.12c-0.133,0.077 -0.297,0.077 -0.43,-0c-0.709,-0.409 -2.964,-1.711 -3.673,-2.12c-0.133,-0.077 -0.215,-0.219 -0.215,-0.373l-0,-4.241c-0,-0.154 0.082,-0.296 0.215,-0.373c0.709,-0.409 2.964,-1.711 3.673,-2.12Z" style="fill:#69c5c5;"/><path d="M4.714,2.113c0.159,-0.299 0.47,-0.485 0.808,-0.484c0.338,0.001 0.648,0.189 0.805,0.488c0.723,1.378 1.765,3.363 2.384,4.541c0.128,0.244 0.141,0.533 0.036,0.788c-0.105,0.255 -0.317,0.451 -0.58,0.534c-0.644,0.204 -1.446,0.458 -1.997,0.633c-0.422,0.134 -0.875,0.134 -1.298,0.002c-0.558,-0.175 -1.375,-0.431 -2.031,-0.636c-0.265,-0.083 -0.479,-0.279 -0.584,-0.536c-0.105,-0.256 -0.091,-0.546 0.04,-0.791c0.628,-1.181 1.685,-3.164 2.417,-4.539Z" style="fill:#4a9f9f;"/></g><g><path d="M5.416,5.387c-0,1.458 -0.576,2.188 -1.728,2.188c-0.39,-0 -0.707,-0.104 -0.95,-0.31c-0.243,-0.207 -0.379,-0.495 -0.407,-0.865l0.822,-0.082c0.058,0.187 0.129,0.325 0.213,0.414c0.084,0.089 0.19,0.133 0.317,0.133c0.198,0 0.357,-0.092 0.478,-0.276c0.121,-0.184 0.2,-0.452 0.24,-0.804c-0.12,0.064 -0.25,0.114 -0.392,0.15c-0.141,0.037 -0.284,0.055 -0.43,0.055c-0.256,0 -0.484,-0.06 -0.683,-0.181c-0.199,-0.12 -0.354,-0.283 -0.465,-0.488c-0.112,-0.204 -0.167,-0.426 -0.167,-0.663c-0,-0.279 0.063,-0.527 0.189,-0.746c0.126,-0.219 0.303,-0.389 0.531,-0.512c0.229,-0.122 0.492,-0.183 0.791,-0.183c1.094,-0 1.641,0.723 1.641,2.17Zm-1.607,-0.126c0.172,-0 0.373,-0.055 0.603,-0.166l-0,-0.016c-0,-0.357 -0.062,-0.637 -0.187,-0.84c-0.124,-0.203 -0.299,-0.305 -0.525,-0.305c-0.135,0 -0.249,0.062 -0.343,0.184c-0.093,0.123 -0.14,0.282 -0.14,0.478c0,0.202 0.055,0.363 0.164,0.484c0.11,0.121 0.252,0.181 0.428,0.181Z" style="fill:#fff;fill-rule:nonzero;"/><path d="M8.752,5.393c0,0.712 -0.136,1.254 -0.407,1.625c-0.271,0.371 -0.661,0.557 -1.172,0.557c-0.512,-0 -0.903,-0.186 -1.174,-0.557c-0.27,-0.371 -0.405,-0.913 -0.405,-1.625c0,-0.696 0.134,-1.232 0.403,-1.61c0.268,-0.378 0.66,-0.566 1.176,-0.566c0.522,-0 0.915,0.184 1.181,0.553c0.265,0.37 0.398,0.91 0.398,1.623Zm-2.095,-0c0,0.49 0.042,0.852 0.126,1.088c0.084,0.235 0.216,0.353 0.396,0.353c0.179,0 0.31,-0.118 0.392,-0.353c0.083,-0.236 0.124,-0.598 0.124,-1.088c-0,-0.965 -0.172,-1.447 -0.516,-1.447c-0.18,-0 -0.312,0.12 -0.396,0.361c-0.084,0.242 -0.126,0.603 -0.126,1.086Z" style="fill:#fff;fill-rule:nonzero;"/></g></svg>