<?xml version="1.0" encoding="UTF-8" standalone="no"?><!DOCTYPE svg PUBLIC "-//W3C//DTD SVG 1.1//EN" "http://www.w3.org/Graphics/SVG/1.1/DTD/svg11.dtd"><svg width="100%" height="100%" viewBox="0 0 11 11" version="1.1" xmlns="http://www.w3.org/2000/svg" xmlns:xlink="http://www.w3.org/1999/xlink" xml:space="preserve" xmlns:serif="http://www.serif.com/" style="fill-rule:evenodd;clip-rule:evenodd;stroke-linejoin:round;stroke-miterlimit:2;"><rect id="d100_1" x="0.059" y="0.116" width="10.56" height="10.56" style="fill:none;"/><g><path d="M5.124,0.85c0.133,-0.077 0.297,-0.077 0.43,-0c0.709,0.409 2.964,1.711 3.673,2.12c0.133,0.077 0.215,0.219 0.215,0.373l-0,4.241c-0,0.154 -0.082,0.296 -0.215,0.373c-0.709,0.409 -2.964,1.711 -3.673,2.12c-0.133,0.077 -0.297,0.077 -0.43,-0c-0.709,-0.409 -2.964,-1.711 -3.673,-2.12c-0.133,-0.077 -0.215,-0.219 -0.215,-0.373l-0,-4.241c-0,-0.154 0.082,-0.296 0.215,-0.373c0.709,-0.409 2.964,-1.711 3.673,-2.12Z" style="fill:#676767;"/><path d="M4.545,2.113c0.159,-0.299 0.47,-0.485 0.808,-0.484c0.338,0.001 0.647,0.189 0.805,0.488c0.723,1.378 1.765,3.363 2.383,4.541c0.129,0.244 0.142,0.533 0.037,0.788c-0.105,0.255 -0.317,0.451 -0.58,0.534c-0.644,0.204 -1.446,0.458 -1.997,0.633c-0.422,0.134 -0.875,0.134 -1.298,0.002c-0.558,-0.175 -1.376,-0.431 -2.031,-0.636c-0.265,-0.083 -0.479,-0.279 -0.584,-0.536c-0.105,-0.256 -0.091,-0.546 0.04,-0.791c0.628,-1.181 1.684,-3.164 2.417,-4.539Z" style="fill:#8e8e8e;"/></g><g><path d="M5.034,6.795l0,0.723l-2.154,0l0,-0.723l0.581,-0l-0,-2.779l-0.62,-0l0,-0.724l1.649,0l0,3.503l0.544,-0Z" style="fill:#fff;fill-rule:nonzero;"/><path d="M8.324,5.393c0,0.712 -0.135,1.254 -0.406,1.625c-0.271,0.371 -0.662,0.557 -1.172,0.557c-0.513,-0 -0.904,-0.186 -1.174,-0.557c-0.27,-0.371 -0.405,-0.913 -0.405,-1.625c-0,-0.696 0.134,-1.232 0.402,-1.61c0.268,-0.378 0.661,-0.566 1.177,-0.566c0.521,-0 0.915,0.184 1.18,0.553c0.266,0.37 0.398,0.91 0.398,1.623Zm-2.094,-0c-0,0.49 0.042,0.852 0.126,1.088c0.084,0.235 0.216,0.353 0.395,0.353c0.18,0 0.311,-0.118 0.393,-0.353c0.082,-0.236 0.123,-0.598 0.123,-1.088c0,-0.965 -0.172,-1.447 -0.516,-1.447c-0.179,-0 -0.311,0.12 -0.395,0.361c-0.084,0.242 -0.126,0.603 -0.126,1.086Z" style="fill:#fff;fill-rule:nonzero;"/></g></svg>