<?xml version="1.0" encoding="UTF-8" standalone="no"?><!DOCTYPE svg PUBLIC "-//W3C//DTD SVG 1.1//EN" "http://www.w3.org/Graphics/SVG/1.1/DTD/svg11.dtd"><svg width="100%" height="100%" viewBox="0 0 11 11" version="1.1" xmlns="http://www.w3.org/2000/svg" xmlns:xlink="http://www.w3.org/1999/xlink" xml:space="preserve" xmlns:serif="http://www.serif.com/" style="fill-rule:evenodd;clip-rule:evenodd;stroke-linejoin:round;stroke-miterlimit:2;"><rect id="d100_3" x="0.178" y="0.116" width="10.56" height="10.56" style="fill:none;"/><g><path d="M5.243,0.85c0.133,-0.077 0.297,-0.077 0.43,-0c0.709,0.409 2.964,1.711 3.673,2.12c0.133,0.077 0.215,0.219 0.215,0.373l-0,4.241c-0,0.154 -0.082,0.296 -0.215,0.373c-0.709,0.409 -2.964,1.711 -3.673,2.12c-0.133,0.077 -0.297,0.077 -0.43,-0c-0.709,-0.409 -2.964,-1.711 -3.673,-2.12c-0.133,-0.077 -0.215,-0.219 -0.215,-0.373l-0,-4.241c-0,-0.154 0.082,-0.296 0.215,-0.373c0.709,-0.409 2.964,-1.711 3.673,-2.12Z" style="fill:#676767;"/><path d="M4.664,2.113c0.159,-0.299 0.47,-0.485 0.808,-0.484c0.338,0.001 0.647,0.189 0.805,0.488c0.723,1.378 1.765,3.363 2.384,4.541c0.128,0.244 0.141,0.533 0.036,0.788c-0.105,0.255 -0.317,0.451 -0.58,0.534c-0.644,0.204 -1.446,0.458 -1.997,0.633c-0.422,0.134 -0.875,0.134 -1.298,0.002c-0.558,-0.175 -1.376,-0.431 -2.031,-0.636c-0.265,-0.083 -0.479,-0.279 -0.584,-0.536c-0.105,-0.256 -0.091,-0.546 0.04,-0.791c0.628,-1.181 1.685,-3.164 2.417,-4.539Z" style="fill:#8e8e8e;"/></g><g><path d="M5.212,4.349c-0,0.425 -0.213,0.736 -0.637,0.934c0.531,0.182 0.796,0.517 0.796,1.007c0,0.253 -0.067,0.476 -0.203,0.672c-0.135,0.195 -0.324,0.346 -0.565,0.453c-0.241,0.106 -0.513,0.16 -0.816,0.16c-1.011,-0 -1.554,-0.461 -1.627,-1.383l0.92,-0.076c0.004,0.494 0.207,0.741 0.609,0.741c0.185,-0 0.335,-0.058 0.451,-0.174c0.116,-0.116 0.174,-0.259 0.174,-0.429c0,-0.176 -0.061,-0.319 -0.183,-0.428c-0.123,-0.109 -0.296,-0.164 -0.521,-0.164c-0.035,-0 -0.114,0.005 -0.235,0.014l-0,-0.771c0.26,-0.004 0.462,-0.05 0.608,-0.138c0.146,-0.088 0.219,-0.214 0.219,-0.378c0,-0.131 -0.049,-0.238 -0.147,-0.32c-0.098,-0.082 -0.222,-0.123 -0.372,-0.123c-0.336,-0 -0.505,0.188 -0.505,0.563l-0.889,-0.075c0.03,-0.384 0.174,-0.682 0.432,-0.896c0.258,-0.214 0.599,-0.321 1.021,-0.321c0.447,-0 0.804,0.101 1.07,0.304c0.266,0.203 0.4,0.479 0.4,0.828Z" style="fill:#fff;fill-rule:nonzero;"/><path d="M8.702,5.393c0,0.712 -0.136,1.254 -0.407,1.625c-0.271,0.371 -0.661,0.557 -1.172,0.557c-0.512,-0 -0.903,-0.186 -1.174,-0.557c-0.27,-0.371 -0.405,-0.913 -0.405,-1.625c0,-0.696 0.134,-1.232 0.403,-1.61c0.268,-0.378 0.66,-0.566 1.176,-0.566c0.522,-0 0.915,0.184 1.181,0.553c0.265,0.37 0.398,0.91 0.398,1.623Zm-2.095,-0c0,0.49 0.042,0.852 0.126,1.088c0.084,0.235 0.216,0.353 0.396,0.353c0.179,0 0.31,-0.118 0.392,-0.353c0.083,-0.236 0.124,-0.598 0.124,-1.088c-0,-0.965 -0.172,-1.447 -0.516,-1.447c-0.18,-0 -0.312,0.12 -0.396,0.361c-0.084,0.242 -0.126,0.603 -0.126,1.086Z" style="fill:#fff;fill-rule:nonzero;"/></g></svg>