<?xml version="1.0" encoding="UTF-8" standalone="no"?><!DOCTYPE svg PUBLIC "-//W3C//DTD SVG 1.1//EN" "http://www.w3.org/Graphics/SVG/1.1/DTD/svg11.dtd"><svg width="100%" height="100%" viewBox="0 0 11 11" version="1.1" xmlns="http://www.w3.org/2000/svg" xmlns:xlink="http://www.w3.org/1999/xlink" xml:space="preserve" xmlns:serif="http://www.serif.com/" style="fill-rule:evenodd;clip-rule:evenodd;stroke-linejoin:round;stroke-miterlimit:2;"><rect id="d10_5" x="0.016" y="0.047" width="10.56" height="10.56" style="fill:none;"/><g><path d="M5.081,0.781c0.133,-0.077 0.297,-0.077 0.43,0c0.709,0.409 2.964,1.711 3.673,2.12c0.133,0.077 0.215,0.219 0.215,0.373l0,4.241c0,0.154 -0.082,0.296 -0.215,0.373c-0.709,0.409 -2.964,1.711 -3.673,2.12c-0.133,0.077 -0.297,0.077 -0.43,-0c-0.709,-0.409 -2.964,-1.711 -3.673,-2.12c-0.133,-0.077 -0.215,-0.219 -0.215,-0.373l0,-4.241c0,-0.154 0.082,-0.296 0.215,-0.373c0.709,-0.409 2.964,-1.711 3.673,-2.12Z" style="fill:#69c5c5;"/><path d="M4.502,2.044c0.159,-0.299 0.47,-0.485 0.808,-0.484c0.338,0.001 0.648,0.189 0.805,0.488c0.723,1.378 1.765,3.363 2.384,4.541c0.128,0.245 0.141,0.533 0.036,0.788c-0.104,0.255 -0.317,0.451 -0.58,0.534c-0.644,0.204 -1.446,0.458 -1.997,0.633c-0.422,0.134 -0.875,0.134 -1.298,0.002c-0.558,-0.175 -1.375,-0.431 -2.031,-0.636c-0.265,-0.083 -0.479,-0.279 -0.584,-0.536c-0.105,-0.256 -0.091,-0.546 0.04,-0.791c0.628,-1.181 1.685,-3.164 2.417,-4.539Z" style="fill:#4a9f9f;"/></g><path d="M5.979,4.255l-0.076,-0.308l-1.155,-0l-0.084,0.894c0.233,-0.121 0.48,-0.182 0.74,-0.182c0.299,0 0.562,0.06 0.789,0.181c0.228,0.121 0.403,0.288 0.528,0.502c0.124,0.214 0.186,0.447 0.186,0.7c0,0.291 -0.067,0.549 -0.2,0.774c-0.134,0.224 -0.324,0.395 -0.571,0.513c-0.247,0.118 -0.535,0.177 -0.864,0.177c-0.445,-0 -0.807,-0.108 -1.087,-0.324c-0.279,-0.216 -0.446,-0.518 -0.5,-0.905l0.903,-0.109c0.065,0.409 0.272,0.614 0.62,0.614c0.207,0 0.365,-0.058 0.474,-0.174c0.108,-0.116 0.162,-0.281 0.162,-0.496c0,-0.475 -0.204,-0.713 -0.614,-0.713c-0.241,0 -0.444,0.114 -0.608,0.34l-0.746,-0.368l0.148,-2.148l2.673,0l-0,1.032l-0.718,0Z" style="fill:#fff;fill-rule:nonzero;"/></svg>