<?xml version="1.0" encoding="UTF-8" standalone="no"?><!DOCTYPE svg PUBLIC "-//W3C//DTD SVG 1.1//EN" "http://www.w3.org/Graphics/SVG/1.1/DTD/svg11.dtd"><svg width="100%" height="100%" viewBox="0 0 11 11" version="1.1" xmlns="http://www.w3.org/2000/svg" xmlns:xlink="http://www.w3.org/1999/xlink" xml:space="preserve" xmlns:serif="http://www.serif.com/" style="fill-rule:evenodd;clip-rule:evenodd;stroke-linejoin:round;stroke-miterlimit:2;"><rect id="d10_3" x="0.109" y="0.047" width="10.56" height="10.56" style="fill:none;"/><g><path d="M5.174,0.781c0.133,-0.077 0.297,-0.077 0.431,0c0.708,0.409 2.964,1.711 3.672,2.12c0.133,0.077 0.215,0.219 0.215,0.373l0,4.241c0,0.154 -0.082,0.296 -0.215,0.373c-0.708,0.409 -2.964,1.711 -3.672,2.12c-0.134,0.077 -0.298,0.077 -0.431,-0c-0.708,-0.409 -2.964,-1.711 -3.672,-2.12c-0.134,-0.077 -0.216,-0.219 -0.216,-0.373l0,-4.241c0,-0.154 0.082,-0.296 0.216,-0.373c0.708,-0.409 2.964,-1.711 3.672,-2.12Z" style="fill:#69c5c5;"/><path d="M4.595,2.044c0.159,-0.299 0.47,-0.485 0.808,-0.484c0.338,0.001 0.648,0.189 0.805,0.488c0.723,1.378 1.765,3.363 2.384,4.541c0.128,0.245 0.142,0.533 0.037,0.788c-0.105,0.255 -0.318,0.451 -0.581,0.534c-0.644,0.204 -1.445,0.458 -1.996,0.633c-0.422,0.134 -0.876,0.134 -1.298,0.002c-0.559,-0.175 -1.376,-0.431 -2.032,-0.636c-0.264,-0.083 -0.478,-0.279 -0.584,-0.536c-0.105,-0.256 -0.09,-0.546 0.04,-0.791c0.629,-1.181 1.685,-3.164 2.417,-4.539Z" style="fill:#4a9f9f;"/></g><path d="M6.835,4.281c0,0.424 -0.212,0.735 -0.637,0.933c0.531,0.182 0.797,0.517 0.797,1.007c-0,0.253 -0.068,0.476 -0.203,0.672c-0.136,0.195 -0.324,0.346 -0.566,0.453c-0.241,0.106 -0.513,0.16 -0.816,0.16c-1.011,-0 -1.553,-0.461 -1.626,-1.383l0.92,-0.076c0.003,0.494 0.206,0.741 0.608,0.741c0.185,-0 0.336,-0.058 0.452,-0.174c0.116,-0.116 0.174,-0.259 0.174,-0.429c-0,-0.176 -0.062,-0.319 -0.184,-0.428c-0.123,-0.109 -0.296,-0.164 -0.52,-0.164c-0.036,-0 -0.114,0.005 -0.236,0.014l0,-0.771c0.26,-0.004 0.463,-0.05 0.609,-0.138c0.146,-0.088 0.218,-0.214 0.218,-0.378c0,-0.131 -0.049,-0.238 -0.147,-0.32c-0.098,-0.082 -0.222,-0.123 -0.371,-0.123c-0.337,-0 -0.505,0.188 -0.505,0.563l-0.889,-0.075c0.03,-0.384 0.174,-0.682 0.432,-0.896c0.258,-0.214 0.598,-0.321 1.021,-0.321c0.446,-0 0.803,0.101 1.069,0.304c0.267,0.203 0.4,0.479 0.4,0.829Z" style="fill:#fff;fill-rule:nonzero;"/></svg>