<?xml version="1.0" encoding="UTF-8" standalone="no"?><!DOCTYPE svg PUBLIC "-//W3C//DTD SVG 1.1//EN" "http://www.w3.org/Graphics/SVG/1.1/DTD/svg11.dtd"><svg width="100%" height="100%" viewBox="0 0 11 11" version="1.1" xmlns="http://www.w3.org/2000/svg" xmlns:xlink="http://www.w3.org/1999/xlink" xml:space="preserve" xmlns:serif="http://www.serif.com/" style="fill-rule:evenodd;clip-rule:evenodd;stroke-linejoin:round;stroke-miterlimit:2;"><rect id="d10_6" x="0.068" y="0.047" width="10.56" height="10.56" style="fill:none;"/><g><path d="M5.133,0.781c0.133,-0.077 0.297,-0.077 0.43,0c0.709,0.409 2.964,1.711 3.672,2.12c0.134,0.077 0.216,0.219 0.216,0.373l-0,4.241c-0,0.154 -0.082,0.296 -0.216,0.373c-0.708,0.409 -2.963,1.711 -3.672,2.12c-0.133,0.077 -0.297,0.077 -0.43,-0c-0.709,-0.409 -2.964,-1.711 -3.673,-2.12c-0.133,-0.077 -0.215,-0.219 -0.215,-0.373l-0,-4.241c-0,-0.154 0.082,-0.296 0.215,-0.373c0.709,-0.409 2.964,-1.711 3.673,-2.12Z" style="fill:#69c5c5;"/><path d="M4.554,2.044c0.159,-0.299 0.47,-0.485 0.808,-0.484c0.338,0.001 0.647,0.189 0.804,0.488c0.724,1.378 1.766,3.363 2.384,4.541c0.129,0.245 0.142,0.533 0.037,0.788c-0.105,0.255 -0.317,0.451 -0.58,0.534c-0.644,0.204 -1.446,0.458 -1.997,0.633c-0.422,0.134 -0.875,0.134 -1.298,0.002c-0.559,-0.175 -1.376,-0.431 -2.031,-0.636c-0.265,-0.083 -0.479,-0.279 -0.584,-0.536c-0.105,-0.256 -0.091,-0.546 0.039,-0.791c0.629,-1.181 1.685,-3.164 2.418,-4.539Z" style="fill:#4a9f9f;"/></g><path d="M6.873,4.309l-0.833,0.072c-0.095,-0.351 -0.279,-0.527 -0.552,-0.527c-0.202,0 -0.364,0.093 -0.487,0.279c-0.122,0.186 -0.195,0.451 -0.22,0.795c0.226,-0.145 0.487,-0.218 0.783,-0.218c0.267,-0 0.504,0.058 0.711,0.175c0.206,0.117 0.367,0.276 0.482,0.477c0.115,0.201 0.172,0.427 0.172,0.68c0,0.452 -0.13,0.809 -0.389,1.071c-0.26,0.262 -0.618,0.393 -1.074,0.393c-0.582,-0 -1.011,-0.173 -1.286,-0.519c-0.276,-0.346 -0.414,-0.883 -0.414,-1.61c0,-0.731 0.149,-1.285 0.447,-1.663c0.299,-0.378 0.737,-0.566 1.317,-0.566c0.804,-0 1.252,0.387 1.343,1.161Zm-2.097,1.309c-0,0.413 0.056,0.711 0.169,0.892c0.113,0.181 0.285,0.272 0.515,0.272c0.149,0 0.271,-0.059 0.364,-0.178c0.094,-0.119 0.141,-0.287 0.141,-0.503c-0,-0.204 -0.053,-0.362 -0.157,-0.473c-0.105,-0.111 -0.25,-0.167 -0.435,-0.167c-0.176,0 -0.375,0.053 -0.597,0.157Z" style="fill:#fff;fill-rule:nonzero;"/></svg>