<?xml version="1.0" encoding="UTF-8" standalone="no"?><!DOCTYPE svg PUBLIC "-//W3C//DTD SVG 1.1//EN" "http://www.w3.org/Graphics/SVG/1.1/DTD/svg11.dtd"><svg width="100%" height="100%" viewBox="0 0 11 11" version="1.1" xmlns="http://www.w3.org/2000/svg" xmlns:xlink="http://www.w3.org/1999/xlink" xml:space="preserve" xmlns:serif="http://www.serif.com/" style="fill-rule:evenodd;clip-rule:evenodd;stroke-linejoin:round;stroke-miterlimit:2;"><rect id="d10_1" x="0.127" y="0.047" width="10.56" height="10.56" style="fill:none;"/><g><path d="M5.1,1.591c0.133,-0.076 0.297,-0.076 0.43,0c0.584,0.337 2.192,1.266 2.776,1.603c0.133,0.077 0.215,0.219 0.215,0.373l0,3.204c0,0.154 -0.082,0.296 -0.215,0.373c-0.584,0.337 -2.192,1.265 -2.776,1.602c-0.133,0.077 -0.297,0.077 -0.43,0c-0.584,-0.337 -2.192,-1.265 -2.775,-1.602c-0.133,-0.077 -0.215,-0.219 -0.215,-0.373l-0,-3.204c-0,-0.154 0.082,-0.296 0.215,-0.373c0.583,-0.337 2.191,-1.266 2.775,-1.603Z" style="fill:#676767;"/><path d="M4.518,2.309c0.159,-0.299 0.469,-0.485 0.807,-0.484c0.338,0.001 0.648,0.189 0.805,0.489c0.503,0.958 1.137,2.165 1.574,2.998c0.129,0.244 0.142,0.533 0.037,0.788c-0.105,0.255 -0.317,0.45 -0.58,0.534c-0.398,0.126 -0.837,0.265 -1.186,0.376c-0.423,0.133 -0.876,0.134 -1.298,0.002c-0.356,-0.111 -0.805,-0.252 -1.211,-0.379c-0.265,-0.083 -0.479,-0.279 -0.584,-0.536c-0.105,-0.256 -0.091,-0.547 0.04,-0.791c0.444,-0.835 1.086,-2.041 1.596,-2.997Z" style="fill:#8e8e8e;"/></g><g transform="matrix(5.74346,0,0,5.74346,8.40656,7.43133)"></g><text x="1.786px" y="7.431px" style="font-family:'Rockwell-Bold', 'Rockwell', serif;font-weight:700;font-size:5.743px;fill:#fff;">1<tspan x="4.789px " y="7.431px ">0</tspan></text></svg>