<?xml version="1.0" encoding="UTF-8" standalone="no"?><!DOCTYPE svg PUBLIC "-//W3C//DTD SVG 1.1//EN" "http://www.w3.org/Graphics/SVG/1.1/DTD/svg11.dtd"><svg width="100%" height="100%" viewBox="0 0 11 11" version="1.1" xmlns="http://www.w3.org/2000/svg" xmlns:xlink="http://www.w3.org/1999/xlink" xml:space="preserve" xmlns:serif="http://www.serif.com/" style="fill-rule:evenodd;clip-rule:evenodd;stroke-linejoin:round;stroke-miterlimit:2;"><rect id="d10_7" x="0.239" y="0.047" width="10.56" height="10.56" style="fill:none;"/><g><path d="M5.303,0.781c0.134,-0.077 0.298,-0.077 0.431,0c0.708,0.409 2.964,1.711 3.672,2.12c0.134,0.077 0.216,0.219 0.216,0.373l-0,4.241c-0,0.154 -0.082,0.296 -0.216,0.373c-0.708,0.409 -2.964,1.711 -3.672,2.12c-0.133,0.077 -0.297,0.077 -0.431,-0c-0.708,-0.409 -2.964,-1.711 -3.672,-2.12c-0.133,-0.077 -0.215,-0.219 -0.215,-0.373l-0,-4.241c-0,-0.154 0.082,-0.296 0.215,-0.373c0.708,-0.409 2.964,-1.711 3.672,-2.12Z" style="fill:#676767;"/><path d="M4.725,2.044c0.159,-0.299 0.469,-0.485 0.807,-0.484c0.339,0.001 0.648,0.189 0.805,0.488c0.724,1.378 1.766,3.363 2.384,4.541c0.128,0.245 0.142,0.533 0.037,0.788c-0.105,0.255 -0.317,0.451 -0.58,0.534c-0.644,0.204 -1.446,0.458 -1.997,0.633c-0.422,0.134 -0.875,0.134 -1.298,0.002c-0.559,-0.175 -1.376,-0.431 -2.031,-0.636c-0.265,-0.083 -0.479,-0.279 -0.584,-0.536c-0.106,-0.256 -0.091,-0.546 0.039,-0.791c0.629,-1.181 1.685,-3.164 2.418,-4.539Z" style="fill:#8e8e8e;"/></g><path d="M5.88,6.726l0.609,-0l-0,0.724l-2.258,-0l0,-0.724l0.581,-0c0.062,-0.486 0.206,-0.98 0.432,-1.482c0.226,-0.502 0.511,-0.94 0.855,-1.314l-1.391,-0l0,0.583l-0.774,0l0,-1.29l3.169,0l0,0.544c-0.217,0.208 -0.418,0.482 -0.604,0.822c-0.186,0.34 -0.334,0.701 -0.443,1.083c-0.11,0.381 -0.168,0.732 -0.176,1.054Z" style="fill:#fff;fill-rule:nonzero;"/></svg>