<?xml version="1.0" encoding="UTF-8" standalone="no"?><!DOCTYPE svg PUBLIC "-//W3C//DTD SVG 1.1//EN" "http://www.w3.org/Graphics/SVG/1.1/DTD/svg11.dtd"><svg width="100%" height="100%" viewBox="0 0 11 11" version="1.1" xmlns="http://www.w3.org/2000/svg" xmlns:xlink="http://www.w3.org/1999/xlink" xml:space="preserve" xmlns:serif="http://www.serif.com/" style="fill-rule:evenodd;clip-rule:evenodd;stroke-linejoin:round;stroke-miterlimit:2;"><rect id="d12_9" x="0.068" y="0.133" width="10.56" height="10.56" style="fill:none;"/><g><path d="M4.995,0.634c0.219,-0.126 0.487,-0.126 0.706,0c0.811,0.468 2.799,1.616 3.609,2.084c0.219,0.126 0.353,0.359 0.353,0.611l0,4.168c0,0.252 -0.134,0.485 -0.353,0.611c-0.81,0.468 -2.798,1.616 -3.609,2.084c-0.219,0.126 -0.487,0.126 -0.706,0c-0.811,-0.468 -2.799,-1.616 -3.609,-2.084c-0.219,-0.126 -0.353,-0.359 -0.353,-0.611l-0,-4.168c-0,-0.252 0.134,-0.485 0.353,-0.611c0.81,-0.468 2.798,-1.616 3.609,-2.084Z" style="fill:#87badf;"/><path d="M4.927,1.497c0.203,-0.148 0.478,-0.148 0.681,0c0.726,0.527 2.418,1.757 3.144,2.284c0.203,0.148 0.288,0.409 0.21,0.648c-0.277,0.853 -0.923,2.842 -1.2,3.696c-0.078,0.238 -0.301,0.4 -0.552,0.4l-3.885,0c-0.252,0 -0.474,-0.162 -0.552,-0.4c-0.277,-0.854 -0.923,-2.843 -1.2,-3.696c-0.078,-0.239 0.007,-0.5 0.21,-0.648c0.726,-0.527 2.418,-1.757 3.144,-2.284Z" style="fill:#5f95bd;"/></g><path d="M6.924,5.405c0,1.458 -0.576,2.187 -1.727,2.187c-0.391,0 -0.708,-0.103 -0.951,-0.309c-0.243,-0.207 -0.379,-0.495 -0.407,-0.866l0.822,-0.081c0.058,0.187 0.129,0.325 0.213,0.414c0.084,0.089 0.19,0.133 0.317,0.133c0.198,-0 0.358,-0.092 0.478,-0.276c0.121,-0.184 0.201,-0.452 0.24,-0.804c-0.12,0.064 -0.25,0.114 -0.391,0.15c-0.141,0.037 -0.285,0.055 -0.431,0.055c-0.256,-0 -0.484,-0.06 -0.683,-0.181c-0.199,-0.121 -0.354,-0.283 -0.465,-0.488c-0.111,-0.205 -0.167,-0.426 -0.167,-0.663c-0,-0.279 0.063,-0.527 0.189,-0.746c0.126,-0.219 0.304,-0.389 0.532,-0.512c0.228,-0.122 0.491,-0.184 0.791,-0.184c1.093,0 1.64,0.724 1.64,2.171Zm-1.607,-0.126c0.172,-0 0.373,-0.055 0.603,-0.166l0,-0.017c0,-0.357 -0.062,-0.637 -0.186,-0.839c-0.125,-0.203 -0.3,-0.305 -0.526,-0.305c-0.135,0 -0.249,0.062 -0.342,0.184c-0.094,0.122 -0.141,0.282 -0.141,0.478c0,0.202 0.055,0.363 0.164,0.484c0.11,0.12 0.252,0.181 0.428,0.181Z" style="fill:#fff;fill-rule:nonzero;"/></svg>