<?xml version="1.0" encoding="UTF-8" standalone="no"?><!DOCTYPE svg PUBLIC "-//W3C//DTD SVG 1.1//EN" "http://www.w3.org/Graphics/SVG/1.1/DTD/svg11.dtd"><svg width="100%" height="100%" viewBox="0 0 11 11" version="1.1" xmlns="http://www.w3.org/2000/svg" xmlns:xlink="http://www.w3.org/1999/xlink" xml:space="preserve" xmlns:serif="http://www.serif.com/" style="fill-rule:evenodd;clip-rule:evenodd;stroke-linejoin:round;stroke-miterlimit:2;"><rect id="d12_8" x="0.219" y="0.133" width="10.56" height="10.56" style="fill:none;"/><g><path d="M5.146,0.634c0.218,-0.126 0.487,-0.126 0.706,0c0.81,0.468 2.798,1.616 3.609,2.084c0.218,0.126 0.353,0.359 0.353,0.611l-0,4.168c-0,0.252 -0.135,0.485 -0.353,0.611c-0.811,0.468 -2.799,1.616 -3.609,2.084c-0.219,0.126 -0.488,0.126 -0.706,0c-0.811,-0.468 -2.799,-1.616 -3.61,-2.084c-0.218,-0.126 -0.352,-0.359 -0.352,-0.611l-0,-4.168c-0,-0.252 0.134,-0.485 0.352,-0.611c0.811,-0.468 2.799,-1.616 3.61,-2.084Z" style="fill:#87badf;"/><path d="M5.077,1.497c0.204,-0.148 0.479,-0.148 0.682,0c0.726,0.527 2.418,1.757 3.143,2.284c0.204,0.148 0.289,0.409 0.211,0.648c-0.277,0.853 -0.923,2.842 -1.201,3.696c-0.077,0.238 -0.3,0.4 -0.551,0.4l-3.886,0c-0.251,0 -0.473,-0.162 -0.551,-0.4c-0.277,-0.854 -0.923,-2.843 -1.201,-3.696c-0.077,-0.239 0.008,-0.5 0.211,-0.648c0.726,-0.527 2.417,-1.757 3.143,-2.284Z" style="fill:#5f95bd;"/></g><path d="M6.963,4.342c-0,0.406 -0.207,0.729 -0.62,0.97c0.497,0.2 0.746,0.547 0.746,1.041c-0,0.394 -0.145,0.7 -0.433,0.916c-0.289,0.215 -0.679,0.323 -1.168,0.323c-0.315,0 -0.591,-0.05 -0.831,-0.151c-0.239,-0.101 -0.424,-0.246 -0.553,-0.436c-0.13,-0.19 -0.195,-0.413 -0.195,-0.669c-0,-0.467 0.252,-0.809 0.757,-1.024c-0.421,-0.233 -0.631,-0.551 -0.631,-0.953c-0,-0.224 0.064,-0.422 0.192,-0.593c0.128,-0.171 0.303,-0.303 0.524,-0.394c0.222,-0.092 0.469,-0.138 0.742,-0.138c0.279,0 0.53,0.045 0.755,0.135c0.224,0.09 0.399,0.218 0.525,0.384c0.127,0.167 0.19,0.363 0.19,0.589Zm-1.47,0.656c0.153,0 0.276,-0.048 0.368,-0.144c0.091,-0.096 0.137,-0.227 0.137,-0.391c-0,-0.161 -0.044,-0.288 -0.132,-0.382c-0.088,-0.093 -0.214,-0.14 -0.378,-0.14c-0.146,0 -0.264,0.044 -0.354,0.132c-0.09,0.088 -0.134,0.221 -0.134,0.401c-0,0.153 0.045,0.279 0.137,0.377c0.092,0.098 0.21,0.147 0.356,0.147Zm0.011,1.891c0.172,-0 0.313,-0.06 0.422,-0.179c0.11,-0.118 0.164,-0.266 0.164,-0.444c0,-0.176 -0.055,-0.325 -0.166,-0.447c-0.112,-0.123 -0.253,-0.184 -0.425,-0.184c-0.165,-0 -0.302,0.061 -0.411,0.184c-0.109,0.122 -0.164,0.271 -0.164,0.447c-0,0.178 0.055,0.326 0.164,0.444c0.109,0.119 0.248,0.179 0.416,0.179Z" style="fill:#fff;fill-rule:nonzero;"/></svg>