<?xml version="1.0" encoding="UTF-8" standalone="no"?><!DOCTYPE svg PUBLIC "-//W3C//DTD SVG 1.1//EN" "http://www.w3.org/Graphics/SVG/1.1/DTD/svg11.dtd"><svg width="100%" height="100%" viewBox="0 0 11 11" version="1.1" xmlns="http://www.w3.org/2000/svg" xmlns:xlink="http://www.w3.org/1999/xlink" xml:space="preserve" xmlns:serif="http://www.serif.com/" style="fill-rule:evenodd;clip-rule:evenodd;stroke-linejoin:round;stroke-miterlimit:2;"><rect id="d12_5" x="0.077" y="0.133" width="10.56" height="10.56" style="fill:none;"/><g><path d="M5.004,0.634c0.219,-0.126 0.488,-0.126 0.706,0c0.811,0.468 2.799,1.616 3.61,2.084c0.218,0.126 0.352,0.359 0.352,0.611l0,4.168c0,0.252 -0.134,0.485 -0.352,0.611c-0.811,0.468 -2.799,1.616 -3.61,2.084c-0.218,0.126 -0.487,0.126 -0.706,0c-0.81,-0.468 -2.798,-1.616 -3.609,-2.084c-0.218,-0.126 -0.353,-0.359 -0.353,-0.611l0,-4.168c0,-0.252 0.135,-0.485 0.353,-0.611c0.811,-0.468 2.799,-1.616 3.609,-2.084Z" style="fill:#676767;"/><path d="M4.936,1.497c0.203,-0.148 0.478,-0.148 0.681,0c0.726,0.527 2.418,1.757 3.144,2.284c0.203,0.148 0.288,0.409 0.21,0.648c-0.277,0.853 -0.923,2.842 -1.2,3.696c-0.078,0.238 -0.3,0.4 -0.552,0.4l-3.885,0c-0.251,0 -0.474,-0.162 -0.552,-0.4c-0.277,-0.854 -0.923,-2.843 -1.2,-3.696c-0.078,-0.239 0.007,-0.5 0.21,-0.648c0.726,-0.527 2.418,-1.757 3.144,-2.284Z" style="fill:#868686;"/></g><path d="M6.04,4.304l-0.076,-0.308l-1.155,-0l-0.084,0.894c0.233,-0.121 0.48,-0.182 0.74,-0.182c0.299,0 0.562,0.06 0.79,0.181c0.227,0.121 0.403,0.288 0.527,0.502c0.124,0.214 0.186,0.447 0.186,0.7c0,0.291 -0.067,0.549 -0.2,0.774c-0.134,0.224 -0.324,0.395 -0.571,0.513c-0.247,0.118 -0.535,0.177 -0.864,0.177c-0.445,-0 -0.807,-0.108 -1.086,-0.324c-0.28,-0.216 -0.447,-0.518 -0.501,-0.905l0.903,-0.109c0.066,0.409 0.272,0.614 0.62,0.614c0.207,0 0.365,-0.058 0.474,-0.174c0.108,-0.116 0.162,-0.281 0.162,-0.496c0,-0.475 -0.204,-0.713 -0.614,-0.713c-0.241,0 -0.444,0.114 -0.608,0.34l-0.746,-0.368l0.148,-2.148l2.673,0l0,1.032l-0.718,0Z" style="fill:#fff;fill-rule:nonzero;"/></svg>