<?xml version="1.0" encoding="UTF-8" standalone="no"?><!DOCTYPE svg PUBLIC "-//W3C//DTD SVG 1.1//EN" "http://www.w3.org/Graphics/SVG/1.1/DTD/svg11.dtd"><svg width="100%" height="100%" viewBox="0 0 11 11" version="1.1" xmlns="http://www.w3.org/2000/svg" xmlns:xlink="http://www.w3.org/1999/xlink" xml:space="preserve" xmlns:serif="http://www.serif.com/" style="fill-rule:evenodd;clip-rule:evenodd;stroke-linejoin:round;stroke-miterlimit:2;"><rect id="d12_4" x="0.17" y="0.133" width="10.56" height="10.56" style="fill:none;"/><g><path d="M5.097,0.634c0.219,-0.126 0.487,-0.126 0.706,0c0.811,0.468 2.799,1.616 3.609,2.084c0.219,0.126 0.353,0.359 0.353,0.611l0,4.168c0,0.252 -0.134,0.485 -0.353,0.611c-0.81,0.468 -2.798,1.616 -3.609,2.084c-0.219,0.126 -0.487,0.126 -0.706,0c-0.811,-0.468 -2.799,-1.616 -3.609,-2.084c-0.219,-0.126 -0.353,-0.359 -0.353,-0.611l-0,-4.168c-0,-0.252 0.134,-0.485 0.353,-0.611c0.81,-0.468 2.798,-1.616 3.609,-2.084Z" style="fill:#676767;"/><path d="M5.029,1.497c0.203,-0.148 0.478,-0.148 0.681,0c0.726,0.527 2.418,1.757 3.144,2.284c0.203,0.148 0.288,0.409 0.21,0.648c-0.277,0.853 -0.923,2.842 -1.2,3.696c-0.078,0.238 -0.301,0.4 -0.552,0.4l-3.885,0c-0.252,0 -0.474,-0.162 -0.552,-0.4c-0.277,-0.854 -0.923,-2.843 -1.2,-3.696c-0.078,-0.239 0.007,-0.5 0.21,-0.648c0.726,-0.527 2.418,-1.757 3.144,-2.284Z" style="fill:#868686;"/></g><path d="M6.644,5.727l0,0.688l-0.449,-0l0,0.482l0.393,-0l0,0.667l-1.873,0l-0,-0.667l0.51,-0l0,-0.482l-1.744,-0c-0.094,-0.26 -0.17,-0.447 -0.23,-0.561l2.033,-2.592l0.911,0l0,2.465l0.449,0Zm-2.395,0l0.976,0l0,-1.219l-0.976,1.219Z" style="fill:#fff;fill-rule:nonzero;"/></svg>