<?xml version="1.0" encoding="UTF-8" standalone="no"?><!DOCTYPE svg PUBLIC "-//W3C//DTD SVG 1.1//EN" "http://www.w3.org/Graphics/SVG/1.1/DTD/svg11.dtd"><svg width="100%" height="100%" viewBox="0 0 11 11" version="1.1" xmlns="http://www.w3.org/2000/svg" xmlns:xlink="http://www.w3.org/1999/xlink" xml:space="preserve" xmlns:serif="http://www.serif.com/" style="fill-rule:evenodd;clip-rule:evenodd;stroke-linejoin:round;stroke-miterlimit:2;"><rect id="d12_10" x="0.16" y="0.133" width="10.56" height="10.56" style="fill:none;"/><g><path d="M5.087,0.634c0.219,-0.126 0.488,-0.126 0.706,0c0.811,0.468 2.799,1.616 3.61,2.084c0.218,0.126 0.352,0.359 0.352,0.611l0,4.168c0,0.252 -0.134,0.485 -0.352,0.611c-0.811,0.468 -2.799,1.616 -3.61,2.084c-0.218,0.126 -0.487,0.126 -0.706,0c-0.81,-0.468 -2.798,-1.616 -3.609,-2.084c-0.218,-0.126 -0.353,-0.359 -0.353,-0.611l0,-4.168c0,-0.252 0.135,-0.485 0.353,-0.611c0.811,-0.468 2.799,-1.616 3.609,-2.084Z" style="fill:#87badf;"/><path d="M5.019,1.497c0.203,-0.148 0.478,-0.148 0.681,0c0.726,0.527 2.418,1.757 3.144,2.284c0.203,0.148 0.288,0.409 0.211,0.648c-0.278,0.853 -0.924,2.842 -1.201,3.696c-0.078,0.238 -0.3,0.4 -0.552,0.4l-3.885,0c-0.251,0 -0.474,-0.162 -0.551,-0.4c-0.278,-0.854 -0.924,-2.843 -1.201,-3.696c-0.078,-0.239 0.007,-0.5 0.21,-0.648c0.726,-0.527 2.418,-1.757 3.144,-2.284Z" style="fill:#5f95bd;"/></g><g><path d="M4.797,6.813l-0,0.723l-2.154,0l0,-0.723l0.581,-0l-0,-2.779l-0.62,-0l-0,-0.724l1.649,0l-0,3.503l0.544,-0Z" style="fill:#fff;fill-rule:nonzero;"/><path d="M8.277,5.411c-0,0.712 -0.136,1.254 -0.407,1.625c-0.271,0.371 -0.662,0.556 -1.172,0.556c-0.512,0 -0.904,-0.185 -1.174,-0.556c-0.27,-0.371 -0.405,-0.913 -0.405,-1.625c-0,-0.696 0.134,-1.232 0.402,-1.61c0.269,-0.378 0.661,-0.567 1.177,-0.567c0.521,0 0.915,0.185 1.181,0.554c0.265,0.369 0.398,0.91 0.398,1.623Zm-2.095,-0c-0,0.489 0.042,0.852 0.126,1.088c0.084,0.235 0.216,0.353 0.395,0.353c0.18,0 0.311,-0.118 0.393,-0.353c0.082,-0.236 0.123,-0.599 0.123,-1.088c0,-0.965 -0.172,-1.447 -0.516,-1.447c-0.179,-0 -0.311,0.12 -0.395,0.361c-0.084,0.241 -0.126,0.603 -0.126,1.086Z" style="fill:#fff;fill-rule:nonzero;"/></g></svg>