<?xml version="1.0" encoding="UTF-8" standalone="no"?><!DOCTYPE svg PUBLIC "-//W3C//DTD SVG 1.1//EN" "http://www.w3.org/Graphics/SVG/1.1/DTD/svg11.dtd"><svg width="100%" height="100%" viewBox="0 0 11 11" version="1.1" xmlns="http://www.w3.org/2000/svg" xmlns:xlink="http://www.w3.org/1999/xlink" xml:space="preserve" xmlns:serif="http://www.serif.com/" style="fill-rule:evenodd;clip-rule:evenodd;stroke-linejoin:round;stroke-miterlimit:2;"><rect id="d12_3" x="0.18" y="0.133" width="10.56" height="10.56" style="fill:none;"/><g><path d="M5.108,0.634c0.218,-0.126 0.487,-0.126 0.705,0c0.811,0.468 2.799,1.616 3.61,2.084c0.218,0.126 0.352,0.359 0.352,0.611l0,4.168c0,0.252 -0.134,0.485 -0.352,0.611c-0.811,0.468 -2.799,1.616 -3.61,2.084c-0.218,0.126 -0.487,0.126 -0.705,0c-0.811,-0.468 -2.799,-1.616 -3.61,-2.084c-0.218,-0.126 -0.353,-0.359 -0.353,-0.611l0,-4.168c0,-0.252 0.135,-0.485 0.353,-0.611c0.811,-0.468 2.799,-1.616 3.61,-2.084Z" style="fill:#87badf;"/><path d="M5.039,1.497c0.203,-0.148 0.478,-0.148 0.682,0c0.725,0.527 2.417,1.757 3.143,2.284c0.203,0.148 0.288,0.409 0.211,0.648c-0.278,0.853 -0.924,2.842 -1.201,3.696c-0.078,0.238 -0.3,0.4 -0.551,0.4l-3.886,0c-0.251,0 -0.474,-0.162 -0.551,-0.4c-0.278,-0.854 -0.924,-2.843 -1.201,-3.696c-0.078,-0.239 0.007,-0.5 0.21,-0.648c0.726,-0.527 2.418,-1.757 3.144,-2.284Z" style="fill:#5f95bd;"/></g><path d="M6.906,4.367c-0,0.425 -0.212,0.736 -0.637,0.934c0.531,0.182 0.797,0.517 0.797,1.007c-0,0.252 -0.068,0.476 -0.203,0.672c-0.136,0.195 -0.324,0.346 -0.566,0.453c-0.241,0.106 -0.513,0.159 -0.816,0.159c-1.011,0 -1.553,-0.46 -1.626,-1.382l0.92,-0.076c0.003,0.494 0.206,0.74 0.608,0.74c0.185,0 0.336,-0.057 0.452,-0.173c0.116,-0.116 0.174,-0.259 0.174,-0.429c-0,-0.176 -0.062,-0.319 -0.184,-0.428c-0.123,-0.11 -0.296,-0.164 -0.52,-0.164c-0.036,-0 -0.114,0.004 -0.236,0.014l0,-0.771c0.26,-0.004 0.463,-0.05 0.609,-0.138c0.145,-0.088 0.218,-0.214 0.218,-0.378c0,-0.131 -0.049,-0.238 -0.147,-0.32c-0.098,-0.082 -0.222,-0.123 -0.371,-0.123c-0.337,-0 -0.505,0.187 -0.505,0.563l-0.889,-0.076c0.03,-0.383 0.174,-0.681 0.432,-0.896c0.258,-0.214 0.598,-0.321 1.02,-0.321c0.447,0 0.804,0.102 1.07,0.305c0.267,0.202 0.4,0.479 0.4,0.828Z" style="fill:#fff;fill-rule:nonzero;"/></svg>