<?xml version="1.0" encoding="UTF-8" standalone="no"?><!DOCTYPE svg PUBLIC "-//W3C//DTD SVG 1.1//EN" "http://www.w3.org/Graphics/SVG/1.1/DTD/svg11.dtd"><svg width="100%" height="100%" viewBox="0 0 11 11" version="1.1" xmlns="http://www.w3.org/2000/svg" xmlns:xlink="http://www.w3.org/1999/xlink" xml:space="preserve" xmlns:serif="http://www.serif.com/" style="fill-rule:evenodd;clip-rule:evenodd;stroke-linejoin:round;stroke-miterlimit:2;"><rect id="d12_6" x="0.166" y="0.133" width="10.56" height="10.56" style="fill:none;"/><g><path d="M5.094,0.634c0.218,-0.126 0.487,-0.126 0.705,0c0.811,0.468 2.799,1.616 3.61,2.084c0.218,0.126 0.353,0.359 0.353,0.611l-0,4.168c-0,0.252 -0.135,0.485 -0.353,0.611c-0.811,0.468 -2.799,1.616 -3.61,2.084c-0.218,0.126 -0.487,0.126 -0.705,0c-0.811,-0.468 -2.799,-1.616 -3.61,-2.084c-0.218,-0.126 -0.353,-0.359 -0.353,-0.611l0,-4.168c0,-0.252 0.135,-0.485 0.353,-0.611c0.811,-0.468 2.799,-1.616 3.61,-2.084Z" style="fill:#676767;"/><path d="M5.025,1.497c0.203,-0.148 0.478,-0.148 0.682,0c0.726,0.527 2.417,1.757 3.143,2.284c0.203,0.148 0.288,0.409 0.211,0.648c-0.278,0.853 -0.924,2.842 -1.201,3.696c-0.078,0.238 -0.3,0.4 -0.551,0.4l-3.886,0c-0.251,0 -0.474,-0.162 -0.551,-0.4c-0.278,-0.854 -0.924,-2.843 -1.201,-3.696c-0.078,-0.239 0.007,-0.5 0.211,-0.648c0.726,-0.527 2.417,-1.757 3.143,-2.284Z" style="fill:#868686;"/></g><path d="M6.972,4.395l-0.833,0.073c-0.095,-0.351 -0.279,-0.527 -0.552,-0.527c-0.202,0 -0.364,0.093 -0.487,0.279c-0.122,0.186 -0.196,0.451 -0.22,0.795c0.226,-0.146 0.487,-0.219 0.782,-0.219c0.268,0 0.505,0.059 0.711,0.176c0.207,0.117 0.368,0.275 0.483,0.476c0.115,0.201 0.172,0.428 0.172,0.681c0,0.452 -0.13,0.809 -0.39,1.071c-0.26,0.262 -0.618,0.392 -1.074,0.392c-0.581,0 -1.01,-0.173 -1.286,-0.518c-0.275,-0.346 -0.413,-0.883 -0.413,-1.61c-0,-0.731 0.149,-1.285 0.447,-1.663c0.298,-0.378 0.737,-0.567 1.317,-0.567c0.804,0 1.251,0.387 1.343,1.161Zm-2.098,1.31c0,0.413 0.057,0.711 0.17,0.892c0.113,0.181 0.285,0.272 0.515,0.272c0.149,-0 0.271,-0.059 0.364,-0.178c0.094,-0.119 0.14,-0.287 0.14,-0.504c0,-0.203 -0.052,-0.361 -0.157,-0.472c-0.104,-0.111 -0.249,-0.167 -0.434,-0.167c-0.176,0 -0.375,0.052 -0.598,0.157Z" style="fill:#fff;fill-rule:nonzero;"/></svg>