<?xml version="1.0" encoding="UTF-8" standalone="no"?><!DOCTYPE svg PUBLIC "-//W3C//DTD SVG 1.1//EN" "http://www.w3.org/Graphics/SVG/1.1/DTD/svg11.dtd"><svg width="100%" height="100%" viewBox="0 0 11 11" version="1.1" xmlns="http://www.w3.org/2000/svg" xmlns:xlink="http://www.w3.org/1999/xlink" xml:space="preserve" xmlns:serif="http://www.serif.com/" style="fill-rule:evenodd;clip-rule:evenodd;stroke-linejoin:round;stroke-miterlimit:2;"><rect id="d12_2" x="0.091" y="0.133" width="10.56" height="10.56" style="fill:none;"/><g><path d="M5.018,0.634c0.219,-0.126 0.488,-0.126 0.706,0c0.811,0.468 2.799,1.616 3.609,2.084c0.219,0.126 0.353,0.359 0.353,0.611l0,4.168c0,0.252 -0.134,0.485 -0.353,0.611c-0.81,0.468 -2.798,1.616 -3.609,2.084c-0.218,0.126 -0.487,0.126 -0.706,0c-0.81,-0.468 -2.799,-1.616 -3.609,-2.084c-0.219,-0.126 -0.353,-0.359 -0.353,-0.611l-0,-4.168c-0,-0.252 0.134,-0.485 0.353,-0.611c0.81,-0.468 2.799,-1.616 3.609,-2.084Z" style="fill:#87badf;"/><path d="M4.95,1.497c0.203,-0.148 0.478,-0.148 0.681,0c0.726,0.527 2.418,1.757 3.144,2.284c0.203,0.148 0.288,0.409 0.21,0.648c-0.277,0.853 -0.923,2.842 -1.2,3.696c-0.078,0.238 -0.301,0.4 -0.552,0.4l-3.885,0c-0.251,0 -0.474,-0.162 -0.552,-0.4c-0.277,-0.854 -0.923,-2.843 -1.2,-3.696c-0.078,-0.239 0.007,-0.5 0.21,-0.648c0.726,-0.527 2.418,-1.757 3.144,-2.284Z" style="fill:#5f95bd;"/></g><path d="M6.885,4.451c0,0.215 -0.048,0.402 -0.144,0.561c-0.096,0.159 -0.226,0.304 -0.388,0.434c-0.163,0.13 -0.4,0.288 -0.71,0.475c-0.505,0.31 -0.784,0.617 -0.838,0.92l1.276,-0l-0,-0.547l0.855,-0l-0.051,1.27l-3.079,0c0,-0.375 0.045,-0.685 0.135,-0.928c0.09,-0.243 0.231,-0.466 0.425,-0.669c0.193,-0.203 0.478,-0.443 0.854,-0.722c0.198,-0.146 0.349,-0.287 0.453,-0.423c0.103,-0.137 0.155,-0.277 0.155,-0.421c0,-0.142 -0.041,-0.25 -0.123,-0.323c-0.082,-0.072 -0.2,-0.109 -0.354,-0.109c-0.198,0 -0.345,0.069 -0.441,0.206c-0.097,0.138 -0.154,0.362 -0.173,0.672l-0.878,-0.034c0.012,-0.521 0.145,-0.91 0.402,-1.166c0.256,-0.257 0.639,-0.385 1.149,-0.385c0.458,0 0.819,0.106 1.081,0.316c0.263,0.21 0.394,0.501 0.394,0.873Z" style="fill:#fff;fill-rule:nonzero;"/></svg>