<?xml version="1.0" encoding="UTF-8" standalone="no"?><!DOCTYPE svg PUBLIC "-//W3C//DTD SVG 1.1//EN" "http://www.w3.org/Graphics/SVG/1.1/DTD/svg11.dtd"><svg width="100%" height="100%" viewBox="0 0 11 11" version="1.1" xmlns="http://www.w3.org/2000/svg" xmlns:xlink="http://www.w3.org/1999/xlink" xml:space="preserve" xmlns:serif="http://www.serif.com/" style="fill-rule:evenodd;clip-rule:evenodd;stroke-linejoin:round;stroke-miterlimit:2;"><rect id="d14_13" x="0.203" y="0.051" width="10.56" height="10.56" style="fill:none;"/><g><path d="M5.336,0.491c0.094,-0.04 0.2,-0.04 0.295,-0c0.567,0.235 2.603,1.078 3.17,1.313c0.095,0.039 0.17,0.114 0.209,0.209c0.235,0.567 1.078,2.603 1.313,3.17c0.039,0.095 0.039,0.201 0,0.295c-0.235,0.568 -1.078,2.603 -1.313,3.171c-0.039,0.094 -0.114,0.169 -0.209,0.209c-0.567,0.234 -2.603,1.078 -3.17,1.313c-0.095,0.039 -0.201,0.039 -0.295,-0c-0.568,-0.235 -2.603,-1.079 -3.171,-1.313c-0.094,-0.04 -0.169,-0.115 -0.209,-0.209c-0.235,-0.568 -1.078,-2.603 -1.313,-3.171c-0.039,-0.094 -0.039,-0.2 0,-0.295c0.235,-0.567 1.078,-2.603 1.313,-3.17c0.04,-0.095 0.115,-0.17 0.209,-0.209c0.568,-0.235 2.603,-1.078 3.171,-1.313Z" style="fill:#00aeff;"/><path d="M6.909,8.614c-0.32,0.488 -0.886,0.785 -1.494,0.785c-0.609,-0 -1.174,-0.297 -1.494,-0.785c-0.556,-0.848 -1.19,-1.814 -1.76,-2.683c-0.336,-0.511 -0.351,-1.154 -0.041,-1.679c0.31,-0.525 0.897,-0.85 1.535,-0.85l3.52,-0c0.637,-0 1.225,0.325 1.535,0.85c0.31,0.525 0.294,1.168 -0.041,1.679c-0.57,0.869 -1.204,1.835 -1.76,2.683Z" style="fill:#295569;fill-opacity:0.22;"/></g><g><path d="M4.762,6.73l0,0.724l-2.153,-0l-0,-0.724l0.58,0l0,-2.779l-0.62,-0l0,-0.724l1.649,0l0,3.503l0.544,0Z" style="fill:#fff;fill-rule:nonzero;"/><path d="M8.237,4.285c0,0.424 -0.212,0.735 -0.636,0.933c0.531,0.182 0.796,0.517 0.796,1.007c0,0.253 -0.067,0.477 -0.203,0.672c-0.136,0.195 -0.324,0.346 -0.565,0.453c-0.241,0.106 -0.513,0.16 -0.816,0.16c-1.012,-0 -1.554,-0.461 -1.627,-1.383l0.92,-0.076c0.004,0.494 0.207,0.741 0.609,0.741c0.185,-0 0.335,-0.058 0.451,-0.174c0.116,-0.116 0.174,-0.259 0.174,-0.429c0,-0.176 -0.061,-0.319 -0.184,-0.428c-0.122,-0.109 -0.296,-0.164 -0.52,-0.164c-0.035,0 -0.114,0.005 -0.235,0.014l-0,-0.771c0.259,-0.004 0.462,-0.05 0.608,-0.138c0.146,-0.087 0.219,-0.214 0.219,-0.378c-0,-0.131 -0.049,-0.238 -0.147,-0.32c-0.099,-0.082 -0.222,-0.123 -0.372,-0.123c-0.337,-0 -0.505,0.188 -0.505,0.563l-0.889,-0.075c0.03,-0.384 0.174,-0.682 0.432,-0.896c0.258,-0.214 0.598,-0.321 1.021,-0.321c0.447,-0 0.803,0.101 1.07,0.304c0.266,0.203 0.399,0.479 0.399,0.829Z" style="fill:#fff;fill-rule:nonzero;"/></g></svg>