<?xml version="1.0" encoding="UTF-8" standalone="no"?><!DOCTYPE svg PUBLIC "-//W3C//DTD SVG 1.1//EN" "http://www.w3.org/Graphics/SVG/1.1/DTD/svg11.dtd"><svg width="100%" height="100%" viewBox="0 0 11 11" version="1.1" xmlns="http://www.w3.org/2000/svg" xmlns:xlink="http://www.w3.org/1999/xlink" xml:space="preserve" xmlns:serif="http://www.serif.com/" style="fill-rule:evenodd;clip-rule:evenodd;stroke-linejoin:round;stroke-miterlimit:2;"><rect id="d14_1" x="0.184" y="0.051" width="10.56" height="10.56" style="fill:none;"/><g><path d="M5.316,0.491c0.095,-0.04 0.201,-0.04 0.296,-0c0.567,0.235 2.603,1.078 3.17,1.313c0.094,0.039 0.17,0.114 0.209,0.209c0.235,0.567 1.078,2.603 1.313,3.17c0.039,0.095 0.039,0.201 -0,0.295c-0.235,0.568 -1.078,2.603 -1.313,3.171c-0.039,0.094 -0.115,0.169 -0.209,0.209c-0.567,0.234 -2.603,1.078 -3.17,1.313c-0.095,0.039 -0.201,0.039 -0.296,-0c-0.567,-0.235 -2.603,-1.079 -3.17,-1.313c-0.095,-0.04 -0.17,-0.115 -0.209,-0.209c-0.235,-0.568 -1.078,-2.603 -1.313,-3.171c-0.039,-0.094 -0.039,-0.2 -0,-0.295c0.235,-0.567 1.078,-2.603 1.313,-3.17c0.039,-0.095 0.114,-0.17 0.209,-0.209c0.567,-0.235 2.603,-1.078 3.17,-1.313Z" style="fill:#00aeff;"/><path d="M6.889,8.614c-0.32,0.488 -0.885,0.785 -1.494,0.785c-0.608,-0 -1.173,-0.297 -1.493,-0.785c-0.556,-0.848 -1.191,-1.814 -1.761,-2.683c-0.335,-0.511 -0.351,-1.154 -0.04,-1.679c0.31,-0.525 0.897,-0.85 1.534,-0.85l3.521,-0c0.637,-0 1.224,0.325 1.534,0.85c0.311,0.525 0.295,1.168 -0.04,1.679c-0.57,0.869 -1.205,1.835 -1.761,2.683Z" style="fill:#295569;fill-opacity:0.22;"/></g><path d="M6.56,6.72l0,0.724l-2.153,-0l-0,-0.724l0.58,0l0,-2.779l-0.62,0l0,-0.723l1.649,-0l0,3.502l0.544,0Z" style="fill:#fff;fill-rule:nonzero;"/></svg>