<?xml version="1.0" encoding="UTF-8" standalone="no"?><!DOCTYPE svg PUBLIC "-//W3C//DTD SVG 1.1//EN" "http://www.w3.org/Graphics/SVG/1.1/DTD/svg11.dtd"><svg width="100%" height="100%" viewBox="0 0 11 11" version="1.1" xmlns="http://www.w3.org/2000/svg" xmlns:xlink="http://www.w3.org/1999/xlink" xml:space="preserve" xmlns:serif="http://www.serif.com/" style="fill-rule:evenodd;clip-rule:evenodd;stroke-linejoin:round;stroke-miterlimit:2;"><rect id="d14_8" x="0.14" y="0.051" width="10.56" height="10.56" style="fill:none;"/><g><path d="M5.272,0.491c0.095,-0.04 0.201,-0.04 0.296,-0c0.567,0.235 2.603,1.078 3.17,1.313c0.094,0.039 0.17,0.114 0.209,0.209c0.235,0.567 1.078,2.603 1.313,3.17c0.039,0.095 0.039,0.201 -0,0.295c-0.235,0.568 -1.078,2.603 -1.313,3.171c-0.039,0.094 -0.115,0.169 -0.209,0.209c-0.567,0.234 -2.603,1.078 -3.17,1.313c-0.095,0.039 -0.201,0.039 -0.296,-0c-0.567,-0.235 -2.603,-1.079 -3.17,-1.313c-0.095,-0.04 -0.17,-0.115 -0.209,-0.209c-0.235,-0.568 -1.078,-2.603 -1.313,-3.171c-0.039,-0.094 -0.039,-0.2 -0,-0.295c0.235,-0.567 1.078,-2.603 1.313,-3.17c0.039,-0.095 0.114,-0.17 0.209,-0.209c0.567,-0.235 2.603,-1.078 3.17,-1.313Z" style="fill:#676767;"/><path d="M6.845,8.614c-0.32,0.488 -0.885,0.785 -1.494,0.785c-0.608,-0 -1.173,-0.297 -1.494,-0.785c-0.556,-0.848 -1.19,-1.814 -1.76,-2.683c-0.335,-0.511 -0.351,-1.154 -0.041,-1.679c0.311,-0.525 0.898,-0.85 1.535,-0.85l3.521,-0c0.637,-0 1.224,0.325 1.534,0.85c0.311,0.525 0.295,1.168 -0.04,1.679c-0.57,0.869 -1.205,1.835 -1.761,2.683Z" style="fill:#fff;fill-opacity:0.22;"/></g><path d="M6.884,4.259c-0,0.406 -0.207,0.729 -0.62,0.971c0.497,0.2 0.746,0.547 0.746,1.04c-0,0.395 -0.144,0.7 -0.433,0.916c-0.289,0.216 -0.679,0.324 -1.168,0.324c-0.314,-0 -0.591,-0.051 -0.831,-0.152c-0.239,-0.101 -0.423,-0.246 -0.553,-0.436c-0.13,-0.19 -0.195,-0.413 -0.195,-0.669c-0,-0.467 0.252,-0.808 0.757,-1.023c-0.421,-0.234 -0.631,-0.552 -0.631,-0.954c-0,-0.224 0.064,-0.422 0.192,-0.593c0.128,-0.171 0.303,-0.302 0.524,-0.394c0.222,-0.092 0.469,-0.137 0.742,-0.137c0.279,-0 0.53,0.044 0.755,0.134c0.224,0.09 0.399,0.218 0.525,0.384c0.127,0.167 0.19,0.363 0.19,0.589Zm-1.47,0.657c0.154,-0 0.276,-0.049 0.368,-0.145c0.091,-0.096 0.137,-0.227 0.137,-0.391c0,-0.161 -0.044,-0.288 -0.132,-0.381c-0.088,-0.094 -0.214,-0.141 -0.378,-0.141c-0.146,0 -0.264,0.044 -0.354,0.132c-0.089,0.088 -0.134,0.222 -0.134,0.401c-0,0.153 0.045,0.279 0.137,0.377c0.092,0.099 0.21,0.148 0.356,0.148Zm0.011,1.89c0.172,-0 0.313,-0.06 0.422,-0.178c0.11,-0.119 0.165,-0.267 0.165,-0.445c-0,-0.176 -0.056,-0.325 -0.167,-0.447c-0.112,-0.123 -0.253,-0.184 -0.425,-0.184c-0.165,0 -0.302,0.061 -0.411,0.184c-0.109,0.122 -0.164,0.271 -0.164,0.447c-0,0.178 0.055,0.326 0.164,0.445c0.109,0.118 0.248,0.178 0.416,0.178Z" style="fill:#fff;fill-rule:nonzero;"/></svg>