<?xml version="1.0" encoding="UTF-8" standalone="no"?><!DOCTYPE svg PUBLIC "-//W3C//DTD SVG 1.1//EN" "http://www.w3.org/Graphics/SVG/1.1/DTD/svg11.dtd"><svg width="100%" height="100%" viewBox="0 0 11 11" version="1.1" xmlns="http://www.w3.org/2000/svg" xmlns:xlink="http://www.w3.org/1999/xlink" xml:space="preserve" xmlns:serif="http://www.serif.com/" style="fill-rule:evenodd;clip-rule:evenodd;stroke-linejoin:round;stroke-miterlimit:2;"><rect id="d14_6" x="0.007" y="0.051" width="10.56" height="10.56" style="fill:none;"/><g><path d="M5.14,0.491c0.094,-0.04 0.2,-0.04 0.295,-0c0.567,0.235 2.603,1.078 3.17,1.313c0.095,0.039 0.17,0.114 0.209,0.209c0.235,0.567 1.078,2.603 1.313,3.17c0.04,0.095 0.04,0.201 0,0.295c-0.235,0.568 -1.078,2.603 -1.313,3.171c-0.039,0.094 -0.114,0.169 -0.209,0.209c-0.567,0.234 -2.603,1.078 -3.17,1.313c-0.095,0.039 -0.201,0.039 -0.295,-0c-0.568,-0.235 -2.603,-1.079 -3.171,-1.313c-0.094,-0.04 -0.169,-0.115 -0.209,-0.209c-0.235,-0.568 -1.078,-2.603 -1.313,-3.171c-0.039,-0.094 -0.039,-0.2 0,-0.295c0.235,-0.567 1.078,-2.603 1.313,-3.17c0.04,-0.095 0.115,-0.17 0.209,-0.209c0.568,-0.235 2.603,-1.078 3.171,-1.313Z" style="fill:#00aeff;"/><path d="M6.713,8.614c-0.32,0.488 -0.886,0.785 -1.494,0.785c-0.609,-0 -1.174,-0.297 -1.494,-0.785c-0.556,-0.848 -1.19,-1.814 -1.76,-2.683c-0.336,-0.511 -0.351,-1.154 -0.041,-1.679c0.31,-0.525 0.897,-0.85 1.535,-0.85l3.52,-0c0.637,-0 1.225,0.325 1.535,0.85c0.31,0.525 0.294,1.168 -0.041,1.679c-0.57,0.869 -1.204,1.835 -1.76,2.683Z" style="fill:#295569;fill-opacity:0.22;"/></g><path d="M6.813,4.313l-0.833,0.073c-0.095,-0.352 -0.279,-0.528 -0.552,-0.528c-0.202,0 -0.365,0.093 -0.487,0.279c-0.122,0.186 -0.196,0.451 -0.22,0.795c0.226,-0.145 0.487,-0.218 0.782,-0.218c0.268,-0 0.505,0.058 0.711,0.175c0.207,0.117 0.368,0.276 0.483,0.477c0.115,0.201 0.172,0.427 0.172,0.68c0,0.452 -0.13,0.809 -0.39,1.071c-0.26,0.262 -0.618,0.393 -1.074,0.393c-0.581,-0 -1.01,-0.173 -1.286,-0.519c-0.275,-0.346 -0.413,-0.883 -0.413,-1.61c-0,-0.731 0.149,-1.285 0.447,-1.663c0.298,-0.378 0.737,-0.566 1.317,-0.566c0.804,-0 1.251,0.387 1.343,1.161Zm-2.098,1.309c0,0.413 0.057,0.711 0.17,0.892c0.113,0.181 0.285,0.272 0.514,0.272c0.15,0 0.272,-0.059 0.365,-0.178c0.094,-0.119 0.14,-0.286 0.14,-0.503c0,-0.204 -0.052,-0.362 -0.157,-0.473c-0.104,-0.111 -0.249,-0.167 -0.434,-0.167c-0.176,0 -0.375,0.053 -0.598,0.157Z" style="fill:#fff;fill-rule:nonzero;"/></svg>