<?xml version="1.0" encoding="UTF-8" standalone="no"?><!DOCTYPE svg PUBLIC "-//W3C//DTD SVG 1.1//EN" "http://www.w3.org/Graphics/SVG/1.1/DTD/svg11.dtd"><svg width="100%" height="100%" viewBox="0 0 11 11" version="1.1" xmlns="http://www.w3.org/2000/svg" xmlns:xlink="http://www.w3.org/1999/xlink" xml:space="preserve" xmlns:serif="http://www.serif.com/" style="fill-rule:evenodd;clip-rule:evenodd;stroke-linejoin:round;stroke-miterlimit:2;"><rect id="d14_2" x="0.218" y="0.051" width="10.56" height="10.56" style="fill:none;"/><g><path d="M5.351,0.491c0.094,-0.04 0.2,-0.04 0.295,-0c0.567,0.235 2.603,1.078 3.17,1.313c0.095,0.039 0.17,0.114 0.209,0.209c0.235,0.567 1.078,2.603 1.313,3.17c0.039,0.095 0.039,0.201 0,0.295c-0.235,0.568 -1.078,2.603 -1.313,3.171c-0.039,0.094 -0.114,0.169 -0.209,0.209c-0.567,0.234 -2.603,1.078 -3.17,1.313c-0.095,0.039 -0.201,0.039 -0.295,-0c-0.568,-0.235 -2.603,-1.079 -3.171,-1.313c-0.094,-0.04 -0.169,-0.115 -0.209,-0.209c-0.235,-0.568 -1.078,-2.603 -1.313,-3.171c-0.039,-0.094 -0.039,-0.2 0,-0.295c0.235,-0.567 1.078,-2.603 1.313,-3.17c0.04,-0.095 0.115,-0.17 0.209,-0.209c0.568,-0.235 2.603,-1.078 3.171,-1.313Z" style="fill:#00aeff;"/><path d="M6.924,8.614c-0.32,0.488 -0.886,0.785 -1.494,0.785c-0.609,-0 -1.174,-0.297 -1.494,-0.785c-0.556,-0.848 -1.19,-1.814 -1.76,-2.683c-0.336,-0.511 -0.351,-1.154 -0.041,-1.679c0.31,-0.525 0.897,-0.85 1.535,-0.85l3.52,-0c0.637,-0 1.225,0.325 1.535,0.85c0.31,0.525 0.294,1.168 -0.041,1.679c-0.57,0.869 -1.204,1.835 -1.76,2.683Z" style="fill:#295569;fill-opacity:0.22;"/></g><path d="M7.013,4.369c-0,0.215 -0.048,0.402 -0.145,0.561c-0.096,0.159 -0.226,0.303 -0.388,0.433c-0.163,0.13 -0.399,0.288 -0.71,0.475c-0.505,0.311 -0.784,0.617 -0.838,0.92l1.276,0l-0,-0.547l0.855,0l-0.05,1.271l-3.08,-0c0,-0.376 0.045,-0.686 0.135,-0.929c0.09,-0.243 0.231,-0.466 0.425,-0.668c0.193,-0.203 0.478,-0.444 0.854,-0.723c0.198,-0.145 0.349,-0.287 0.453,-0.423c0.103,-0.137 0.155,-0.277 0.155,-0.421c0,-0.142 -0.041,-0.249 -0.123,-0.322c-0.082,-0.073 -0.2,-0.11 -0.353,-0.11c-0.199,0 -0.346,0.069 -0.442,0.206c-0.096,0.138 -0.154,0.362 -0.173,0.672l-0.877,-0.034c0.011,-0.521 0.145,-0.91 0.401,-1.166c0.256,-0.256 0.639,-0.384 1.15,-0.384c0.458,-0 0.818,0.105 1.081,0.315c0.262,0.21 0.394,0.502 0.394,0.874Z" style="fill:#fff;fill-rule:nonzero;"/></svg>