<?xml version="1.0" encoding="UTF-8" standalone="no"?><!DOCTYPE svg PUBLIC "-//W3C//DTD SVG 1.1//EN" "http://www.w3.org/Graphics/SVG/1.1/DTD/svg11.dtd"><svg width="100%" height="100%" viewBox="0 0 11 11" version="1.1" xmlns="http://www.w3.org/2000/svg" xmlns:xlink="http://www.w3.org/1999/xlink" xml:space="preserve" xmlns:serif="http://www.serif.com/" style="fill-rule:evenodd;clip-rule:evenodd;stroke-linejoin:round;stroke-miterlimit:2;"><rect id="d14_11" x="0.118" y="0.051" width="10.56" height="10.56" style="fill:none;"/><g><path d="M5.251,0.491c0.094,-0.04 0.2,-0.04 0.295,-0c0.567,0.235 2.603,1.078 3.17,1.313c0.095,0.039 0.17,0.114 0.209,0.209c0.235,0.567 1.078,2.603 1.313,3.17c0.039,0.095 0.039,0.201 0,0.295c-0.235,0.568 -1.078,2.603 -1.313,3.171c-0.039,0.094 -0.114,0.169 -0.209,0.209c-0.567,0.234 -2.603,1.078 -3.17,1.313c-0.095,0.039 -0.201,0.039 -0.295,-0c-0.568,-0.235 -2.603,-1.079 -3.171,-1.313c-0.094,-0.04 -0.169,-0.115 -0.209,-0.209c-0.235,-0.568 -1.078,-2.603 -1.313,-3.171c-0.039,-0.094 -0.039,-0.2 0,-0.295c0.235,-0.567 1.078,-2.603 1.313,-3.17c0.04,-0.095 0.115,-0.17 0.209,-0.209c0.568,-0.235 2.603,-1.078 3.171,-1.313Z" style="fill:#676767;"/><path d="M6.824,8.614c-0.32,0.488 -0.886,0.785 -1.494,0.785c-0.609,-0 -1.174,-0.297 -1.494,-0.785c-0.556,-0.848 -1.19,-1.814 -1.76,-2.683c-0.336,-0.511 -0.351,-1.154 -0.041,-1.679c0.31,-0.525 0.897,-0.85 1.535,-0.85l3.52,-0c0.637,-0 1.225,0.325 1.535,0.85c0.31,0.525 0.294,1.168 -0.041,1.679c-0.57,0.869 -1.204,1.835 -1.76,2.683Z" style="fill:#fff;fill-opacity:0.22;"/></g><g><path d="M5.059,6.72l0,0.724l-2.154,-0l0,-0.724l0.581,0l-0,-2.779l-0.62,0l0,-0.723l1.649,-0l0,3.502l0.544,0Z" style="fill:#fff;fill-rule:nonzero;"/><path d="M7.93,6.72l0,0.724l-2.153,-0l-0,-0.724l0.58,0l0,-2.779l-0.62,0l0,-0.723l1.649,-0l0,3.502l0.544,0Z" style="fill:#fff;fill-rule:nonzero;"/></g></svg>