<?xml version="1.0" encoding="UTF-8" standalone="no"?><!DOCTYPE svg PUBLIC "-//W3C//DTD SVG 1.1//EN" "http://www.w3.org/Graphics/SVG/1.1/DTD/svg11.dtd"><svg width="100%" height="100%" viewBox="0 0 11 11" version="1.1" xmlns="http://www.w3.org/2000/svg" xmlns:xlink="http://www.w3.org/1999/xlink" xml:space="preserve" xmlns:serif="http://www.serif.com/" style="fill-rule:evenodd;clip-rule:evenodd;stroke-linejoin:round;stroke-miterlimit:2;"><rect id="d14_10" x="0.001" y="0.051" width="10.56" height="10.56" style="fill:none;"/><g><path d="M5.133,0.491c0.095,-0.04 0.201,-0.04 0.295,-0c0.568,0.235 2.603,1.078 3.171,1.313c0.094,0.039 0.169,0.114 0.209,0.209c0.235,0.567 1.078,2.603 1.313,3.17c0.039,0.095 0.039,0.201 -0,0.295c-0.235,0.568 -1.078,2.603 -1.313,3.171c-0.04,0.094 -0.115,0.169 -0.209,0.209c-0.568,0.234 -2.603,1.078 -3.171,1.313c-0.094,0.039 -0.2,0.039 -0.295,-0c-0.567,-0.235 -2.603,-1.079 -3.17,-1.313c-0.095,-0.04 -0.17,-0.115 -0.209,-0.209c-0.235,-0.568 -1.078,-2.603 -1.313,-3.171c-0.039,-0.094 -0.039,-0.2 -0,-0.295c0.235,-0.567 1.078,-2.603 1.313,-3.17c0.039,-0.095 0.114,-0.17 0.209,-0.209c0.567,-0.235 2.603,-1.078 3.17,-1.313Z" style="fill:#676767;"/><path d="M6.706,8.614c-0.32,0.488 -0.885,0.785 -1.494,0.785c-0.608,-0 -1.173,-0.297 -1.494,-0.785c-0.556,-0.848 -1.19,-1.814 -1.76,-2.683c-0.335,-0.511 -0.351,-1.154 -0.041,-1.679c0.311,-0.525 0.898,-0.85 1.535,-0.85l3.52,-0c0.638,-0 1.225,0.325 1.535,0.85c0.311,0.525 0.295,1.168 -0.041,1.679c-0.57,0.869 -1.204,1.835 -1.76,2.683Z" style="fill:#fff;fill-opacity:0.22;"/></g><g><path d="M4.56,6.73l-0,0.724l-2.154,-0l-0,-0.724l0.581,0l-0,-2.779l-0.62,-0l-0,-0.724l1.649,0l-0,3.503l0.544,0Z" style="fill:#fff;fill-rule:nonzero;"/><path d="M8.195,5.328c-0,0.712 -0.136,1.254 -0.407,1.625c-0.271,0.371 -0.662,0.557 -1.172,0.557c-0.512,-0 -0.904,-0.186 -1.174,-0.557c-0.27,-0.371 -0.405,-0.913 -0.405,-1.625c-0,-0.696 0.134,-1.232 0.402,-1.61c0.269,-0.378 0.661,-0.566 1.177,-0.566c0.522,-0 0.915,0.184 1.181,0.553c0.265,0.37 0.398,0.911 0.398,1.623Zm-2.095,-0c-0,0.49 0.042,0.852 0.126,1.088c0.084,0.236 0.216,0.353 0.395,0.353c0.18,0 0.311,-0.117 0.393,-0.353c0.082,-0.236 0.124,-0.598 0.124,-1.088c-0,-0.965 -0.172,-1.447 -0.517,-1.447c-0.179,-0 -0.311,0.12 -0.395,0.362c-0.084,0.241 -0.126,0.602 -0.126,1.085Z" style="fill:#fff;fill-rule:nonzero;"/></g></svg>