<?xml version="1.0" encoding="UTF-8" standalone="no"?><!DOCTYPE svg PUBLIC "-//W3C//DTD SVG 1.1//EN" "http://www.w3.org/Graphics/SVG/1.1/DTD/svg11.dtd"><svg width="100%" height="100%" viewBox="0 0 11 11" version="1.1" xmlns="http://www.w3.org/2000/svg" xmlns:xlink="http://www.w3.org/1999/xlink" xml:space="preserve" xmlns:serif="http://www.serif.com/" style="fill-rule:evenodd;clip-rule:evenodd;stroke-linejoin:round;stroke-miterlimit:2;"><rect id="d14_5" x="0.001" y="0.051" width="10.56" height="10.56" style="fill:none;"/><g><path d="M5.133,0.491c0.095,-0.04 0.201,-0.04 0.296,-0c0.567,0.235 2.603,1.078 3.17,1.313c0.095,0.039 0.17,0.114 0.209,0.209c0.235,0.567 1.078,2.603 1.313,3.17c0.039,0.095 0.039,0.201 0,0.295c-0.235,0.568 -1.078,2.603 -1.313,3.171c-0.039,0.094 -0.114,0.169 -0.209,0.209c-0.567,0.234 -2.603,1.078 -3.17,1.313c-0.095,0.039 -0.201,0.039 -0.296,-0c-0.567,-0.235 -2.603,-1.079 -3.17,-1.313c-0.095,-0.04 -0.17,-0.115 -0.209,-0.209c-0.235,-0.568 -1.078,-2.603 -1.313,-3.171c-0.039,-0.094 -0.039,-0.2 0,-0.295c0.235,-0.567 1.078,-2.603 1.313,-3.17c0.039,-0.095 0.114,-0.17 0.209,-0.209c0.567,-0.235 2.603,-1.078 3.17,-1.313Z" style="fill:#00aeff;"/><path d="M6.707,8.614c-0.321,0.488 -0.886,0.785 -1.494,0.785c-0.609,-0 -1.174,-0.297 -1.494,-0.785c-0.556,-0.848 -1.19,-1.814 -1.76,-2.683c-0.336,-0.511 -0.351,-1.154 -0.041,-1.679c0.31,-0.525 0.897,-0.85 1.535,-0.85l3.52,-0c0.637,-0 1.224,0.325 1.535,0.85c0.31,0.525 0.294,1.168 -0.041,1.679c-0.57,0.869 -1.204,1.835 -1.76,2.683Z" style="fill:#295569;fill-opacity:0.22;"/></g><path d="M5.964,4.221l-0.076,-0.308l-1.155,-0l-0.084,0.895c0.233,-0.122 0.48,-0.183 0.74,-0.183c0.299,0 0.562,0.061 0.789,0.181c0.228,0.121 0.403,0.288 0.528,0.502c0.124,0.214 0.186,0.448 0.186,0.7c0,0.292 -0.067,0.55 -0.2,0.774c-0.134,0.224 -0.324,0.395 -0.571,0.513c-0.247,0.118 -0.535,0.177 -0.864,0.177c-0.445,-0 -0.807,-0.108 -1.086,-0.324c-0.28,-0.216 -0.447,-0.518 -0.501,-0.905l0.903,-0.109c0.065,0.41 0.272,0.614 0.62,0.614c0.207,0 0.365,-0.058 0.474,-0.174c0.108,-0.116 0.162,-0.281 0.162,-0.496c0,-0.475 -0.204,-0.712 -0.614,-0.712c-0.241,-0 -0.444,0.113 -0.608,0.339l-0.746,-0.367l0.148,-2.149l2.673,0l-0,1.032l-0.718,0Z" style="fill:#fff;fill-rule:nonzero;"/></svg>