<?xml version="1.0" encoding="UTF-8" standalone="no"?><!DOCTYPE svg PUBLIC "-//W3C//DTD SVG 1.1//EN" "http://www.w3.org/Graphics/SVG/1.1/DTD/svg11.dtd"><svg width="100%" height="100%" viewBox="0 0 11 11" version="1.1" xmlns="http://www.w3.org/2000/svg" xmlns:xlink="http://www.w3.org/1999/xlink" xml:space="preserve" xmlns:serif="http://www.serif.com/" style="fill-rule:evenodd;clip-rule:evenodd;stroke-linejoin:round;stroke-miterlimit:2;"><rect id="d16_13" x="0.128" y="0.223" width="10.56" height="10.56" style="fill:none;"/><g><path d="M5.205,1.032c0.132,-0.043 0.274,-0.043 0.406,0c0.496,0.161 1.765,0.573 2.261,0.735c0.132,0.042 0.247,0.126 0.328,0.238c0.307,0.422 1.091,1.502 1.397,1.923c0.082,0.113 0.126,0.248 0.126,0.386l-0,2.378c-0,0.138 -0.044,0.273 -0.126,0.386c-0.306,0.421 -1.09,1.501 -1.397,1.923c-0.081,0.112 -0.196,0.195 -0.328,0.238c-0.496,0.161 -1.765,0.574 -2.261,0.735c-0.132,0.043 -0.274,0.043 -0.406,-0c-0.496,-0.161 -1.765,-0.574 -2.261,-0.735c-0.132,-0.043 -0.247,-0.126 -0.328,-0.238c-0.307,-0.422 -1.091,-1.502 -1.397,-1.923c-0.082,-0.113 -0.126,-0.248 -0.126,-0.386l0,-2.378c0,-0.138 0.044,-0.273 0.126,-0.386c0.306,-0.421 1.09,-1.501 1.397,-1.923c0.081,-0.112 0.196,-0.196 0.328,-0.238c0.496,-0.162 1.765,-0.574 2.261,-0.735Z" style="fill:#656fac;"/><path d="M5.163,1.772c0.149,-0.086 0.332,-0.086 0.48,0c0.46,0.265 1.458,0.841 1.917,1.107c0.149,0.085 0.24,0.244 0.24,0.415l0,2.214c0,0.171 -0.091,0.33 -0.24,0.415c-0.459,0.265 -1.457,0.842 -1.917,1.107c-0.148,0.086 -0.331,0.086 -0.48,-0c-0.459,-0.265 -1.457,-0.842 -1.916,-1.107c-0.149,-0.085 -0.24,-0.244 -0.24,-0.415l-0,-2.214c-0,-0.171 0.091,-0.33 0.24,-0.415c0.459,-0.266 1.457,-0.842 1.916,-1.107Z" style="fill:#4150a6;"/></g><g><path d="M4.765,6.902l-0,0.724l-2.154,-0l-0,-0.724l0.58,0l0,-2.779l-0.62,0l0,-0.723l1.649,-0l0,3.502l0.545,0Z" style="fill:#fff;fill-rule:nonzero;"/><path d="M8.085,4.457c-0,0.424 -0.213,0.736 -0.637,0.934c0.531,0.181 0.796,0.517 0.796,1.007c0,0.252 -0.067,0.476 -0.203,0.671c-0.135,0.196 -0.324,0.347 -0.565,0.453c-0.241,0.107 -0.513,0.16 -0.816,0.16c-1.012,0 -1.554,-0.461 -1.627,-1.383l0.92,-0.075c0.004,0.493 0.207,0.74 0.609,0.74c0.185,0 0.335,-0.058 0.451,-0.174c0.116,-0.116 0.174,-0.259 0.174,-0.429c0,-0.176 -0.061,-0.318 -0.184,-0.428c-0.122,-0.109 -0.295,-0.164 -0.52,-0.164c-0.035,0 -0.114,0.005 -0.235,0.014l-0,-0.771c0.26,-0.004 0.462,-0.049 0.608,-0.137c0.146,-0.088 0.219,-0.214 0.219,-0.379c-0,-0.131 -0.049,-0.237 -0.147,-0.32c-0.098,-0.082 -0.222,-0.123 -0.372,-0.123c-0.336,0 -0.505,0.188 -0.505,0.564l-0.889,-0.076c0.03,-0.383 0.174,-0.682 0.432,-0.896c0.258,-0.214 0.599,-0.321 1.021,-0.321c0.447,-0 0.804,0.101 1.07,0.304c0.266,0.203 0.4,0.479 0.4,0.829Z" style="fill:#fff;fill-rule:nonzero;"/></g></svg>