<?xml version="1.0" encoding="UTF-8" standalone="no"?><!DOCTYPE svg PUBLIC "-//W3C//DTD SVG 1.1//EN" "http://www.w3.org/Graphics/SVG/1.1/DTD/svg11.dtd"><svg width="100%" height="100%" viewBox="0 0 11 11" version="1.1" xmlns="http://www.w3.org/2000/svg" xmlns:xlink="http://www.w3.org/1999/xlink" xml:space="preserve" xmlns:serif="http://www.serif.com/" style="fill-rule:evenodd;clip-rule:evenodd;stroke-linejoin:round;stroke-miterlimit:2;"><rect id="d16_2" x="0.11" y="0.223" width="10.56" height="10.56" style="fill:none;"/><g><path d="M5.187,1.032c0.132,-0.043 0.274,-0.043 0.406,0c0.496,0.161 1.765,0.573 2.261,0.735c0.131,0.042 0.246,0.126 0.328,0.238c0.306,0.422 1.091,1.502 1.397,1.923c0.082,0.113 0.126,0.248 0.126,0.386l-0,2.378c-0,0.138 -0.044,0.273 -0.126,0.386c-0.306,0.421 -1.091,1.501 -1.397,1.923c-0.082,0.112 -0.197,0.195 -0.328,0.238c-0.496,0.161 -1.765,0.574 -2.261,0.735c-0.132,0.043 -0.274,0.043 -0.406,-0c-0.496,-0.161 -1.765,-0.574 -2.261,-0.735c-0.132,-0.043 -0.247,-0.126 -0.328,-0.238c-0.307,-0.422 -1.091,-1.502 -1.398,-1.923c-0.081,-0.113 -0.125,-0.248 -0.125,-0.386l-0,-2.378c-0,-0.138 0.044,-0.273 0.125,-0.386c0.307,-0.421 1.091,-1.501 1.398,-1.923c0.081,-0.112 0.196,-0.196 0.328,-0.238c0.496,-0.162 1.765,-0.574 2.261,-0.735Z" style="fill:#676767;"/><path d="M5.145,1.772c0.149,-0.086 0.332,-0.086 0.48,0c0.459,0.265 1.458,0.841 1.917,1.107c0.148,0.085 0.24,0.244 0.24,0.415l-0,2.214c-0,0.171 -0.092,0.33 -0.24,0.415c-0.459,0.265 -1.458,0.842 -1.917,1.107c-0.148,0.086 -0.331,0.086 -0.48,-0c-0.459,-0.265 -1.457,-0.842 -1.917,-1.107c-0.148,-0.085 -0.24,-0.244 -0.24,-0.415l0,-2.214c0,-0.171 0.092,-0.33 0.24,-0.415c0.46,-0.266 1.458,-0.842 1.917,-1.107Z" style="fill:#888;"/></g><path d="M6.904,4.541c0,0.215 -0.048,0.402 -0.144,0.561c-0.097,0.159 -0.226,0.303 -0.389,0.433c-0.162,0.13 -0.399,0.289 -0.709,0.476c-0.505,0.31 -0.784,0.617 -0.839,0.919l1.276,0l0,-0.546l0.856,-0l-0.051,1.27l-3.079,-0c-0,-0.376 0.045,-0.685 0.135,-0.928c0.089,-0.243 0.231,-0.466 0.424,-0.669c0.194,-0.203 0.479,-0.444 0.854,-0.722c0.199,-0.146 0.35,-0.287 0.453,-0.424c0.104,-0.136 0.156,-0.276 0.156,-0.42c-0,-0.143 -0.041,-0.25 -0.123,-0.323c-0.083,-0.073 -0.201,-0.109 -0.354,-0.109c-0.198,-0 -0.345,0.068 -0.442,0.206c-0.096,0.137 -0.153,0.361 -0.172,0.671l-0.878,-0.033c0.011,-0.522 0.145,-0.911 0.401,-1.167c0.256,-0.256 0.64,-0.384 1.15,-0.384c0.458,-0 0.819,0.105 1.081,0.315c0.263,0.211 0.394,0.502 0.394,0.874Z" style="fill:#fff;fill-rule:nonzero;"/></svg>