<?xml version="1.0" encoding="UTF-8" standalone="no"?><!DOCTYPE svg PUBLIC "-//W3C//DTD SVG 1.1//EN" "http://www.w3.org/Graphics/SVG/1.1/DTD/svg11.dtd"><svg width="100%" height="100%" viewBox="0 0 11 11" version="1.1" xmlns="http://www.w3.org/2000/svg" xmlns:xlink="http://www.w3.org/1999/xlink" xml:space="preserve" xmlns:serif="http://www.serif.com/" style="fill-rule:evenodd;clip-rule:evenodd;stroke-linejoin:round;stroke-miterlimit:2;"><rect id="d16_14" x="0.204" y="0.223" width="10.56" height="10.56" style="fill:none;"/><g><path d="M5.281,1.032c0.132,-0.043 0.274,-0.043 0.406,0c0.496,0.161 1.765,0.573 2.261,0.735c0.132,0.042 0.247,0.126 0.328,0.238c0.307,0.422 1.091,1.502 1.398,1.923c0.081,0.113 0.125,0.248 0.125,0.386l0,2.378c0,0.138 -0.044,0.273 -0.125,0.386c-0.307,0.421 -1.091,1.501 -1.398,1.923c-0.081,0.112 -0.196,0.195 -0.328,0.238c-0.496,0.161 -1.765,0.574 -2.261,0.735c-0.132,0.043 -0.274,0.043 -0.406,-0c-0.496,-0.161 -1.765,-0.574 -2.261,-0.735c-0.131,-0.043 -0.246,-0.126 -0.328,-0.238c-0.306,-0.422 -1.091,-1.502 -1.397,-1.923c-0.082,-0.113 -0.126,-0.248 -0.126,-0.386l0,-2.378c0,-0.138 0.044,-0.273 0.126,-0.386c0.306,-0.421 1.091,-1.501 1.397,-1.923c0.082,-0.112 0.197,-0.196 0.328,-0.238c0.496,-0.162 1.765,-0.574 2.261,-0.735Z" style="fill:#656fac;"/><path d="M5.239,1.772c0.149,-0.086 0.332,-0.086 0.481,0c0.459,0.265 1.457,0.841 1.916,1.107c0.149,0.085 0.24,0.244 0.24,0.415l0,2.214c0,0.171 -0.091,0.33 -0.24,0.415c-0.459,0.265 -1.457,0.842 -1.916,1.107c-0.149,0.086 -0.332,0.086 -0.481,-0c-0.459,-0.265 -1.457,-0.842 -1.916,-1.107c-0.149,-0.085 -0.24,-0.244 -0.24,-0.415l-0,-2.214c-0,-0.171 0.091,-0.33 0.24,-0.415c0.459,-0.266 1.457,-0.842 1.916,-1.107Z" style="fill:#4150a6;"/></g><g><path d="M4.797,6.93l0,0.724l-2.153,-0l-0,-0.724l0.58,0l0,-2.779l-0.62,0l0,-0.723l1.649,-0l0,3.502l0.544,0Z" style="fill:#fff;fill-rule:nonzero;"/><path d="M8.364,5.817l0,0.687l-0.449,0l0,0.483l0.393,-0l0,0.667l-1.873,-0l-0,-0.667l0.51,-0l0,-0.483l-1.744,0c-0.094,-0.26 -0.17,-0.447 -0.23,-0.561l2.033,-2.591l0.911,-0l0,2.465l0.449,0Zm-2.395,0l0.976,0l0,-1.22l-0.976,1.22Z" style="fill:#fff;fill-rule:nonzero;"/></g></svg>