<?xml version="1.0" encoding="UTF-8" standalone="no"?><!DOCTYPE svg PUBLIC "-//W3C//DTD SVG 1.1//EN" "http://www.w3.org/Graphics/SVG/1.1/DTD/svg11.dtd"><svg width="100%" height="100%" viewBox="0 0 11 11" version="1.1" xmlns="http://www.w3.org/2000/svg" xmlns:xlink="http://www.w3.org/1999/xlink" xml:space="preserve" xmlns:serif="http://www.serif.com/" style="fill-rule:evenodd;clip-rule:evenodd;stroke-linejoin:round;stroke-miterlimit:2;"><rect id="d16_9" x="0.122" y="0.223" width="10.56" height="10.56" style="fill:none;"/><g><path d="M5.199,1.032c0.132,-0.043 0.274,-0.043 0.406,0c0.496,0.161 1.765,0.573 2.261,0.735c0.132,0.042 0.247,0.126 0.328,0.238c0.307,0.422 1.091,1.502 1.398,1.923c0.081,0.113 0.125,0.248 0.125,0.386l0,2.378c0,0.138 -0.044,0.273 -0.125,0.386c-0.307,0.421 -1.091,1.501 -1.398,1.923c-0.081,0.112 -0.196,0.195 -0.328,0.238c-0.496,0.161 -1.765,0.574 -2.261,0.735c-0.132,0.043 -0.274,0.043 -0.406,-0c-0.496,-0.161 -1.765,-0.574 -2.26,-0.735c-0.132,-0.043 -0.247,-0.126 -0.329,-0.238c-0.306,-0.422 -1.091,-1.502 -1.397,-1.923c-0.082,-0.113 -0.126,-0.248 -0.126,-0.386l0,-2.378c0,-0.138 0.044,-0.273 0.126,-0.386c0.306,-0.421 1.091,-1.501 1.397,-1.923c0.082,-0.112 0.197,-0.196 0.329,-0.238c0.495,-0.162 1.764,-0.574 2.26,-0.735Z" style="fill:#656fac;"/><path d="M5.158,1.772c0.148,-0.086 0.331,-0.086 0.48,0c0.459,0.265 1.457,0.841 1.916,1.107c0.149,0.085 0.24,0.244 0.24,0.415l0,2.214c0,0.171 -0.091,0.33 -0.24,0.415c-0.459,0.265 -1.457,0.842 -1.916,1.107c-0.149,0.086 -0.332,0.086 -0.48,-0c-0.46,-0.265 -1.458,-0.842 -1.917,-1.107c-0.149,-0.085 -0.24,-0.244 -0.24,-0.415l-0,-2.214c-0,-0.171 0.091,-0.33 0.24,-0.415c0.459,-0.266 1.457,-0.842 1.917,-1.107Z" style="fill:#4150a6;"/></g><path d="M6.978,5.495c0,1.458 -0.575,2.187 -1.727,2.187c-0.391,0 -0.708,-0.103 -0.951,-0.31c-0.243,-0.206 -0.378,-0.495 -0.406,-0.865l0.821,-0.081c0.058,0.187 0.129,0.324 0.213,0.413c0.085,0.089 0.19,0.133 0.317,0.133c0.198,0 0.358,-0.092 0.478,-0.276c0.121,-0.184 0.201,-0.452 0.24,-0.803c-0.119,0.063 -0.25,0.113 -0.391,0.15c-0.141,0.036 -0.285,0.055 -0.43,0.055c-0.257,-0 -0.484,-0.061 -0.683,-0.181c-0.199,-0.121 -0.355,-0.284 -0.466,-0.488c-0.111,-0.205 -0.167,-0.426 -0.167,-0.664c0,-0.278 0.063,-0.527 0.19,-0.746c0.126,-0.218 0.303,-0.389 0.531,-0.511c0.228,-0.123 0.492,-0.184 0.791,-0.184c1.094,-0 1.64,0.723 1.64,2.171Zm-1.607,-0.127c0.172,0 0.373,-0.055 0.603,-0.165l0,-0.017c0,-0.357 -0.062,-0.637 -0.186,-0.84c-0.124,-0.203 -0.3,-0.304 -0.526,-0.304c-0.135,-0 -0.249,0.061 -0.342,0.184c-0.094,0.122 -0.14,0.281 -0.14,0.478c-0,0.202 0.054,0.363 0.164,0.483c0.109,0.121 0.252,0.181 0.427,0.181Z" style="fill:#fff;fill-rule:nonzero;"/></svg>