<?xml version="1.0" encoding="UTF-8" standalone="no"?><!DOCTYPE svg PUBLIC "-//W3C//DTD SVG 1.1//EN" "http://www.w3.org/Graphics/SVG/1.1/DTD/svg11.dtd"><svg width="100%" height="100%" viewBox="0 0 11 11" version="1.1" xmlns="http://www.w3.org/2000/svg" xmlns:xlink="http://www.w3.org/1999/xlink" xml:space="preserve" xmlns:serif="http://www.serif.com/" style="fill-rule:evenodd;clip-rule:evenodd;stroke-linejoin:round;stroke-miterlimit:2;"><rect id="d16_6" x="0.145" y="0.223" width="10.56" height="10.56" style="fill:none;"/><g><path d="M5.222,1.032c0.131,-0.043 0.274,-0.043 0.405,0c0.496,0.161 1.765,0.573 2.261,0.735c0.132,0.042 0.247,0.126 0.329,0.238c0.306,0.422 1.09,1.502 1.397,1.923c0.081,0.113 0.125,0.248 0.125,0.386l0,2.378c0,0.138 -0.044,0.273 -0.125,0.386c-0.307,0.421 -1.091,1.501 -1.397,1.923c-0.082,0.112 -0.197,0.195 -0.329,0.238c-0.496,0.161 -1.765,0.574 -2.261,0.735c-0.131,0.043 -0.274,0.043 -0.405,-0c-0.496,-0.161 -1.765,-0.574 -2.261,-0.735c-0.132,-0.043 -0.247,-0.126 -0.329,-0.238c-0.306,-0.422 -1.09,-1.502 -1.397,-1.923c-0.081,-0.113 -0.125,-0.248 -0.125,-0.386l-0,-2.378c-0,-0.138 0.044,-0.273 0.125,-0.386c0.307,-0.421 1.091,-1.501 1.397,-1.923c0.082,-0.112 0.197,-0.196 0.329,-0.238c0.496,-0.162 1.765,-0.574 2.261,-0.735Z" style="fill:#676767;"/><path d="M5.18,1.772c0.148,-0.086 0.331,-0.086 0.48,0c0.459,0.265 1.457,0.841 1.917,1.107c0.148,0.085 0.24,0.244 0.24,0.415l-0,2.214c-0,0.171 -0.092,0.33 -0.24,0.415c-0.46,0.265 -1.458,0.842 -1.917,1.107c-0.149,0.086 -0.332,0.086 -0.48,-0c-0.459,-0.265 -1.458,-0.842 -1.917,-1.107c-0.148,-0.085 -0.24,-0.244 -0.24,-0.415l0,-2.214c0,-0.171 0.092,-0.33 0.24,-0.415c0.459,-0.266 1.458,-0.842 1.917,-1.107Z" style="fill:#888;"/></g><path d="M6.95,4.485l-0.833,0.073c-0.095,-0.352 -0.279,-0.527 -0.552,-0.527c-0.202,-0 -0.364,0.093 -0.487,0.279c-0.122,0.186 -0.196,0.451 -0.22,0.795c0.226,-0.146 0.487,-0.219 0.782,-0.219c0.268,-0 0.505,0.058 0.711,0.175c0.207,0.117 0.368,0.276 0.483,0.477c0.115,0.201 0.172,0.428 0.172,0.68c0,0.453 -0.13,0.81 -0.39,1.071c-0.259,0.262 -0.618,0.393 -1.074,0.393c-0.581,0 -1.01,-0.173 -1.286,-0.519c-0.275,-0.346 -0.413,-0.882 -0.413,-1.61c-0,-0.731 0.149,-1.285 0.447,-1.663c0.298,-0.377 0.737,-0.566 1.317,-0.566c0.804,-0 1.252,0.387 1.343,1.161Zm-2.098,1.31c0,0.413 0.057,0.71 0.17,0.891c0.113,0.182 0.285,0.272 0.515,0.272c0.149,0 0.271,-0.059 0.364,-0.178c0.094,-0.118 0.14,-0.286 0.14,-0.503c0,-0.204 -0.052,-0.361 -0.157,-0.473c-0.104,-0.111 -0.249,-0.166 -0.434,-0.166c-0.176,-0 -0.375,0.052 -0.598,0.157Z" style="fill:#fff;fill-rule:nonzero;"/></svg>