<?xml version="1.0" encoding="UTF-8" standalone="no"?><!DOCTYPE svg PUBLIC "-//W3C//DTD SVG 1.1//EN" "http://www.w3.org/Graphics/SVG/1.1/DTD/svg11.dtd"><svg width="100%" height="100%" viewBox="0 0 11 11" version="1.1" xmlns="http://www.w3.org/2000/svg" xmlns:xlink="http://www.w3.org/1999/xlink" xml:space="preserve" xmlns:serif="http://www.serif.com/" style="fill-rule:evenodd;clip-rule:evenodd;stroke-linejoin:round;stroke-miterlimit:2;"><rect id="d16_8" x="0.002" y="0.223" width="10.56" height="10.56" style="fill:none;"/><g><path d="M5.079,1.032c0.132,-0.043 0.274,-0.043 0.406,0c0.496,0.161 1.765,0.573 2.261,0.735c0.132,0.042 0.247,0.126 0.328,0.238c0.307,0.422 1.091,1.502 1.398,1.923c0.081,0.113 0.125,0.248 0.125,0.386l0,2.378c0,0.138 -0.044,0.273 -0.125,0.386c-0.307,0.421 -1.091,1.501 -1.398,1.923c-0.081,0.112 -0.196,0.195 -0.328,0.238c-0.496,0.161 -1.765,0.574 -2.261,0.735c-0.132,0.043 -0.274,0.043 -0.406,-0c-0.496,-0.161 -1.765,-0.574 -2.26,-0.735c-0.132,-0.043 -0.247,-0.126 -0.329,-0.238c-0.306,-0.422 -1.091,-1.502 -1.397,-1.923c-0.082,-0.113 -0.126,-0.248 -0.126,-0.386l0,-2.378c0,-0.138 0.044,-0.273 0.126,-0.386c0.306,-0.421 1.091,-1.501 1.397,-1.923c0.082,-0.112 0.197,-0.196 0.329,-0.238c0.495,-0.162 1.764,-0.574 2.26,-0.735Z" style="fill:#676767;"/><path d="M5.038,1.772c0.148,-0.086 0.331,-0.086 0.48,0c0.459,0.265 1.457,0.841 1.916,1.107c0.149,0.085 0.24,0.244 0.24,0.415l0,2.214c0,0.171 -0.091,0.33 -0.24,0.415c-0.459,0.265 -1.457,0.842 -1.916,1.107c-0.149,0.086 -0.332,0.086 -0.48,-0c-0.46,-0.265 -1.458,-0.842 -1.917,-1.107c-0.149,-0.085 -0.24,-0.244 -0.24,-0.415l-0,-2.214c-0,-0.171 0.091,-0.33 0.24,-0.415c0.459,-0.266 1.457,-0.842 1.917,-1.107Z" style="fill:#888;"/></g><path d="M6.746,4.432c0,0.405 -0.206,0.729 -0.62,0.97c0.498,0.2 0.746,0.547 0.746,1.04c0,0.395 -0.144,0.7 -0.433,0.916c-0.289,0.216 -0.678,0.324 -1.168,0.324c-0.314,0 -0.591,-0.05 -0.83,-0.151c-0.239,-0.101 -0.424,-0.247 -0.554,-0.437c-0.13,-0.189 -0.195,-0.412 -0.195,-0.668c0,-0.468 0.253,-0.809 0.757,-1.024c-0.42,-0.234 -0.631,-0.552 -0.631,-0.953c0,-0.225 0.064,-0.423 0.193,-0.594c0.128,-0.171 0.302,-0.302 0.524,-0.394c0.221,-0.091 0.469,-0.137 0.742,-0.137c0.278,-0 0.53,0.045 0.754,0.135c0.224,0.089 0.4,0.217 0.526,0.384c0.126,0.166 0.189,0.362 0.189,0.589Zm-1.469,0.656c0.153,-0 0.275,-0.048 0.367,-0.145c0.092,-0.096 0.138,-0.226 0.138,-0.391c-0,-0.161 -0.044,-0.288 -0.132,-0.381c-0.088,-0.094 -0.214,-0.14 -0.379,-0.14c-0.146,-0 -0.264,0.044 -0.353,0.131c-0.09,0.088 -0.135,0.222 -0.135,0.401c0,0.154 0.046,0.28 0.138,0.378c0.091,0.098 0.21,0.147 0.356,0.147Zm0.011,1.89c0.172,0 0.313,-0.059 0.422,-0.178c0.109,-0.119 0.164,-0.267 0.164,-0.444c0,-0.176 -0.056,-0.325 -0.167,-0.448c-0.111,-0.122 -0.253,-0.183 -0.425,-0.183c-0.164,-0 -0.301,0.061 -0.411,0.183c-0.109,0.123 -0.164,0.272 -0.164,0.448c0,0.177 0.055,0.325 0.164,0.444c0.11,0.119 0.249,0.178 0.417,0.178Z" style="fill:#fff;fill-rule:nonzero;"/></svg>