<?xml version="1.0" encoding="UTF-8" standalone="no"?><!DOCTYPE svg PUBLIC "-//W3C//DTD SVG 1.1//EN" "http://www.w3.org/Graphics/SVG/1.1/DTD/svg11.dtd"><svg width="100%" height="100%" viewBox="0 0 11 11" version="1.1" xmlns="http://www.w3.org/2000/svg" xmlns:xlink="http://www.w3.org/1999/xlink" xml:space="preserve" xmlns:serif="http://www.serif.com/" style="fill-rule:evenodd;clip-rule:evenodd;stroke-linejoin:round;stroke-miterlimit:2;"><rect id="d16_10" x="0.199" y="0.223" width="10.56" height="10.56" style="fill:none;"/><g><path d="M5.276,1.032c0.132,-0.043 0.274,-0.043 0.406,0c0.495,0.161 1.764,0.573 2.26,0.735c0.132,0.042 0.247,0.126 0.329,0.238c0.306,0.422 1.09,1.502 1.397,1.923c0.082,0.113 0.125,0.248 0.125,0.386l0,2.378c0,0.138 -0.043,0.273 -0.125,0.386c-0.307,0.421 -1.091,1.501 -1.397,1.923c-0.082,0.112 -0.197,0.195 -0.329,0.238c-0.496,0.161 -1.765,0.574 -2.26,0.735c-0.132,0.043 -0.274,0.043 -0.406,-0c-0.496,-0.161 -1.765,-0.574 -2.261,-0.735c-0.132,-0.043 -0.247,-0.126 -0.329,-0.238c-0.306,-0.422 -1.09,-1.502 -1.397,-1.923c-0.081,-0.113 -0.125,-0.248 -0.125,-0.386l-0,-2.378c-0,-0.138 0.044,-0.273 0.125,-0.386c0.307,-0.421 1.091,-1.501 1.397,-1.923c0.082,-0.112 0.197,-0.196 0.329,-0.238c0.496,-0.162 1.765,-0.574 2.261,-0.735Z" style="fill:#676767;"/><path d="M5.234,1.772c0.148,-0.086 0.331,-0.086 0.48,0c0.459,0.265 1.457,0.841 1.917,1.107c0.148,0.085 0.24,0.244 0.24,0.415l-0,2.214c-0,0.171 -0.092,0.33 -0.24,0.415c-0.46,0.265 -1.458,0.842 -1.917,1.107c-0.149,0.086 -0.332,0.086 -0.48,-0c-0.459,-0.265 -1.458,-0.842 -1.917,-1.107c-0.148,-0.085 -0.24,-0.244 -0.24,-0.415l0,-2.214c0,-0.171 0.092,-0.33 0.24,-0.415c0.459,-0.266 1.458,-0.842 1.917,-1.107Z" style="fill:#888;"/></g><g><path d="M4.835,6.902l0,0.724l-2.154,-0l0,-0.724l0.581,0l-0,-2.779l-0.62,0l0,-0.723l1.649,-0l0,3.502l0.544,0Z" style="fill:#fff;fill-rule:nonzero;"/><path d="M8.315,5.5c0,0.712 -0.135,1.254 -0.407,1.625c-0.271,0.371 -0.661,0.557 -1.172,0.557c-0.512,0 -0.903,-0.186 -1.173,-0.557c-0.271,-0.371 -0.406,-0.913 -0.406,-1.625c0,-0.695 0.134,-1.232 0.403,-1.61c0.268,-0.377 0.66,-0.566 1.176,-0.566c0.522,-0 0.915,0.185 1.181,0.554c0.265,0.369 0.398,0.91 0.398,1.622Zm-2.095,0c0,0.49 0.042,0.853 0.126,1.088c0.084,0.236 0.216,0.354 0.396,0.354c0.179,-0 0.31,-0.118 0.392,-0.354c0.083,-0.235 0.124,-0.598 0.124,-1.088c-0,-0.965 -0.172,-1.447 -0.516,-1.447c-0.18,0 -0.312,0.121 -0.396,0.362c-0.084,0.241 -0.126,0.603 -0.126,1.085Z" style="fill:#fff;fill-rule:nonzero;"/></g></svg>