<?xml version="1.0" encoding="UTF-8" standalone="no"?><!DOCTYPE svg PUBLIC "-//W3C//DTD SVG 1.1//EN" "http://www.w3.org/Graphics/SVG/1.1/DTD/svg11.dtd"><svg width="100%" height="100%" viewBox="0 0 11 11" version="1.1" xmlns="http://www.w3.org/2000/svg" xmlns:xlink="http://www.w3.org/1999/xlink" xml:space="preserve" xmlns:serif="http://www.serif.com/" style="fill-rule:evenodd;clip-rule:evenodd;stroke-linejoin:round;stroke-miterlimit:2;"><rect id="d16_7" x="0.191" y="0.223" width="10.56" height="10.56" style="fill:none;"/><g><path d="M5.268,1.032c0.132,-0.043 0.274,-0.043 0.406,0c0.496,0.161 1.765,0.573 2.261,0.735c0.131,0.042 0.246,0.126 0.328,0.238c0.306,0.422 1.091,1.502 1.397,1.923c0.082,0.113 0.126,0.248 0.126,0.386l-0,2.378c-0,0.138 -0.044,0.273 -0.126,0.386c-0.306,0.421 -1.091,1.501 -1.397,1.923c-0.082,0.112 -0.197,0.195 -0.328,0.238c-0.496,0.161 -1.765,0.574 -2.261,0.735c-0.132,0.043 -0.274,0.043 -0.406,-0c-0.496,-0.161 -1.765,-0.574 -2.261,-0.735c-0.132,-0.043 -0.247,-0.126 -0.328,-0.238c-0.307,-0.422 -1.091,-1.502 -1.398,-1.923c-0.081,-0.113 -0.125,-0.248 -0.125,-0.386l-0,-2.378c-0,-0.138 0.044,-0.273 0.125,-0.386c0.307,-0.421 1.091,-1.501 1.398,-1.923c0.081,-0.112 0.196,-0.196 0.328,-0.238c0.496,-0.162 1.765,-0.574 2.261,-0.735Z" style="fill:#676767;"/><path d="M5.226,1.772c0.149,-0.086 0.332,-0.086 0.48,0c0.459,0.265 1.458,0.841 1.917,1.107c0.148,0.085 0.24,0.244 0.24,0.415l-0,2.214c-0,0.171 -0.092,0.33 -0.24,0.415c-0.459,0.265 -1.458,0.842 -1.917,1.107c-0.148,0.086 -0.331,0.086 -0.48,-0c-0.459,-0.265 -1.457,-0.842 -1.917,-1.107c-0.148,-0.085 -0.24,-0.244 -0.24,-0.415l0,-2.214c0,-0.171 0.092,-0.33 0.24,-0.415c0.46,-0.266 1.458,-0.842 1.917,-1.107Z" style="fill:#888;"/></g><path d="M5.833,6.893l0.608,-0l0,0.723l-2.257,0l-0,-0.723l0.58,-0c0.062,-0.487 0.206,-0.981 0.432,-1.483c0.226,-0.502 0.511,-0.94 0.855,-1.313l-1.391,-0l0,0.583l-0.774,-0l0,-1.29l3.169,-0l0,0.544c-0.217,0.207 -0.418,0.481 -0.604,0.822c-0.186,0.34 -0.334,0.701 -0.443,1.082c-0.11,0.382 -0.168,0.733 -0.175,1.055Z" style="fill:#fff;fill-rule:nonzero;"/></svg>