<?xml version="1.0" encoding="UTF-8" standalone="no"?><!DOCTYPE svg PUBLIC "-//W3C//DTD SVG 1.1//EN" "http://www.w3.org/Graphics/SVG/1.1/DTD/svg11.dtd"><svg width="100%" height="100%" viewBox="0 0 11 11" version="1.1" xmlns="http://www.w3.org/2000/svg" xmlns:xlink="http://www.w3.org/1999/xlink" xml:space="preserve" xmlns:serif="http://www.serif.com/" style="fill-rule:evenodd;clip-rule:evenodd;stroke-linejoin:round;stroke-miterlimit:2;"><rect id="d16_15" x="0.01" y="0.223" width="10.56" height="10.56" style="fill:none;"/><g><path d="M5.088,1.032c0.131,-0.043 0.273,-0.043 0.405,0c0.496,0.161 1.765,0.573 2.261,0.735c0.132,0.042 0.247,0.126 0.329,0.238c0.306,0.422 1.09,1.502 1.397,1.923c0.081,0.113 0.125,0.248 0.125,0.386l0,2.378c0,0.138 -0.044,0.273 -0.125,0.386c-0.307,0.421 -1.091,1.501 -1.397,1.923c-0.082,0.112 -0.197,0.195 -0.329,0.238c-0.496,0.161 -1.765,0.574 -2.261,0.735c-0.132,0.043 -0.274,0.043 -0.405,-0c-0.496,-0.161 -1.765,-0.574 -2.261,-0.735c-0.132,-0.043 -0.247,-0.126 -0.329,-0.238c-0.306,-0.422 -1.09,-1.502 -1.397,-1.923c-0.081,-0.113 -0.125,-0.248 -0.125,-0.386l-0,-2.378c-0,-0.138 0.044,-0.273 0.125,-0.386c0.307,-0.421 1.091,-1.501 1.397,-1.923c0.082,-0.112 0.197,-0.196 0.329,-0.238c0.496,-0.162 1.765,-0.574 2.261,-0.735Z" style="fill:#676767;"/><path d="M5.046,1.772c0.148,-0.086 0.331,-0.086 0.48,0c0.459,0.265 1.457,0.841 1.916,1.107c0.149,0.085 0.241,0.244 0.241,0.415l-0,2.214c-0,0.171 -0.092,0.33 -0.241,0.415c-0.459,0.265 -1.457,0.842 -1.916,1.107c-0.149,0.086 -0.332,0.086 -0.48,-0c-0.46,-0.265 -1.458,-0.842 -1.917,-1.107c-0.148,-0.085 -0.24,-0.244 -0.24,-0.415l0,-2.214c0,-0.171 0.092,-0.33 0.24,-0.415c0.459,-0.266 1.457,-0.842 1.917,-1.107Z" style="fill:#888;"/></g><g><path d="M4.644,6.865l0,0.723l-2.154,0l0,-0.723l0.581,-0l-0,-2.78l-0.62,0l0,-0.723l1.649,-0l0,3.503l0.544,-0Z" style="fill:#fff;fill-rule:nonzero;"/><path d="M7.201,4.394l-0.075,-0.309l-1.156,0l-0.084,0.895c0.234,-0.122 0.481,-0.182 0.741,-0.182c0.299,-0 0.562,0.06 0.789,0.181c0.227,0.12 0.403,0.287 0.527,0.502c0.125,0.214 0.187,0.447 0.187,0.699c-0,0.292 -0.067,0.55 -0.201,0.774c-0.133,0.225 -0.324,0.396 -0.57,0.513c-0.247,0.118 -0.535,0.177 -0.864,0.177c-0.445,0 -0.807,-0.108 -1.087,-0.324c-0.279,-0.216 -0.446,-0.517 -0.501,-0.904l0.903,-0.11c0.066,0.41 0.273,0.615 0.62,0.615c0.208,-0 0.366,-0.058 0.474,-0.174c0.109,-0.116 0.163,-0.282 0.163,-0.497c-0,-0.475 -0.205,-0.712 -0.614,-0.712c-0.241,0 -0.444,0.113 -0.609,0.339l-0.746,-0.367l0.149,-2.148l2.672,-0l0,1.032l-0.718,-0Z" style="fill:#fff;fill-rule:nonzero;"/></g></svg>