<?xml version="1.0" encoding="UTF-8" standalone="no"?><!DOCTYPE svg PUBLIC "-//W3C//DTD SVG 1.1//EN" "http://www.w3.org/Graphics/SVG/1.1/DTD/svg11.dtd"><svg width="100%" height="100%" viewBox="0 0 11 11" version="1.1" xmlns="http://www.w3.org/2000/svg" xmlns:xlink="http://www.w3.org/1999/xlink" xml:space="preserve" xmlns:serif="http://www.serif.com/" style="fill-rule:evenodd;clip-rule:evenodd;stroke-linejoin:round;stroke-miterlimit:2;"><rect id="d16_16" x="0.062" y="0.223" width="10.56" height="10.56" style="fill:none;"/><g><path d="M5.139,1.032c0.132,-0.043 0.274,-0.043 0.406,0c0.496,0.161 1.765,0.573 2.261,0.735c0.132,0.042 0.247,0.126 0.328,0.238c0.307,0.422 1.091,1.502 1.397,1.923c0.082,0.113 0.126,0.248 0.126,0.386l-0,2.378c-0,0.138 -0.044,0.273 -0.126,0.386c-0.306,0.421 -1.09,1.501 -1.397,1.923c-0.081,0.112 -0.196,0.195 -0.328,0.238c-0.496,0.161 -1.765,0.574 -2.261,0.735c-0.132,0.043 -0.274,0.043 -0.406,-0c-0.496,-0.161 -1.765,-0.574 -2.261,-0.735c-0.132,-0.043 -0.247,-0.126 -0.328,-0.238c-0.307,-0.422 -1.091,-1.502 -1.397,-1.923c-0.082,-0.113 -0.126,-0.248 -0.126,-0.386l0,-2.378c0,-0.138 0.044,-0.273 0.126,-0.386c0.306,-0.421 1.09,-1.501 1.397,-1.923c0.081,-0.112 0.196,-0.196 0.328,-0.238c0.496,-0.162 1.765,-0.574 2.261,-0.735Z" style="fill:#656fac;"/><path d="M5.097,1.772c0.149,-0.086 0.332,-0.086 0.48,0c0.46,0.265 1.458,0.841 1.917,1.107c0.149,0.085 0.24,0.244 0.24,0.415l0,2.214c0,0.171 -0.091,0.33 -0.24,0.415c-0.459,0.265 -1.457,0.842 -1.917,1.107c-0.148,0.086 -0.331,0.086 -0.48,-0c-0.459,-0.265 -1.457,-0.842 -1.916,-1.107c-0.149,-0.085 -0.24,-0.244 -0.24,-0.415l-0,-2.214c-0,-0.171 0.091,-0.33 0.24,-0.415c0.459,-0.266 1.457,-0.842 1.916,-1.107Z" style="fill:#4150a6;"/></g><g><path d="M4.701,6.902l0,0.724l-2.153,-0l-0,-0.724l0.58,0l0,-2.779l-0.62,0l0,-0.723l1.649,-0l0,3.502l0.544,0Z" style="fill:#fff;fill-rule:nonzero;"/><path d="M8.12,4.485l-0.833,0.073c-0.096,-0.352 -0.28,-0.527 -0.553,-0.527c-0.202,-0 -0.364,0.093 -0.486,0.279c-0.123,0.186 -0.196,0.451 -0.22,0.795c0.226,-0.146 0.487,-0.219 0.782,-0.219c0.267,-0 0.504,0.058 0.711,0.175c0.206,0.117 0.367,0.276 0.482,0.477c0.115,0.201 0.173,0.428 0.173,0.68c-0,0.453 -0.13,0.81 -0.39,1.071c-0.26,0.262 -0.618,0.393 -1.074,0.393c-0.582,0 -1.01,-0.173 -1.286,-0.519c-0.276,-0.346 -0.414,-0.882 -0.414,-1.61c0,-0.731 0.149,-1.285 0.448,-1.663c0.298,-0.377 0.737,-0.566 1.316,-0.566c0.804,-0 1.252,0.387 1.344,1.161Zm-2.098,1.31c-0,0.413 0.056,0.71 0.17,0.891c0.113,0.182 0.284,0.272 0.514,0.272c0.15,0 0.271,-0.059 0.365,-0.178c0.093,-0.118 0.14,-0.286 0.14,-0.503c-0,-0.204 -0.052,-0.361 -0.157,-0.473c-0.105,-0.111 -0.25,-0.166 -0.435,-0.166c-0.176,-0 -0.375,0.052 -0.597,0.157Z" style="fill:#fff;fill-rule:nonzero;"/></g></svg>