<?xml version="1.0" encoding="UTF-8" standalone="no"?><!DOCTYPE svg PUBLIC "-//W3C//DTD SVG 1.1//EN" "http://www.w3.org/Graphics/SVG/1.1/DTD/svg11.dtd"><svg width="100%" height="100%" viewBox="0 0 11 11" version="1.1" xmlns="http://www.w3.org/2000/svg" xmlns:xlink="http://www.w3.org/1999/xlink" xml:space="preserve" xmlns:serif="http://www.serif.com/" style="fill-rule:evenodd;clip-rule:evenodd;stroke-linejoin:round;stroke-miterlimit:2;"><rect id="d20_5" x="0.06" y="0.013" width="10.56" height="10.56" style="fill:none;"/><g><path d="M5.256,0.609c0.055,-0.015 0.114,-0.015 0.169,0c0.364,0.099 1.79,0.487 2.152,0.585c0.055,0.015 0.106,0.044 0.146,0.085c0.265,0.269 1.314,1.332 1.577,1.6c0.04,0.04 0.068,0.09 0.082,0.144c0.097,0.365 0.482,1.824 0.579,2.188c0.014,0.054 0.014,0.111 -0,0.165c-0.097,0.364 -0.482,1.823 -0.579,2.188c-0.014,0.054 -0.042,0.104 -0.082,0.144c-0.263,0.267 -1.312,1.331 -1.577,1.6c-0.04,0.04 -0.091,0.07 -0.146,0.085c-0.362,0.098 -1.788,0.486 -2.152,0.584c-0.055,0.016 -0.114,0.016 -0.169,0c-0.364,-0.098 -1.79,-0.486 -2.152,-0.584c-0.056,-0.015 -0.106,-0.045 -0.146,-0.085c-0.265,-0.269 -1.314,-1.333 -1.577,-1.6c-0.04,-0.04 -0.068,-0.09 -0.083,-0.144c-0.096,-0.365 -0.482,-1.824 -0.578,-2.188c-0.014,-0.054 -0.014,-0.111 0,-0.165c0.096,-0.364 0.482,-1.823 0.578,-2.188c0.015,-0.054 0.043,-0.104 0.083,-0.144c0.263,-0.268 1.312,-1.331 1.577,-1.6c0.04,-0.041 0.09,-0.07 0.146,-0.085c0.362,-0.098 1.788,-0.486 2.152,-0.585Z" style="fill:#f6f2f2;"/><path d="M5.014,2.664c0.067,-0.116 0.192,-0.188 0.326,-0.188c0.135,-0 0.26,0.072 0.327,0.188c0.597,1.027 1.858,3.194 2.458,4.225c0.068,0.117 0.068,0.262 0.001,0.379c-0.068,0.117 -0.193,0.19 -0.328,0.19c-1.197,-0 -3.718,-0 -4.915,-0c-0.135,-0 -0.26,-0.073 -0.328,-0.19c-0.067,-0.117 -0.067,-0.262 0.001,-0.379c0.6,-1.031 1.86,-3.198 2.458,-4.225Z" style="fill:#e0cfcf;"/></g><path d="M5.985,4.222l-0.075,-0.308l-1.156,-0l-0.084,0.894c0.234,-0.121 0.481,-0.182 0.741,-0.182c0.299,-0 0.562,0.06 0.789,0.181c0.227,0.12 0.403,0.288 0.527,0.502c0.125,0.214 0.187,0.447 0.187,0.7c-0,0.291 -0.067,0.549 -0.201,0.774c-0.133,0.224 -0.324,0.395 -0.57,0.513c-0.247,0.118 -0.535,0.176 -0.864,0.176c-0.445,0 -0.807,-0.107 -1.087,-0.323c-0.279,-0.216 -0.446,-0.518 -0.501,-0.905l0.903,-0.109c0.066,0.409 0.272,0.614 0.62,0.614c0.208,-0 0.366,-0.058 0.474,-0.174c0.109,-0.116 0.163,-0.281 0.163,-0.496c-0,-0.475 -0.205,-0.713 -0.614,-0.713c-0.241,0 -0.444,0.113 -0.609,0.34l-0.746,-0.368l0.149,-2.148l2.672,0l0,1.032l-0.718,0Z" style="fill:#8c7272;fill-rule:nonzero;"/></svg>