<?xml version="1.0" encoding="UTF-8" standalone="no"?><!DOCTYPE svg PUBLIC "-//W3C//DTD SVG 1.1//EN" "http://www.w3.org/Graphics/SVG/1.1/DTD/svg11.dtd"><svg width="100%" height="100%" viewBox="0 0 11 11" version="1.1" xmlns="http://www.w3.org/2000/svg" xmlns:xlink="http://www.w3.org/1999/xlink" xml:space="preserve" xmlns:serif="http://www.serif.com/" style="fill-rule:evenodd;clip-rule:evenodd;stroke-linejoin:round;stroke-miterlimit:2;"><rect id="d20_7" x="0.235" y="0.013" width="10.56" height="10.56" style="fill:none;"/><g><path d="M5.43,0.609c0.056,-0.015 0.114,-0.015 0.17,0c0.363,0.099 1.79,0.487 2.152,0.585c0.055,0.015 0.105,0.044 0.145,0.085c0.266,0.269 1.314,1.332 1.578,1.6c0.039,0.04 0.068,0.09 0.082,0.144c0.097,0.365 0.482,1.824 0.578,2.188c0.015,0.054 0.015,0.111 0,0.165c-0.096,0.364 -0.481,1.823 -0.578,2.188c-0.014,0.054 -0.043,0.104 -0.082,0.144c-0.264,0.267 -1.312,1.331 -1.578,1.6c-0.04,0.04 -0.09,0.07 -0.145,0.085c-0.362,0.098 -1.789,0.486 -2.152,0.584c-0.056,0.016 -0.114,0.016 -0.17,0c-0.363,-0.098 -1.789,-0.486 -2.152,-0.584c-0.055,-0.015 -0.105,-0.045 -0.145,-0.085c-0.265,-0.269 -1.314,-1.333 -1.578,-1.6c-0.039,-0.04 -0.068,-0.09 -0.082,-0.144c-0.096,-0.365 -0.482,-1.824 -0.578,-2.188c-0.014,-0.054 -0.014,-0.111 -0,-0.165c0.096,-0.364 0.482,-1.823 0.578,-2.188c0.014,-0.054 0.043,-0.104 0.082,-0.144c0.264,-0.268 1.313,-1.331 1.578,-1.6c0.04,-0.041 0.09,-0.07 0.145,-0.085c0.363,-0.098 1.789,-0.486 2.152,-0.585Z" style="fill:#f6f2f2;"/><path d="M5.188,2.664c0.068,-0.116 0.192,-0.188 0.327,-0.188c0.135,-0 0.259,0.072 0.327,0.188c0.597,1.027 1.858,3.194 2.457,4.225c0.068,0.117 0.069,0.262 0.001,0.379c-0.067,0.117 -0.192,0.19 -0.327,0.19c-1.197,-0 -3.718,-0 -4.915,-0c-0.136,-0 -0.261,-0.073 -0.328,-0.19c-0.068,-0.117 -0.067,-0.262 0.001,-0.379c0.6,-1.031 1.86,-3.198 2.457,-4.225Z" style="fill:#e0cfcf;"/></g><path d="M5.857,6.693l0.609,-0l-0,0.723l-2.258,0l0,-0.723l0.581,-0c0.061,-0.486 0.205,-0.98 0.432,-1.482c0.226,-0.502 0.511,-0.94 0.855,-1.314l-1.391,-0l0,0.583l-0.774,0l0,-1.29l3.169,0l0,0.544c-0.217,0.208 -0.418,0.482 -0.604,0.822c-0.186,0.34 -0.334,0.701 -0.443,1.082c-0.11,0.382 -0.168,0.733 -0.176,1.055Z" style="fill:#8c7272;fill-rule:nonzero;"/></svg>