<?xml version="1.0" encoding="UTF-8" standalone="no"?><!DOCTYPE svg PUBLIC "-//W3C//DTD SVG 1.1//EN" "http://www.w3.org/Graphics/SVG/1.1/DTD/svg11.dtd"><svg width="100%" height="100%" viewBox="0 0 11 11" version="1.1" xmlns="http://www.w3.org/2000/svg" xmlns:xlink="http://www.w3.org/1999/xlink" xml:space="preserve" xmlns:serif="http://www.serif.com/" style="fill-rule:evenodd;clip-rule:evenodd;stroke-linecap:round;stroke-miterlimit:3;"><rect id="d20_13" x="0.011" y="0.013" width="10.56" height="10.56" style="fill:none;"/><g><path d="M5.206,0.609c0.056,-0.015 0.114,-0.015 0.17,0c0.363,0.099 1.79,0.487 2.152,0.585c0.055,0.015 0.105,0.044 0.145,0.085c0.266,0.269 1.314,1.332 1.578,1.6c0.039,0.04 0.068,0.09 0.082,0.144c0.097,0.365 0.482,1.824 0.578,2.188c0.015,0.054 0.015,0.111 0,0.165c-0.096,0.364 -0.481,1.823 -0.578,2.188c-0.014,0.054 -0.043,0.104 -0.082,0.144c-0.264,0.267 -1.312,1.331 -1.578,1.6c-0.04,0.04 -0.09,0.07 -0.145,0.085c-0.362,0.098 -1.789,0.486 -2.152,0.584c-0.056,0.016 -0.114,0.016 -0.17,0c-0.363,-0.098 -1.789,-0.486 -2.152,-0.584c-0.055,-0.015 -0.105,-0.045 -0.145,-0.085c-0.265,-0.269 -1.314,-1.333 -1.578,-1.6c-0.039,-0.04 -0.068,-0.09 -0.082,-0.144c-0.096,-0.365 -0.482,-1.824 -0.578,-2.188c-0.014,-0.054 -0.014,-0.111 -0,-0.165c0.096,-0.364 0.482,-1.823 0.578,-2.188c0.014,-0.054 0.043,-0.104 0.082,-0.144c0.264,-0.268 1.313,-1.331 1.578,-1.6c0.04,-0.041 0.09,-0.07 0.145,-0.085c0.363,-0.098 1.789,-0.486 2.152,-0.585Z" style="fill:#f6f2f2;stroke:#e0cfcf;stroke-width:0.25px;"/><path d="M4.964,2.664c0.068,-0.116 0.192,-0.188 0.327,-0.188c0.135,-0 0.259,0.072 0.327,0.188c0.597,1.027 1.858,3.194 2.457,4.225c0.068,0.117 0.069,0.262 0.001,0.379c-0.067,0.117 -0.192,0.19 -0.328,0.19c-1.196,-0 -3.717,-0 -4.914,-0c-0.136,-0 -0.261,-0.073 -0.328,-0.19c-0.068,-0.117 -0.067,-0.262 0.001,-0.379c0.6,-1.031 1.86,-3.198 2.457,-4.225Z" style="fill:#e0cfcf;"/></g><g><path d="M4.832,6.693l-0,0.723l-2.154,0l-0,-0.723l0.58,-0l0,-2.779l-0.619,-0l-0,-0.724l1.649,0l-0,3.503l0.544,-0Z" style="fill:#8c7272;fill-rule:nonzero;"/><path d="M8.249,4.247c0,0.425 -0.212,0.736 -0.636,0.934c0.531,0.182 0.796,0.517 0.796,1.007c0,0.252 -0.068,0.476 -0.203,0.672c-0.136,0.195 -0.324,0.346 -0.565,0.453c-0.241,0.106 -0.513,0.159 -0.816,0.159c-1.012,0 -1.554,-0.46 -1.627,-1.382l0.92,-0.076c0.004,0.494 0.207,0.741 0.608,0.741c0.186,-0 0.336,-0.058 0.452,-0.174c0.116,-0.116 0.174,-0.259 0.174,-0.429c-0,-0.176 -0.061,-0.319 -0.184,-0.428c-0.122,-0.109 -0.296,-0.164 -0.52,-0.164c-0.036,-0 -0.114,0.005 -0.236,0.014l0,-0.771c0.26,-0.004 0.463,-0.05 0.609,-0.138c0.146,-0.088 0.219,-0.214 0.219,-0.378c-0,-0.131 -0.049,-0.238 -0.148,-0.32c-0.098,-0.082 -0.222,-0.123 -0.371,-0.123c-0.337,-0 -0.505,0.187 -0.505,0.563l-0.889,-0.075c0.03,-0.384 0.174,-0.682 0.432,-0.896c0.258,-0.215 0.598,-0.322 1.021,-0.322c0.447,0 0.803,0.102 1.07,0.305c0.266,0.203 0.399,0.479 0.399,0.828Z" style="fill:#8c7272;fill-rule:nonzero;"/></g></svg>