<?xml version="1.0" encoding="UTF-8" standalone="no"?><!DOCTYPE svg PUBLIC "-//W3C//DTD SVG 1.1//EN" "http://www.w3.org/Graphics/SVG/1.1/DTD/svg11.dtd"><svg width="100%" height="100%" viewBox="0 0 11 11" version="1.1" xmlns="http://www.w3.org/2000/svg" xmlns:xlink="http://www.w3.org/1999/xlink" xml:space="preserve" xmlns:serif="http://www.serif.com/" style="fill-rule:evenodd;clip-rule:evenodd;stroke-linecap:round;stroke-miterlimit:3;"><rect id="d20_9" x="0.094" y="0.013" width="10.56" height="10.56" style="fill:none;"/><g><path d="M5.289,0.609c0.055,-0.015 0.114,-0.015 0.169,0c0.364,0.099 1.79,0.487 2.152,0.585c0.056,0.015 0.106,0.044 0.146,0.085c0.265,0.269 1.314,1.332 1.577,1.6c0.04,0.04 0.068,0.09 0.083,0.144c0.096,0.365 0.482,1.824 0.578,2.188c0.014,0.054 0.014,0.111 -0,0.165c-0.096,0.364 -0.482,1.823 -0.578,2.188c-0.015,0.054 -0.043,0.104 -0.083,0.144c-0.263,0.267 -1.312,1.331 -1.577,1.6c-0.04,0.04 -0.09,0.07 -0.146,0.085c-0.362,0.098 -1.788,0.486 -2.152,0.584c-0.055,0.016 -0.114,0.016 -0.169,0c-0.364,-0.098 -1.79,-0.486 -2.152,-0.584c-0.055,-0.015 -0.106,-0.045 -0.146,-0.085c-0.265,-0.269 -1.314,-1.333 -1.577,-1.6c-0.04,-0.04 -0.068,-0.09 -0.082,-0.144c-0.097,-0.365 -0.482,-1.824 -0.579,-2.188c-0.014,-0.054 -0.014,-0.111 0,-0.165c0.097,-0.364 0.482,-1.823 0.579,-2.188c0.014,-0.054 0.042,-0.104 0.082,-0.144c0.263,-0.268 1.312,-1.331 1.577,-1.6c0.04,-0.041 0.091,-0.07 0.146,-0.085c0.362,-0.098 1.788,-0.486 2.152,-0.585Z" style="fill:#f6f2f2;stroke:#e0cfcf;stroke-width:0.25px;"/><path d="M5.047,2.664c0.067,-0.116 0.192,-0.188 0.327,-0.188c0.134,-0 0.259,0.072 0.326,0.188c0.598,1.027 1.858,3.194 2.458,4.225c0.068,0.117 0.068,0.262 0.001,0.379c-0.068,0.117 -0.193,0.19 -0.328,0.19c-1.197,-0 -3.718,-0 -4.915,-0c-0.135,-0 -0.26,-0.073 -0.328,-0.19c-0.067,-0.117 -0.067,-0.262 0.001,-0.379c0.6,-1.031 1.861,-3.198 2.458,-4.225Z" style="fill:#e0cfcf;"/></g><path d="M6.936,5.285c-0,1.458 -0.576,2.187 -1.728,2.187c-0.391,0 -0.708,-0.103 -0.951,-0.309c-0.243,-0.207 -0.378,-0.495 -0.406,-0.866l0.821,-0.081c0.058,0.187 0.129,0.325 0.214,0.414c0.084,0.089 0.189,0.133 0.317,0.133c0.198,-0 0.357,-0.092 0.478,-0.276c0.12,-0.184 0.2,-0.452 0.239,-0.804c-0.119,0.064 -0.25,0.114 -0.391,0.15c-0.141,0.037 -0.284,0.055 -0.43,0.055c-0.256,-0 -0.484,-0.06 -0.683,-0.181c-0.199,-0.12 -0.354,-0.283 -0.466,-0.488c-0.111,-0.205 -0.167,-0.426 -0.167,-0.663c0,-0.279 0.064,-0.527 0.19,-0.746c0.126,-0.219 0.303,-0.389 0.531,-0.512c0.228,-0.122 0.492,-0.184 0.791,-0.184c1.094,0 1.641,0.724 1.641,2.171Zm-1.607,-0.126c0.172,-0 0.373,-0.055 0.603,-0.166l-0,-0.016c-0,-0.358 -0.063,-0.638 -0.187,-0.84c-0.124,-0.203 -0.299,-0.305 -0.526,-0.305c-0.134,0 -0.248,0.062 -0.342,0.184c-0.093,0.122 -0.14,0.282 -0.14,0.478c-0,0.202 0.055,0.363 0.164,0.484c0.109,0.121 0.252,0.181 0.428,0.181Z" style="fill:#8c7272;fill-rule:nonzero;"/></svg>