<?xml version="1.0" encoding="UTF-8" standalone="no"?><!DOCTYPE svg PUBLIC "-//W3C//DTD SVG 1.1//EN" "http://www.w3.org/Graphics/SVG/1.1/DTD/svg11.dtd"><svg width="100%" height="100%" viewBox="0 0 11 11" version="1.1" xmlns="http://www.w3.org/2000/svg" xmlns:xlink="http://www.w3.org/1999/xlink" xml:space="preserve" xmlns:serif="http://www.serif.com/" style="fill-rule:evenodd;clip-rule:evenodd;stroke-linecap:round;stroke-miterlimit:3;"><rect id="d20_18" x="0.232" y="0.013" width="10.56" height="10.56" style="fill:none;"/><g><path d="M5.427,0.609c0.056,-0.015 0.114,-0.015 0.17,0c0.363,0.099 1.79,0.487 2.152,0.585c0.055,0.015 0.105,0.044 0.145,0.085c0.265,0.269 1.314,1.332 1.578,1.6c0.039,0.04 0.068,0.09 0.082,0.144c0.097,0.365 0.482,1.824 0.578,2.188c0.014,0.054 0.014,0.111 0,0.165c-0.096,0.364 -0.481,1.823 -0.578,2.188c-0.014,0.054 -0.043,0.104 -0.082,0.144c-0.264,0.267 -1.313,1.331 -1.578,1.6c-0.04,0.04 -0.09,0.07 -0.145,0.085c-0.362,0.098 -1.789,0.486 -2.152,0.584c-0.056,0.016 -0.114,0.016 -0.17,0c-0.363,-0.098 -1.789,-0.486 -2.152,-0.584c-0.055,-0.015 -0.105,-0.045 -0.145,-0.085c-0.265,-0.269 -1.314,-1.333 -1.578,-1.6c-0.039,-0.04 -0.068,-0.09 -0.082,-0.144c-0.096,-0.365 -0.482,-1.824 -0.578,-2.188c-0.014,-0.054 -0.014,-0.111 -0,-0.165c0.096,-0.364 0.482,-1.823 0.578,-2.188c0.014,-0.054 0.043,-0.104 0.082,-0.144c0.264,-0.268 1.313,-1.331 1.578,-1.6c0.04,-0.041 0.09,-0.07 0.145,-0.085c0.363,-0.098 1.789,-0.486 2.152,-0.585Z" style="fill:#f6f2f2;stroke:#e0cfcf;stroke-width:0.25px;"/><path d="M5.185,2.664c0.068,-0.116 0.192,-0.188 0.327,-0.188c0.135,-0 0.259,0.072 0.327,0.188c0.597,1.027 1.858,3.194 2.457,4.225c0.068,0.117 0.069,0.262 0.001,0.379c-0.067,0.117 -0.192,0.19 -0.328,0.19c-1.196,-0 -3.718,-0 -4.914,-0c-0.136,-0 -0.261,-0.073 -0.328,-0.19c-0.068,-0.117 -0.067,-0.262 0.001,-0.379c0.599,-1.031 1.86,-3.198 2.457,-4.225Z" style="fill:#e0cfcf;"/></g><g><path d="M5.024,6.693l-0,0.723l-2.154,0l0,-0.723l0.581,-0l-0,-2.779l-0.62,-0l-0,-0.724l1.649,0l-0,3.503l0.544,-0Z" style="fill:#8c7272;fill-rule:nonzero;"/><path d="M8.521,4.222c0,0.406 -0.206,0.729 -0.619,0.97c0.497,0.201 0.746,0.547 0.746,1.041c-0,0.394 -0.145,0.7 -0.434,0.916c-0.289,0.216 -0.678,0.323 -1.168,0.323c-0.314,0 -0.591,-0.05 -0.83,-0.151c-0.239,-0.101 -0.424,-0.246 -0.554,-0.436c-0.13,-0.19 -0.195,-0.413 -0.195,-0.669c0,-0.467 0.253,-0.809 0.758,-1.024c-0.421,-0.233 -0.631,-0.551 -0.631,-0.953c-0,-0.224 0.064,-0.422 0.192,-0.593c0.128,-0.171 0.303,-0.303 0.524,-0.394c0.222,-0.092 0.469,-0.138 0.742,-0.138c0.278,0 0.53,0.045 0.754,0.135c0.225,0.09 0.4,0.218 0.526,0.384c0.126,0.167 0.189,0.363 0.189,0.589Zm-1.469,0.656c0.153,0 0.276,-0.048 0.367,-0.144c0.092,-0.096 0.138,-0.227 0.138,-0.391c-0,-0.161 -0.044,-0.288 -0.132,-0.382c-0.088,-0.093 -0.214,-0.14 -0.379,-0.14c-0.146,0 -0.263,0.044 -0.353,0.132c-0.09,0.088 -0.135,0.221 -0.135,0.401c0,0.153 0.046,0.279 0.138,0.377c0.091,0.098 0.21,0.147 0.356,0.147Zm0.011,1.891c0.172,-0 0.313,-0.06 0.422,-0.179c0.11,-0.118 0.164,-0.266 0.164,-0.444c0,-0.176 -0.055,-0.325 -0.167,-0.447c-0.111,-0.123 -0.253,-0.184 -0.425,-0.184c-0.164,-0 -0.301,0.061 -0.41,0.184c-0.11,0.122 -0.164,0.271 -0.164,0.447c-0,0.178 0.054,0.326 0.164,0.444c0.109,0.119 0.248,0.179 0.416,0.179Z" style="fill:#8c7272;fill-rule:nonzero;"/></g></svg>