<?xml version="1.0" encoding="UTF-8" standalone="no"?><!DOCTYPE svg PUBLIC "-//W3C//DTD SVG 1.1//EN" "http://www.w3.org/Graphics/SVG/1.1/DTD/svg11.dtd"><svg width="100%" height="100%" viewBox="0 0 11 11" version="1.1" xmlns="http://www.w3.org/2000/svg" xmlns:xlink="http://www.w3.org/1999/xlink" xml:space="preserve" xmlns:serif="http://www.serif.com/" style="fill-rule:evenodd;clip-rule:evenodd;stroke-linejoin:round;stroke-miterlimit:2;"><rect id="d20_10" x="0.041" y="0.013" width="10.56" height="10.56" style="fill:none;"/><g><path d="M5.237,0.609c0.055,-0.015 0.114,-0.015 0.169,0c0.364,0.099 1.79,0.487 2.152,0.585c0.055,0.015 0.106,0.044 0.146,0.085c0.265,0.269 1.314,1.332 1.577,1.6c0.04,0.04 0.068,0.09 0.082,0.144c0.097,0.365 0.482,1.824 0.579,2.188c0.014,0.054 0.014,0.111 -0,0.165c-0.097,0.364 -0.482,1.823 -0.579,2.188c-0.014,0.054 -0.042,0.104 -0.082,0.144c-0.263,0.267 -1.312,1.331 -1.577,1.6c-0.04,0.04 -0.091,0.07 -0.146,0.085c-0.362,0.098 -1.788,0.486 -2.152,0.584c-0.055,0.016 -0.114,0.016 -0.169,0c-0.364,-0.098 -1.79,-0.486 -2.153,-0.584c-0.055,-0.015 -0.105,-0.045 -0.145,-0.085c-0.265,-0.269 -1.314,-1.333 -1.577,-1.6c-0.04,-0.04 -0.068,-0.09 -0.083,-0.144c-0.096,-0.365 -0.482,-1.824 -0.578,-2.188c-0.014,-0.054 -0.014,-0.111 0,-0.165c0.096,-0.364 0.482,-1.823 0.578,-2.188c0.015,-0.054 0.043,-0.104 0.083,-0.144c0.263,-0.268 1.312,-1.331 1.577,-1.6c0.04,-0.041 0.09,-0.07 0.145,-0.085c0.363,-0.098 1.789,-0.486 2.153,-0.585Z" style="fill:#f6f2f2;"/><path d="M4.994,2.664c0.068,-0.116 0.193,-0.188 0.327,-0.188c0.135,-0 0.26,0.072 0.327,0.188c0.597,1.027 1.858,3.194 2.458,4.225c0.068,0.117 0.068,0.262 0.001,0.379c-0.068,0.117 -0.193,0.19 -0.328,0.19c-1.197,-0 -3.718,-0 -4.915,-0c-0.135,-0 -0.26,-0.073 -0.328,-0.19c-0.067,-0.117 -0.067,-0.262 0.001,-0.379c0.6,-1.031 1.86,-3.198 2.457,-4.225Z" style="fill:#e0cfcf;"/></g><g><path d="M4.891,6.693l-0,0.723l-2.154,0l-0,-0.723l0.58,-0l0,-2.779l-0.619,-0l-0,-0.724l1.649,0l-0,3.503l0.544,-0Z" style="fill:#8c7272;fill-rule:nonzero;"/><path d="M8.411,5.291c-0,0.712 -0.136,1.254 -0.407,1.625c-0.271,0.371 -0.662,0.556 -1.172,0.556c-0.512,0 -0.904,-0.185 -1.174,-0.556c-0.27,-0.371 -0.405,-0.913 -0.405,-1.625c-0,-0.696 0.134,-1.232 0.402,-1.61c0.269,-0.378 0.661,-0.567 1.177,-0.567c0.521,0 0.915,0.185 1.181,0.554c0.265,0.37 0.398,0.91 0.398,1.623Zm-2.095,-0c-0,0.489 0.042,0.852 0.126,1.088c0.084,0.235 0.216,0.353 0.395,0.353c0.18,0 0.311,-0.118 0.393,-0.353c0.082,-0.236 0.123,-0.599 0.123,-1.088c0,-0.965 -0.172,-1.447 -0.516,-1.447c-0.179,-0 -0.311,0.12 -0.395,0.361c-0.084,0.242 -0.126,0.603 -0.126,1.086Z" style="fill:#8c7272;fill-rule:nonzero;"/></g></svg>