<?xml version="1.0" encoding="UTF-8" standalone="no"?><!DOCTYPE svg PUBLIC "-//W3C//DTD SVG 1.1//EN" "http://www.w3.org/Graphics/SVG/1.1/DTD/svg11.dtd"><svg width="100%" height="100%" viewBox="0 0 11 11" version="1.1" xmlns="http://www.w3.org/2000/svg" xmlns:xlink="http://www.w3.org/1999/xlink" xml:space="preserve" xmlns:serif="http://www.serif.com/" style="fill-rule:evenodd;clip-rule:evenodd;stroke-linecap:round;stroke-miterlimit:3;"><rect id="d20_20" x="0.233" y="0.013" width="10.56" height="10.56" style="fill:none;"/><g><path d="M5.429,0.609c0.055,-0.015 0.114,-0.015 0.169,0c0.364,0.099 1.79,0.487 2.152,0.585c0.055,0.015 0.105,0.044 0.145,0.085c0.266,0.269 1.314,1.332 1.578,1.6c0.04,0.04 0.068,0.09 0.082,0.144c0.097,0.365 0.482,1.824 0.578,2.188c0.015,0.054 0.015,0.111 0,0.165c-0.096,0.364 -0.481,1.823 -0.578,2.188c-0.014,0.054 -0.042,0.104 -0.082,0.144c-0.264,0.267 -1.312,1.331 -1.578,1.6c-0.04,0.04 -0.09,0.07 -0.145,0.085c-0.362,0.098 -1.788,0.486 -2.152,0.584c-0.055,0.016 -0.114,0.016 -0.169,0c-0.364,-0.098 -1.79,-0.486 -2.153,-0.584c-0.055,-0.015 -0.105,-0.045 -0.145,-0.085c-0.265,-0.269 -1.314,-1.333 -1.577,-1.6c-0.04,-0.04 -0.068,-0.09 -0.083,-0.144c-0.096,-0.365 -0.482,-1.824 -0.578,-2.188c-0.014,-0.054 -0.014,-0.111 0,-0.165c0.096,-0.364 0.482,-1.823 0.578,-2.188c0.015,-0.054 0.043,-0.104 0.083,-0.144c0.263,-0.268 1.312,-1.331 1.577,-1.6c0.04,-0.041 0.09,-0.07 0.145,-0.085c0.363,-0.098 1.789,-0.486 2.153,-0.585Z" style="fill:#f6f2f2;stroke:#e0cfcf;stroke-width:0.25px;"/><path d="M5.186,2.664c0.068,-0.116 0.193,-0.188 0.327,-0.188c0.135,-0 0.259,0.072 0.327,0.188c0.597,1.027 1.858,3.194 2.458,4.225c0.068,0.117 0.068,0.262 0,0.379c-0.067,0.117 -0.192,0.19 -0.327,0.19c-1.197,-0 -3.718,-0 -4.915,-0c-0.135,-0 -0.26,-0.073 -0.328,-0.19c-0.067,-0.117 -0.067,-0.262 0.001,-0.379c0.6,-1.031 1.86,-3.198 2.457,-4.225Z" style="fill:#e0cfcf;"/></g><g><path d="M5.302,4.303c0,0.215 -0.048,0.402 -0.144,0.561c-0.097,0.159 -0.226,0.304 -0.389,0.434c-0.162,0.13 -0.399,0.288 -0.709,0.475c-0.505,0.31 -0.785,0.617 -0.839,0.92l1.276,-0l0,-0.547l0.856,-0l-0.051,1.27l-3.079,0c-0,-0.375 0.045,-0.685 0.135,-0.928c0.089,-0.243 0.231,-0.466 0.424,-0.669c0.194,-0.203 0.479,-0.443 0.854,-0.722c0.198,-0.146 0.349,-0.287 0.453,-0.423c0.104,-0.137 0.156,-0.277 0.156,-0.421c-0,-0.142 -0.041,-0.25 -0.124,-0.323c-0.082,-0.072 -0.2,-0.109 -0.353,-0.109c-0.198,0 -0.345,0.069 -0.442,0.206c-0.096,0.138 -0.153,0.362 -0.172,0.672l-0.878,-0.034c0.011,-0.521 0.145,-0.91 0.401,-1.166c0.256,-0.257 0.64,-0.385 1.15,-0.385c0.458,0 0.818,0.106 1.081,0.316c0.263,0.21 0.394,0.501 0.394,0.873Z" style="fill:#8c7272;fill-rule:nonzero;"/><path d="M8.804,5.291c-0,0.712 -0.136,1.254 -0.407,1.625c-0.271,0.371 -0.662,0.556 -1.172,0.556c-0.513,0 -0.904,-0.185 -1.174,-0.556c-0.27,-0.371 -0.405,-0.913 -0.405,-1.625c-0,-0.696 0.134,-1.232 0.402,-1.61c0.269,-0.378 0.661,-0.567 1.177,-0.567c0.521,0 0.915,0.185 1.18,0.554c0.266,0.37 0.399,0.91 0.399,1.623Zm-2.095,-0c-0,0.489 0.042,0.852 0.126,1.088c0.084,0.235 0.216,0.353 0.395,0.353c0.18,0 0.311,-0.118 0.393,-0.353c0.082,-0.236 0.123,-0.599 0.123,-1.088c0,-0.965 -0.172,-1.447 -0.516,-1.447c-0.179,-0 -0.311,0.12 -0.395,0.361c-0.084,0.242 -0.126,0.603 -0.126,1.086Z" style="fill:#8c7272;fill-rule:nonzero;"/></g></svg>