<?xml version="1.0" encoding="UTF-8" standalone="no"?><!DOCTYPE svg PUBLIC "-//W3C//DTD SVG 1.1//EN" "http://www.w3.org/Graphics/SVG/1.1/DTD/svg11.dtd"><svg width="100%" height="100%" viewBox="0 0 11 11" version="1.1" xmlns="http://www.w3.org/2000/svg" xmlns:xlink="http://www.w3.org/1999/xlink" xml:space="preserve" xmlns:serif="http://www.serif.com/" style="fill-rule:evenodd;clip-rule:evenodd;stroke-linecap:round;stroke-miterlimit:3;"><rect id="d20_6" x="0.015" y="0.013" width="10.56" height="10.56" style="fill:none;"/><g><path d="M5.21,0.609c0.055,-0.015 0.114,-0.015 0.169,0c0.364,0.099 1.79,0.487 2.152,0.585c0.055,0.015 0.106,0.044 0.146,0.085c0.265,0.269 1.314,1.332 1.577,1.6c0.04,0.04 0.068,0.09 0.083,0.144c0.096,0.365 0.482,1.824 0.578,2.188c0.014,0.054 0.014,0.111 -0,0.165c-0.096,0.364 -0.482,1.823 -0.578,2.188c-0.015,0.054 -0.043,0.104 -0.083,0.144c-0.263,0.267 -1.312,1.331 -1.577,1.6c-0.04,0.04 -0.091,0.07 -0.146,0.085c-0.362,0.098 -1.788,0.486 -2.152,0.584c-0.055,0.016 -0.114,0.016 -0.169,0c-0.364,-0.098 -1.79,-0.486 -2.152,-0.584c-0.055,-0.015 -0.106,-0.045 -0.146,-0.085c-0.265,-0.269 -1.314,-1.333 -1.577,-1.6c-0.04,-0.04 -0.068,-0.09 -0.083,-0.144c-0.096,-0.365 -0.482,-1.824 -0.578,-2.188c-0.014,-0.054 -0.014,-0.111 0,-0.165c0.096,-0.364 0.482,-1.823 0.578,-2.188c0.015,-0.054 0.043,-0.104 0.083,-0.144c0.263,-0.268 1.312,-1.331 1.577,-1.6c0.04,-0.041 0.091,-0.07 0.146,-0.085c0.362,-0.098 1.788,-0.486 2.152,-0.585Z" style="fill:#f6f2f2;stroke:#e0cfcf;stroke-width:0.25px;"/><path d="M4.968,2.664c0.067,-0.116 0.192,-0.188 0.327,-0.188c0.134,-0 0.259,0.072 0.326,0.188c0.598,1.027 1.858,3.194 2.458,4.225c0.068,0.117 0.068,0.262 0.001,0.379c-0.068,0.117 -0.193,0.19 -0.328,0.19c-1.197,-0 -3.718,-0 -4.915,-0c-0.135,-0 -0.26,-0.073 -0.328,-0.19c-0.067,-0.117 -0.067,-0.262 0.001,-0.379c0.6,-1.031 1.861,-3.198 2.458,-4.225Z" style="fill:#e0cfcf;"/></g><path d="M6.8,4.275l-0.832,0.073c-0.096,-0.351 -0.28,-0.527 -0.553,-0.527c-0.202,0 -0.364,0.093 -0.486,0.279c-0.123,0.186 -0.196,0.451 -0.221,0.795c0.227,-0.146 0.487,-0.219 0.783,-0.219c0.267,0 0.504,0.059 0.711,0.176c0.206,0.117 0.367,0.276 0.482,0.476c0.115,0.201 0.173,0.428 0.173,0.681c-0,0.452 -0.13,0.809 -0.39,1.071c-0.26,0.262 -0.618,0.392 -1.074,0.392c-0.582,0 -1.01,-0.172 -1.286,-0.518c-0.276,-0.346 -0.414,-0.883 -0.414,-1.61c0,-0.731 0.149,-1.285 0.447,-1.663c0.299,-0.378 0.738,-0.567 1.317,-0.567c0.804,0 1.252,0.387 1.343,1.161Zm-2.097,1.31c-0,0.413 0.056,0.711 0.169,0.892c0.114,0.181 0.285,0.272 0.515,0.272c0.15,-0 0.271,-0.059 0.365,-0.178c0.093,-0.119 0.14,-0.287 0.14,-0.504c-0,-0.203 -0.052,-0.361 -0.157,-0.472c-0.105,-0.111 -0.25,-0.167 -0.435,-0.167c-0.176,0 -0.375,0.052 -0.597,0.157Z" style="fill:#8c7272;fill-rule:nonzero;"/></svg>