<?xml version="1.0" encoding="UTF-8" standalone="no"?><!DOCTYPE svg PUBLIC "-//W3C//DTD SVG 1.1//EN" "http://www.w3.org/Graphics/SVG/1.1/DTD/svg11.dtd"><svg width="100%" height="100%" viewBox="0 0 11 11" version="1.1" xmlns="http://www.w3.org/2000/svg" xmlns:xlink="http://www.w3.org/1999/xlink" xml:space="preserve" xmlns:serif="http://www.serif.com/" style="fill-rule:evenodd;clip-rule:evenodd;stroke-linejoin:round;stroke-miterlimit:2;"><rect id="d24_16" x="0.175" y="0.117" width="10.56" height="10.56" style="fill:none;"/><g><path d="M5.255,0.555c0.131,-0.03 0.268,-0.03 0.4,-0c0.405,0.092 1.316,0.3 1.72,0.392c0.132,0.03 0.256,0.09 0.361,0.174c0.325,0.259 1.055,0.841 1.38,1.1c0.105,0.084 0.191,0.192 0.25,0.313c0.18,0.374 0.585,1.216 0.765,1.59c0.059,0.122 0.089,0.255 0.089,0.391l0,1.764c0,0.135 -0.03,0.269 -0.089,0.391c-0.18,0.374 -0.585,1.215 -0.765,1.589c-0.059,0.122 -0.145,0.229 -0.25,0.313c-0.325,0.259 -1.055,0.841 -1.38,1.1c-0.105,0.085 -0.229,0.144 -0.361,0.174c-0.404,0.093 -1.315,0.3 -1.72,0.393c-0.132,0.03 -0.269,0.03 -0.4,-0c-0.405,-0.093 -1.316,-0.3 -1.72,-0.393c-0.132,-0.03 -0.256,-0.089 -0.362,-0.174c-0.324,-0.259 -1.054,-0.841 -1.379,-1.1c-0.106,-0.084 -0.191,-0.191 -0.25,-0.313c-0.18,-0.374 -0.585,-1.215 -0.765,-1.589c-0.059,-0.122 -0.089,-0.256 -0.089,-0.391l-0,-1.764c-0,-0.136 0.03,-0.269 0.089,-0.391c0.18,-0.374 0.585,-1.216 0.765,-1.59c0.059,-0.121 0.144,-0.229 0.25,-0.313c0.325,-0.259 1.055,-0.841 1.379,-1.1c0.106,-0.084 0.23,-0.144 0.362,-0.174c0.404,-0.092 1.315,-0.3 1.72,-0.392Z" style="fill:#676767;"/><path d="M4.644,3.075c0.152,-0.317 0.473,-0.519 0.825,-0.518c0.352,0.001 0.672,0.204 0.822,0.523c0.436,0.922 0.947,2.005 1.274,2.699c0.194,0.411 0.064,0.901 -0.308,1.161c-0.174,0.122 -0.369,0.258 -0.564,0.395c-0.743,0.52 -1.733,0.52 -2.476,-0c-0.194,-0.136 -0.387,-0.271 -0.56,-0.392c-0.374,-0.261 -0.503,-0.755 -0.307,-1.166c0.333,-0.695 0.852,-1.78 1.294,-2.702Z" style="fill:#888;"/></g><g><path d="M4.923,6.824l0,0.724l-2.153,-0l-0,-0.724l0.58,0l0,-2.779l-0.62,-0l0,-0.724l1.649,0l0,3.503l0.544,0Z" style="fill:#fff;fill-rule:nonzero;"/><path d="M8.497,4.407l-0.833,0.073c-0.096,-0.352 -0.28,-0.528 -0.553,-0.528c-0.202,0 -0.364,0.093 -0.486,0.279c-0.123,0.186 -0.196,0.451 -0.221,0.795c0.227,-0.145 0.488,-0.218 0.783,-0.218c0.267,-0 0.504,0.058 0.711,0.175c0.206,0.117 0.367,0.276 0.482,0.477c0.115,0.201 0.173,0.427 0.173,0.68c-0,0.452 -0.13,0.809 -0.39,1.071c-0.26,0.262 -0.618,0.393 -1.074,0.393c-0.582,-0 -1.01,-0.173 -1.286,-0.519c-0.276,-0.346 -0.414,-0.883 -0.414,-1.61c0,-0.731 0.149,-1.285 0.448,-1.663c0.298,-0.377 0.737,-0.566 1.316,-0.566c0.804,-0 1.252,0.387 1.344,1.161Zm-2.098,1.309c-0,0.414 0.056,0.711 0.17,0.892c0.113,0.182 0.284,0.272 0.514,0.272c0.15,0 0.271,-0.059 0.365,-0.178c0.093,-0.119 0.14,-0.286 0.14,-0.503c-0,-0.204 -0.052,-0.362 -0.157,-0.473c-0.105,-0.111 -0.25,-0.167 -0.435,-0.167c-0.176,0 -0.375,0.053 -0.597,0.157Z" style="fill:#fff;fill-rule:nonzero;"/></g></svg>