<?xml version="1.0" encoding="UTF-8" standalone="no"?><!DOCTYPE svg PUBLIC "-//W3C//DTD SVG 1.1//EN" "http://www.w3.org/Graphics/SVG/1.1/DTD/svg11.dtd"><svg width="100%" height="100%" viewBox="0 0 11 11" version="1.1" xmlns="http://www.w3.org/2000/svg" xmlns:xlink="http://www.w3.org/1999/xlink" xml:space="preserve" xmlns:serif="http://www.serif.com/" style="fill-rule:evenodd;clip-rule:evenodd;stroke-linejoin:round;stroke-miterlimit:2;"><rect id="d24_4" x="0.135" y="0.117" width="10.56" height="10.56" style="fill:none;"/><g><path d="M5.215,0.555c0.131,-0.03 0.268,-0.03 0.4,-0c0.405,0.092 1.316,0.3 1.72,0.392c0.132,0.03 0.256,0.09 0.361,0.174c0.325,0.259 1.055,0.841 1.38,1.1c0.105,0.084 0.191,0.192 0.25,0.313c0.18,0.374 0.585,1.216 0.765,1.59c0.059,0.122 0.089,0.255 0.089,0.391l0,1.764c0,0.135 -0.03,0.269 -0.089,0.391c-0.18,0.374 -0.585,1.215 -0.765,1.589c-0.059,0.122 -0.145,0.229 -0.25,0.313c-0.325,0.259 -1.055,0.841 -1.38,1.1c-0.105,0.085 -0.229,0.144 -0.361,0.174c-0.404,0.093 -1.315,0.3 -1.72,0.393c-0.132,0.03 -0.269,0.03 -0.4,-0c-0.405,-0.093 -1.316,-0.3 -1.72,-0.393c-0.132,-0.03 -0.256,-0.089 -0.362,-0.174c-0.324,-0.259 -1.054,-0.841 -1.379,-1.1c-0.106,-0.084 -0.191,-0.191 -0.25,-0.313c-0.18,-0.374 -0.585,-1.215 -0.765,-1.589c-0.059,-0.122 -0.089,-0.256 -0.089,-0.391l-0,-1.764c-0,-0.136 0.03,-0.269 0.089,-0.391c0.18,-0.374 0.585,-1.216 0.765,-1.59c0.059,-0.121 0.144,-0.229 0.25,-0.313c0.325,-0.259 1.055,-0.841 1.379,-1.1c0.106,-0.084 0.23,-0.144 0.362,-0.174c0.404,-0.092 1.315,-0.3 1.72,-0.392Z" style="fill:#9f7ac3;"/><path d="M4.604,3.075c0.152,-0.317 0.473,-0.519 0.825,-0.518c0.352,0.001 0.672,0.204 0.822,0.523c0.436,0.922 0.947,2.005 1.274,2.699c0.194,0.411 0.064,0.901 -0.308,1.161c-0.174,0.122 -0.369,0.258 -0.564,0.395c-0.743,0.52 -1.733,0.52 -2.476,-0c-0.194,-0.136 -0.387,-0.271 -0.56,-0.392c-0.374,-0.261 -0.503,-0.755 -0.307,-1.166c0.333,-0.695 0.852,-1.78 1.294,-2.702Z" style="fill:#905cc3;"/></g><path d="M6.694,5.711l0,0.687l-0.448,-0l-0,0.482l0.392,0l0,0.668l-1.873,-0l-0,-0.668l0.51,0l0,-0.482l-1.744,-0c-0.094,-0.26 -0.17,-0.447 -0.23,-0.561l2.033,-2.591l0.912,-0l-0,2.465l0.448,-0Zm-2.395,-0l0.976,-0l0,-1.22l-0.976,1.22Z" style="fill:#fff;fill-rule:nonzero;"/></svg>