<?xml version="1.0" encoding="UTF-8" standalone="no"?><!DOCTYPE svg PUBLIC "-//W3C//DTD SVG 1.1//EN" "http://www.w3.org/Graphics/SVG/1.1/DTD/svg11.dtd"><svg width="100%" height="100%" viewBox="0 0 11 11" version="1.1" xmlns="http://www.w3.org/2000/svg" xmlns:xlink="http://www.w3.org/1999/xlink" xml:space="preserve" xmlns:serif="http://www.serif.com/" style="fill-rule:evenodd;clip-rule:evenodd;stroke-linejoin:round;stroke-miterlimit:2;"><rect id="d24_13" x="0.186" y="0.117" width="10.56" height="10.56" style="fill:none;"/><g><path d="M5.265,0.555c0.132,-0.03 0.269,-0.03 0.401,-0c0.405,0.092 1.315,0.3 1.72,0.392c0.132,0.03 0.255,0.09 0.361,0.174c0.325,0.259 1.055,0.841 1.379,1.1c0.106,0.084 0.192,0.192 0.25,0.313c0.18,0.374 0.586,1.216 0.766,1.59c0.058,0.122 0.089,0.255 0.089,0.391l-0,1.764c-0,0.135 -0.031,0.269 -0.089,0.391c-0.18,0.374 -0.586,1.215 -0.766,1.589c-0.058,0.122 -0.144,0.229 -0.25,0.313c-0.324,0.259 -1.054,0.841 -1.379,1.1c-0.106,0.085 -0.229,0.144 -0.361,0.174c-0.405,0.093 -1.315,0.3 -1.72,0.393c-0.132,0.03 -0.269,0.03 -0.401,-0c-0.405,-0.093 -1.315,-0.3 -1.72,-0.393c-0.132,-0.03 -0.255,-0.089 -0.361,-0.174c-0.324,-0.259 -1.055,-0.841 -1.379,-1.1c-0.106,-0.084 -0.191,-0.191 -0.25,-0.313c-0.18,-0.374 -0.585,-1.215 -0.765,-1.589c-0.059,-0.122 -0.09,-0.256 -0.09,-0.391l0,-1.764c0,-0.136 0.031,-0.269 0.09,-0.391c0.18,-0.374 0.585,-1.216 0.765,-1.59c0.059,-0.121 0.144,-0.229 0.25,-0.313c0.324,-0.259 1.055,-0.841 1.379,-1.1c0.106,-0.084 0.229,-0.144 0.361,-0.174c0.405,-0.092 1.315,-0.3 1.72,-0.392Z" style="fill:#676767;"/><path d="M4.654,3.075c0.152,-0.317 0.474,-0.519 0.826,-0.518c0.352,0.001 0.672,0.204 0.822,0.523c0.435,0.922 0.946,2.005 1.274,2.699c0.194,0.411 0.063,0.901 -0.309,1.161c-0.174,0.122 -0.368,0.258 -0.563,0.395c-0.744,0.52 -1.733,0.52 -2.477,-0c-0.193,-0.136 -0.386,-0.271 -0.56,-0.392c-0.373,-0.261 -0.503,-0.755 -0.306,-1.166c0.333,-0.695 0.852,-1.78 1.293,-2.702Z" style="fill:#888;"/></g><g><path d="M4.934,6.824l-0,0.724l-2.154,-0l0,-0.724l0.581,0l-0,-2.779l-0.62,-0l-0,-0.724l1.649,0l-0,3.503l0.544,0Z" style="fill:#fff;fill-rule:nonzero;"/><path d="M8.409,4.379c0,0.424 -0.212,0.735 -0.637,0.934c0.531,0.181 0.797,0.516 0.797,1.006c-0,0.253 -0.068,0.477 -0.203,0.672c-0.136,0.195 -0.324,0.346 -0.566,0.453c-0.241,0.106 -0.513,0.16 -0.816,0.16c-1.011,-0 -1.553,-0.461 -1.626,-1.383l0.92,-0.076c0.003,0.494 0.206,0.741 0.608,0.741c0.185,-0 0.336,-0.058 0.452,-0.174c0.116,-0.116 0.174,-0.259 0.174,-0.429c-0,-0.176 -0.062,-0.318 -0.184,-0.428c-0.123,-0.109 -0.296,-0.164 -0.52,-0.164c-0.036,0 -0.114,0.005 -0.236,0.014l0,-0.771c0.26,-0.004 0.463,-0.05 0.609,-0.137c0.146,-0.088 0.218,-0.215 0.218,-0.379c0,-0.131 -0.049,-0.238 -0.147,-0.32c-0.098,-0.082 -0.222,-0.123 -0.371,-0.123c-0.337,-0 -0.505,0.188 -0.505,0.564l-0.889,-0.076c0.03,-0.383 0.174,-0.682 0.432,-0.896c0.258,-0.214 0.598,-0.321 1.021,-0.321c0.446,-0 0.803,0.101 1.069,0.304c0.267,0.203 0.4,0.479 0.4,0.829Z" style="fill:#fff;fill-rule:nonzero;"/></g></svg>