<?xml version="1.0" encoding="UTF-8" standalone="no"?><!DOCTYPE svg PUBLIC "-//W3C//DTD SVG 1.1//EN" "http://www.w3.org/Graphics/SVG/1.1/DTD/svg11.dtd"><svg width="100%" height="100%" viewBox="0 0 11 11" version="1.1" xmlns="http://www.w3.org/2000/svg" xmlns:xlink="http://www.w3.org/1999/xlink" xml:space="preserve" xmlns:serif="http://www.serif.com/" style="fill-rule:evenodd;clip-rule:evenodd;stroke-linejoin:round;stroke-miterlimit:2;"><rect id="d24_3" x="0.216" y="0.117" width="10.56" height="10.56" style="fill:none;"/><g><path d="M5.295,0.555c0.132,-0.03 0.269,-0.03 0.401,-0c0.405,0.092 1.315,0.3 1.72,0.392c0.132,0.03 0.256,0.09 0.361,0.174c0.325,0.259 1.055,0.841 1.38,1.1c0.105,0.084 0.191,0.192 0.25,0.313c0.18,0.374 0.585,1.216 0.765,1.59c0.059,0.122 0.089,0.255 0.089,0.391l0,1.764c0,0.135 -0.03,0.269 -0.089,0.391c-0.18,0.374 -0.585,1.215 -0.765,1.589c-0.059,0.122 -0.145,0.229 -0.25,0.313c-0.325,0.259 -1.055,0.841 -1.38,1.1c-0.105,0.085 -0.229,0.144 -0.361,0.174c-0.405,0.093 -1.315,0.3 -1.72,0.393c-0.132,0.03 -0.269,0.03 -0.401,-0c-0.404,-0.093 -1.315,-0.3 -1.719,-0.393c-0.132,-0.03 -0.256,-0.089 -0.362,-0.174c-0.324,-0.259 -1.054,-0.841 -1.379,-1.1c-0.106,-0.084 -0.191,-0.191 -0.25,-0.313c-0.18,-0.374 -0.585,-1.215 -0.765,-1.589c-0.059,-0.122 -0.089,-0.256 -0.089,-0.391l-0,-1.764c-0,-0.136 0.03,-0.269 0.089,-0.391c0.18,-0.374 0.585,-1.216 0.765,-1.59c0.059,-0.121 0.144,-0.229 0.25,-0.313c0.325,-0.259 1.055,-0.841 1.379,-1.1c0.106,-0.084 0.23,-0.144 0.362,-0.174c0.404,-0.092 1.315,-0.3 1.719,-0.392Z" style="fill:#9f7ac3;"/><path d="M4.685,3.075c0.152,-0.317 0.473,-0.519 0.825,-0.518c0.352,0.001 0.672,0.204 0.822,0.523c0.436,0.922 0.947,2.005 1.274,2.699c0.194,0.411 0.064,0.901 -0.308,1.161c-0.174,0.122 -0.369,0.258 -0.564,0.395c-0.743,0.52 -1.733,0.52 -2.476,-0c-0.194,-0.136 -0.387,-0.271 -0.56,-0.392c-0.374,-0.261 -0.504,-0.755 -0.307,-1.166c0.333,-0.695 0.852,-1.78 1.294,-2.702Z" style="fill:#905cc3;"/></g><path d="M6.86,4.379c0,0.424 -0.212,0.735 -0.636,0.934c0.531,0.181 0.796,0.516 0.796,1.006c0,0.253 -0.068,0.477 -0.203,0.672c-0.136,0.195 -0.324,0.346 -0.565,0.453c-0.241,0.106 -0.514,0.16 -0.816,0.16c-1.012,-0 -1.554,-0.461 -1.627,-1.383l0.92,-0.076c0.004,0.494 0.206,0.741 0.608,0.741c0.186,-0 0.336,-0.058 0.452,-0.174c0.116,-0.116 0.174,-0.259 0.174,-0.429c-0,-0.176 -0.061,-0.318 -0.184,-0.428c-0.122,-0.109 -0.296,-0.164 -0.52,-0.164c-0.036,0 -0.114,0.005 -0.236,0.014l0,-0.771c0.26,-0.004 0.463,-0.05 0.609,-0.137c0.146,-0.088 0.219,-0.215 0.219,-0.379c-0,-0.131 -0.049,-0.238 -0.148,-0.32c-0.098,-0.082 -0.222,-0.123 -0.371,-0.123c-0.337,-0 -0.505,0.188 -0.505,0.564l-0.889,-0.076c0.03,-0.383 0.174,-0.682 0.432,-0.896c0.258,-0.214 0.598,-0.321 1.021,-0.321c0.447,-0 0.803,0.101 1.07,0.304c0.266,0.203 0.399,0.479 0.399,0.829Z" style="fill:#fff;fill-rule:nonzero;"/></svg>