<?xml version="1.0" encoding="UTF-8" standalone="no"?><!DOCTYPE svg PUBLIC "-//W3C//DTD SVG 1.1//EN" "http://www.w3.org/Graphics/SVG/1.1/DTD/svg11.dtd"><svg width="100%" height="100%" viewBox="0 0 11 11" version="1.1" xmlns="http://www.w3.org/2000/svg" xmlns:xlink="http://www.w3.org/1999/xlink" xml:space="preserve" xmlns:serif="http://www.serif.com/" style="fill-rule:evenodd;clip-rule:evenodd;stroke-linejoin:round;stroke-miterlimit:2;"><rect id="d24_15" x="0.016" y="0.117" width="10.56" height="10.56" style="fill:none;"/><g><path d="M5.095,0.555c0.132,-0.03 0.269,-0.03 0.401,-0c0.405,0.092 1.315,0.3 1.72,0.392c0.132,0.03 0.256,0.09 0.361,0.174c0.325,0.259 1.055,0.841 1.38,1.1c0.105,0.084 0.191,0.192 0.25,0.313c0.18,0.374 0.585,1.216 0.765,1.59c0.059,0.122 0.089,0.255 0.089,0.391l0,1.764c0,0.135 -0.03,0.269 -0.089,0.391c-0.18,0.374 -0.585,1.215 -0.765,1.589c-0.059,0.122 -0.145,0.229 -0.25,0.313c-0.325,0.259 -1.055,0.841 -1.38,1.1c-0.105,0.085 -0.229,0.144 -0.361,0.174c-0.405,0.093 -1.315,0.3 -1.72,0.393c-0.132,0.03 -0.269,0.03 -0.401,-0c-0.404,-0.093 -1.315,-0.3 -1.719,-0.393c-0.132,-0.03 -0.256,-0.089 -0.362,-0.174c-0.324,-0.259 -1.054,-0.841 -1.379,-1.1c-0.106,-0.084 -0.191,-0.191 -0.25,-0.313c-0.18,-0.374 -0.585,-1.215 -0.765,-1.589c-0.059,-0.122 -0.089,-0.256 -0.089,-0.391l-0,-1.764c-0,-0.136 0.03,-0.269 0.089,-0.391c0.18,-0.374 0.585,-1.216 0.765,-1.59c0.059,-0.121 0.144,-0.229 0.25,-0.313c0.325,-0.259 1.055,-0.841 1.379,-1.1c0.106,-0.084 0.23,-0.144 0.362,-0.174c0.404,-0.092 1.315,-0.3 1.719,-0.392Z" style="fill:#9f7ac3;"/><path d="M4.485,3.075c0.152,-0.317 0.473,-0.519 0.825,-0.518c0.352,0.001 0.672,0.204 0.822,0.523c0.436,0.922 0.947,2.005 1.274,2.699c0.194,0.411 0.064,0.901 -0.308,1.161c-0.174,0.122 -0.369,0.258 -0.564,0.395c-0.743,0.52 -1.733,0.52 -2.476,-0c-0.194,-0.136 -0.387,-0.271 -0.56,-0.392c-0.374,-0.261 -0.504,-0.755 -0.307,-1.166c0.333,-0.695 0.852,-1.78 1.294,-2.702Z" style="fill:#905cc3;"/></g><g><path d="M4.736,6.824l-0,0.724l-2.154,-0l-0,-0.724l0.58,0l0,-2.779l-0.62,-0l0,-0.724l1.649,0l0,3.503l0.545,0Z" style="fill:#fff;fill-rule:nonzero;"/><path d="M7.505,4.353l-0.075,-0.308l-1.156,-0l-0.084,0.895c0.234,-0.122 0.48,-0.183 0.74,-0.183c0.3,0 0.563,0.061 0.79,0.181c0.227,0.121 0.403,0.288 0.527,0.502c0.124,0.214 0.187,0.447 0.187,0.7c-0,0.292 -0.067,0.55 -0.201,0.774c-0.134,0.224 -0.324,0.395 -0.571,0.513c-0.246,0.118 -0.534,0.177 -0.863,0.177c-0.445,-0 -0.808,-0.108 -1.087,-0.324c-0.28,-0.216 -0.447,-0.518 -0.501,-0.905l0.903,-0.109c0.066,0.409 0.272,0.614 0.62,0.614c0.208,0 0.366,-0.058 0.474,-0.174c0.108,-0.116 0.163,-0.281 0.163,-0.496c-0,-0.475 -0.205,-0.712 -0.615,-0.712c-0.241,-0 -0.444,0.113 -0.608,0.339l-0.746,-0.367l0.149,-2.149l2.672,0l0,1.032l-0.718,0Z" style="fill:#fff;fill-rule:nonzero;"/></g></svg>