<?xml version="1.0" encoding="UTF-8" standalone="no"?><!DOCTYPE svg PUBLIC "-//W3C//DTD SVG 1.1//EN" "http://www.w3.org/Graphics/SVG/1.1/DTD/svg11.dtd"><svg width="100%" height="100%" viewBox="0 0 11 11" version="1.1" xmlns="http://www.w3.org/2000/svg" xmlns:xlink="http://www.w3.org/1999/xlink" xml:space="preserve" xmlns:serif="http://www.serif.com/" style="fill-rule:evenodd;clip-rule:evenodd;stroke-linejoin:round;stroke-miterlimit:2;"><rect id="d24_10" x="0.071" y="0.117" width="10.56" height="10.56" style="fill:none;"/><g><path d="M5.15,0.555c0.132,-0.03 0.269,-0.03 0.401,-0c0.405,0.092 1.315,0.3 1.72,0.392c0.132,0.03 0.255,0.09 0.361,0.174c0.325,0.259 1.055,0.841 1.379,1.1c0.106,0.084 0.192,0.192 0.25,0.313c0.18,0.374 0.586,1.216 0.766,1.59c0.058,0.122 0.089,0.255 0.089,0.391l-0,1.764c-0,0.135 -0.031,0.269 -0.089,0.391c-0.18,0.374 -0.586,1.215 -0.766,1.589c-0.058,0.122 -0.144,0.229 -0.25,0.313c-0.324,0.259 -1.054,0.841 -1.379,1.1c-0.106,0.085 -0.229,0.144 -0.361,0.174c-0.405,0.093 -1.315,0.3 -1.72,0.393c-0.132,0.03 -0.269,0.03 -0.401,-0c-0.405,-0.093 -1.315,-0.3 -1.72,-0.393c-0.132,-0.03 -0.255,-0.089 -0.361,-0.174c-0.324,-0.259 -1.055,-0.841 -1.379,-1.1c-0.106,-0.084 -0.191,-0.191 -0.25,-0.313c-0.18,-0.374 -0.585,-1.215 -0.765,-1.589c-0.059,-0.122 -0.09,-0.256 -0.09,-0.391l0,-1.764c0,-0.136 0.031,-0.269 0.09,-0.391c0.18,-0.374 0.585,-1.216 0.765,-1.59c0.059,-0.121 0.144,-0.229 0.25,-0.313c0.324,-0.259 1.055,-0.841 1.379,-1.1c0.106,-0.084 0.229,-0.144 0.361,-0.174c0.405,-0.092 1.315,-0.3 1.72,-0.392Z" style="fill:#9f7ac3;"/><path d="M4.539,3.075c0.152,-0.317 0.474,-0.519 0.826,-0.518c0.352,0.001 0.672,0.204 0.822,0.523c0.435,0.922 0.946,2.005 1.274,2.699c0.194,0.411 0.063,0.901 -0.309,1.161c-0.174,0.122 -0.368,0.258 -0.563,0.395c-0.744,0.52 -1.733,0.52 -2.477,-0c-0.193,-0.136 -0.386,-0.271 -0.56,-0.392c-0.373,-0.261 -0.503,-0.755 -0.306,-1.166c0.333,-0.695 0.852,-1.78 1.293,-2.702Z" style="fill:#905cc3;"/></g><g><path d="M4.819,6.824l-0,0.724l-2.154,-0l0,-0.724l0.581,0l-0,-2.779l-0.62,-0l-0,-0.724l1.649,0l-0,3.503l0.544,0Z" style="fill:#fff;fill-rule:nonzero;"/><path d="M8.454,5.422c-0,0.712 -0.136,1.254 -0.407,1.625c-0.271,0.371 -0.662,0.557 -1.172,0.557c-0.512,-0 -0.903,-0.186 -1.174,-0.557c-0.27,-0.371 -0.405,-0.913 -0.405,-1.625c0,-0.696 0.134,-1.232 0.403,-1.61c0.268,-0.377 0.66,-0.566 1.176,-0.566c0.522,-0 0.915,0.184 1.181,0.554c0.265,0.369 0.398,0.91 0.398,1.622Zm-2.095,-0c0,0.49 0.042,0.852 0.126,1.088c0.084,0.236 0.216,0.353 0.396,0.353c0.179,0 0.31,-0.117 0.392,-0.353c0.083,-0.236 0.124,-0.598 0.124,-1.088c-0,-0.965 -0.172,-1.447 -0.516,-1.447c-0.18,-0 -0.312,0.12 -0.396,0.362c-0.084,0.241 -0.126,0.603 -0.126,1.085Z" style="fill:#fff;fill-rule:nonzero;"/></g></svg>