<?xml version="1.0" encoding="UTF-8" standalone="no"?><!DOCTYPE svg PUBLIC "-//W3C//DTD SVG 1.1//EN" "http://www.w3.org/Graphics/SVG/1.1/DTD/svg11.dtd"><svg width="100%" height="100%" viewBox="0 0 11 11" version="1.1" xmlns="http://www.w3.org/2000/svg" xmlns:xlink="http://www.w3.org/1999/xlink" xml:space="preserve" xmlns:serif="http://www.serif.com/" style="fill-rule:evenodd;clip-rule:evenodd;stroke-linejoin:round;stroke-miterlimit:2;"><rect id="d24_6" x="0.205" y="0.117" width="10.56" height="10.56" style="fill:none;"/><g><path d="M5.285,0.555c0.132,-0.03 0.269,-0.03 0.401,-0c0.404,0.092 1.315,0.3 1.72,0.392c0.131,0.03 0.255,0.09 0.361,0.174c0.324,0.259 1.054,0.841 1.379,1.1c0.106,0.084 0.191,0.192 0.25,0.313c0.18,0.374 0.585,1.216 0.765,1.59c0.059,0.122 0.09,0.255 0.09,0.391l-0,1.764c-0,0.135 -0.031,0.269 -0.09,0.391c-0.18,0.374 -0.585,1.215 -0.765,1.589c-0.059,0.122 -0.144,0.229 -0.25,0.313c-0.325,0.259 -1.055,0.841 -1.379,1.1c-0.106,0.085 -0.23,0.144 -0.361,0.174c-0.405,0.093 -1.316,0.3 -1.72,0.393c-0.132,0.03 -0.269,0.03 -0.401,-0c-0.405,-0.093 -1.315,-0.3 -1.72,-0.393c-0.132,-0.03 -0.255,-0.089 -0.361,-0.174c-0.325,-0.259 -1.055,-0.841 -1.379,-1.1c-0.106,-0.084 -0.192,-0.191 -0.25,-0.313c-0.18,-0.374 -0.586,-1.215 -0.766,-1.589c-0.058,-0.122 -0.089,-0.256 -0.089,-0.391l0,-1.764c0,-0.136 0.031,-0.269 0.089,-0.391c0.18,-0.374 0.586,-1.216 0.766,-1.59c0.058,-0.121 0.144,-0.229 0.25,-0.313c0.324,-0.259 1.054,-0.841 1.379,-1.1c0.106,-0.084 0.229,-0.144 0.361,-0.174c0.405,-0.092 1.315,-0.3 1.72,-0.392Z" style="fill:#676767;"/><path d="M4.674,3.075c0.152,-0.317 0.473,-0.519 0.825,-0.518c0.352,0.001 0.673,0.204 0.823,0.523c0.435,0.922 0.946,2.005 1.274,2.699c0.193,0.411 0.063,0.901 -0.309,1.161c-0.174,0.122 -0.368,0.258 -0.563,0.395c-0.744,0.52 -1.733,0.52 -2.477,-0c-0.194,-0.136 -0.387,-0.271 -0.56,-0.392c-0.373,-0.261 -0.503,-0.755 -0.306,-1.166c0.333,-0.695 0.852,-1.78 1.293,-2.702Z" style="fill:#888;"/></g><path d="M6.948,4.407l-0.833,0.073c-0.095,-0.352 -0.28,-0.528 -0.553,-0.528c-0.202,0 -0.364,0.093 -0.486,0.279c-0.123,0.186 -0.196,0.451 -0.22,0.795c0.226,-0.145 0.487,-0.218 0.782,-0.218c0.267,-0 0.504,0.058 0.711,0.175c0.207,0.117 0.367,0.276 0.482,0.477c0.115,0.201 0.173,0.427 0.173,0.68c-0,0.452 -0.13,0.809 -0.39,1.071c-0.26,0.262 -0.618,0.393 -1.074,0.393c-0.581,-0 -1.01,-0.173 -1.286,-0.519c-0.276,-0.346 -0.414,-0.883 -0.414,-1.61c0,-0.731 0.15,-1.285 0.448,-1.663c0.298,-0.377 0.737,-0.566 1.316,-0.566c0.804,-0 1.252,0.387 1.344,1.161Zm-2.098,1.309c0,0.414 0.057,0.711 0.17,0.892c0.113,0.182 0.284,0.272 0.514,0.272c0.15,0 0.271,-0.059 0.365,-0.178c0.093,-0.119 0.14,-0.286 0.14,-0.503c0,-0.204 -0.052,-0.362 -0.157,-0.473c-0.105,-0.111 -0.249,-0.167 -0.435,-0.167c-0.175,0 -0.374,0.053 -0.597,0.157Z" style="fill:#fff;fill-rule:nonzero;"/></svg>