<?xml version="1.0" encoding="UTF-8" standalone="no"?><!DOCTYPE svg PUBLIC "-//W3C//DTD SVG 1.1//EN" "http://www.w3.org/Graphics/SVG/1.1/DTD/svg11.dtd"><svg width="100%" height="100%" viewBox="0 0 11 11" version="1.1" xmlns="http://www.w3.org/2000/svg" xmlns:xlink="http://www.w3.org/1999/xlink" xml:space="preserve" xmlns:serif="http://www.serif.com/" style="fill-rule:evenodd;clip-rule:evenodd;stroke-linejoin:round;stroke-miterlimit:2;"><rect id="d24_20" x="0.07" y="0.117" width="10.56" height="10.56" style="fill:none;"/><g><path d="M5.15,0.555c0.132,-0.03 0.269,-0.03 0.401,-0c0.404,0.092 1.315,0.3 1.72,0.392c0.131,0.03 0.255,0.09 0.361,0.174c0.324,0.259 1.054,0.841 1.379,1.1c0.106,0.084 0.191,0.192 0.25,0.313c0.18,0.374 0.585,1.216 0.765,1.59c0.059,0.122 0.09,0.255 0.09,0.391l-0,1.764c-0,0.135 -0.031,0.269 -0.09,0.391c-0.18,0.374 -0.585,1.215 -0.765,1.589c-0.059,0.122 -0.144,0.229 -0.25,0.313c-0.325,0.259 -1.055,0.841 -1.379,1.1c-0.106,0.085 -0.23,0.144 -0.361,0.174c-0.405,0.093 -1.316,0.3 -1.72,0.393c-0.132,0.03 -0.269,0.03 -0.401,-0c-0.405,-0.093 -1.315,-0.3 -1.72,-0.393c-0.132,-0.03 -0.255,-0.089 -0.361,-0.174c-0.325,-0.259 -1.055,-0.841 -1.379,-1.1c-0.106,-0.084 -0.192,-0.191 -0.25,-0.313c-0.18,-0.374 -0.586,-1.215 -0.766,-1.589c-0.058,-0.122 -0.089,-0.256 -0.089,-0.391l0,-1.764c0,-0.136 0.031,-0.269 0.089,-0.391c0.18,-0.374 0.586,-1.216 0.766,-1.59c0.058,-0.121 0.144,-0.229 0.25,-0.313c0.324,-0.259 1.054,-0.841 1.379,-1.1c0.106,-0.084 0.229,-0.144 0.361,-0.174c0.405,-0.092 1.315,-0.3 1.72,-0.392Z" style="fill:#676767;"/><path d="M4.539,3.075c0.152,-0.317 0.473,-0.519 0.825,-0.518c0.352,0.001 0.673,0.204 0.823,0.523c0.435,0.922 0.946,2.005 1.274,2.699c0.193,0.411 0.063,0.901 -0.309,1.161c-0.174,0.122 -0.368,0.258 -0.563,0.395c-0.744,0.52 -1.733,0.52 -2.477,-0c-0.194,-0.136 -0.387,-0.271 -0.56,-0.392c-0.373,-0.261 -0.503,-0.755 -0.306,-1.166c0.333,-0.695 0.852,-1.78 1.293,-2.702Z" style="fill:#888;"/></g><g><path d="M5.124,4.435c0,0.215 -0.048,0.402 -0.144,0.561c-0.096,0.159 -0.226,0.303 -0.388,0.433c-0.163,0.13 -0.4,0.288 -0.71,0.475c-0.505,0.311 -0.784,0.617 -0.838,0.92l1.276,0l-0,-0.547l0.855,0l-0.051,1.271l-3.079,-0c0,-0.376 0.045,-0.686 0.135,-0.929c0.09,-0.243 0.231,-0.466 0.425,-0.668c0.193,-0.203 0.478,-0.444 0.854,-0.723c0.198,-0.145 0.349,-0.287 0.452,-0.423c0.104,-0.137 0.156,-0.277 0.156,-0.421c0,-0.142 -0.041,-0.249 -0.123,-0.322c-0.083,-0.073 -0.2,-0.11 -0.354,-0.11c-0.198,0 -0.345,0.069 -0.441,0.207c-0.097,0.137 -0.154,0.361 -0.173,0.671l-0.878,-0.033c0.012,-0.522 0.145,-0.911 0.401,-1.167c0.257,-0.256 0.64,-0.384 1.15,-0.384c0.458,-0 0.819,0.105 1.081,0.315c0.263,0.211 0.394,0.502 0.394,0.874Z" style="fill:#fff;fill-rule:nonzero;"/><path d="M8.568,5.422c0,0.712 -0.135,1.254 -0.406,1.625c-0.271,0.371 -0.662,0.557 -1.172,0.557c-0.513,-0 -0.904,-0.186 -1.174,-0.557c-0.27,-0.371 -0.405,-0.913 -0.405,-1.625c-0,-0.696 0.134,-1.232 0.402,-1.61c0.268,-0.377 0.661,-0.566 1.177,-0.566c0.521,-0 0.915,0.184 1.18,0.554c0.266,0.369 0.398,0.91 0.398,1.622Zm-2.094,-0c-0,0.49 0.042,0.852 0.126,1.088c0.084,0.236 0.216,0.353 0.395,0.353c0.18,0 0.311,-0.117 0.393,-0.353c0.082,-0.236 0.123,-0.598 0.123,-1.088c0,-0.965 -0.172,-1.447 -0.516,-1.447c-0.179,-0 -0.311,0.12 -0.395,0.362c-0.084,0.241 -0.126,0.603 -0.126,1.085Z" style="fill:#fff;fill-rule:nonzero;"/></g></svg>