<?xml version="1.0" encoding="UTF-8" standalone="no"?><!DOCTYPE svg PUBLIC "-//W3C//DTD SVG 1.1//EN" "http://www.w3.org/Graphics/SVG/1.1/DTD/svg11.dtd"><svg width="100%" height="100%" viewBox="0 0 11 11" version="1.1" xmlns="http://www.w3.org/2000/svg" xmlns:xlink="http://www.w3.org/1999/xlink" xml:space="preserve" xmlns:serif="http://www.serif.com/" style="fill-rule:evenodd;clip-rule:evenodd;stroke-linejoin:round;stroke-miterlimit:2;"><rect id="d24_23" x="0.06" y="0.117" width="10.56" height="10.56" style="fill:none;"/><g><path d="M5.139,0.555c0.132,-0.03 0.269,-0.03 0.401,-0c0.405,0.092 1.315,0.3 1.72,0.392c0.132,0.03 0.255,0.09 0.361,0.174c0.325,0.259 1.055,0.841 1.379,1.1c0.106,0.084 0.192,0.192 0.25,0.313c0.18,0.374 0.586,1.216 0.766,1.59c0.058,0.122 0.089,0.255 0.089,0.391l-0,1.764c-0,0.135 -0.031,0.269 -0.089,0.391c-0.18,0.374 -0.586,1.215 -0.766,1.589c-0.058,0.122 -0.144,0.229 -0.25,0.313c-0.324,0.259 -1.054,0.841 -1.379,1.1c-0.106,0.085 -0.229,0.144 -0.361,0.174c-0.405,0.093 -1.315,0.3 -1.72,0.393c-0.132,0.03 -0.269,0.03 -0.401,-0c-0.404,-0.093 -1.315,-0.3 -1.72,-0.393c-0.132,-0.03 -0.255,-0.089 -0.361,-0.174c-0.324,-0.259 -1.054,-0.841 -1.379,-1.1c-0.106,-0.084 -0.191,-0.191 -0.25,-0.313c-0.18,-0.374 -0.585,-1.215 -0.765,-1.589c-0.059,-0.122 -0.09,-0.256 -0.09,-0.391l0,-1.764c0,-0.136 0.031,-0.269 0.09,-0.391c0.18,-0.374 0.585,-1.216 0.765,-1.59c0.059,-0.121 0.144,-0.229 0.25,-0.313c0.325,-0.259 1.055,-0.841 1.379,-1.1c0.106,-0.084 0.229,-0.144 0.361,-0.174c0.405,-0.092 1.316,-0.3 1.72,-0.392Z" style="fill:#9f7ac3;"/><path d="M4.529,3.075c0.152,-0.317 0.473,-0.519 0.825,-0.518c0.352,0.001 0.672,0.204 0.822,0.523c0.435,0.922 0.947,2.005 1.274,2.699c0.194,0.411 0.063,0.901 -0.309,1.161c-0.174,0.122 -0.368,0.258 -0.563,0.395c-0.744,0.52 -1.733,0.52 -2.477,-0c-0.193,-0.136 -0.386,-0.271 -0.56,-0.392c-0.373,-0.261 -0.503,-0.755 -0.306,-1.166c0.333,-0.695 0.852,-1.78 1.294,-2.702Z" style="fill:#905cc3;"/></g><g><path d="M5.056,4.435c0,0.215 -0.048,0.402 -0.144,0.561c-0.096,0.159 -0.226,0.303 -0.388,0.433c-0.163,0.13 -0.4,0.288 -0.71,0.475c-0.505,0.311 -0.784,0.617 -0.839,0.92l1.276,0l0,-0.547l0.856,0l-0.051,1.271l-3.079,-0c0,-0.376 0.045,-0.686 0.135,-0.929c0.089,-0.243 0.231,-0.466 0.425,-0.668c0.193,-0.203 0.478,-0.444 0.854,-0.723c0.198,-0.145 0.349,-0.287 0.452,-0.423c0.104,-0.137 0.156,-0.277 0.156,-0.421c0,-0.142 -0.041,-0.249 -0.123,-0.322c-0.083,-0.073 -0.2,-0.11 -0.354,-0.11c-0.198,0 -0.345,0.069 -0.441,0.207c-0.097,0.137 -0.154,0.361 -0.173,0.671l-0.878,-0.033c0.012,-0.522 0.145,-0.911 0.401,-1.167c0.257,-0.256 0.64,-0.384 1.15,-0.384c0.458,-0 0.819,0.105 1.081,0.315c0.263,0.211 0.394,0.502 0.394,0.874Z" style="fill:#fff;fill-rule:nonzero;"/><path d="M8.455,4.379c0,0.424 -0.212,0.735 -0.636,0.934c0.531,0.181 0.796,0.516 0.796,1.006c0,0.253 -0.067,0.477 -0.203,0.672c-0.136,0.195 -0.324,0.346 -0.565,0.453c-0.241,0.106 -0.513,0.16 -0.816,0.16c-1.012,-0 -1.554,-0.461 -1.627,-1.383l0.92,-0.076c0.004,0.494 0.207,0.741 0.609,0.741c0.185,-0 0.335,-0.058 0.451,-0.174c0.116,-0.116 0.174,-0.259 0.174,-0.429c0,-0.176 -0.061,-0.318 -0.184,-0.428c-0.122,-0.109 -0.296,-0.164 -0.52,-0.164c-0.035,0 -0.114,0.005 -0.235,0.014l-0,-0.771c0.259,-0.004 0.462,-0.05 0.608,-0.137c0.146,-0.088 0.219,-0.215 0.219,-0.379c-0,-0.131 -0.049,-0.238 -0.147,-0.32c-0.099,-0.082 -0.222,-0.123 -0.372,-0.123c-0.337,-0 -0.505,0.188 -0.505,0.564l-0.889,-0.076c0.03,-0.383 0.174,-0.682 0.432,-0.896c0.258,-0.214 0.598,-0.321 1.021,-0.321c0.447,-0 0.803,0.101 1.07,0.304c0.266,0.203 0.399,0.479 0.399,0.829Z" style="fill:#fff;fill-rule:nonzero;"/></g></svg>