<?xml version="1.0" encoding="UTF-8" standalone="no"?><!DOCTYPE svg PUBLIC "-//W3C//DTD SVG 1.1//EN" "http://www.w3.org/Graphics/SVG/1.1/DTD/svg11.dtd"><svg width="100%" height="100%" viewBox="0 0 11 11" version="1.1" xmlns="http://www.w3.org/2000/svg" xmlns:xlink="http://www.w3.org/1999/xlink" xml:space="preserve" xmlns:serif="http://www.serif.com/" style="fill-rule:evenodd;clip-rule:evenodd;stroke-linejoin:round;stroke-miterlimit:2;"><rect id="d24_9" x="0.152" y="0.117" width="10.56" height="10.56" style="fill:none;"/><g><path d="M5.231,0.555c0.132,-0.03 0.269,-0.03 0.401,-0c0.405,0.092 1.315,0.3 1.72,0.392c0.132,0.03 0.255,0.09 0.361,0.174c0.325,0.259 1.055,0.841 1.379,1.1c0.106,0.084 0.191,0.192 0.25,0.313c0.18,0.374 0.585,1.216 0.766,1.59c0.058,0.122 0.089,0.255 0.089,0.391l-0,1.764c-0,0.135 -0.031,0.269 -0.089,0.391c-0.181,0.374 -0.586,1.215 -0.766,1.589c-0.059,0.122 -0.144,0.229 -0.25,0.313c-0.324,0.259 -1.054,0.841 -1.379,1.1c-0.106,0.085 -0.229,0.144 -0.361,0.174c-0.405,0.093 -1.315,0.3 -1.72,0.393c-0.132,0.03 -0.269,0.03 -0.401,-0c-0.405,-0.093 -1.315,-0.3 -1.72,-0.393c-0.132,-0.03 -0.255,-0.089 -0.361,-0.174c-0.324,-0.259 -1.055,-0.841 -1.379,-1.1c-0.106,-0.084 -0.191,-0.191 -0.25,-0.313c-0.18,-0.374 -0.585,-1.215 -0.766,-1.589c-0.058,-0.122 -0.089,-0.256 -0.089,-0.391l0,-1.764c0,-0.136 0.031,-0.269 0.089,-0.391c0.181,-0.374 0.586,-1.216 0.766,-1.59c0.059,-0.121 0.144,-0.229 0.25,-0.313c0.324,-0.259 1.055,-0.841 1.379,-1.1c0.106,-0.084 0.229,-0.144 0.361,-0.174c0.405,-0.092 1.315,-0.3 1.72,-0.392Z" style="fill:#9f7ac3;"/><path d="M4.62,3.075c0.152,-0.317 0.474,-0.519 0.826,-0.518c0.352,0.001 0.672,0.204 0.822,0.523c0.435,0.922 0.946,2.005 1.274,2.699c0.194,0.411 0.063,0.901 -0.309,1.161c-0.174,0.122 -0.368,0.258 -0.563,0.395c-0.744,0.52 -1.733,0.52 -2.477,-0c-0.193,-0.136 -0.386,-0.271 -0.56,-0.392c-0.373,-0.261 -0.503,-0.755 -0.306,-1.166c0.333,-0.695 0.852,-1.78 1.293,-2.702Z" style="fill:#905cc3;"/></g><path d="M6.95,5.416c0,1.459 -0.576,2.188 -1.727,2.188c-0.391,-0 -0.708,-0.104 -0.951,-0.31c-0.243,-0.207 -0.379,-0.495 -0.407,-0.865l0.822,-0.082c0.058,0.187 0.129,0.325 0.213,0.414c0.084,0.089 0.19,0.133 0.317,0.133c0.198,0 0.358,-0.092 0.478,-0.276c0.121,-0.184 0.201,-0.452 0.24,-0.803c-0.12,0.063 -0.25,0.113 -0.391,0.15c-0.141,0.036 -0.285,0.054 -0.431,0.054c-0.256,0 -0.484,-0.06 -0.683,-0.181c-0.199,-0.12 -0.354,-0.283 -0.465,-0.488c-0.111,-0.204 -0.167,-0.425 -0.167,-0.663c-0,-0.278 0.063,-0.527 0.189,-0.746c0.126,-0.219 0.304,-0.389 0.532,-0.512c0.228,-0.122 0.491,-0.183 0.791,-0.183c1.093,-0 1.64,0.723 1.64,2.17Zm-1.607,-0.126c0.172,0 0.373,-0.055 0.603,-0.165l0,-0.017c0,-0.357 -0.062,-0.637 -0.186,-0.84c-0.125,-0.203 -0.3,-0.304 -0.526,-0.304c-0.135,-0 -0.249,0.061 -0.342,0.183c-0.094,0.123 -0.141,0.282 -0.141,0.478c0,0.202 0.055,0.364 0.165,0.484c0.109,0.121 0.251,0.181 0.427,0.181Z" style="fill:#fff;fill-rule:nonzero;"/></svg>