<?xml version="1.0" encoding="UTF-8" standalone="no"?><!DOCTYPE svg PUBLIC "-//W3C//DTD SVG 1.1//EN" "http://www.w3.org/Graphics/SVG/1.1/DTD/svg11.dtd"><svg width="100%" height="100%" viewBox="0 0 11 11" version="1.1" xmlns="http://www.w3.org/2000/svg" xmlns:xlink="http://www.w3.org/1999/xlink" xml:space="preserve" xmlns:serif="http://www.serif.com/" style="fill-rule:evenodd;clip-rule:evenodd;stroke-linejoin:round;stroke-miterlimit:2;"><rect id="d24_7" x="0.081" y="0.117" width="10.56" height="10.56" style="fill:none;"/><g><path d="M5.161,0.555c0.132,-0.03 0.269,-0.03 0.401,-0c0.404,0.092 1.315,0.3 1.72,0.392c0.131,0.03 0.255,0.09 0.361,0.174c0.324,0.259 1.054,0.841 1.379,1.1c0.106,0.084 0.191,0.192 0.25,0.313c0.18,0.374 0.585,1.216 0.765,1.59c0.059,0.122 0.089,0.255 0.089,0.391l0,1.764c0,0.135 -0.03,0.269 -0.089,0.391c-0.18,0.374 -0.585,1.215 -0.765,1.589c-0.059,0.122 -0.144,0.229 -0.25,0.313c-0.325,0.259 -1.055,0.841 -1.379,1.1c-0.106,0.085 -0.23,0.144 -0.361,0.174c-0.405,0.093 -1.316,0.3 -1.72,0.393c-0.132,0.03 -0.269,0.03 -0.401,-0c-0.405,-0.093 -1.315,-0.3 -1.72,-0.393c-0.132,-0.03 -0.255,-0.089 -0.361,-0.174c-0.325,-0.259 -1.055,-0.841 -1.379,-1.1c-0.106,-0.084 -0.192,-0.191 -0.25,-0.313c-0.181,-0.374 -0.586,-1.215 -0.766,-1.589c-0.059,-0.122 -0.089,-0.256 -0.089,-0.391l-0,-1.764c-0,-0.136 0.03,-0.269 0.089,-0.391c0.18,-0.374 0.585,-1.216 0.766,-1.59c0.058,-0.121 0.144,-0.229 0.25,-0.313c0.324,-0.259 1.054,-0.841 1.379,-1.1c0.106,-0.084 0.229,-0.144 0.361,-0.174c0.405,-0.092 1.315,-0.3 1.72,-0.392Z" style="fill:#676767;"/><path d="M4.55,3.075c0.152,-0.317 0.473,-0.519 0.825,-0.518c0.352,0.001 0.672,0.204 0.823,0.523c0.435,0.922 0.946,2.005 1.274,2.699c0.193,0.411 0.063,0.901 -0.309,1.161c-0.174,0.122 -0.369,0.258 -0.563,0.395c-0.744,0.52 -1.734,0.52 -2.477,-0c-0.194,-0.136 -0.387,-0.271 -0.56,-0.392c-0.374,-0.261 -0.503,-0.755 -0.306,-1.166c0.332,-0.695 0.852,-1.78 1.293,-2.702Z" style="fill:#888;"/></g><path d="M5.66,6.824l0.608,0l0,0.724l-2.257,-0l-0,-0.724l0.58,0c0.062,-0.486 0.206,-0.98 0.432,-1.482c0.227,-0.502 0.512,-0.94 0.856,-1.314l-1.391,0l-0,0.583l-0.774,0l-0,-1.29l3.169,0l-0,0.544c-0.217,0.208 -0.419,0.482 -0.605,0.822c-0.186,0.34 -0.333,0.701 -0.443,1.083c-0.109,0.381 -0.168,0.733 -0.175,1.054Z" style="fill:#fff;fill-rule:nonzero;"/></svg>