<?xml version="1.0" encoding="UTF-8" standalone="no"?><!DOCTYPE svg PUBLIC "-//W3C//DTD SVG 1.1//EN" "http://www.w3.org/Graphics/SVG/1.1/DTD/svg11.dtd"><svg width="100%" height="100%" viewBox="0 0 11 11" version="1.1" xmlns="http://www.w3.org/2000/svg" xmlns:xlink="http://www.w3.org/1999/xlink" xml:space="preserve" xmlns:serif="http://www.serif.com/" style="fill-rule:evenodd;clip-rule:evenodd;stroke-linejoin:round;stroke-miterlimit:2;"><rect id="d24_8" x="0.03" y="0.117" width="10.56" height="10.56" style="fill:none;"/><g><path d="M5.11,0.555c0.132,-0.03 0.269,-0.03 0.401,-0c0.404,0.092 1.315,0.3 1.72,0.392c0.131,0.03 0.255,0.09 0.361,0.174c0.324,0.259 1.054,0.841 1.379,1.1c0.106,0.084 0.191,0.192 0.25,0.313c0.18,0.374 0.585,1.216 0.765,1.59c0.059,0.122 0.09,0.255 0.09,0.391l-0,1.764c-0,0.135 -0.031,0.269 -0.09,0.391c-0.18,0.374 -0.585,1.215 -0.765,1.589c-0.059,0.122 -0.144,0.229 -0.25,0.313c-0.325,0.259 -1.055,0.841 -1.379,1.1c-0.106,0.085 -0.23,0.144 -0.361,0.174c-0.405,0.093 -1.316,0.3 -1.72,0.393c-0.132,0.03 -0.269,0.03 -0.401,-0c-0.405,-0.093 -1.315,-0.3 -1.72,-0.393c-0.132,-0.03 -0.255,-0.089 -0.361,-0.174c-0.325,-0.259 -1.055,-0.841 -1.379,-1.1c-0.106,-0.084 -0.192,-0.191 -0.25,-0.313c-0.18,-0.374 -0.586,-1.215 -0.766,-1.589c-0.058,-0.122 -0.089,-0.256 -0.089,-0.391l0,-1.764c0,-0.136 0.031,-0.269 0.089,-0.391c0.18,-0.374 0.586,-1.216 0.766,-1.59c0.058,-0.121 0.144,-0.229 0.25,-0.313c0.324,-0.259 1.054,-0.841 1.379,-1.1c0.106,-0.084 0.229,-0.144 0.361,-0.174c0.405,-0.092 1.315,-0.3 1.72,-0.392Z" style="fill:#676767;"/><path d="M4.499,3.075c0.152,-0.317 0.473,-0.519 0.825,-0.518c0.352,0.001 0.673,0.204 0.823,0.523c0.435,0.922 0.946,2.005 1.274,2.699c0.193,0.411 0.063,0.901 -0.309,1.161c-0.174,0.122 -0.368,0.258 -0.563,0.395c-0.744,0.52 -1.733,0.52 -2.477,-0c-0.194,-0.136 -0.387,-0.271 -0.56,-0.392c-0.373,-0.261 -0.503,-0.755 -0.306,-1.166c0.333,-0.695 0.852,-1.78 1.293,-2.702Z" style="fill:#888;"/></g><path d="M6.697,4.353c0,0.406 -0.207,0.73 -0.62,0.971c0.498,0.2 0.746,0.547 0.746,1.04c0,0.395 -0.144,0.7 -0.433,0.916c-0.289,0.216 -0.678,0.324 -1.168,0.324c-0.314,-0 -0.591,-0.051 -0.83,-0.152c-0.239,-0.101 -0.424,-0.246 -0.554,-0.436c-0.13,-0.19 -0.195,-0.412 -0.195,-0.669c0,-0.467 0.252,-0.808 0.757,-1.023c-0.42,-0.234 -0.631,-0.552 -0.631,-0.954c0,-0.224 0.064,-0.422 0.192,-0.593c0.128,-0.171 0.303,-0.302 0.525,-0.394c0.221,-0.092 0.469,-0.137 0.742,-0.137c0.278,-0 0.53,0.045 0.754,0.134c0.224,0.09 0.4,0.218 0.526,0.385c0.126,0.166 0.189,0.362 0.189,0.588Zm-1.469,0.657c0.153,-0 0.275,-0.048 0.367,-0.145c0.092,-0.096 0.137,-0.226 0.137,-0.391c0,-0.161 -0.044,-0.288 -0.131,-0.381c-0.088,-0.094 -0.215,-0.141 -0.379,-0.141c-0.146,0 -0.264,0.044 -0.353,0.132c-0.09,0.088 -0.135,0.222 -0.135,0.401c-0,0.154 0.046,0.279 0.137,0.377c0.092,0.099 0.211,0.148 0.357,0.148Zm0.011,1.89c0.172,-0 0.312,-0.06 0.422,-0.178c0.109,-0.119 0.164,-0.267 0.164,-0.445c-0,-0.175 -0.056,-0.325 -0.167,-0.447c-0.111,-0.122 -0.253,-0.184 -0.425,-0.184c-0.164,0 -0.301,0.062 -0.411,0.184c-0.109,0.122 -0.164,0.272 -0.164,0.447c0,0.178 0.055,0.326 0.164,0.445c0.11,0.118 0.248,0.178 0.417,0.178Z" style="fill:#fff;fill-rule:nonzero;"/></svg>