<?xml version="1.0" encoding="UTF-8" standalone="no"?><!DOCTYPE svg PUBLIC "-//W3C//DTD SVG 1.1//EN" "http://www.w3.org/Graphics/SVG/1.1/DTD/svg11.dtd"><svg width="100%" height="100%" viewBox="0 0 11 11" version="1.1" xmlns="http://www.w3.org/2000/svg" xmlns:xlink="http://www.w3.org/1999/xlink" xml:space="preserve" xmlns:serif="http://www.serif.com/" style="fill-rule:evenodd;clip-rule:evenodd;stroke-linejoin:round;stroke-miterlimit:2;"><rect id="d30_15" x="0.102" y="0.238" width="10.56" height="10.56" style="fill:none;"/><g><path d="M5.257,0.783c0.083,-0.016 0.168,-0.016 0.25,0c0.333,0.066 1.239,0.246 1.572,0.313c0.082,0.016 0.161,0.049 0.231,0.095c0.282,0.189 1.05,0.702 1.332,0.89c0.07,0.047 0.13,0.107 0.177,0.177c0.188,0.282 0.701,1.05 0.89,1.332c0.047,0.07 0.079,0.149 0.096,0.231c0.066,0.333 0.246,1.239 0.312,1.572c0.017,0.082 0.017,0.167 0,0.25c-0.066,0.333 -0.246,1.238 -0.312,1.571c-0.017,0.083 -0.049,0.161 -0.096,0.231c-0.189,0.283 -0.702,1.05 -0.89,1.332c-0.047,0.07 -0.107,0.131 -0.177,0.177c-0.282,0.189 -1.05,0.702 -1.332,0.89c-0.07,0.047 -0.149,0.08 -0.231,0.096c-0.333,0.066 -1.239,0.246 -1.572,0.313c-0.082,0.016 -0.167,0.016 -0.25,-0c-0.333,-0.067 -1.238,-0.247 -1.571,-0.313c-0.083,-0.016 -0.161,-0.049 -0.231,-0.096c-0.282,-0.188 -1.05,-0.701 -1.332,-0.89c-0.07,-0.046 -0.13,-0.107 -0.177,-0.177c-0.189,-0.282 -0.702,-1.049 -0.89,-1.332c-0.047,-0.07 -0.079,-0.148 -0.096,-0.231c-0.066,-0.333 -0.246,-1.238 -0.312,-1.571c-0.017,-0.083 -0.017,-0.168 -0,-0.25c0.066,-0.333 0.246,-1.239 0.312,-1.572c0.017,-0.082 0.049,-0.161 0.096,-0.231c0.188,-0.282 0.701,-1.05 0.89,-1.332c0.047,-0.07 0.107,-0.13 0.177,-0.177c0.282,-0.188 1.05,-0.701 1.332,-0.89c0.07,-0.046 0.148,-0.079 0.231,-0.095c0.333,-0.067 1.238,-0.247 1.571,-0.313Z" style="fill:#ab7daf;"/><path d="M8.014,5.209c0.145,0.099 0.232,0.263 0.232,0.439c-0,0.176 -0.087,0.34 -0.232,0.439c-0.696,0.475 -1.777,1.212 -2.311,1.577c-0.193,0.132 -0.448,0.132 -0.641,-0c-0.534,-0.365 -1.615,-1.102 -2.311,-1.577c-0.145,-0.099 -0.232,-0.263 -0.232,-0.439c-0,-0.176 0.087,-0.34 0.232,-0.439c0.696,-0.475 1.777,-1.212 2.311,-1.577c0.193,-0.132 0.448,-0.132 0.641,0c0.534,0.365 1.615,1.102 2.311,1.577Z" style="fill:#a05ba6;"/></g><g><path d="M4.63,6.879l-0,0.724l-2.154,-0l0,-0.724l0.581,0l-0,-2.779l-0.62,0l-0,-0.723l1.649,-0l-0,3.502l0.544,0Z" style="fill:#fff;fill-rule:nonzero;"/><path d="M7.4,4.409l-0.076,-0.309l-1.155,0l-0.085,0.895c0.234,-0.122 0.481,-0.182 0.741,-0.182c0.299,-0 0.562,0.06 0.789,0.18c0.227,0.121 0.403,0.288 0.527,0.502c0.125,0.214 0.187,0.448 0.187,0.7c-0,0.292 -0.067,0.55 -0.201,0.774c-0.133,0.224 -0.324,0.396 -0.57,0.513c-0.247,0.118 -0.535,0.177 -0.864,0.177c-0.445,0 -0.807,-0.108 -1.087,-0.324c-0.279,-0.216 -0.446,-0.517 -0.5,-0.904l0.903,-0.11c0.065,0.41 0.272,0.614 0.619,0.614c0.208,0 0.366,-0.057 0.474,-0.173c0.109,-0.116 0.163,-0.282 0.163,-0.497c0,-0.475 -0.205,-0.712 -0.614,-0.712c-0.241,-0 -0.444,0.113 -0.609,0.339l-0.746,-0.367l0.149,-2.148l2.673,-0l-0,1.032l-0.718,-0Z" style="fill:#fff;fill-rule:nonzero;"/></g></svg>