<?xml version="1.0" encoding="UTF-8" standalone="no"?><!DOCTYPE svg PUBLIC "-//W3C//DTD SVG 1.1//EN" "http://www.w3.org/Graphics/SVG/1.1/DTD/svg11.dtd"><svg width="100%" height="100%" viewBox="0 0 11 11" version="1.1" xmlns="http://www.w3.org/2000/svg" xmlns:xlink="http://www.w3.org/1999/xlink" xml:space="preserve" xmlns:serif="http://www.serif.com/" style="fill-rule:evenodd;clip-rule:evenodd;stroke-linejoin:round;stroke-miterlimit:2;"><rect id="d30_28" x="0.072" y="0.238" width="10.56" height="10.56" style="fill:none;"/><g><path d="M5.227,0.783c0.082,-0.016 0.167,-0.016 0.25,0c0.333,0.066 1.238,0.246 1.571,0.313c0.083,0.016 0.161,0.049 0.231,0.095c0.282,0.189 1.05,0.702 1.332,0.89c0.07,0.047 0.13,0.107 0.177,0.177c0.189,0.282 0.702,1.05 0.89,1.332c0.047,0.07 0.079,0.149 0.096,0.231c0.066,0.333 0.246,1.239 0.312,1.572c0.017,0.082 0.017,0.167 0,0.25c-0.066,0.333 -0.246,1.238 -0.312,1.571c-0.017,0.083 -0.049,0.161 -0.096,0.231c-0.188,0.283 -0.701,1.05 -0.89,1.332c-0.047,0.07 -0.107,0.131 -0.177,0.177c-0.282,0.189 -1.05,0.702 -1.332,0.89c-0.07,0.047 -0.148,0.08 -0.231,0.096c-0.333,0.066 -1.238,0.246 -1.571,0.313c-0.083,0.016 -0.168,0.016 -0.25,-0c-0.333,-0.067 -1.239,-0.247 -1.572,-0.313c-0.082,-0.016 -0.161,-0.049 -0.231,-0.096c-0.282,-0.188 -1.05,-0.701 -1.332,-0.89c-0.07,-0.046 -0.13,-0.107 -0.177,-0.177c-0.188,-0.282 -0.701,-1.049 -0.89,-1.332c-0.047,-0.07 -0.079,-0.148 -0.096,-0.231c-0.066,-0.333 -0.246,-1.238 -0.312,-1.571c-0.017,-0.083 -0.017,-0.168 -0,-0.25c0.066,-0.333 0.246,-1.239 0.312,-1.572c0.017,-0.082 0.049,-0.161 0.096,-0.231c0.189,-0.282 0.702,-1.05 0.89,-1.332c0.047,-0.07 0.107,-0.13 0.177,-0.177c0.282,-0.188 1.05,-0.701 1.332,-0.89c0.07,-0.046 0.149,-0.079 0.231,-0.095c0.333,-0.067 1.239,-0.247 1.572,-0.313Z" style="fill:#ab7daf;"/><path d="M7.983,5.209c0.145,0.099 0.232,0.263 0.232,0.439c0,0.176 -0.087,0.34 -0.232,0.439c-0.696,0.475 -1.777,1.212 -2.311,1.577c-0.193,0.132 -0.448,0.132 -0.641,-0c-0.534,-0.365 -1.615,-1.102 -2.311,-1.577c-0.145,-0.099 -0.232,-0.263 -0.232,-0.439c-0,-0.176 0.087,-0.34 0.232,-0.439c0.696,-0.475 1.777,-1.212 2.311,-1.577c0.193,-0.132 0.448,-0.132 0.641,0c0.534,0.365 1.615,1.102 2.311,1.577Z" style="fill:#a05ba6;"/></g><g><path d="M5.146,4.528c0,0.215 -0.048,0.402 -0.144,0.561c-0.097,0.159 -0.226,0.303 -0.389,0.433c-0.162,0.13 -0.399,0.288 -0.709,0.475c-0.505,0.311 -0.785,0.617 -0.839,0.92l1.276,0l0,-0.547l0.856,0l-0.051,1.271l-3.079,-0c-0,-0.376 0.045,-0.685 0.134,-0.928c0.09,-0.244 0.232,-0.466 0.425,-0.669c0.194,-0.203 0.478,-0.444 0.854,-0.722c0.198,-0.146 0.349,-0.287 0.453,-0.424c0.104,-0.136 0.156,-0.277 0.156,-0.421c-0,-0.142 -0.041,-0.249 -0.124,-0.322c-0.082,-0.073 -0.2,-0.109 -0.353,-0.109c-0.198,-0 -0.345,0.068 -0.442,0.206c-0.096,0.137 -0.153,0.361 -0.172,0.671l-0.878,-0.033c0.011,-0.522 0.145,-0.911 0.401,-1.167c0.256,-0.256 0.64,-0.384 1.15,-0.384c0.458,-0 0.818,0.105 1.081,0.315c0.263,0.211 0.394,0.502 0.394,0.874Z" style="fill:#fff;fill-rule:nonzero;"/><path d="M8.51,4.447c0,0.405 -0.206,0.729 -0.62,0.97c0.498,0.2 0.746,0.547 0.746,1.04c0,0.395 -0.144,0.7 -0.433,0.916c-0.289,0.216 -0.678,0.324 -1.168,0.324c-0.314,-0 -0.591,-0.051 -0.83,-0.152c-0.239,-0.101 -0.424,-0.246 -0.554,-0.436c-0.13,-0.189 -0.195,-0.412 -0.195,-0.669c0,-0.467 0.253,-0.808 0.757,-1.023c-0.42,-0.234 -0.631,-0.552 -0.631,-0.954c0,-0.224 0.064,-0.422 0.192,-0.593c0.128,-0.171 0.303,-0.302 0.525,-0.394c0.221,-0.091 0.469,-0.137 0.742,-0.137c0.278,-0 0.53,0.045 0.754,0.134c0.224,0.09 0.4,0.218 0.526,0.385c0.126,0.166 0.189,0.362 0.189,0.589Zm-1.469,0.656c0.153,-0 0.275,-0.048 0.367,-0.145c0.092,-0.096 0.137,-0.226 0.137,-0.391c0,-0.161 -0.044,-0.288 -0.131,-0.381c-0.088,-0.094 -0.214,-0.14 -0.379,-0.14c-0.146,-0 -0.264,0.043 -0.353,0.131c-0.09,0.088 -0.135,0.222 -0.135,0.401c0,0.154 0.046,0.279 0.137,0.378c0.092,0.098 0.211,0.147 0.357,0.147Zm0.011,1.89c0.172,-0 0.313,-0.059 0.422,-0.178c0.109,-0.119 0.164,-0.267 0.164,-0.445c-0,-0.175 -0.056,-0.324 -0.167,-0.447c-0.111,-0.122 -0.253,-0.184 -0.425,-0.184c-0.164,0 -0.301,0.062 -0.411,0.184c-0.109,0.123 -0.164,0.272 -0.164,0.447c0,0.178 0.055,0.326 0.164,0.445c0.11,0.119 0.249,0.178 0.417,0.178Z" style="fill:#fff;fill-rule:nonzero;"/></g></svg>