<?xml version="1.0" encoding="UTF-8" standalone="no"?><!DOCTYPE svg PUBLIC "-//W3C//DTD SVG 1.1//EN" "http://www.w3.org/Graphics/SVG/1.1/DTD/svg11.dtd"><svg width="100%" height="100%" viewBox="0 0 11 11" version="1.1" xmlns="http://www.w3.org/2000/svg" xmlns:xlink="http://www.w3.org/1999/xlink" xml:space="preserve" xmlns:serif="http://www.serif.com/" style="fill-rule:evenodd;clip-rule:evenodd;stroke-linejoin:round;stroke-miterlimit:2;"><rect id="d30_20" x="0.111" y="0.238" width="10.56" height="10.56" style="fill:none;"/><g><path d="M5.266,0.783c0.083,-0.016 0.168,-0.016 0.25,0c0.333,0.066 1.239,0.246 1.572,0.313c0.082,0.016 0.161,0.049 0.231,0.095c0.282,0.189 1.049,0.702 1.332,0.89c0.07,0.047 0.13,0.107 0.177,0.177c0.188,0.282 0.701,1.05 0.89,1.332c0.046,0.07 0.079,0.149 0.095,0.231c0.067,0.333 0.247,1.239 0.313,1.572c0.016,0.082 0.016,0.167 -0,0.25c-0.066,0.333 -0.246,1.238 -0.313,1.571c-0.016,0.083 -0.049,0.161 -0.095,0.231c-0.189,0.283 -0.702,1.05 -0.89,1.332c-0.047,0.07 -0.107,0.131 -0.177,0.177c-0.283,0.189 -1.05,0.702 -1.332,0.89c-0.07,0.047 -0.149,0.08 -0.231,0.096c-0.333,0.066 -1.239,0.246 -1.572,0.313c-0.082,0.016 -0.167,0.016 -0.25,-0c-0.333,-0.067 -1.238,-0.247 -1.571,-0.313c-0.083,-0.016 -0.161,-0.049 -0.231,-0.096c-0.283,-0.188 -1.05,-0.701 -1.333,-0.89c-0.069,-0.046 -0.13,-0.107 -0.176,-0.177c-0.189,-0.282 -0.702,-1.049 -0.89,-1.332c-0.047,-0.07 -0.08,-0.148 -0.096,-0.231c-0.066,-0.333 -0.246,-1.238 -0.313,-1.571c-0.016,-0.083 -0.016,-0.168 0,-0.25c0.067,-0.333 0.247,-1.239 0.313,-1.572c0.016,-0.082 0.049,-0.161 0.096,-0.231c0.188,-0.282 0.701,-1.05 0.89,-1.332c0.046,-0.07 0.107,-0.13 0.176,-0.177c0.283,-0.188 1.05,-0.701 1.333,-0.89c0.07,-0.046 0.148,-0.079 0.231,-0.095c0.333,-0.067 1.238,-0.247 1.571,-0.313Z" style="fill:#676767;"/><path d="M8.023,5.209c0.145,0.099 0.232,0.263 0.232,0.439c-0,0.176 -0.087,0.34 -0.232,0.439c-0.696,0.475 -1.777,1.212 -2.311,1.577c-0.194,0.132 -0.448,0.132 -0.642,-0c-0.534,-0.365 -1.615,-1.102 -2.311,-1.577c-0.145,-0.099 -0.231,-0.263 -0.231,-0.439c-0,-0.176 0.086,-0.34 0.231,-0.439c0.696,-0.475 1.777,-1.212 2.311,-1.577c0.194,-0.132 0.448,-0.132 0.642,0c0.534,0.365 1.615,1.102 2.311,1.577Z" style="fill:#888;"/></g><g><path d="M5.209,4.528c-0,0.215 -0.048,0.402 -0.145,0.561c-0.096,0.159 -0.225,0.303 -0.388,0.433c-0.163,0.13 -0.399,0.288 -0.71,0.475c-0.504,0.311 -0.784,0.617 -0.838,0.92l1.276,0l-0,-0.547l0.855,0l-0.05,1.271l-3.08,-0c0,-0.376 0.045,-0.685 0.135,-0.928c0.09,-0.244 0.231,-0.466 0.425,-0.669c0.193,-0.203 0.478,-0.444 0.854,-0.722c0.198,-0.146 0.349,-0.287 0.453,-0.424c0.104,-0.136 0.155,-0.277 0.155,-0.421c0,-0.142 -0.041,-0.249 -0.123,-0.322c-0.082,-0.073 -0.2,-0.109 -0.353,-0.109c-0.198,-0 -0.346,0.068 -0.442,0.206c-0.096,0.137 -0.154,0.361 -0.172,0.671l-0.878,-0.033c0.011,-0.522 0.145,-0.911 0.401,-1.167c0.256,-0.256 0.639,-0.384 1.15,-0.384c0.458,-0 0.818,0.105 1.081,0.315c0.262,0.211 0.394,0.502 0.394,0.874Z" style="fill:#fff;fill-rule:nonzero;"/><path d="M8.653,5.515c-0,0.712 -0.136,1.254 -0.407,1.625c-0.271,0.371 -0.662,0.557 -1.172,0.557c-0.512,-0 -0.904,-0.186 -1.174,-0.557c-0.27,-0.371 -0.405,-0.913 -0.405,-1.625c-0,-0.695 0.134,-1.232 0.402,-1.61c0.269,-0.377 0.661,-0.566 1.177,-0.566c0.522,-0 0.915,0.184 1.181,0.554c0.265,0.369 0.398,0.91 0.398,1.622Zm-2.095,0c-0,0.49 0.042,0.853 0.126,1.088c0.084,0.236 0.216,0.353 0.395,0.353c0.18,0 0.311,-0.117 0.393,-0.353c0.082,-0.235 0.124,-0.598 0.124,-1.088c-0,-0.965 -0.172,-1.447 -0.517,-1.447c-0.179,-0 -0.311,0.121 -0.395,0.362c-0.084,0.241 -0.126,0.603 -0.126,1.085Z" style="fill:#fff;fill-rule:nonzero;"/></g></svg>