<?xml version="1.0" encoding="UTF-8" standalone="no"?><!DOCTYPE svg PUBLIC "-//W3C//DTD SVG 1.1//EN" "http://www.w3.org/Graphics/SVG/1.1/DTD/svg11.dtd"><svg width="100%" height="100%" viewBox="0 0 11 11" version="1.1" xmlns="http://www.w3.org/2000/svg" xmlns:xlink="http://www.w3.org/1999/xlink" xml:space="preserve" xmlns:serif="http://www.serif.com/" style="fill-rule:evenodd;clip-rule:evenodd;stroke-linejoin:round;stroke-miterlimit:2;"><rect id="d30_18" x="0.235" y="0.238" width="10.56" height="10.56" style="fill:none;"/><g><path d="M5.39,0.783c0.083,-0.016 0.168,-0.016 0.251,0c0.332,0.066 1.238,0.246 1.571,0.313c0.082,0.016 0.161,0.049 0.231,0.095c0.282,0.189 1.05,0.702 1.332,0.89c0.07,0.047 0.13,0.107 0.177,0.177c0.189,0.282 0.701,1.05 0.89,1.332c0.047,0.07 0.079,0.149 0.096,0.231c0.066,0.333 0.246,1.239 0.312,1.572c0.017,0.082 0.017,0.167 0,0.25c-0.066,0.333 -0.246,1.238 -0.312,1.571c-0.017,0.083 -0.049,0.161 -0.096,0.231c-0.189,0.283 -0.701,1.05 -0.89,1.332c-0.047,0.07 -0.107,0.131 -0.177,0.177c-0.282,0.189 -1.05,0.702 -1.332,0.89c-0.07,0.047 -0.149,0.08 -0.231,0.096c-0.333,0.066 -1.239,0.246 -1.571,0.313c-0.083,0.016 -0.168,0.016 -0.251,-0c-0.332,-0.067 -1.238,-0.247 -1.571,-0.313c-0.082,-0.016 -0.161,-0.049 -0.231,-0.096c-0.282,-0.188 -1.05,-0.701 -1.332,-0.89c-0.07,-0.046 -0.13,-0.107 -0.177,-0.177c-0.189,-0.282 -0.701,-1.049 -0.89,-1.332c-0.047,-0.07 -0.079,-0.148 -0.096,-0.231c-0.066,-0.333 -0.246,-1.238 -0.312,-1.571c-0.017,-0.083 -0.017,-0.168 -0,-0.25c0.066,-0.333 0.246,-1.239 0.312,-1.572c0.017,-0.082 0.049,-0.161 0.096,-0.231c0.189,-0.282 0.701,-1.05 0.89,-1.332c0.047,-0.07 0.107,-0.13 0.177,-0.177c0.282,-0.188 1.05,-0.701 1.332,-0.89c0.07,-0.046 0.149,-0.079 0.231,-0.095c0.333,-0.067 1.239,-0.247 1.571,-0.313Z" style="fill:#ab7daf;"/><path d="M8.147,5.209c0.145,0.099 0.232,0.263 0.232,0.439c0,0.176 -0.087,0.34 -0.232,0.439c-0.696,0.475 -1.777,1.212 -2.311,1.577c-0.193,0.132 -0.448,0.132 -0.641,-0c-0.534,-0.365 -1.615,-1.102 -2.311,-1.577c-0.145,-0.099 -0.232,-0.263 -0.232,-0.439c-0,-0.176 0.087,-0.34 0.232,-0.439c0.696,-0.475 1.777,-1.212 2.311,-1.577c0.193,-0.132 0.448,-0.132 0.641,0c0.534,0.365 1.615,1.102 2.311,1.577Z" style="fill:#a05ba6;"/></g><g><path d="M4.8,6.917l0,0.724l-2.154,-0l0,-0.724l0.581,0l-0,-2.779l-0.62,0l0,-0.723l1.649,-0l0,3.502l0.544,0Z" style="fill:#fff;fill-rule:nonzero;"/><path d="M8.298,4.447c-0,0.405 -0.207,0.729 -0.62,0.97c0.497,0.2 0.746,0.547 0.746,1.04c-0,0.395 -0.145,0.7 -0.433,0.916c-0.289,0.216 -0.679,0.324 -1.168,0.324c-0.315,-0 -0.591,-0.051 -0.831,-0.152c-0.239,-0.101 -0.423,-0.246 -0.553,-0.436c-0.13,-0.189 -0.195,-0.412 -0.195,-0.669c-0,-0.467 0.252,-0.808 0.757,-1.023c-0.421,-0.234 -0.631,-0.552 -0.631,-0.954c-0,-0.224 0.064,-0.422 0.192,-0.593c0.128,-0.171 0.303,-0.302 0.524,-0.394c0.222,-0.091 0.469,-0.137 0.742,-0.137c0.279,-0 0.53,0.045 0.755,0.134c0.224,0.09 0.399,0.218 0.525,0.385c0.127,0.166 0.19,0.362 0.19,0.589Zm-1.47,0.656c0.153,-0 0.276,-0.048 0.368,-0.145c0.091,-0.096 0.137,-0.226 0.137,-0.391c-0,-0.161 -0.044,-0.288 -0.132,-0.381c-0.088,-0.094 -0.214,-0.14 -0.378,-0.14c-0.146,-0 -0.264,0.043 -0.354,0.131c-0.09,0.088 -0.134,0.222 -0.134,0.401c-0,0.154 0.045,0.279 0.137,0.378c0.092,0.098 0.21,0.147 0.356,0.147Zm0.011,1.89c0.172,-0 0.313,-0.059 0.422,-0.178c0.11,-0.119 0.165,-0.267 0.165,-0.445c-0,-0.175 -0.056,-0.324 -0.167,-0.447c-0.112,-0.122 -0.253,-0.184 -0.425,-0.184c-0.165,0 -0.302,0.062 -0.411,0.184c-0.109,0.123 -0.164,0.272 -0.164,0.447c-0,0.178 0.055,0.326 0.164,0.445c0.109,0.119 0.248,0.178 0.416,0.178Z" style="fill:#fff;fill-rule:nonzero;"/></g></svg>