<?xml version="1.0" encoding="UTF-8" standalone="no"?><!DOCTYPE svg PUBLIC "-//W3C//DTD SVG 1.1//EN" "http://www.w3.org/Graphics/SVG/1.1/DTD/svg11.dtd"><svg width="100%" height="100%" viewBox="0 0 11 11" version="1.1" xmlns="http://www.w3.org/2000/svg" xmlns:xlink="http://www.w3.org/1999/xlink" xml:space="preserve" xmlns:serif="http://www.serif.com/" style="fill-rule:evenodd;clip-rule:evenodd;stroke-linejoin:round;stroke-miterlimit:2;"><rect id="d30_19" x="0.158" y="0.238" width="10.56" height="10.56" style="fill:none;"/><g><path d="M5.313,0.783c0.083,-0.016 0.167,-0.016 0.25,0c0.333,0.066 1.238,0.246 1.571,0.313c0.083,0.016 0.161,0.049 0.231,0.095c0.283,0.189 1.05,0.702 1.333,0.89c0.07,0.047 0.13,0.107 0.176,0.177c0.189,0.282 0.702,1.05 0.891,1.332c0.046,0.07 0.079,0.149 0.095,0.231c0.066,0.333 0.247,1.239 0.313,1.572c0.016,0.082 0.016,0.167 -0,0.25c-0.066,0.333 -0.247,1.238 -0.313,1.571c-0.016,0.083 -0.049,0.161 -0.095,0.231c-0.189,0.283 -0.702,1.05 -0.891,1.332c-0.046,0.07 -0.106,0.131 -0.176,0.177c-0.283,0.189 -1.05,0.702 -1.333,0.89c-0.07,0.047 -0.148,0.08 -0.231,0.096c-0.333,0.066 -1.238,0.246 -1.571,0.313c-0.083,0.016 -0.167,0.016 -0.25,-0c-0.333,-0.067 -1.238,-0.247 -1.571,-0.313c-0.083,-0.016 -0.161,-0.049 -0.231,-0.096c-0.283,-0.188 -1.05,-0.701 -1.333,-0.89c-0.07,-0.046 -0.13,-0.107 -0.176,-0.177c-0.189,-0.282 -0.702,-1.049 -0.891,-1.332c-0.046,-0.07 -0.079,-0.148 -0.095,-0.231c-0.066,-0.333 -0.247,-1.238 -0.313,-1.571c-0.016,-0.083 -0.016,-0.168 0,-0.25c0.066,-0.333 0.247,-1.239 0.313,-1.572c0.016,-0.082 0.049,-0.161 0.095,-0.231c0.189,-0.282 0.702,-1.05 0.891,-1.332c0.046,-0.07 0.106,-0.13 0.176,-0.177c0.283,-0.188 1.05,-0.701 1.333,-0.89c0.07,-0.046 0.148,-0.079 0.231,-0.095c0.333,-0.067 1.238,-0.247 1.571,-0.313Z" style="fill:#676767;"/><path d="M8.07,5.209c0.145,0.099 0.232,0.263 0.232,0.439c-0,0.176 -0.087,0.34 -0.232,0.439c-0.696,0.475 -1.777,1.212 -2.311,1.577c-0.194,0.132 -0.448,0.132 -0.642,-0c-0.534,-0.365 -1.615,-1.102 -2.311,-1.577c-0.145,-0.099 -0.232,-0.263 -0.232,-0.439c0,-0.176 0.087,-0.34 0.232,-0.439c0.696,-0.475 1.777,-1.212 2.311,-1.577c0.194,-0.132 0.448,-0.132 0.642,0c0.534,0.365 1.615,1.102 2.311,1.577Z" style="fill:#888;"/></g><g><path d="M4.72,6.917l-0,0.724l-2.154,-0l0,-0.724l0.581,0l-0,-2.779l-0.62,0l-0,-0.723l1.649,-0l-0,3.502l0.544,0Z" style="fill:#fff;fill-rule:nonzero;"/><path d="M8.349,5.509c0,1.459 -0.576,2.188 -1.727,2.188c-0.391,-0 -0.708,-0.103 -0.951,-0.31c-0.243,-0.207 -0.379,-0.495 -0.407,-0.865l0.822,-0.082c0.058,0.187 0.129,0.325 0.213,0.414c0.084,0.089 0.19,0.133 0.317,0.133c0.198,0 0.358,-0.092 0.478,-0.276c0.121,-0.184 0.201,-0.452 0.24,-0.803c-0.12,0.063 -0.25,0.113 -0.391,0.15c-0.141,0.036 -0.285,0.054 -0.431,0.054c-0.256,0 -0.483,-0.06 -0.683,-0.181c-0.199,-0.12 -0.354,-0.283 -0.465,-0.487c-0.111,-0.205 -0.167,-0.426 -0.167,-0.664c0,-0.278 0.063,-0.527 0.189,-0.746c0.127,-0.218 0.304,-0.389 0.532,-0.512c0.228,-0.122 0.491,-0.183 0.791,-0.183c1.093,-0 1.64,0.723 1.64,2.17Zm-1.607,-0.126c0.172,0 0.373,-0.055 0.603,-0.165l0,-0.017c0,-0.357 -0.062,-0.637 -0.186,-0.84c-0.125,-0.203 -0.3,-0.304 -0.526,-0.304c-0.135,-0 -0.249,0.061 -0.342,0.183c-0.094,0.123 -0.14,0.282 -0.14,0.479c-0,0.201 0.054,0.363 0.164,0.483c0.109,0.121 0.252,0.181 0.427,0.181Z" style="fill:#fff;fill-rule:nonzero;"/></g></svg>