<?xml version="1.0" encoding="UTF-8" standalone="no"?><!DOCTYPE svg PUBLIC "-//W3C//DTD SVG 1.1//EN" "http://www.w3.org/Graphics/SVG/1.1/DTD/svg11.dtd"><svg width="100%" height="100%" viewBox="0 0 11 11" version="1.1" xmlns="http://www.w3.org/2000/svg" xmlns:xlink="http://www.w3.org/1999/xlink" xml:space="preserve" xmlns:serif="http://www.serif.com/" style="fill-rule:evenodd;clip-rule:evenodd;stroke-linejoin:round;stroke-miterlimit:2;"><rect id="d30_16" x="0.202" y="0.238" width="10.56" height="10.56" style="fill:none;"/><g><path d="M5.357,0.783c0.082,-0.016 0.167,-0.016 0.25,0c0.333,0.066 1.238,0.246 1.571,0.313c0.083,0.016 0.161,0.049 0.231,0.095c0.282,0.189 1.05,0.702 1.332,0.89c0.07,0.047 0.13,0.107 0.177,0.177c0.189,0.282 0.702,1.05 0.89,1.332c0.047,0.07 0.08,0.149 0.096,0.231c0.066,0.333 0.246,1.239 0.313,1.572c0.016,0.082 0.016,0.167 -0,0.25c-0.067,0.333 -0.247,1.238 -0.313,1.571c-0.016,0.083 -0.049,0.161 -0.096,0.231c-0.188,0.283 -0.701,1.05 -0.89,1.332c-0.047,0.07 -0.107,0.131 -0.177,0.177c-0.282,0.189 -1.05,0.702 -1.332,0.89c-0.07,0.047 -0.148,0.08 -0.231,0.096c-0.333,0.066 -1.238,0.246 -1.571,0.313c-0.083,0.016 -0.168,0.016 -0.25,-0c-0.333,-0.067 -1.239,-0.247 -1.572,-0.313c-0.082,-0.016 -0.161,-0.049 -0.231,-0.096c-0.282,-0.188 -1.05,-0.701 -1.332,-0.89c-0.07,-0.046 -0.13,-0.107 -0.177,-0.177c-0.188,-0.282 -0.701,-1.049 -0.89,-1.332c-0.047,-0.07 -0.079,-0.148 -0.096,-0.231c-0.066,-0.333 -0.246,-1.238 -0.312,-1.571c-0.017,-0.083 -0.017,-0.168 -0,-0.25c0.066,-0.333 0.246,-1.239 0.312,-1.572c0.017,-0.082 0.049,-0.161 0.096,-0.231c0.189,-0.282 0.702,-1.05 0.89,-1.332c0.047,-0.07 0.107,-0.13 0.177,-0.177c0.282,-0.188 1.05,-0.701 1.332,-0.89c0.07,-0.046 0.149,-0.079 0.231,-0.095c0.333,-0.067 1.239,-0.247 1.572,-0.313Z" style="fill:#676767;"/><path d="M8.113,5.209c0.146,0.099 0.232,0.263 0.232,0.439c0,0.176 -0.086,0.34 -0.232,0.439c-0.695,0.475 -1.777,1.212 -2.31,1.577c-0.194,0.132 -0.449,0.132 -0.642,-0c-0.534,-0.365 -1.615,-1.102 -2.311,-1.577c-0.145,-0.099 -0.232,-0.263 -0.232,-0.439c0,-0.176 0.087,-0.34 0.232,-0.439c0.696,-0.475 1.777,-1.212 2.311,-1.577c0.193,-0.132 0.448,-0.132 0.642,0c0.533,0.365 1.615,1.102 2.31,1.577Z" style="fill:#888;"/></g><g><path d="M4.764,6.917l-0,0.724l-2.154,-0l-0,-0.724l0.58,0l0,-2.779l-0.619,0l-0,-0.723l1.649,-0l-0,3.502l0.544,0Z" style="fill:#fff;fill-rule:nonzero;"/><path d="M8.337,4.5l-0.833,0.073c-0.095,-0.352 -0.28,-0.527 -0.553,-0.527c-0.201,-0 -0.364,0.093 -0.486,0.279c-0.123,0.186 -0.196,0.451 -0.22,0.795c0.226,-0.146 0.487,-0.219 0.782,-0.219c0.268,-0 0.505,0.058 0.711,0.175c0.207,0.117 0.368,0.276 0.482,0.477c0.115,0.201 0.173,0.428 0.173,0.68c-0,0.452 -0.13,0.81 -0.39,1.071c-0.26,0.262 -0.618,0.393 -1.074,0.393c-0.581,-0 -1.01,-0.173 -1.286,-0.519c-0.276,-0.346 -0.413,-0.882 -0.413,-1.61c-0,-0.731 0.149,-1.285 0.447,-1.663c0.298,-0.377 0.737,-0.566 1.317,-0.566c0.803,-0 1.251,0.387 1.343,1.161Zm-2.098,1.309c0,0.414 0.057,0.711 0.17,0.892c0.113,0.182 0.284,0.272 0.514,0.272c0.15,0 0.272,-0.059 0.365,-0.178c0.094,-0.118 0.14,-0.286 0.14,-0.503c0,-0.204 -0.052,-0.361 -0.157,-0.473c-0.105,-0.111 -0.249,-0.167 -0.434,-0.167c-0.176,0 -0.375,0.053 -0.598,0.157Z" style="fill:#fff;fill-rule:nonzero;"/></g></svg>