<?xml version="1.0" encoding="UTF-8" standalone="no"?><!DOCTYPE svg PUBLIC "-//W3C//DTD SVG 1.1//EN" "http://www.w3.org/Graphics/SVG/1.1/DTD/svg11.dtd"><svg width="100%" height="100%" viewBox="0 0 11 11" version="1.1" xmlns="http://www.w3.org/2000/svg" xmlns:xlink="http://www.w3.org/1999/xlink" xml:space="preserve" xmlns:serif="http://www.serif.com/" style="fill-rule:evenodd;clip-rule:evenodd;stroke-linejoin:round;stroke-miterlimit:2;"><rect id="d30_30" x="0.187" y="0.238" width="10.56" height="10.56" style="fill:none;"/><g><path d="M5.342,0.783c0.083,-0.016 0.168,-0.016 0.25,0c0.333,0.066 1.239,0.246 1.572,0.313c0.082,0.016 0.161,0.049 0.231,0.095c0.282,0.189 1.05,0.702 1.332,0.89c0.07,0.047 0.13,0.107 0.177,0.177c0.188,0.282 0.701,1.05 0.89,1.332c0.047,0.07 0.079,0.149 0.095,0.231c0.067,0.333 0.247,1.239 0.313,1.572c0.016,0.082 0.016,0.167 0,0.25c-0.066,0.333 -0.246,1.238 -0.313,1.571c-0.016,0.083 -0.048,0.161 -0.095,0.231c-0.189,0.283 -0.702,1.05 -0.89,1.332c-0.047,0.07 -0.107,0.131 -0.177,0.177c-0.282,0.189 -1.05,0.702 -1.332,0.89c-0.07,0.047 -0.149,0.08 -0.231,0.096c-0.333,0.066 -1.239,0.246 -1.572,0.313c-0.082,0.016 -0.167,0.016 -0.25,-0c-0.333,-0.067 -1.238,-0.247 -1.571,-0.313c-0.083,-0.016 -0.161,-0.049 -0.231,-0.096c-0.283,-0.188 -1.05,-0.701 -1.332,-0.89c-0.07,-0.046 -0.13,-0.107 -0.177,-0.177c-0.189,-0.282 -0.702,-1.049 -0.89,-1.332c-0.047,-0.07 -0.08,-0.148 -0.096,-0.231c-0.066,-0.333 -0.246,-1.238 -0.313,-1.571c-0.016,-0.083 -0.016,-0.168 0,-0.25c0.067,-0.333 0.247,-1.239 0.313,-1.572c0.016,-0.082 0.049,-0.161 0.096,-0.231c0.188,-0.282 0.701,-1.05 0.89,-1.332c0.047,-0.07 0.107,-0.13 0.177,-0.177c0.282,-0.188 1.049,-0.701 1.332,-0.89c0.07,-0.046 0.148,-0.079 0.231,-0.095c0.333,-0.067 1.238,-0.247 1.571,-0.313Z" style="fill:#676767;"/><path d="M8.099,5.209c0.145,0.099 0.232,0.263 0.232,0.439c-0,0.176 -0.087,0.34 -0.232,0.439c-0.696,0.475 -1.777,1.212 -2.311,1.577c-0.194,0.132 -0.448,0.132 -0.642,-0c-0.534,-0.365 -1.615,-1.102 -2.31,-1.577c-0.146,-0.099 -0.232,-0.263 -0.232,-0.439c-0,-0.176 0.086,-0.34 0.232,-0.439c0.695,-0.475 1.776,-1.212 2.31,-1.577c0.194,-0.132 0.448,-0.132 0.642,0c0.534,0.365 1.615,1.102 2.311,1.577Z" style="fill:#888;"/></g><g><path d="M5.248,4.472c-0,0.424 -0.213,0.735 -0.637,0.934c0.531,0.181 0.796,0.517 0.796,1.006c0,0.253 -0.067,0.477 -0.203,0.672c-0.135,0.195 -0.324,0.346 -0.565,0.453c-0.241,0.107 -0.513,0.16 -0.816,0.16c-1.012,-0 -1.554,-0.461 -1.627,-1.383l0.92,-0.075c0.004,0.493 0.207,0.74 0.609,0.74c0.185,-0 0.335,-0.058 0.451,-0.174c0.116,-0.116 0.174,-0.259 0.174,-0.429c0,-0.176 -0.061,-0.318 -0.184,-0.428c-0.122,-0.109 -0.295,-0.164 -0.52,-0.164c-0.035,0 -0.114,0.005 -0.235,0.014l-0,-0.771c0.26,-0.004 0.462,-0.049 0.608,-0.137c0.146,-0.088 0.219,-0.214 0.219,-0.379c0,-0.131 -0.049,-0.237 -0.147,-0.32c-0.098,-0.082 -0.222,-0.123 -0.372,-0.123c-0.336,-0 -0.505,0.188 -0.505,0.564l-0.889,-0.076c0.03,-0.383 0.174,-0.682 0.432,-0.896c0.258,-0.214 0.599,-0.321 1.021,-0.321c0.447,-0 0.804,0.101 1.07,0.304c0.266,0.203 0.4,0.479 0.4,0.829Z" style="fill:#fff;fill-rule:nonzero;"/><path d="M8.738,5.515c-0,0.712 -0.136,1.254 -0.407,1.625c-0.271,0.371 -0.662,0.557 -1.172,0.557c-0.512,-0 -0.903,-0.186 -1.174,-0.557c-0.27,-0.371 -0.405,-0.913 -0.405,-1.625c0,-0.695 0.134,-1.232 0.403,-1.61c0.268,-0.377 0.66,-0.566 1.176,-0.566c0.522,-0 0.915,0.184 1.181,0.554c0.265,0.369 0.398,0.91 0.398,1.622Zm-2.095,0c0,0.49 0.042,0.853 0.126,1.088c0.084,0.236 0.216,0.353 0.396,0.353c0.179,0 0.31,-0.117 0.392,-0.353c0.083,-0.235 0.124,-0.598 0.124,-1.088c-0,-0.965 -0.172,-1.447 -0.516,-1.447c-0.18,-0 -0.312,0.121 -0.396,0.362c-0.084,0.241 -0.126,0.603 -0.126,1.085Z" style="fill:#fff;fill-rule:nonzero;"/></g></svg>