<?xml version="1.0" encoding="UTF-8" standalone="no"?><!DOCTYPE svg PUBLIC "-//W3C//DTD SVG 1.1//EN" "http://www.w3.org/Graphics/SVG/1.1/DTD/svg11.dtd"><svg width="100%" height="100%" viewBox="0 0 11 11" version="1.1" xmlns="http://www.w3.org/2000/svg" xmlns:xlink="http://www.w3.org/1999/xlink" xml:space="preserve" xmlns:serif="http://www.serif.com/" style="fill-rule:evenodd;clip-rule:evenodd;stroke-linejoin:round;stroke-miterlimit:2;"><rect id="d30_14" x="0.149" y="0.238" width="10.56" height="10.56" style="fill:none;"/><g><path d="M5.304,0.783c0.083,-0.016 0.168,-0.016 0.25,0c0.333,0.066 1.239,0.246 1.572,0.313c0.082,0.016 0.161,0.049 0.231,0.095c0.282,0.189 1.05,0.702 1.332,0.89c0.07,0.047 0.13,0.107 0.177,0.177c0.188,0.282 0.701,1.05 0.89,1.332c0.047,0.07 0.079,0.149 0.095,0.231c0.067,0.333 0.247,1.239 0.313,1.572c0.016,0.082 0.016,0.167 0,0.25c-0.066,0.333 -0.246,1.238 -0.313,1.571c-0.016,0.083 -0.048,0.161 -0.095,0.231c-0.189,0.283 -0.702,1.05 -0.89,1.332c-0.047,0.07 -0.107,0.131 -0.177,0.177c-0.282,0.189 -1.05,0.702 -1.332,0.89c-0.07,0.047 -0.149,0.08 -0.231,0.096c-0.333,0.066 -1.239,0.246 -1.572,0.313c-0.082,0.016 -0.167,0.016 -0.25,-0c-0.333,-0.067 -1.238,-0.247 -1.571,-0.313c-0.083,-0.016 -0.161,-0.049 -0.231,-0.096c-0.282,-0.188 -1.05,-0.701 -1.332,-0.89c-0.07,-0.046 -0.13,-0.107 -0.177,-0.177c-0.189,-0.282 -0.702,-1.049 -0.89,-1.332c-0.047,-0.07 -0.08,-0.148 -0.096,-0.231c-0.066,-0.333 -0.246,-1.238 -0.313,-1.571c-0.016,-0.083 -0.016,-0.168 0,-0.25c0.067,-0.333 0.247,-1.239 0.313,-1.572c0.016,-0.082 0.049,-0.161 0.096,-0.231c0.188,-0.282 0.701,-1.05 0.89,-1.332c0.047,-0.07 0.107,-0.13 0.177,-0.177c0.282,-0.188 1.05,-0.701 1.332,-0.89c0.07,-0.046 0.148,-0.079 0.231,-0.095c0.333,-0.067 1.238,-0.247 1.571,-0.313Z" style="fill:#676767;"/><path d="M8.061,5.209c0.145,0.099 0.232,0.263 0.232,0.439c-0,0.176 -0.087,0.34 -0.232,0.439c-0.696,0.475 -1.777,1.212 -2.311,1.577c-0.193,0.132 -0.448,0.132 -0.642,-0c-0.533,-0.365 -1.615,-1.102 -2.31,-1.577c-0.146,-0.099 -0.232,-0.263 -0.232,-0.439c-0,-0.176 0.086,-0.34 0.232,-0.439c0.695,-0.475 1.777,-1.212 2.31,-1.577c0.194,-0.132 0.449,-0.132 0.642,0c0.534,0.365 1.615,1.102 2.311,1.577Z" style="fill:#888;"/></g><g><path d="M4.694,6.945l-0,0.724l-2.154,-0l-0,-0.724l0.58,0l0,-2.779l-0.62,0l0,-0.723l1.649,-0l0,3.502l0.545,0Z" style="fill:#fff;fill-rule:nonzero;"/><path d="M8.358,5.832l0,0.687l-0.449,0l0,0.482l0.393,0l-0,0.668l-1.873,-0l-0,-0.668l0.51,0l-0,-0.482l-1.744,0c-0.094,-0.26 -0.171,-0.447 -0.23,-0.561l2.033,-2.591l0.911,-0l0,2.465l0.449,-0Zm-2.395,-0l0.976,-0l-0,-1.22l-0.976,1.22Z" style="fill:#fff;fill-rule:nonzero;"/></g></svg>