<?xml version="1.0" encoding="UTF-8" standalone="no"?><!DOCTYPE svg PUBLIC "-//W3C//DTD SVG 1.1//EN" "http://www.w3.org/Graphics/SVG/1.1/DTD/svg11.dtd"><svg width="100%" height="100%" viewBox="0 0 11 11" version="1.1" xmlns="http://www.w3.org/2000/svg" xmlns:xlink="http://www.w3.org/1999/xlink" xml:space="preserve" xmlns:serif="http://www.serif.com/" style="fill-rule:evenodd;clip-rule:evenodd;stroke-linejoin:round;stroke-miterlimit:2;"><rect id="d30_25" x="0.178" y="0.238" width="10.56" height="10.56" style="fill:none;"/><g><path d="M5.333,0.783c0.083,-0.016 0.168,-0.016 0.25,0c0.333,0.066 1.239,0.246 1.572,0.313c0.082,0.016 0.161,0.049 0.231,0.095c0.282,0.189 1.05,0.702 1.332,0.89c0.07,0.047 0.13,0.107 0.177,0.177c0.188,0.282 0.701,1.05 0.89,1.332c0.047,0.07 0.079,0.149 0.096,0.231c0.066,0.333 0.246,1.239 0.312,1.572c0.017,0.082 0.017,0.167 0,0.25c-0.066,0.333 -0.246,1.238 -0.312,1.571c-0.017,0.083 -0.049,0.161 -0.096,0.231c-0.189,0.283 -0.702,1.05 -0.89,1.332c-0.047,0.07 -0.107,0.131 -0.177,0.177c-0.282,0.189 -1.05,0.702 -1.332,0.89c-0.07,0.047 -0.149,0.08 -0.231,0.096c-0.333,0.066 -1.239,0.246 -1.572,0.313c-0.082,0.016 -0.167,0.016 -0.25,-0c-0.333,-0.067 -1.238,-0.247 -1.571,-0.313c-0.083,-0.016 -0.161,-0.049 -0.231,-0.096c-0.282,-0.188 -1.05,-0.701 -1.332,-0.89c-0.07,-0.046 -0.13,-0.107 -0.177,-0.177c-0.189,-0.282 -0.702,-1.049 -0.89,-1.332c-0.047,-0.07 -0.079,-0.148 -0.096,-0.231c-0.066,-0.333 -0.246,-1.238 -0.312,-1.571c-0.017,-0.083 -0.017,-0.168 -0,-0.25c0.066,-0.333 0.246,-1.239 0.312,-1.572c0.017,-0.082 0.049,-0.161 0.096,-0.231c0.188,-0.282 0.701,-1.05 0.89,-1.332c0.047,-0.07 0.107,-0.13 0.177,-0.177c0.282,-0.188 1.05,-0.701 1.332,-0.89c0.07,-0.046 0.148,-0.079 0.231,-0.095c0.333,-0.067 1.238,-0.247 1.571,-0.313Z" style="fill:#676767;"/><path d="M8.09,5.209c0.145,0.099 0.232,0.263 0.232,0.439c0,0.176 -0.087,0.34 -0.232,0.439c-0.696,0.475 -1.777,1.212 -2.311,1.577c-0.193,0.132 -0.448,0.132 -0.641,-0c-0.534,-0.365 -1.615,-1.102 -2.311,-1.577c-0.145,-0.099 -0.232,-0.263 -0.232,-0.439c-0,-0.176 0.087,-0.34 0.232,-0.439c0.696,-0.475 1.777,-1.212 2.311,-1.577c0.193,-0.132 0.448,-0.132 0.641,0c0.534,0.365 1.615,1.102 2.311,1.577Z" style="fill:#888;"/></g><g><path d="M5.216,4.528c-0,0.215 -0.048,0.402 -0.145,0.561c-0.096,0.159 -0.225,0.303 -0.388,0.433c-0.163,0.13 -0.399,0.288 -0.71,0.475c-0.504,0.311 -0.784,0.617 -0.838,0.92l1.276,0l-0,-0.547l0.855,0l-0.05,1.271l-3.079,-0c-0,-0.376 0.044,-0.685 0.134,-0.928c0.09,-0.244 0.232,-0.466 0.425,-0.669c0.194,-0.203 0.478,-0.444 0.854,-0.722c0.198,-0.146 0.349,-0.287 0.453,-0.424c0.104,-0.136 0.156,-0.277 0.156,-0.421c-0,-0.142 -0.042,-0.249 -0.124,-0.322c-0.082,-0.073 -0.2,-0.109 -0.353,-0.109c-0.198,-0 -0.346,0.068 -0.442,0.206c-0.096,0.137 -0.154,0.361 -0.172,0.671l-0.878,-0.033c0.011,-0.522 0.145,-0.911 0.401,-1.167c0.256,-0.256 0.639,-0.384 1.15,-0.384c0.458,-0 0.818,0.105 1.081,0.315c0.262,0.211 0.394,0.502 0.394,0.874Z" style="fill:#fff;fill-rule:nonzero;"/><path d="M7.852,4.447l-0.076,-0.309l-1.155,0l-0.084,0.895c0.233,-0.122 0.48,-0.183 0.74,-0.183c0.299,0 0.562,0.061 0.79,0.181c0.227,0.121 0.403,0.288 0.527,0.502c0.124,0.214 0.186,0.448 0.186,0.7c0,0.292 -0.067,0.55 -0.2,0.774c-0.134,0.224 -0.324,0.395 -0.571,0.513c-0.247,0.118 -0.535,0.177 -0.864,0.177c-0.445,-0 -0.807,-0.108 -1.086,-0.324c-0.28,-0.216 -0.447,-0.517 -0.501,-0.904l0.903,-0.11c0.066,0.41 0.272,0.614 0.62,0.614c0.207,0 0.365,-0.058 0.474,-0.174c0.108,-0.115 0.162,-0.281 0.162,-0.496c0,-0.475 -0.204,-0.712 -0.614,-0.712c-0.241,-0 -0.444,0.113 -0.608,0.339l-0.746,-0.367l0.148,-2.148l2.673,-0l0,1.032l-0.718,-0Z" style="fill:#fff;fill-rule:nonzero;"/></g></svg>