<?xml version="1.0" encoding="UTF-8" standalone="no"?><!DOCTYPE svg PUBLIC "-//W3C//DTD SVG 1.1//EN" "http://www.w3.org/Graphics/SVG/1.1/DTD/svg11.dtd"><svg width="100%" height="100%" viewBox="0 0 11 11" version="1.1" xmlns="http://www.w3.org/2000/svg" xmlns:xlink="http://www.w3.org/1999/xlink" xml:space="preserve" xmlns:serif="http://www.serif.com/" style="fill-rule:evenodd;clip-rule:evenodd;stroke-linejoin:round;stroke-miterlimit:2;"><rect id="d3_2" x="0.093" y="0.219" width="10.56" height="10.56" style="fill:none;"/><g><path d="M8.553,1.059c0.696,-0 1.26,0.564 1.26,1.26l-0,6.36c-0,0.696 -0.564,1.26 -1.26,1.26l-6.36,-0c-0.696,-0 -1.26,-0.564 -1.26,-1.26l-0,-6.36c-0,-0.696 0.564,-1.26 1.26,-1.26l6.36,-0Z" style="fill:#d2609a;"/><path d="M8.047,2.176c0.358,0 0.649,0.291 0.649,0.648l-0,5.349c-0,0.358 -0.291,0.648 -0.649,0.649l-5.349,-0c-0.357,-0.001 -0.648,-0.291 -0.648,-0.649l0,-5.349c0,-0.357 0.291,-0.648 0.648,-0.648l5.349,0Z" style="fill:#d28db0;"/></g><g><path d="M4.851,4.503l0,1.992l0.465,-0l-0,0.512l-1.706,0l0,-0.512l0.455,-0l-0,-1.992l-0.455,-0l0,-0.513l1.706,0l-0,0.513l-0.465,-0Z" style="fill:#fff;fill-rule:nonzero;"/><path d="M6.671,4.503l0,1.992l0.465,-0l-0,0.512l-1.706,0l0,-0.512l0.454,-0l0,-1.992l-0.454,-0l0,-0.513l1.706,0l-0,0.513l-0.465,-0Z" style="fill:#fff;fill-rule:nonzero;"/></g></svg>