<?xml version="1.0" encoding="UTF-8" standalone="no"?><!DOCTYPE svg PUBLIC "-//W3C//DTD SVG 1.1//EN" "http://www.w3.org/Graphics/SVG/1.1/DTD/svg11.dtd"><svg width="100%" height="100%" viewBox="0 0 11 11" version="1.1" xmlns="http://www.w3.org/2000/svg" xmlns:xlink="http://www.w3.org/1999/xlink" xml:space="preserve" xmlns:serif="http://www.serif.com/" style="fill-rule:evenodd;clip-rule:evenodd;stroke-linejoin:round;stroke-miterlimit:2;"><rect id="d3_3" x="0.023" y="0.219" width="10.56" height="10.56" style="fill:none;"/><g><path d="M8.483,1.059c0.696,-0 1.26,0.564 1.26,1.26l0,6.36c0,0.696 -0.564,1.26 -1.26,1.26l-6.36,-0c-0.696,-0 -1.26,-0.564 -1.26,-1.26l0,-6.36c0,-0.696 0.564,-1.26 1.26,-1.26l6.36,-0Z" style="fill:#676767;"/><path d="M7.978,2.176c0.358,0 0.648,0.291 0.648,0.648l-0,5.349c-0,0.358 -0.29,0.648 -0.648,0.649l-5.349,-0c-0.358,-0.001 -0.648,-0.291 -0.648,-0.649l-0,-5.349c-0,-0.357 0.29,-0.648 0.648,-0.648l5.349,0Z" style="fill:#868686;"/></g><g><path d="M3.886,4.513l0,1.972l0.46,-0l0,0.507l-1.688,0l-0,-0.507l0.45,-0l-0,-1.972l-0.45,0l-0,-0.507l1.688,-0l0,0.507l-0.46,0Z" style="fill:#fff;fill-rule:nonzero;"/><path d="M5.688,4.513l-0,1.972l0.459,-0l0,0.507l-1.688,0l-0,-0.507l0.45,-0l-0,-1.972l-0.45,0l-0,-0.507l1.688,-0l0,0.507l-0.459,0Z" style="fill:#fff;fill-rule:nonzero;"/><path d="M7.489,4.513l-0,1.972l0.459,-0l0,0.507l-1.688,0l0,-0.507l0.45,-0l0,-1.972l-0.45,0l0,-0.507l1.688,-0l0,0.507l-0.459,0Z" style="fill:#fff;fill-rule:nonzero;"/></g></svg>