<?xml version="1.0" encoding="UTF-8" standalone="no"?><!DOCTYPE svg PUBLIC "-//W3C//DTD SVG 1.1//EN" "http://www.w3.org/Graphics/SVG/1.1/DTD/svg11.dtd"><svg width="100%" height="100%" viewBox="0 0 11 11" version="1.1" xmlns="http://www.w3.org/2000/svg" xmlns:xlink="http://www.w3.org/1999/xlink" xml:space="preserve" xmlns:serif="http://www.serif.com/" style="fill-rule:evenodd;clip-rule:evenodd;stroke-linejoin:round;stroke-miterlimit:2;"><rect id="d4_1" x="0.127" y="0.108" width="10.56" height="10.56" style="fill:none;"/><g><path d="M5.081,1.189c0.068,-0.116 0.192,-0.186 0.326,-0.186c0.134,-0 0.258,0.07 0.326,0.186c0.926,1.57 3.567,6.05 4.506,7.642c0.069,0.117 0.07,0.262 0.003,0.38c-0.067,0.118 -0.193,0.19 -0.328,0.19c-1.866,0 -7.149,0 -9.014,0c-0.136,0 -0.261,-0.072 -0.328,-0.19c-0.068,-0.118 -0.067,-0.263 0.002,-0.38c0.939,-1.592 3.581,-6.072 4.507,-7.642Z" style="fill:#e3c532;"/><path d="M5.238,3.22c0.035,-0.06 0.1,-0.097 0.169,-0.097c0.069,0 0.133,0.037 0.168,0.097c0.564,0.955 2.379,4.033 2.95,5.002c0.036,0.061 0.036,0.135 0.002,0.196c-0.035,0.061 -0.1,0.099 -0.17,0.099c-1.135,-0 -4.766,-0 -5.9,-0c-0.07,-0 -0.135,-0.038 -0.17,-0.099c-0.035,-0.061 -0.034,-0.135 0.001,-0.196c0.572,-0.969 2.387,-4.047 2.95,-5.002Z" style="fill:#ccaf25;"/></g><path d="M6.503,7.393l0,0.724l-2.154,-0l0,-0.724l0.581,0l-0,-2.779l-0.62,0l0,-0.723l1.649,-0l0,3.502l0.544,0Z" style="fill:#6e684f;fill-rule:nonzero;"/></svg>