<?xml version="1.0" encoding="UTF-8" standalone="no"?><!DOCTYPE svg PUBLIC "-//W3C//DTD SVG 1.1//EN" "http://www.w3.org/Graphics/SVG/1.1/DTD/svg11.dtd"><svg width="100%" height="100%" viewBox="0 0 11 11" version="1.1" xmlns="http://www.w3.org/2000/svg" xmlns:xlink="http://www.w3.org/1999/xlink" xml:space="preserve" xmlns:serif="http://www.serif.com/" style="fill-rule:evenodd;clip-rule:evenodd;stroke-linejoin:round;stroke-miterlimit:2;"><rect id="d4_2" x="0.068" y="0.108" width="10.56" height="10.56" style="fill:none;"/><g><path d="M5.023,1.193c0.068,-0.116 0.192,-0.186 0.325,-0.186c0.134,-0 0.258,0.07 0.326,0.186c0.926,1.569 3.564,6.043 4.502,7.634c0.069,0.117 0.07,0.262 0.003,0.38c-0.068,0.117 -0.193,0.19 -0.329,0.19c-1.863,0 -7.14,0 -9.004,0c-0.135,0 -0.261,-0.073 -0.328,-0.19c-0.067,-0.118 -0.066,-0.263 0.003,-0.38c0.938,-1.591 3.576,-6.065 4.502,-7.634Z" style="fill:#e3c532;"/><path d="M5.18,3.222c0.035,-0.06 0.099,-0.097 0.168,-0.097c0.07,0 0.134,0.037 0.169,0.097c0.563,0.954 2.376,4.029 2.947,4.997c0.035,0.06 0.036,0.135 0.001,0.196c-0.035,0.061 -0.099,0.099 -0.17,0.099c-1.134,-0 -4.76,-0 -5.894,-0c-0.07,-0 -0.135,-0.038 -0.169,-0.099c-0.035,-0.061 -0.035,-0.136 0.001,-0.196c0.571,-0.968 2.384,-4.043 2.947,-4.997Z" style="fill:#ccaf25;"/></g><path d="M6.863,5.042c-0,0.215 -0.048,0.402 -0.145,0.561c-0.096,0.159 -0.225,0.303 -0.388,0.433c-0.163,0.13 -0.399,0.288 -0.71,0.475c-0.504,0.311 -0.784,0.617 -0.838,0.92l1.276,0l-0,-0.547l0.855,0l-0.05,1.271l-3.079,-0c-0,-0.376 0.044,-0.686 0.134,-0.929c0.09,-0.243 0.232,-0.466 0.425,-0.668c0.194,-0.203 0.478,-0.444 0.854,-0.723c0.198,-0.145 0.349,-0.287 0.453,-0.423c0.104,-0.137 0.156,-0.277 0.156,-0.421c-0,-0.142 -0.042,-0.249 -0.124,-0.322c-0.082,-0.073 -0.2,-0.11 -0.353,-0.11c-0.198,0 -0.346,0.069 -0.442,0.207c-0.096,0.137 -0.154,0.361 -0.172,0.671l-0.878,-0.033c0.011,-0.522 0.145,-0.911 0.401,-1.167c0.256,-0.256 0.639,-0.384 1.15,-0.384c0.458,-0 0.818,0.105 1.081,0.315c0.262,0.211 0.394,0.502 0.394,0.874Z" style="fill:#6e684f;fill-rule:nonzero;"/></svg>