<?xml version="1.0" encoding="UTF-8" standalone="no"?><!DOCTYPE svg PUBLIC "-//W3C//DTD SVG 1.1//EN" "http://www.w3.org/Graphics/SVG/1.1/DTD/svg11.dtd"><svg width="100%" height="100%" viewBox="0 0 11 11" version="1.1" xmlns="http://www.w3.org/2000/svg" xmlns:xlink="http://www.w3.org/1999/xlink" xml:space="preserve" xmlns:serif="http://www.serif.com/" style="fill-rule:evenodd;clip-rule:evenodd;stroke-linejoin:round;stroke-miterlimit:2;"><rect id="d4_4" x="0.021" y="0.108" width="10.56" height="10.56" style="fill:none;"/><g><path d="M4.976,1.193c0.068,-0.116 0.191,-0.186 0.325,-0.186c0.134,-0 0.258,0.07 0.326,0.186c0.925,1.569 3.564,6.043 4.502,7.634c0.069,0.117 0.07,0.262 0.003,0.38c-0.068,0.117 -0.193,0.19 -0.329,0.19c-1.864,0 -7.14,0 -9.004,0c-0.135,0 -0.261,-0.073 -0.328,-0.19c-0.067,-0.118 -0.066,-0.263 0.003,-0.38c0.938,-1.591 3.576,-6.065 4.502,-7.634Z" style="fill:#e3c532;"/><path d="M5.133,3.222c0.035,-0.06 0.099,-0.097 0.168,-0.097c0.069,0 0.134,0.037 0.169,0.097c0.563,0.954 2.376,4.029 2.947,4.997c0.035,0.06 0.036,0.135 0.001,0.196c-0.035,0.061 -0.1,0.099 -0.17,0.099c-1.134,-0 -4.76,-0 -5.894,-0c-0.07,-0 -0.135,-0.038 -0.17,-0.099c-0.034,-0.061 -0.034,-0.136 0.002,-0.196c0.571,-0.968 2.384,-4.043 2.947,-4.997Z" style="fill:#ccaf25;"/></g><path d="M6.663,6.318l-0,0.687l-0.449,-0l-0,0.482l0.393,0l-0,0.668l-1.874,-0l0,-0.668l0.511,0l-0,-0.482l-1.745,-0c-0.093,-0.26 -0.17,-0.447 -0.23,-0.561l2.033,-2.591l0.912,-0l-0,2.465l0.449,-0Zm-2.395,-0l0.976,-0l-0,-1.22l-0.976,1.22Z" style="fill:#6e684f;fill-rule:nonzero;"/></svg>