<?xml version="1.0" encoding="UTF-8" standalone="no"?><!DOCTYPE svg PUBLIC "-//W3C//DTD SVG 1.1//EN" "http://www.w3.org/Graphics/SVG/1.1/DTD/svg11.dtd"><svg width="100%" height="100%" viewBox="0 0 11 11" version="1.1" xmlns="http://www.w3.org/2000/svg" xmlns:xlink="http://www.w3.org/1999/xlink" xml:space="preserve" xmlns:serif="http://www.serif.com/" style="fill-rule:evenodd;clip-rule:evenodd;stroke-linejoin:round;stroke-miterlimit:2;"><rect id="d5_2" x="0.158" y="0.216" width="10.56" height="10.56" style="fill:none;"/><g><path d="M3.453,2.555c0.425,-0.649 1.176,-1.044 1.985,-1.044c0.809,0 1.56,0.395 1.985,1.044c0.739,1.126 1.582,2.41 2.339,3.564c0.446,0.679 0.467,1.533 0.054,2.231c-0.412,0.698 -1.192,1.13 -2.039,1.13l-4.678,0c-0.847,0 -1.627,-0.432 -2.039,-1.13c-0.413,-0.698 -0.392,-1.552 0.054,-2.231c0.757,-1.154 1.6,-2.438 2.339,-3.564Z" style="fill:#676767;"/><circle cx="5.438" cy="5.821" r="2.658" style="fill:#8e8e8e;"/></g><path d="M6.952,4.534c0,0.215 -0.048,0.402 -0.144,0.561c-0.096,0.159 -0.226,0.303 -0.388,0.433c-0.163,0.13 -0.4,0.289 -0.71,0.476c-0.505,0.31 -0.784,0.616 -0.838,0.919l1.276,0l-0,-0.547l0.855,0l-0.051,1.271l-3.079,-0c0,-0.376 0.045,-0.685 0.135,-0.928c0.089,-0.243 0.231,-0.466 0.425,-0.669c0.193,-0.203 0.478,-0.444 0.854,-0.722c0.198,-0.146 0.349,-0.287 0.452,-0.424c0.104,-0.136 0.156,-0.277 0.156,-0.42c0,-0.143 -0.041,-0.25 -0.123,-0.323c-0.083,-0.073 -0.2,-0.109 -0.354,-0.109c-0.198,-0 -0.345,0.068 -0.441,0.206c-0.097,0.137 -0.154,0.361 -0.173,0.671l-0.878,-0.033c0.012,-0.522 0.145,-0.911 0.401,-1.167c0.257,-0.256 0.64,-0.384 1.15,-0.384c0.458,-0 0.819,0.105 1.081,0.315c0.263,0.211 0.394,0.502 0.394,0.874Z" style="fill:#fff;fill-rule:nonzero;"/></svg>