<?xml version="1.0" encoding="UTF-8" standalone="no"?><!DOCTYPE svg PUBLIC "-//W3C//DTD SVG 1.1//EN" "http://www.w3.org/Graphics/SVG/1.1/DTD/svg11.dtd"><svg width="100%" height="100%" viewBox="0 0 11 11" version="1.1" xmlns="http://www.w3.org/2000/svg" xmlns:xlink="http://www.w3.org/1999/xlink" xml:space="preserve" xmlns:serif="http://www.serif.com/" style="fill-rule:evenodd;clip-rule:evenodd;stroke-linejoin:round;stroke-miterlimit:2;"><rect id="d5_3" x="0.221" y="0.216" width="10.56" height="10.56" style="fill:none;"/><g><path d="M3.515,2.555c0.426,-0.649 1.177,-1.044 1.986,-1.044c0.808,0 1.559,0.395 1.985,1.044c0.739,1.126 1.581,2.41 2.339,3.564c0.445,0.679 0.466,1.533 0.054,2.231c-0.412,0.698 -1.193,1.13 -2.04,1.13l-4.677,0c-0.847,0 -1.628,-0.432 -2.04,-1.13c-0.412,-0.698 -0.391,-1.552 0.054,-2.231c0.758,-1.154 1.6,-2.438 2.339,-3.564Z" style="fill:#dc986a;"/><circle cx="5.501" cy="5.821" r="2.658" style="fill:#bf7f55;"/></g><path d="M6.946,4.45c0,0.424 -0.212,0.736 -0.636,0.934c0.531,0.181 0.796,0.517 0.796,1.007c0,0.252 -0.068,0.476 -0.203,0.671c-0.136,0.196 -0.324,0.347 -0.565,0.453c-0.242,0.107 -0.514,0.16 -0.816,0.16c-1.012,-0 -1.554,-0.461 -1.627,-1.383l0.92,-0.075c0.004,0.493 0.206,0.74 0.608,0.74c0.185,0 0.336,-0.058 0.452,-0.174c0.116,-0.116 0.174,-0.259 0.174,-0.429c-0,-0.176 -0.061,-0.318 -0.184,-0.428c-0.122,-0.109 -0.296,-0.164 -0.52,-0.164c-0.036,0 -0.114,0.005 -0.236,0.014l0,-0.771c0.26,-0.004 0.463,-0.049 0.609,-0.137c0.146,-0.088 0.219,-0.214 0.219,-0.379c-0,-0.131 -0.049,-0.237 -0.148,-0.32c-0.098,-0.082 -0.222,-0.123 -0.371,-0.123c-0.337,0 -0.505,0.188 -0.505,0.564l-0.889,-0.076c0.03,-0.383 0.174,-0.682 0.432,-0.896c0.258,-0.214 0.598,-0.321 1.021,-0.321c0.447,-0 0.803,0.101 1.07,0.304c0.266,0.203 0.399,0.479 0.399,0.829Z" style="fill:#fff;fill-rule:nonzero;"/></svg>