<?xml version="1.0" encoding="UTF-8" standalone="no"?><!DOCTYPE svg PUBLIC "-//W3C//DTD SVG 1.1//EN" "http://www.w3.org/Graphics/SVG/1.1/DTD/svg11.dtd"><svg width="100%" height="100%" viewBox="0 0 11 11" version="1.1" xmlns="http://www.w3.org/2000/svg" xmlns:xlink="http://www.w3.org/1999/xlink" xml:space="preserve" xmlns:serif="http://www.serif.com/" style="fill-rule:evenodd;clip-rule:evenodd;stroke-linejoin:round;stroke-miterlimit:2;"><rect id="d5_5" x="0.002" y="0.216" width="10.56" height="10.56" style="fill:none;"/><g><path d="M3.297,2.555c0.425,-0.649 1.176,-1.044 1.985,-1.044c0.808,0 1.559,0.395 1.985,1.044c0.739,1.126 1.581,2.41 2.339,3.564c0.446,0.679 0.466,1.533 0.054,2.231c-0.412,0.698 -1.192,1.13 -2.039,1.13l-4.678,0c-0.847,0 -1.628,-0.432 -2.04,-1.13c-0.412,-0.698 -0.391,-1.552 0.055,-2.231c0.757,-1.154 1.6,-2.438 2.339,-3.564Z" style="fill:#dc986a;"/><circle cx="5.282" cy="5.821" r="2.658" style="fill:#bf7f55;"/></g><path d="M5.965,4.387l-0.076,-0.309l-1.156,0l-0.084,0.895c0.234,-0.122 0.481,-0.182 0.741,-0.182c0.299,-0 0.562,0.06 0.789,0.18c0.227,0.121 0.403,0.288 0.527,0.502c0.125,0.215 0.187,0.448 0.187,0.7c-0,0.292 -0.067,0.55 -0.201,0.774c-0.133,0.225 -0.324,0.396 -0.57,0.513c-0.247,0.118 -0.535,0.177 -0.864,0.177c-0.445,0 -0.807,-0.108 -1.087,-0.324c-0.279,-0.216 -0.446,-0.517 -0.5,-0.904l0.903,-0.11c0.065,0.41 0.272,0.615 0.619,0.615c0.208,-0 0.366,-0.058 0.474,-0.174c0.109,-0.116 0.163,-0.282 0.163,-0.497c0,-0.475 -0.205,-0.712 -0.614,-0.712c-0.241,-0 -0.444,0.113 -0.609,0.339l-0.746,-0.367l0.149,-2.148l2.673,-0l-0,1.032l-0.718,-0Z" style="fill:#fff;fill-rule:nonzero;"/></svg>