<?xml version="1.0" encoding="UTF-8" standalone="no"?><!DOCTYPE svg PUBLIC "-//W3C//DTD SVG 1.1//EN" "http://www.w3.org/Graphics/SVG/1.1/DTD/svg11.dtd"><svg width="100%" height="100%" viewBox="0 0 11 11" version="1.1" xmlns="http://www.w3.org/2000/svg" xmlns:xlink="http://www.w3.org/1999/xlink" xml:space="preserve" xmlns:serif="http://www.serif.com/" style="fill-rule:evenodd;clip-rule:evenodd;stroke-linejoin:round;stroke-miterlimit:2;"><rect id="d6_3" x="0.061" y="0.195" width="10.56" height="10.56" style="fill:none;"/><g><path d="M8.521,1.035c0.696,0 1.26,0.564 1.26,1.26l0,6.361c0,0.695 -0.564,1.259 -1.26,1.259l-6.36,0c-0.696,0 -1.26,-0.564 -1.26,-1.259l0,-6.361c0,-0.696 0.564,-1.26 1.26,-1.26l6.36,0Z" style="fill:#d26460;"/><path d="M8.016,2.153c0.358,-0 0.648,0.29 0.648,0.648l-0,5.349c-0,0.358 -0.29,0.648 -0.648,0.648l-5.349,-0c-0.358,-0 -0.648,-0.29 -0.648,-0.648l-0,-5.349c-0,-0.358 0.29,-0.648 0.648,-0.648l5.349,-0Z" style="fill:#b34f4b;"/></g><path d="M6.769,4.429c-0,0.425 -0.213,0.736 -0.637,0.934c0.531,0.182 0.796,0.517 0.796,1.007c0,0.252 -0.067,0.476 -0.203,0.672c-0.135,0.195 -0.324,0.346 -0.565,0.453c-0.241,0.106 -0.513,0.159 -0.816,0.159c-1.012,0 -1.554,-0.46 -1.627,-1.382l0.92,-0.076c0.004,0.494 0.207,0.74 0.609,0.74c0.185,0 0.335,-0.057 0.451,-0.173c0.116,-0.116 0.174,-0.259 0.174,-0.429c0,-0.176 -0.061,-0.319 -0.184,-0.428c-0.122,-0.11 -0.295,-0.164 -0.52,-0.164c-0.035,-0 -0.114,0.004 -0.235,0.014l-0,-0.771c0.26,-0.004 0.462,-0.05 0.608,-0.138c0.146,-0.088 0.219,-0.214 0.219,-0.378c-0,-0.131 -0.049,-0.238 -0.147,-0.32c-0.098,-0.082 -0.222,-0.124 -0.372,-0.124c-0.336,0 -0.505,0.188 -0.505,0.564l-0.889,-0.076c0.03,-0.383 0.174,-0.681 0.432,-0.896c0.258,-0.214 0.599,-0.321 1.021,-0.321c0.447,0 0.804,0.102 1.07,0.305c0.266,0.202 0.4,0.479 0.4,0.828Z" style="fill:#f9e4e3;fill-rule:nonzero;"/></svg>