<?xml version="1.0" encoding="UTF-8" standalone="no"?><!DOCTYPE svg PUBLIC "-//W3C//DTD SVG 1.1//EN" "http://www.w3.org/Graphics/SVG/1.1/DTD/svg11.dtd"><svg width="100%" height="100%" viewBox="0 0 11 11" version="1.1" xmlns="http://www.w3.org/2000/svg" xmlns:xlink="http://www.w3.org/1999/xlink" xml:space="preserve" xmlns:serif="http://www.serif.com/" style="fill-rule:evenodd;clip-rule:evenodd;stroke-linejoin:round;stroke-miterlimit:2;"><rect id="d6_4" x="0.141" y="0.195" width="10.56" height="10.56" style="fill:none;"/><g><path d="M8.602,1.035c0.695,0 1.259,0.564 1.259,1.26l0,6.361c0,0.695 -0.564,1.259 -1.259,1.259l-6.361,0c-0.696,0 -1.26,-0.564 -1.26,-1.259l0,-6.361c0,-0.696 0.564,-1.26 1.26,-1.26l6.361,0Z" style="fill:#d26460;"/><path d="M8.096,2.153c0.358,-0 0.648,0.29 0.648,0.648l0,5.349c0,0.358 -0.29,0.648 -0.648,0.648l-5.349,-0c-0.358,-0 -0.648,-0.29 -0.648,-0.648l-0,-5.349c-0,-0.358 0.29,-0.648 0.648,-0.648l5.349,-0Z" style="fill:#b34f4b;"/></g><path d="M6.878,5.761l-0,0.688l-0.449,-0l0,0.482l0.393,-0l-0,0.667l-1.874,0l0,-0.667l0.511,-0l-0,-0.482l-1.745,-0c-0.093,-0.26 -0.17,-0.447 -0.229,-0.561l2.033,-2.592l0.911,0l0,2.465l0.449,0Zm-2.395,0l0.976,0l-0,-1.219l-0.976,1.219Z" style="fill:#f9e4e3;fill-rule:nonzero;"/></svg>