<?xml version="1.0" encoding="UTF-8" standalone="no"?><!DOCTYPE svg PUBLIC "-//W3C//DTD SVG 1.1//EN" "http://www.w3.org/Graphics/SVG/1.1/DTD/svg11.dtd"><svg width="100%" height="100%" viewBox="0 0 11 11" version="1.1" xmlns="http://www.w3.org/2000/svg" xmlns:xlink="http://www.w3.org/1999/xlink" xml:space="preserve" xmlns:serif="http://www.serif.com/" style="fill-rule:evenodd;clip-rule:evenodd;stroke-linejoin:round;stroke-miterlimit:2;"><rect id="d6_5" x="0.146" y="0.195" width="10.56" height="10.56" style="fill:none;"/><g><path d="M8.606,1.035c0.695,0 1.259,0.564 1.26,1.26l-0,6.361c-0.001,0.695 -0.565,1.259 -1.26,1.259l-6.361,0c-0.695,0 -1.259,-0.564 -1.259,-1.259l-0,-6.361c-0,-0.696 0.564,-1.26 1.259,-1.26l6.361,0Z" style="fill:#d26460;"/><path d="M8.1,2.153c0.358,-0 0.648,0.29 0.648,0.648l0,5.349c0,0.358 -0.29,0.648 -0.648,0.648l-5.349,-0c-0.358,-0 -0.648,-0.29 -0.648,-0.648l-0,-5.349c-0,-0.358 0.29,-0.648 0.648,-0.648l5.349,-0Z" style="fill:#b34f4b;"/></g><path d="M6.09,4.404l-0.076,-0.308l-1.155,-0l-0.084,0.894c0.234,-0.121 0.48,-0.182 0.74,-0.182c0.299,-0 0.563,0.06 0.79,0.181c0.227,0.12 0.403,0.288 0.527,0.502c0.124,0.214 0.186,0.447 0.186,0.7c0,0.291 -0.066,0.549 -0.2,0.774c-0.134,0.224 -0.324,0.395 -0.571,0.513c-0.247,0.118 -0.535,0.176 -0.864,0.176c-0.445,0 -0.807,-0.108 -1.086,-0.323c-0.28,-0.216 -0.447,-0.518 -0.501,-0.905l0.903,-0.109c0.066,0.409 0.272,0.614 0.62,0.614c0.207,-0 0.365,-0.058 0.474,-0.174c0.108,-0.116 0.163,-0.281 0.163,-0.496c-0,-0.475 -0.205,-0.713 -0.615,-0.713c-0.241,0 -0.444,0.113 -0.608,0.34l-0.746,-0.368l0.148,-2.148l2.673,0l0,1.032l-0.718,0Z" style="fill:#f9e4e3;fill-rule:nonzero;"/></svg>