<?xml version="1.0" encoding="UTF-8" standalone="no"?><!DOCTYPE svg PUBLIC "-//W3C//DTD SVG 1.1//EN" "http://www.w3.org/Graphics/SVG/1.1/DTD/svg11.dtd"><svg width="100%" height="100%" viewBox="0 0 11 11" version="1.1" xmlns="http://www.w3.org/2000/svg" xmlns:xlink="http://www.w3.org/1999/xlink" xml:space="preserve" xmlns:serif="http://www.serif.com/" style="fill-rule:evenodd;clip-rule:evenodd;stroke-linejoin:round;stroke-miterlimit:2;"><rect id="d7_2" x="0.158" y="0.167" width="10.56" height="10.56" style="fill:none;"/><g><path d="M3.83,1.964c0.365,-0.534 0.971,-0.853 1.618,-0.85c0.648,0.002 1.251,0.324 1.614,0.86c1.047,1.552 2.351,3.483 3.079,4.562c0.145,0.214 0.194,0.478 0.136,0.73c-0.058,0.252 -0.218,0.468 -0.442,0.598c-0.912,0.527 -2.351,1.36 -3.337,1.931c-0.67,0.387 -1.495,0.387 -2.164,-0c-0.985,-0.57 -2.42,-1.4 -3.332,-1.928c-0.225,-0.13 -0.385,-0.347 -0.442,-0.6c-0.058,-0.254 -0.007,-0.519 0.14,-0.733c0.74,-1.081 2.066,-3.017 3.13,-4.57Z" style="fill:#bd8a8a;"/><circle cx="5.416" cy="5.727" r="2.676" style="fill:#a05959;"/></g><path d="M6.952,4.619c0,0.215 -0.048,0.402 -0.144,0.561c-0.096,0.159 -0.226,0.303 -0.388,0.433c-0.163,0.13 -0.4,0.288 -0.71,0.475c-0.505,0.311 -0.784,0.617 -0.838,0.92l1.276,0l-0,-0.547l0.855,0l-0.051,1.271l-3.079,-0c0,-0.376 0.045,-0.685 0.135,-0.928c0.089,-0.244 0.231,-0.466 0.425,-0.669c0.193,-0.203 0.478,-0.444 0.854,-0.722c0.198,-0.146 0.349,-0.287 0.452,-0.424c0.104,-0.136 0.156,-0.277 0.156,-0.421c0,-0.142 -0.041,-0.249 -0.123,-0.322c-0.083,-0.073 -0.2,-0.109 -0.354,-0.109c-0.198,-0 -0.345,0.068 -0.441,0.206c-0.097,0.137 -0.154,0.361 -0.173,0.671l-0.878,-0.033c0.012,-0.522 0.145,-0.911 0.401,-1.167c0.257,-0.256 0.64,-0.384 1.15,-0.384c0.458,-0 0.819,0.105 1.081,0.315c0.263,0.211 0.394,0.502 0.394,0.874Z" style="fill:#fff;fill-rule:nonzero;"/></svg>