<?xml version="1.0" encoding="UTF-8" standalone="no"?><!DOCTYPE svg PUBLIC "-//W3C//DTD SVG 1.1//EN" "http://www.w3.org/Graphics/SVG/1.1/DTD/svg11.dtd"><svg width="100%" height="100%" viewBox="0 0 11 11" version="1.1" xmlns="http://www.w3.org/2000/svg" xmlns:xlink="http://www.w3.org/1999/xlink" xml:space="preserve" xmlns:serif="http://www.serif.com/" style="fill-rule:evenodd;clip-rule:evenodd;stroke-linejoin:round;stroke-miterlimit:2;"><rect id="d7_3" x="0.072" y="0.167" width="10.56" height="10.56" style="fill:none;"/><g><path d="M3.744,1.964c0.365,-0.534 0.972,-0.853 1.619,-0.85c0.647,0.002 1.251,0.324 1.613,0.86c1.048,1.552 2.351,3.483 3.079,4.562c0.145,0.214 0.194,0.478 0.136,0.73c-0.058,0.252 -0.218,0.468 -0.442,0.598c-0.912,0.527 -2.351,1.36 -3.337,1.931c-0.67,0.387 -1.495,0.387 -2.164,-0c-0.984,-0.57 -2.42,-1.4 -3.332,-1.928c-0.224,-0.13 -0.385,-0.347 -0.442,-0.6c-0.057,-0.254 -0.007,-0.519 0.14,-0.733c0.74,-1.081 2.066,-3.017 3.13,-4.57Z" style="fill:#676767;"/><circle cx="5.33" cy="5.727" r="2.676" style="fill:#8e8e8e;"/></g><path d="M6.798,4.535c-0,0.424 -0.212,0.735 -0.637,0.934c0.531,0.181 0.797,0.517 0.797,1.006c-0,0.253 -0.068,0.477 -0.204,0.672c-0.135,0.195 -0.324,0.346 -0.565,0.453c-0.241,0.107 -0.513,0.16 -0.816,0.16c-1.011,-0 -1.554,-0.461 -1.626,-1.383l0.919,-0.075c0.004,0.493 0.207,0.74 0.609,0.74c0.185,-0 0.336,-0.058 0.451,-0.174c0.116,-0.116 0.174,-0.259 0.174,-0.429c0,-0.176 -0.061,-0.318 -0.183,-0.428c-0.123,-0.109 -0.296,-0.164 -0.521,-0.164c-0.035,0 -0.114,0.005 -0.235,0.014l-0,-0.771c0.26,-0.004 0.463,-0.05 0.608,-0.137c0.146,-0.088 0.219,-0.214 0.219,-0.379c0,-0.131 -0.049,-0.237 -0.147,-0.32c-0.098,-0.082 -0.222,-0.123 -0.372,-0.123c-0.336,-0 -0.504,0.188 -0.504,0.564l-0.889,-0.076c0.029,-0.383 0.173,-0.682 0.431,-0.896c0.258,-0.214 0.599,-0.321 1.021,-0.321c0.447,-0 0.804,0.101 1.07,0.304c0.267,0.203 0.4,0.479 0.4,0.829Z" style="fill:#fff;fill-rule:nonzero;"/></svg>