<?xml version="1.0" encoding="UTF-8" standalone="no"?><!DOCTYPE svg PUBLIC "-//W3C//DTD SVG 1.1//EN" "http://www.w3.org/Graphics/SVG/1.1/DTD/svg11.dtd"><svg width="100%" height="100%" viewBox="0 0 11 11" version="1.1" xmlns="http://www.w3.org/2000/svg" xmlns:xlink="http://www.w3.org/1999/xlink" xml:space="preserve" xmlns:serif="http://www.serif.com/" style="fill-rule:evenodd;clip-rule:evenodd;stroke-linejoin:round;stroke-miterlimit:2;"><rect id="d7_4" x="0.227" y="0.167" width="10.56" height="10.56" style="fill:none;"/><g><path d="M3.899,1.964c0.366,-0.534 0.972,-0.853 1.619,-0.85c0.647,0.002 1.251,0.324 1.613,0.86c1.048,1.552 2.351,3.483 3.079,4.562c0.145,0.214 0.194,0.478 0.136,0.73c-0.058,0.252 -0.218,0.468 -0.441,0.598c-0.912,0.527 -2.351,1.36 -3.338,1.931c-0.669,0.387 -1.494,0.387 -2.164,-0c-0.984,-0.57 -2.419,-1.4 -3.332,-1.928c-0.224,-0.13 -0.384,-0.347 -0.442,-0.6c-0.057,-0.254 -0.006,-0.519 0.14,-0.733c0.741,-1.081 2.066,-3.017 3.13,-4.57Z" style="fill:#676767;"/><circle cx="5.485" cy="5.727" r="2.676" style="fill:#8e8e8e;"/></g><path d="M6.873,5.895l0,0.687l-0.448,-0l-0,0.482l0.392,0l0,0.668l-1.873,-0l0,-0.668l0.51,0l0,-0.482l-1.744,-0c-0.093,-0.26 -0.17,-0.447 -0.23,-0.561l2.033,-2.591l0.912,-0l-0,2.465l0.448,-0Zm-2.394,-0l0.975,-0l0,-1.22l-0.975,1.22Z" style="fill:#fff;fill-rule:nonzero;"/></svg>