<?xml version="1.0" encoding="UTF-8" standalone="no"?><!DOCTYPE svg PUBLIC "-//W3C//DTD SVG 1.1//EN" "http://www.w3.org/Graphics/SVG/1.1/DTD/svg11.dtd"><svg width="100%" height="100%" viewBox="0 0 11 11" version="1.1" xmlns="http://www.w3.org/2000/svg" xmlns:xlink="http://www.w3.org/1999/xlink" xml:space="preserve" xmlns:serif="http://www.serif.com/" style="fill-rule:evenodd;clip-rule:evenodd;stroke-linejoin:round;stroke-miterlimit:2;"><rect id="d7_5" x="0.074" y="0.167" width="10.56" height="10.56" style="fill:none;"/><g><path d="M3.746,1.964c0.365,-0.534 0.971,-0.853 1.618,-0.85c0.647,0.002 1.251,0.324 1.613,0.86c1.048,1.552 2.352,3.483 3.08,4.562c0.145,0.214 0.194,0.478 0.136,0.73c-0.058,0.252 -0.218,0.468 -0.442,0.598c-0.912,0.527 -2.351,1.36 -3.337,1.931c-0.67,0.387 -1.495,0.387 -2.164,-0c-0.985,-0.57 -2.42,-1.4 -3.332,-1.928c-0.225,-0.13 -0.385,-0.347 -0.442,-0.6c-0.058,-0.254 -0.007,-0.519 0.14,-0.733c0.74,-1.081 2.066,-3.017 3.13,-4.57Z" style="fill:#bd8a8a;"/><circle cx="5.332" cy="5.727" r="2.676" style="fill:#a05959;"/></g><path d="M6.037,4.472l-0.076,-0.309l-1.155,0l-0.084,0.895c0.233,-0.122 0.48,-0.183 0.74,-0.183c0.299,0 0.562,0.061 0.789,0.181c0.228,0.121 0.403,0.288 0.528,0.502c0.124,0.214 0.186,0.448 0.186,0.7c0,0.292 -0.067,0.55 -0.2,0.774c-0.134,0.224 -0.324,0.395 -0.571,0.513c-0.247,0.118 -0.535,0.177 -0.864,0.177c-0.445,-0 -0.807,-0.108 -1.087,-0.324c-0.279,-0.216 -0.446,-0.517 -0.5,-0.904l0.903,-0.11c0.065,0.41 0.272,0.614 0.62,0.614c0.207,0 0.365,-0.058 0.474,-0.173c0.108,-0.116 0.162,-0.282 0.162,-0.497c0,-0.475 -0.205,-0.712 -0.614,-0.712c-0.241,-0 -0.444,0.113 -0.609,0.339l-0.746,-0.367l0.149,-2.148l2.673,-0l-0,1.032l-0.718,-0Z" style="fill:#fff;fill-rule:nonzero;"/></svg>