<?xml version="1.0" encoding="UTF-8" standalone="no"?><!DOCTYPE svg PUBLIC "-//W3C//DTD SVG 1.1//EN" "http://www.w3.org/Graphics/SVG/1.1/DTD/svg11.dtd"><svg width="100%" height="100%" viewBox="0 0 11 11" version="1.1" xmlns="http://www.w3.org/2000/svg" xmlns:xlink="http://www.w3.org/1999/xlink" xml:space="preserve" xmlns:serif="http://www.serif.com/" style="fill-rule:evenodd;clip-rule:evenodd;stroke-linejoin:round;stroke-miterlimit:2;"><rect id="d7_6" x="0.126" y="0.167" width="10.56" height="10.56" style="fill:none;"/><g><path d="M3.798,1.964c0.366,-0.534 0.972,-0.853 1.619,-0.85c0.647,0.002 1.251,0.324 1.613,0.86c1.048,1.552 2.351,3.483 3.08,4.562c0.144,0.214 0.193,0.478 0.135,0.73c-0.058,0.252 -0.218,0.468 -0.441,0.598c-0.912,0.527 -2.351,1.36 -3.338,1.931c-0.669,0.387 -1.494,0.387 -2.164,-0c-0.984,-0.57 -2.419,-1.4 -3.332,-1.928c-0.224,-0.13 -0.384,-0.347 -0.442,-0.6c-0.057,-0.254 -0.006,-0.519 0.14,-0.733c0.741,-1.081 2.067,-3.017 3.13,-4.57Z" style="fill:#676767;"/><circle cx="5.384" cy="5.727" r="2.676" style="fill:#8e8e8e;"/></g><path d="M6.932,4.563l-0.833,0.073c-0.095,-0.352 -0.279,-0.528 -0.552,-0.528c-0.202,0 -0.364,0.093 -0.487,0.279c-0.122,0.187 -0.196,0.452 -0.22,0.796c0.226,-0.146 0.487,-0.219 0.782,-0.219c0.268,-0 0.505,0.058 0.711,0.175c0.207,0.117 0.368,0.276 0.483,0.477c0.115,0.201 0.172,0.428 0.172,0.68c0,0.452 -0.13,0.809 -0.39,1.071c-0.26,0.262 -0.618,0.393 -1.074,0.393c-0.581,-0 -1.01,-0.173 -1.286,-0.519c-0.275,-0.346 -0.413,-0.882 -0.413,-1.61c-0,-0.731 0.149,-1.285 0.447,-1.663c0.298,-0.377 0.737,-0.566 1.317,-0.566c0.804,-0 1.251,0.387 1.343,1.161Zm-2.098,1.309c0,0.414 0.057,0.711 0.17,0.892c0.113,0.182 0.285,0.272 0.515,0.272c0.149,0 0.271,-0.059 0.364,-0.178c0.094,-0.119 0.14,-0.286 0.14,-0.503c0,-0.204 -0.052,-0.361 -0.157,-0.473c-0.104,-0.111 -0.249,-0.167 -0.434,-0.167c-0.176,0 -0.375,0.053 -0.598,0.157Z" style="fill:#fff;fill-rule:nonzero;"/></svg>