<?xml version="1.0" encoding="UTF-8" standalone="no"?><!DOCTYPE svg PUBLIC "-//W3C//DTD SVG 1.1//EN" "http://www.w3.org/Graphics/SVG/1.1/DTD/svg11.dtd"><svg width="100%" height="100%" viewBox="0 0 11 11" version="1.1" xmlns="http://www.w3.org/2000/svg" xmlns:xlink="http://www.w3.org/1999/xlink" xml:space="preserve" xmlns:serif="http://www.serif.com/" style="fill-rule:evenodd;clip-rule:evenodd;stroke-linejoin:round;stroke-miterlimit:2;"><rect id="d7_7" x="0.124" y="0.167" width="10.56" height="10.56" style="fill:none;"/><g><path d="M3.796,1.964c0.366,-0.534 0.972,-0.853 1.619,-0.85c0.647,0.002 1.251,0.324 1.613,0.86c1.048,1.552 2.351,3.483 3.079,4.562c0.145,0.214 0.194,0.478 0.136,0.73c-0.058,0.252 -0.218,0.468 -0.441,0.598c-0.912,0.527 -2.352,1.36 -3.338,1.931c-0.669,0.387 -1.494,0.387 -2.164,-0c-0.984,-0.57 -2.419,-1.4 -3.332,-1.928c-0.224,-0.13 -0.385,-0.347 -0.442,-0.6c-0.057,-0.254 -0.007,-0.519 0.14,-0.733c0.741,-1.081 2.066,-3.017 3.13,-4.57Z" style="fill:#676767;"/><circle cx="5.382" cy="5.727" r="2.676" style="fill:#8e8e8e;"/></g><path d="M5.766,6.97l0.609,0l-0,0.724l-2.258,-0l0,-0.724l0.581,0c0.061,-0.486 0.205,-0.98 0.431,-1.482c0.227,-0.502 0.512,-0.94 0.856,-1.314l-1.391,0l-0,0.584l-0.774,-0l-0,-1.29l3.169,-0l-0,0.544c-0.217,0.207 -0.419,0.481 -0.605,0.821c-0.186,0.341 -0.333,0.702 -0.443,1.083c-0.109,0.381 -0.168,0.733 -0.175,1.054Z" style="fill:#fff;fill-rule:nonzero;"/></svg>