<?xml version="1.0" encoding="UTF-8" standalone="no"?><!DOCTYPE svg PUBLIC "-//W3C//DTD SVG 1.1//EN" "http://www.w3.org/Graphics/SVG/1.1/DTD/svg11.dtd"><svg width="100%" height="100%" viewBox="0 0 11 11" version="1.1" xmlns="http://www.w3.org/2000/svg" xmlns:xlink="http://www.w3.org/1999/xlink" xml:space="preserve" xmlns:serif="http://www.serif.com/" style="fill-rule:evenodd;clip-rule:evenodd;stroke-linejoin:round;stroke-miterlimit:2;"><rect id="d8_2" x="0.111" y="0.05" width="10.56" height="10.56" style="fill:none;"/><g><path d="M4.967,1.052c0.101,-0.133 0.258,-0.211 0.424,-0.211c0.167,-0 0.324,0.078 0.424,0.211c0.764,1.011 2.351,3.111 2.974,3.935c0.153,0.203 0.153,0.483 -0,0.686c-0.623,0.825 -2.21,2.924 -2.974,3.935c-0.1,0.133 -0.257,0.211 -0.424,0.211c-0.166,0 -0.323,-0.078 -0.424,-0.211c-0.764,-1.011 -2.35,-3.11 -2.973,-3.935c-0.153,-0.203 -0.153,-0.483 -0,-0.686c0.623,-0.824 2.209,-2.924 2.973,-3.935Z" style="fill:#676767;"/><path d="M5.091,1.346c0.066,-0.122 0.194,-0.199 0.333,-0.199c0.139,0 0.267,0.077 0.333,0.199c0.591,1.097 1.818,3.371 2.385,4.424c0.064,0.117 0.061,0.259 -0.008,0.374c-0.068,0.114 -0.191,0.184 -0.324,0.184l-4.772,-0c-0.133,-0 -0.257,-0.07 -0.325,-0.184c-0.068,-0.115 -0.071,-0.257 -0.008,-0.374c0.568,-1.053 1.794,-3.327 2.386,-4.424Z" style="fill:#8e8e8e;"/></g><path d="M6.906,4.34c-0,0.215 -0.048,0.402 -0.145,0.561c-0.096,0.159 -0.226,0.303 -0.388,0.433c-0.163,0.13 -0.399,0.289 -0.71,0.476c-0.504,0.31 -0.784,0.617 -0.838,0.92l1.276,-0l-0,-0.547l0.855,-0l-0.05,1.27l-3.08,0c0,-0.376 0.045,-0.685 0.135,-0.928c0.09,-0.243 0.231,-0.466 0.425,-0.669c0.193,-0.203 0.478,-0.444 0.854,-0.722c0.198,-0.146 0.349,-0.287 0.453,-0.424c0.104,-0.136 0.155,-0.276 0.155,-0.42c0,-0.142 -0.041,-0.25 -0.123,-0.323c-0.082,-0.073 -0.2,-0.109 -0.353,-0.109c-0.199,-0 -0.346,0.069 -0.442,0.206c-0.096,0.137 -0.154,0.361 -0.173,0.672l-0.877,-0.034c0.011,-0.522 0.145,-0.911 0.401,-1.167c0.256,-0.256 0.639,-0.384 1.15,-0.384c0.458,0 0.818,0.105 1.081,0.316c0.262,0.21 0.394,0.501 0.394,0.873Z" style="fill:#fff;fill-rule:nonzero;"/></svg>