<?xml version="1.0" encoding="UTF-8" standalone="no"?><!DOCTYPE svg PUBLIC "-//W3C//DTD SVG 1.1//EN" "http://www.w3.org/Graphics/SVG/1.1/DTD/svg11.dtd"><svg width="100%" height="100%" viewBox="0 0 11 11" version="1.1" xmlns="http://www.w3.org/2000/svg" xmlns:xlink="http://www.w3.org/1999/xlink" xml:space="preserve" xmlns:serif="http://www.serif.com/" style="fill-rule:evenodd;clip-rule:evenodd;stroke-linejoin:round;stroke-miterlimit:2;"><rect id="d8_3" x="0.099" y="0.05" width="10.56" height="10.56" style="fill:none;"/><g><path d="M4.954,1.052c0.101,-0.133 0.258,-0.211 0.425,-0.211c0.166,-0 0.323,0.078 0.424,0.211c0.764,1.011 2.35,3.111 2.973,3.935c0.153,0.203 0.153,0.483 -0,0.686c-0.623,0.825 -2.209,2.924 -2.973,3.935c-0.101,0.133 -0.258,0.211 -0.424,0.211c-0.167,0 -0.324,-0.078 -0.425,-0.211c-0.764,-1.011 -2.35,-3.11 -2.973,-3.935c-0.153,-0.203 -0.153,-0.483 0,-0.686c0.623,-0.824 2.209,-2.924 2.973,-3.935Z" style="fill:#658e46;"/><path d="M5.078,1.346c0.066,-0.122 0.194,-0.199 0.333,-0.199c0.139,0 0.267,0.077 0.333,0.199c0.592,1.097 1.818,3.371 2.386,4.424c0.063,0.117 0.06,0.259 -0.008,0.374c-0.069,0.114 -0.192,0.184 -0.325,0.184l-4.772,-0c-0.133,-0 -0.256,-0.07 -0.325,-0.184c-0.068,-0.115 -0.071,-0.257 -0.008,-0.374c0.568,-1.053 1.794,-3.327 2.386,-4.424Z" style="fill:#457620;"/></g><path d="M6.824,4.284c0,0.425 -0.212,0.736 -0.636,0.934c0.531,0.181 0.796,0.517 0.796,1.007c0,0.252 -0.068,0.476 -0.203,0.671c-0.136,0.196 -0.324,0.347 -0.565,0.453c-0.242,0.107 -0.514,0.16 -0.816,0.16c-1.012,0 -1.554,-0.461 -1.627,-1.382l0.92,-0.076c0.004,0.493 0.206,0.74 0.608,0.74c0.186,0 0.336,-0.058 0.452,-0.174c0.116,-0.116 0.174,-0.259 0.174,-0.429c-0,-0.175 -0.061,-0.318 -0.184,-0.427c-0.122,-0.11 -0.296,-0.164 -0.52,-0.164c-0.036,-0 -0.114,0.004 -0.236,0.014l0,-0.772c0.26,-0.003 0.463,-0.049 0.609,-0.137c0.146,-0.088 0.219,-0.214 0.219,-0.379c-0,-0.13 -0.049,-0.237 -0.148,-0.319c-0.098,-0.083 -0.222,-0.124 -0.371,-0.124c-0.337,0 -0.505,0.188 -0.505,0.564l-0.889,-0.076c0.03,-0.383 0.174,-0.682 0.432,-0.896c0.258,-0.214 0.598,-0.321 1.021,-0.321c0.447,0 0.803,0.102 1.07,0.304c0.266,0.203 0.399,0.479 0.399,0.829Z" style="fill:#dcecd1;fill-rule:nonzero;"/></svg>