<?xml version="1.0" encoding="UTF-8" standalone="no"?><!DOCTYPE svg PUBLIC "-//W3C//DTD SVG 1.1//EN" "http://www.w3.org/Graphics/SVG/1.1/DTD/svg11.dtd"><svg width="100%" height="100%" viewBox="0 0 11 11" version="1.1" xmlns="http://www.w3.org/2000/svg" xmlns:xlink="http://www.w3.org/1999/xlink" xml:space="preserve" xmlns:serif="http://www.serif.com/" style="fill-rule:evenodd;clip-rule:evenodd;stroke-linejoin:round;stroke-miterlimit:2;"><rect id="d8_4" x="0.107" y="0.05" width="10.56" height="10.56" style="fill:none;"/><g><path d="M4.963,1.052c0.1,-0.133 0.257,-0.211 0.424,-0.211c0.166,-0 0.323,0.078 0.424,0.211c0.764,1.011 2.35,3.111 2.973,3.935c0.153,0.203 0.153,0.483 0,0.686c-0.623,0.825 -2.209,2.924 -2.973,3.935c-0.101,0.133 -0.258,0.211 -0.424,0.211c-0.167,0 -0.324,-0.078 -0.424,-0.211c-0.764,-1.011 -2.351,-3.11 -2.974,-3.935c-0.153,-0.203 -0.153,-0.483 0,-0.686c0.623,-0.824 2.21,-2.924 2.974,-3.935Z" style="fill:#658e46;"/><path d="M5.086,1.346c0.066,-0.122 0.194,-0.199 0.333,-0.199c0.139,0 0.267,0.077 0.333,0.199c0.592,1.097 1.818,3.371 2.386,4.424c0.063,0.117 0.06,0.259 -0.008,0.374c-0.069,0.114 -0.192,0.184 -0.325,0.184l-4.772,-0c-0.133,-0 -0.256,-0.07 -0.324,-0.184c-0.069,-0.115 -0.072,-0.257 -0.009,-0.374c0.568,-1.053 1.795,-3.327 2.386,-4.424Z" style="fill:#457620;"/></g><path d="M6.705,5.616l0,0.687l-0.448,0l-0,0.483l0.392,-0l0,0.667l-1.873,0l-0,-0.667l0.51,-0l0,-0.483l-1.744,0c-0.093,-0.26 -0.17,-0.447 -0.23,-0.561l2.033,-2.591l0.912,0l-0,2.465l0.448,0Zm-2.395,0l0.976,0l0,-1.22l-0.976,1.22Z" style="fill:#dcecd1;fill-rule:nonzero;"/></svg>