<?xml version="1.0" encoding="UTF-8" standalone="no"?><!DOCTYPE svg PUBLIC "-//W3C//DTD SVG 1.1//EN" "http://www.w3.org/Graphics/SVG/1.1/DTD/svg11.dtd"><svg width="100%" height="100%" viewBox="0 0 11 11" version="1.1" xmlns="http://www.w3.org/2000/svg" xmlns:xlink="http://www.w3.org/1999/xlink" xml:space="preserve" xmlns:serif="http://www.serif.com/" style="fill-rule:evenodd;clip-rule:evenodd;stroke-linejoin:round;stroke-miterlimit:2;"><rect id="d8_5" x="0.024" y="0.05" width="10.56" height="10.56" style="fill:none;"/><g><path d="M4.88,1.052c0.1,-0.133 0.257,-0.211 0.424,-0.211c0.166,-0 0.323,0.078 0.424,0.211c0.764,1.011 2.35,3.111 2.973,3.935c0.153,0.203 0.153,0.483 0,0.686c-0.623,0.825 -2.209,2.924 -2.973,3.935c-0.101,0.133 -0.258,0.211 -0.424,0.211c-0.167,0 -0.324,-0.078 -0.424,-0.211c-0.765,-1.011 -2.351,-3.11 -2.974,-3.935c-0.153,-0.203 -0.153,-0.483 0,-0.686c0.623,-0.824 2.209,-2.924 2.974,-3.935Z" style="fill:#658e46;"/><path d="M5.003,1.346c0.066,-0.122 0.194,-0.199 0.333,-0.199c0.139,0 0.267,0.077 0.333,0.199c0.592,1.097 1.818,3.371 2.386,4.424c0.063,0.117 0.06,0.259 -0.008,0.374c-0.069,0.114 -0.192,0.184 -0.325,0.184l-4.772,-0c-0.133,-0 -0.256,-0.07 -0.324,-0.184c-0.069,-0.115 -0.072,-0.257 -0.009,-0.374c0.568,-1.053 1.794,-3.327 2.386,-4.424Z" style="fill:#457620;"/></g><path d="M5.987,4.259l-0.076,-0.309l-1.156,0l-0.084,0.895c0.234,-0.122 0.481,-0.182 0.741,-0.182c0.299,-0 0.562,0.06 0.789,0.181c0.227,0.12 0.403,0.288 0.527,0.502c0.125,0.214 0.187,0.447 0.187,0.699c-0,0.292 -0.067,0.55 -0.201,0.774c-0.133,0.225 -0.324,0.396 -0.57,0.514c-0.247,0.117 -0.535,0.176 -0.864,0.176c-0.445,0 -0.807,-0.108 -1.087,-0.324c-0.279,-0.216 -0.446,-0.517 -0.5,-0.904l0.903,-0.11c0.065,0.41 0.272,0.615 0.619,0.615c0.208,-0 0.366,-0.058 0.474,-0.174c0.109,-0.116 0.163,-0.282 0.163,-0.497c-0,-0.474 -0.205,-0.712 -0.614,-0.712c-0.241,0 -0.444,0.113 -0.609,0.339l-0.746,-0.367l0.149,-2.148l2.672,-0l0,1.032l-0.717,-0Z" style="fill:#dcecd1;fill-rule:nonzero;"/></svg>