<?xml version="1.0" encoding="UTF-8" standalone="no"?><!DOCTYPE svg PUBLIC "-//W3C//DTD SVG 1.1//EN" "http://www.w3.org/Graphics/SVG/1.1/DTD/svg11.dtd"><svg width="100%" height="100%" viewBox="0 0 11 11" version="1.1" xmlns="http://www.w3.org/2000/svg" xmlns:xlink="http://www.w3.org/1999/xlink" xml:space="preserve" xmlns:serif="http://www.serif.com/" style="fill-rule:evenodd;clip-rule:evenodd;stroke-linejoin:round;stroke-miterlimit:2;"><rect id="d8_6" x="0.008" y="0.05" width="10.56" height="10.56" style="fill:none;"/><g><path d="M4.864,1.052c0.101,-0.133 0.258,-0.211 0.424,-0.211c0.167,-0 0.324,0.078 0.424,0.211c0.764,1.011 2.351,3.111 2.974,3.935c0.153,0.203 0.153,0.483 -0,0.686c-0.623,0.825 -2.21,2.924 -2.974,3.935c-0.1,0.133 -0.257,0.211 -0.424,0.211c-0.166,0 -0.323,-0.078 -0.424,-0.211c-0.764,-1.011 -2.35,-3.11 -2.973,-3.935c-0.154,-0.203 -0.154,-0.483 -0,-0.686c0.623,-0.824 2.209,-2.924 2.973,-3.935Z" style="fill:#658e46;"/><path d="M4.988,1.346c0.066,-0.122 0.194,-0.199 0.333,-0.199c0.139,0 0.267,0.077 0.333,0.199c0.591,1.097 1.817,3.371 2.385,4.424c0.064,0.117 0.06,0.259 -0.008,0.374c-0.068,0.114 -0.191,0.184 -0.325,0.184l-4.771,-0c-0.133,-0 -0.257,-0.07 -0.325,-0.184c-0.068,-0.115 -0.071,-0.257 -0.008,-0.374c0.568,-1.053 1.794,-3.327 2.386,-4.424Z" style="fill:#457620;"/></g><path d="M6.814,4.312l-0.833,0.073c-0.095,-0.351 -0.28,-0.527 -0.553,-0.527c-0.201,-0 -0.364,0.093 -0.486,0.279c-0.123,0.186 -0.196,0.451 -0.22,0.795c0.226,-0.146 0.487,-0.219 0.782,-0.219c0.267,0 0.504,0.059 0.711,0.175c0.207,0.117 0.367,0.276 0.482,0.477c0.115,0.201 0.173,0.428 0.173,0.68c-0,0.453 -0.13,0.81 -0.39,1.072c-0.26,0.261 -0.618,0.392 -1.074,0.392c-0.581,0 -1.01,-0.173 -1.286,-0.519c-0.276,-0.345 -0.413,-0.882 -0.413,-1.609c-0,-0.731 0.149,-1.286 0.447,-1.663c0.298,-0.378 0.737,-0.567 1.316,-0.567c0.804,0 1.252,0.387 1.344,1.161Zm-2.098,1.31c0,0.413 0.057,0.71 0.17,0.892c0.113,0.181 0.284,0.272 0.514,0.272c0.15,-0 0.271,-0.06 0.365,-0.178c0.093,-0.119 0.14,-0.287 0.14,-0.504c0,-0.204 -0.052,-0.361 -0.157,-0.472c-0.105,-0.112 -0.249,-0.167 -0.435,-0.167c-0.175,-0 -0.374,0.052 -0.597,0.157Z" style="fill:#dcecd1;fill-rule:nonzero;"/></svg>