<?xml version="1.0" encoding="UTF-8" standalone="no"?><!DOCTYPE svg PUBLIC "-//W3C//DTD SVG 1.1//EN" "http://www.w3.org/Graphics/SVG/1.1/DTD/svg11.dtd"><svg width="100%" height="100%" viewBox="0 0 11 11" version="1.1" xmlns="http://www.w3.org/2000/svg" xmlns:xlink="http://www.w3.org/1999/xlink" xml:space="preserve" xmlns:serif="http://www.serif.com/" style="fill-rule:evenodd;clip-rule:evenodd;stroke-linejoin:round;stroke-miterlimit:2;"><rect id="d8_7" x="0.235" y="0.05" width="10.56" height="10.56" style="fill:none;"/><g><path d="M5.091,1.052c0.101,-0.133 0.258,-0.211 0.424,-0.211c0.167,-0 0.324,0.078 0.425,0.211c0.764,1.011 2.35,3.111 2.973,3.935c0.153,0.203 0.153,0.483 -0,0.686c-0.623,0.825 -2.209,2.924 -2.973,3.935c-0.101,0.133 -0.258,0.211 -0.425,0.211c-0.166,0 -0.323,-0.078 -0.424,-0.211c-0.764,-1.011 -2.35,-3.11 -2.973,-3.935c-0.153,-0.203 -0.153,-0.483 0,-0.686c0.623,-0.824 2.209,-2.924 2.973,-3.935Z" style="fill:#676767;"/><path d="M5.215,1.346c0.066,-0.122 0.194,-0.199 0.333,-0.199c0.139,0 0.267,0.077 0.333,0.199c0.592,1.097 1.818,3.371 2.386,4.424c0.063,0.117 0.06,0.259 -0.009,0.374c-0.068,0.114 -0.191,0.184 -0.324,0.184l-4.772,-0c-0.133,-0 -0.256,-0.07 -0.325,-0.184c-0.068,-0.115 -0.071,-0.257 -0.008,-0.374c0.568,-1.053 1.794,-3.327 2.386,-4.424Z" style="fill:#8e8e8e;"/></g><path d="M5.877,6.73l0.609,-0l-0,0.723l-2.258,0l0,-0.723l0.581,-0c0.061,-0.487 0.205,-0.981 0.432,-1.483c0.226,-0.502 0.511,-0.94 0.855,-1.313l-1.391,-0l-0,0.583l-0.774,-0l-0,-1.29l3.169,-0l-0,0.544c-0.217,0.207 -0.418,0.481 -0.604,0.822c-0.186,0.34 -0.334,0.701 -0.443,1.082c-0.11,0.382 -0.168,0.733 -0.176,1.055Z" style="fill:#fff;fill-rule:nonzero;"/></svg>