<?xml version="1.0" encoding="UTF-8" standalone="no"?><!DOCTYPE svg PUBLIC "-//W3C//DTD SVG 1.1//EN" "http://www.w3.org/Graphics/SVG/1.1/DTD/svg11.dtd"><svg width="100%" height="100%" viewBox="0 0 11 11" version="1.1" xmlns="http://www.w3.org/2000/svg" xmlns:xlink="http://www.w3.org/1999/xlink" xml:space="preserve" xmlns:serif="http://www.serif.com/" style="fill-rule:evenodd;clip-rule:evenodd;stroke-linejoin:round;stroke-miterlimit:2;"><rect id="d14_9" x="0.174" y="0.051" width="10.56" height="10.56" style="fill:none;"/><g><path d="M5.307,0.491c0.094,-0.04 0.2,-0.04 0.295,-0c0.567,0.235 2.603,1.078 3.17,1.313c0.095,0.039 0.17,0.114 0.209,0.209c0.235,0.567 1.078,2.603 1.313,3.17c0.039,0.095 0.039,0.201 0,0.295c-0.235,0.568 -1.078,2.603 -1.313,3.171c-0.039,0.094 -0.114,0.169 -0.209,0.209c-0.567,0.234 -2.603,1.078 -3.17,1.313c-0.095,0.039 -0.201,0.039 -0.295,-0c-0.568,-0.235 -2.604,-1.079 -3.171,-1.313c-0.094,-0.04 -0.17,-0.115 -0.209,-0.209c-0.235,-0.568 -1.078,-2.603 -1.313,-3.171c-0.039,-0.094 -0.039,-0.2 0,-0.295c0.235,-0.567 1.078,-2.603 1.313,-3.17c0.039,-0.095 0.115,-0.17 0.209,-0.209c0.567,-0.235 2.603,-1.078 3.171,-1.313Z" style="fill:#676767;"/><path d="M6.88,8.614c-0.32,0.488 -0.886,0.785 -1.494,0.785c-0.609,-0 -1.174,-0.297 -1.494,-0.785c-0.556,-0.848 -1.19,-1.814 -1.76,-2.683c-0.336,-0.511 -0.351,-1.154 -0.041,-1.679c0.31,-0.525 0.897,-0.85 1.535,-0.85l3.52,-0c0.637,-0 1.225,0.325 1.535,0.85c0.31,0.525 0.294,1.168 -0.041,1.679c-0.57,0.869 -1.204,1.835 -1.76,2.683Z" style="fill:#fff;fill-opacity:0.22;"/></g><path d="M7.03,5.322c0,1.459 -0.576,2.188 -1.727,2.188c-0.391,-0 -0.708,-0.104 -0.951,-0.31c-0.243,-0.207 -0.379,-0.495 -0.407,-0.865l0.822,-0.082c0.058,0.187 0.129,0.325 0.213,0.414c0.084,0.089 0.19,0.133 0.317,0.133c0.198,0 0.358,-0.092 0.478,-0.276c0.121,-0.184 0.201,-0.452 0.24,-0.804c-0.12,0.064 -0.25,0.114 -0.391,0.15c-0.141,0.037 -0.285,0.055 -0.431,0.055c-0.256,0 -0.483,-0.06 -0.682,-0.181c-0.2,-0.12 -0.355,-0.283 -0.466,-0.488c-0.111,-0.204 -0.167,-0.425 -0.167,-0.663c0,-0.279 0.063,-0.527 0.189,-0.746c0.127,-0.219 0.304,-0.389 0.532,-0.512c0.228,-0.122 0.492,-0.183 0.791,-0.183c1.093,-0 1.64,0.723 1.64,2.17Zm-1.607,-0.126c0.172,0 0.373,-0.055 0.603,-0.165l0,-0.017c0,-0.357 -0.062,-0.637 -0.186,-0.84c-0.125,-0.203 -0.3,-0.304 -0.526,-0.304c-0.135,-0 -0.249,0.061 -0.342,0.183c-0.094,0.123 -0.14,0.282 -0.14,0.478c-0,0.202 0.054,0.364 0.164,0.484c0.109,0.121 0.252,0.181 0.427,0.181Z" style="fill:#fff;fill-rule:nonzero;"/></svg>