<?xml version="1.0" encoding="UTF-8" standalone="no"?><!DOCTYPE svg PUBLIC "-//W3C//DTD SVG 1.1//EN" "http://www.w3.org/Graphics/SVG/1.1/DTD/svg11.dtd"><svg width="100%" height="100%" viewBox="0 0 11 11" version="1.1" xmlns="http://www.w3.org/2000/svg" xmlns:xlink="http://www.w3.org/1999/xlink" xml:space="preserve" xmlns:serif="http://www.serif.com/" style="fill-rule:evenodd;clip-rule:evenodd;stroke-linejoin:round;stroke-miterlimit:2;"><rect id="d2_2" x="0.17" y="0.083" width="10.56" height="10.56" style="fill:none;"/><g><circle cx="5.658" cy="5.534" r="4.44" style="fill:#676767;"/><circle cx="5.658" cy="5.534" r="4.078" style="fill:#868686;"/></g><path d="M6.964,4.401c0,0.215 -0.048,0.402 -0.144,0.561c-0.096,0.158 -0.226,0.303 -0.388,0.433c-0.163,0.13 -0.4,0.288 -0.71,0.475c-0.505,0.311 -0.784,0.617 -0.839,0.92l1.276,0l0,-0.547l0.856,0l-0.051,1.271l-3.079,-0c0,-0.376 0.045,-0.686 0.135,-0.929c0.089,-0.243 0.231,-0.466 0.425,-0.669c0.193,-0.202 0.478,-0.443 0.854,-0.722c0.198,-0.146 0.349,-0.287 0.452,-0.423c0.104,-0.137 0.156,-0.277 0.156,-0.421c0,-0.142 -0.041,-0.249 -0.123,-0.322c-0.083,-0.073 -0.2,-0.11 -0.354,-0.11c-0.198,0 -0.345,0.069 -0.441,0.206c-0.097,0.138 -0.154,0.362 -0.173,0.672l-0.878,-0.034c0.012,-0.521 0.145,-0.91 0.401,-1.166c0.257,-0.256 0.64,-0.384 1.15,-0.384c0.458,-0 0.819,0.105 1.081,0.315c0.263,0.21 0.394,0.502 0.394,0.874Z" style="fill:#fff;fill-rule:nonzero;"/></svg>