<?xml version="1.0" encoding="UTF-8" standalone="no"?><!DOCTYPE svg PUBLIC "-//W3C//DTD SVG 1.1//EN" "http://www.w3.org/Graphics/SVG/1.1/DTD/svg11.dtd"><svg width="100%" height="100%" viewBox="0 0 11 11" version="1.1" xmlns="http://www.w3.org/2000/svg" xmlns:xlink="http://www.w3.org/1999/xlink" xml:space="preserve" xmlns:serif="http://www.serif.com/" style="fill-rule:evenodd;clip-rule:evenodd;stroke-linejoin:round;stroke-miterlimit:2;"><rect id="d3_1" x="0.127" y="0.219" width="10.56" height="10.56" style="fill:none;"/><g><path d="M8.587,1.059c0.696,-0 1.26,0.564 1.26,1.26l-0,6.36c-0,0.696 -0.564,1.26 -1.26,1.26l-6.361,-0c-0.695,-0 -1.259,-0.564 -1.259,-1.26l-0,-6.36c-0,-0.696 0.564,-1.26 1.259,-1.26l6.361,-0Z" style="fill:#676767;"/><path d="M8.081,2.176c0.358,0 0.648,0.291 0.648,0.648l0,5.349c0,0.358 -0.29,0.648 -0.648,0.649l-5.349,-0c-0.358,-0.001 -0.648,-0.291 -0.648,-0.649l0,-5.349c0,-0.357 0.29,-0.648 0.648,-0.648l5.349,0Z" style="fill:#868686;"/></g><path d="M5.795,4.503l0,1.992l0.465,-0l-0,0.512l-1.706,0l-0,-0.512l0.454,-0l0,-1.992l-0.454,-0l-0,-0.513l1.706,0l-0,0.513l-0.465,-0Z" style="fill:#fff;fill-rule:nonzero;"/></svg>