<?xml version="1.0" encoding="UTF-8" standalone="no"?><!DOCTYPE svg PUBLIC "-//W3C//DTD SVG 1.1//EN" "http://www.w3.org/Graphics/SVG/1.1/DTD/svg11.dtd"><svg width="100%" height="100%" viewBox="0 0 11 11" version="1.1" xmlns="http://www.w3.org/2000/svg" xmlns:xlink="http://www.w3.org/1999/xlink" xml:space="preserve" xmlns:serif="http://www.serif.com/" style="fill-rule:evenodd;clip-rule:evenodd;stroke-linejoin:round;stroke-miterlimit:2;"><rect id="d3_2" x="0.168" y="0.219" width="10.56" height="10.56" style="fill:none;"/><g><path d="M8.029,1.658c0.335,-0 0.655,0.132 0.891,0.369c0.236,0.236 0.369,0.556 0.369,0.89l0,5.163c0,0.335 -0.133,0.655 -0.369,0.891c-0.236,0.236 -0.556,0.369 -0.891,0.369l-5.163,0c-0.334,0 -0.654,-0.133 -0.89,-0.369c-0.237,-0.236 -0.369,-0.556 -0.369,-0.891l-0,-5.163c-0,-0.334 0.132,-0.654 0.369,-0.89c0.236,-0.237 0.556,-0.369 0.89,-0.369l5.163,-0Z" style="fill:#676767;"/><path d="M8.102,2.139c0.172,-0 0.337,0.068 0.458,0.19c0.122,0.121 0.19,0.286 0.19,0.458l0,5.33c0,0.172 -0.068,0.337 -0.19,0.459c-0.121,0.121 -0.286,0.189 -0.458,0.189l-5.33,0c-0.172,0 -0.337,-0.068 -0.458,-0.189c-0.122,-0.122 -0.19,-0.287 -0.19,-0.459l-0,-5.33c-0,-0.172 0.068,-0.337 0.19,-0.458c0.121,-0.122 0.286,-0.19 0.458,-0.19l5.33,-0Z" style="fill:#868686;"/></g><g><path d="M4.926,4.503l0,1.992l0.465,-0l-0,0.512l-1.706,0l0,-0.512l0.455,-0l-0,-1.992l-0.455,-0l0,-0.513l1.706,0l-0,0.513l-0.465,-0Z" style="fill:#fff;fill-rule:nonzero;"/><path d="M6.746,4.503l0,1.992l0.465,-0l-0,0.512l-1.706,0l0,-0.512l0.454,-0l0,-1.992l-0.454,-0l0,-0.513l1.706,0l-0,0.513l-0.465,-0Z" style="fill:#fff;fill-rule:nonzero;"/></g></svg>