<?xml version="1.0" encoding="UTF-8" standalone="no"?><!DOCTYPE svg PUBLIC "-//W3C//DTD SVG 1.1//EN" "http://www.w3.org/Graphics/SVG/1.1/DTD/svg11.dtd"><svg width="100%" height="100%" viewBox="0 0 11 11" version="1.1" xmlns="http://www.w3.org/2000/svg" xmlns:xlink="http://www.w3.org/1999/xlink" xml:space="preserve" xmlns:serif="http://www.serif.com/" style="fill-rule:evenodd;clip-rule:evenodd;stroke-linejoin:round;stroke-miterlimit:2;"><rect id="d3_2" x="0.206" y="0.205" width="10.56" height="10.56" style="fill:none;"/><g><g><path d="M8.068,1.644c0.334,0 0.654,0.133 0.89,0.369c0.237,0.236 0.369,0.557 0.369,0.891l0,5.163c0,0.334 -0.132,0.654 -0.369,0.891c-0.236,0.236 -0.556,0.369 -0.89,0.369l-5.163,-0c-0.334,-0 -0.655,-0.133 -0.891,-0.369c-0.236,-0.237 -0.369,-0.557 -0.369,-0.891l-0,-5.163c-0,-0.334 0.133,-0.655 0.369,-0.891c0.236,-0.236 0.557,-0.369 0.891,-0.369l5.163,0Z" style="fill:#676767;"/><path d="M8.14,2.125c0.172,0 0.337,0.069 0.459,0.19c0.121,0.122 0.189,0.287 0.189,0.458l0,5.331c0,0.172 -0.068,0.336 -0.189,0.458c-0.122,0.122 -0.287,0.19 -0.459,0.19l-5.33,-0c-0.172,-0 -0.337,-0.068 -0.458,-0.19c-0.122,-0.122 -0.19,-0.286 -0.19,-0.458l0,-5.331c0,-0.171 0.068,-0.336 0.19,-0.458c0.121,-0.121 0.286,-0.19 0.458,-0.19l5.33,0Z" style="fill:#868686;"/></g><g transform="matrix(4.1,0,0,4.1,7.30097,6.99379)"></g><text x="3.661px" y="6.994px" style="font-family:'Rockwell-Bold', 'Rockwell', serif;font-weight:700;font-size:4.1px;fill:#fff;">II</text></g></svg>