<?xml version="1.0" encoding="UTF-8" standalone="no"?><!DOCTYPE svg PUBLIC "-//W3C//DTD SVG 1.1//EN" "http://www.w3.org/Graphics/SVG/1.1/DTD/svg11.dtd"><svg width="100%" height="100%" viewBox="0 0 11 11" version="1.1" xmlns="http://www.w3.org/2000/svg" xmlns:xlink="http://www.w3.org/1999/xlink" xml:space="preserve" xmlns:serif="http://www.serif.com/" style="fill-rule:evenodd;clip-rule:evenodd;stroke-linejoin:round;stroke-miterlimit:2;"><rect id="d3_3" x="0.098" y="0.219" width="10.56" height="10.56" style="fill:none;"/><g><path d="M7.96,1.658c0.334,-0 0.654,0.132 0.89,0.369c0.237,0.236 0.369,0.556 0.369,0.89l0,5.163c0,0.335 -0.132,0.655 -0.369,0.891c-0.236,0.236 -0.556,0.369 -0.89,0.369l-5.163,0c-0.334,0 -0.655,-0.133 -0.891,-0.369c-0.236,-0.236 -0.369,-0.556 -0.369,-0.891l-0,-5.163c-0,-0.334 0.133,-0.654 0.369,-0.89c0.236,-0.237 0.557,-0.369 0.891,-0.369l5.163,-0Z" style="fill:#676767;"/><path d="M8.032,2.139c0.172,-0 0.337,0.068 0.459,0.19c0.121,0.121 0.189,0.286 0.189,0.458l0,5.33c0,0.172 -0.068,0.337 -0.189,0.459c-0.122,0.121 -0.287,0.189 -0.459,0.189l-5.33,0c-0.172,0 -0.337,-0.068 -0.458,-0.189c-0.122,-0.122 -0.19,-0.287 -0.19,-0.459l-0,-5.33c-0,-0.172 0.068,-0.337 0.19,-0.458c0.121,-0.122 0.286,-0.19 0.458,-0.19l5.33,-0Z" style="fill:#868686;"/></g><g><path d="M3.961,4.513l0,1.972l0.46,-0l0,0.507l-1.688,0l-0,-0.507l0.45,-0l-0,-1.972l-0.45,0l-0,-0.507l1.688,-0l0,0.507l-0.46,0Z" style="fill:#fff;fill-rule:nonzero;"/><path d="M5.763,4.513l-0,1.972l0.459,-0l0,0.507l-1.688,0l-0,-0.507l0.45,-0l-0,-1.972l-0.45,0l-0,-0.507l1.688,-0l0,0.507l-0.459,0Z" style="fill:#fff;fill-rule:nonzero;"/><path d="M7.564,4.513l-0,1.972l0.459,-0l0,0.507l-1.688,0l0,-0.507l0.45,-0l0,-1.972l-0.45,0l0,-0.507l1.688,-0l0,0.507l-0.459,0Z" style="fill:#fff;fill-rule:nonzero;"/></g></svg>