<?xml version="1.0" encoding="UTF-8" standalone="no"?><!DOCTYPE svg PUBLIC "-//W3C//DTD SVG 1.1//EN" "http://www.w3.org/Graphics/SVG/1.1/DTD/svg11.dtd"><svg width="100%" height="100%" viewBox="0 0 11 11" version="1.1" xmlns="http://www.w3.org/2000/svg" xmlns:xlink="http://www.w3.org/1999/xlink" xml:space="preserve" xmlns:serif="http://www.serif.com/" style="fill-rule:evenodd;clip-rule:evenodd;stroke-linejoin:round;stroke-miterlimit:2;"><rect id="d5_1" x="0.127" y="0.216" width="10.56" height="10.56" style="fill:none;"/><g><path d="M3.422,2.555c0.425,-0.649 1.176,-1.044 1.985,-1.044c0.808,0 1.559,0.395 1.985,1.044c0.739,1.126 1.581,2.41 2.339,3.564c0.446,0.679 0.466,1.533 0.054,2.231c-0.412,0.698 -1.192,1.13 -2.039,1.13l-4.678,0c-0.847,0 -1.628,-0.432 -2.04,-1.13c-0.412,-0.698 -0.391,-1.552 0.055,-2.231c0.757,-1.154 1.6,-2.438 2.339,-3.564Z" style="fill:#676767;"/><circle cx="5.407" cy="5.821" r="2.658" style="fill:#8e8e8e;"/></g><path d="M6.503,6.886l0,0.723l-2.154,0l0,-0.723l0.581,-0l-0,-2.78l-0.62,0l0,-0.723l1.649,-0l0,3.503l0.544,-0Z" style="fill:#fff;fill-rule:nonzero;"/></svg>